<?xml version="1.0" encoding="UTF-8"?>
<svg version="1.1" viewBox="0 0 192 192" xmlns="http://www.w3.org/2000/svg">
 <path d="m90.764 8c-1.4417-0.0067897-2.8968 0.11394-4.3535 0.37109-15.532 2.7461-25.473 19.925-22.213 38.373 3.2571 18.45 18.49 31.176 34.021 28.434 15.535-2.7522 25.489-19.925 22.229-38.375-2.96-16.716-15.747-28.737-29.684-28.803zm-1.5371 9.5664c11.084 0.04649 21.253 9.6102 23.602 22.904 2.593 14.671-5.3132 28.333-17.67 30.518-12.352 2.1851-24.474-7.934-27.061-22.607-2.5975-14.672 5.3189-28.339 17.668-30.518 1.1586-0.20528 2.3143-0.30168 3.4609-0.29688zm80.041 16.354c-5.3315-0.14716-10.782 9.4433-22.355 20.418-12.34 11.715-31.651 28.175-55.709 28.809-24.052 0.63384-49.06-21.527-56.971-29.756-7.9124-8.2293-13.93-6.0082-17.725-4.4297-3.797 1.5831-6.3326 3.4818-3.168 8.5449 3.1692 5.0646 30.068 32.605 39.566 41.463 10.968 10.232 9.8092 12.346 7.5938 27.221-2.2108 14.877-3.0909 51.324-3.1621 54.445-0.07127 3.1192 3.7982 5.3806 4.752 0.63281 0.94318-4.7508 7.1377-47.397 9.0195-59.348h-0.001953c1.8818-11.953 2.663-15.202-6.6504-23.424-8.064-7.1178-41.124-34.039-43.816-38.109-2.6885-4.0669 0.15226-5.2497 3.2578-6.7949 4.7462-2.361 11.84 6.4872 18.559 13.094 6.7235 6.6144 27.563 25.87 47.996 25.354 20.436-0.50343 40.56-16.903 50.758-26.619 16.742-15.951 23.095-28.205 28.434-26.496 3.982 1.2737 4.9182 1.2705 0.88477 6.1016-4.032 4.8311-25.907 28.178-34.988 41.854-4.8023 7.23-11.689 30.479-6.4512 51.869 3.8986 15.931 9.1311 33.303 10.225 38.721 0.72936 3.6089 5.2759 4.0464 8.1934-0.10547 2.7203-3.8697-2.3731-10.301-8.5098-28.383-8.7494-25.789 2.2616-55.361 7.5976-64.566 7.6-13.107 27.22-34.823 31.969-40.832 4.7447-6.0184-2.5305-7.9174-8.2305-9.502-0.35615-0.09885-0.71097-0.15034-1.0664-0.16016z"/>
</svg>


