<?xml version="1.0" encoding="UTF-8"?>
<svg version="1.1" viewBox="0 0 192 192" xmlns="http://www.w3.org/2000/svg">
  <path d="m95.159 70.988c-12.352 2.1851-24.474-7.9336-27.061-22.607-2.5975-14.672 5.3179-28.338 17.667-30.517 12.358-2.1896 24.472 7.9366 27.064 22.606 2.593 14.671-5.3133 28.333-17.67 30.518m25.288-34.185c-3.2662-18.445-18.498-31.175-34.036-28.432-15.532 2.7461-25.473 19.926-22.213 38.374 3.2571 18.45 18.49 31.175 34.021 28.433 15.535-2.7522 25.488-19.926 22.228-38.376"/>
  <path d="m71.108 121.92c1.8818-11.953 2.6627-15.201-6.6507-23.423-8.064-7.1178-41.125-34.041-43.817-38.111-2.6885-4.0669 0.15315-5.2481 3.2587-6.7933 4.7462-2.361 11.84 6.4855 18.559 13.092 6.7235 6.6144 27.563 25.871 47.996 25.355 20.436-0.50343 40.558-16.904 50.756-26.62 16.742-15.951 23.096-28.204 28.435-26.495 3.982 1.2737 4.9175 1.2692 0.88403 6.1003-4.032 4.8311-25.907 28.177-34.988 41.853-4.8023 7.23-11.69 30.48-6.4521 51.87 3.8986 15.931 9.1315 33.302 10.225 38.72 0.72936 3.6089 5.2769 4.0472 8.1944-0.10463 2.7203-3.8697-2.3731-10.301-8.5098-28.383-8.7494-25.789 2.2609-55.362 7.597-64.567 7.6-13.107 27.22-34.822 31.969-40.831 4.7447-6.0184-2.5308-7.9169-8.2308-9.5015-5.6985-1.5816-11.077 8.5507-23.422 20.257-12.34 11.715-31.651 28.174-55.709 28.808-24.052 0.63384-49.06-21.526-56.971-29.755-7.9124-8.2293-13.928-6.0078-17.723-4.4293-3.797 1.5831-6.3338 3.4816-3.1692 8.5447 3.1692 5.0646 30.068 32.605 39.566 41.463 10.968 10.232 9.8108 12.345 7.5954 27.22-2.2108 14.877-3.0919 51.324-3.1631 54.445-0.07127 3.1192 3.7985 5.3816 4.7523 0.63384 0.94318-4.7508 7.1375-47.398 9.0193-59.349"/>
</svg>
