<?xml version="1.0" encoding="UTF-8" standalone="no"?>
<svg
   xmlns:dc="http://purl.org/dc/elements/1.1/"
   xmlns:cc="http://creativecommons.org/ns#"
   xmlns:rdf="http://www.w3.org/1999/02/22-rdf-syntax-ns#"
   xmlns:svg="http://www.w3.org/2000/svg"
   xmlns="http://www.w3.org/2000/svg"
   viewBox="0 0 176 176"
   id="svg2"
   version="1.1">
  <metadata
     id="metadata16699">
    <rdf:RDF>
      <cc:Work
         rdf:about="">
        <dc:format>image/svg+xml</dc:format>
        <dc:type
           rdf:resource="http://purl.org/dc/dcmitype/StillImage" />
        <dc:title></dc:title>
      </cc:Work>
    </rdf:RDF>
  </metadata>
  <defs
     id="defs16697" />
  <g
     style="fill:#000000"
     id="g5168"
     transform="matrix(0,2.0412573,2.0412573,0,101.11031,19.76548)">
    <path
       d="m 0,0 53.835,-2.054 c 0,0 -7.998,3.405 -12.789,5.814 -4.791,2.409 -6.628,4.046 -5.442,5.527 1.185,1.482 3.469,0.768 9.068,-1.558 5.338,-2.216 18.726,-7.797 22.38,-9.524 3.654,-1.726 5.637,-5.102 0.484,-6.416 -5.153,-1.313 -17.838,-4.398 -25.56,-9.171 -4.613,-2.85 -8.253,-8.099 -8.538,-4.041 -0.263,3.736 1.309,5.39 2.473,5.979 7.981,4.04 19.539,7.524 20.063,9.01 0,0 -52.286,-3.316 -56.514,-3.61 -4.227,-0.294 -3.201,2.153 -3.038,3.065 0.163,0.913 1.062,5.157 1.062,5.157 0,0 0.261,2.017 2.516,1.822"
       style="fill:#000000;fill-opacity:1;fill-rule:nonzero;stroke:none"
       id="path5170" />
  </g>
</svg>
