<?xml version="1.0" encoding="UTF-8"?>
<svg version="1.1" viewBox="0 0 192 192" xmlns="http://www.w3.org/2000/svg">
  <path d="m111.18 16.992-4.8548 127.24s8.0479-18.904 13.742-30.228 9.563-15.666 13.063-12.862c3.5028 2.8008 1.8152 8.1992-3.6824 21.433-5.2376 12.617-18.429 44.26-22.511 52.896-4.0795 8.6364-12.059 13.323-15.165 1.144-3.1034-12.179-10.395-42.161-21.676-60.413-6.7361-10.903-19.142-19.506-9.5512-20.18 8.8303-0.62162 12.74 3.0939 14.132 5.8451 9.5488 18.864 17.783 46.182 21.296 47.42 0 0-7.8376-123.58-8.5325-133.57-0.69489-9.9908 5.0887-7.5658 7.2443-7.1805 2.1579 0.38526 12.189 2.5101 12.189 2.5101s4.7673 0.61688 4.3064 5.9467"/>
</svg>
