<?xml version="1.0" encoding="UTF-8"?>
<svg version="1.1" viewBox="0 0 192 192" xmlns="http://www.w3.org/2000/svg">
 <path d="m16.992 111.18 127.24-4.8548s-18.904 8.0479-30.228 13.742-15.666 9.563-12.862 13.063c2.8008 3.5028 8.1992 1.8152 21.433-3.6824 12.617-5.2376 44.26-18.429 52.896-22.511 8.6364-4.0795 13.323-12.059 1.144-15.165-12.179-3.1034-42.161-10.395-60.413-21.676-10.903-6.7361-19.506-19.142-20.18-9.5512-0.62162 8.8303 3.0939 12.74 5.8451 14.132 18.864 9.5488 46.182 17.783 47.42 21.296 0 0-123.58-7.8376-133.57-8.5325-9.9908-0.69489-7.5658 5.0887-7.1805 7.2443 0.38526 2.1579 2.5101 12.189 2.5101 12.189s0.61689 4.7673 5.9467 4.3064"/>
</svg>
