<?xml version="1.0" encoding="UTF-8"?>
<svg version="1.1" viewBox="0 0 192 192" xmlns="http://www.w3.org/2000/svg">
 <path d="m95.524 27.396c1.0398-0.57366 1.9934-0.8794 1.9934-0.8794 12.035-4.6649 22.487-9.5038 22.487-9.5038 2.1796-2.1523 3.6326-10.465 0.0394-8.7925-2.2795 1.058-3.8763 3.6599-5.9484 5.0493-10.38 6.9822-24.027 10.625-36.083 13.575-2.4475 1.2411-4.5408 2.5595-1.8193 5.4626 1.9934 2.1115 4.2638 3.0211 6.8535 3.7598l24.544 10.436c11.913 6.4661 12.398 1.2941 12.398 1.2941 0.87182-3.2058-18.728-11.305-23.019-12.994-1.1579-0.62663-2.0176-1.2215-2.6458-1.7876 11.429 1.3501 66.535 11.063 66.535 72.731 0 20.947-18.716 72.648-68.452 72.648-35.803 0-53.02-22.934-57.946-29.221-2.4308-3.1029-4.9722-3.4722-8.352-3.4722-3.3783 0-6.7748 0.70533-4.2547 4.3864 0 0 20.665 35.875 70.402 33.827 49.737-2.0464 78.763-46.075 78.763-78.003 0-30.758-20.391-75.764-75.495-78.516"/>
</svg>
