<?xml version="1.0" encoding="UTF-8"?>
<svg version="1.1" viewBox="0 0 192 192" xmlns="http://www.w3.org/2000/svg">
  <g transform="matrix(2.3636 0 0 -2.3636 -30.6 174.24)">
    <path d="m20.136 39.525 53.835-2.054s-7.998 3.405-12.789 5.814-6.628 4.046-5.442 5.527c1.185 1.482 3.469 0.768 9.068-1.558 5.338-2.216 18.726-7.797 22.38-9.524 3.654-1.726 5.637-5.102 0.484-6.416-5.153-1.313-17.838-4.398-25.56-9.171-4.613-2.85-8.253-8.099-8.538-4.041-0.263 3.736 1.309 5.39 2.473 5.979 7.981 4.04 19.539 7.524 20.063 9.01 0 0-52.286-3.316-56.514-3.61-4.227-0.294-3.201 2.153-3.038 3.065 0.163 0.913 1.062 5.157 1.062 5.157s0.261 2.017 2.516 1.822"/>
  </g>
</svg>
