<?xml version="1.0" encoding="UTF-8" standalone="no"?>
<svg
   xmlns:dc="http://purl.org/dc/elements/1.1/"
   xmlns:cc="http://creativecommons.org/ns#"
   xmlns:rdf="http://www.w3.org/1999/02/22-rdf-syntax-ns#"
   xmlns:svg="http://www.w3.org/2000/svg"
   xmlns="http://www.w3.org/2000/svg"
   height="176"
   width="176"
   version="1.1"
   id="svg2"
   viewBox="0 0 176 176">
  <metadata
     id="metadata16699">
    <rdf:RDF>
      <cc:Work
         rdf:about="">
        <dc:format>image/svg+xml</dc:format>
        <dc:type
           rdf:resource="http://purl.org/dc/dcmitype/StillImage" />
        <dc:title></dc:title>
      </cc:Work>
    </rdf:RDF>
  </metadata>
  <defs
     id="defs16697" />
  <g
     style="fill:#000000"
     id="g5144"
     transform="matrix(1.3071938,0,0,-1.3071938,88.378748,28.751458)">
    <path
       d="m 0,0 c 0.687,0.379 1.317,0.581 1.317,0.581 7.951,3.082 14.857,6.279 14.857,6.279 1.44,1.422 2.4,6.914 0.026,5.809 C 14.694,11.97 13.639,10.251 12.27,9.333 5.412,4.72 -3.604,2.313 -11.569,0.364 c -1.617,-0.82 -3,-1.691 -1.202,-3.609 1.317,-1.395 2.817,-1.996 4.528,-2.484 l 16.216,-6.895 c 7.871,-4.272 8.191,-0.855 8.191,-0.855 0.576,2.118 -12.373,7.469 -15.208,8.585 -0.765,0.414 -1.333,0.807 -1.748,1.181 7.551,-0.892 43.958,-7.309 43.958,-48.052 0,-13.839 -12.365,-47.997 -45.225,-47.997 -23.654,0 -35.029,15.152 -38.284,19.306 -1.606,2.05 -3.285,2.294 -5.518,2.294 -2.232,0 -4.476,-0.466 -2.811,-2.898 0,0 13.653,-23.702 46.513,-22.349 32.86,1.352 52.037,30.441 52.037,51.535 C 49.878,-31.553 36.406,-1.818 0,0"
       style="fill:#000000;fill-opacity:1;fill-rule:nonzero;stroke:none"
       id="path5146" />
  </g>
</svg>
