<?xml version="1.0" encoding="UTF-8" standalone="no"?>
<svg
   xmlns:dc="http://purl.org/dc/elements/1.1/"
   xmlns:cc="http://creativecommons.org/ns#"
   xmlns:rdf="http://www.w3.org/1999/02/22-rdf-syntax-ns#"
   xmlns:svg="http://www.w3.org/2000/svg"
   xmlns="http://www.w3.org/2000/svg"
   viewBox="0 0 176 176"
   id="svg2"
   version="1.1">
  <metadata
     id="metadata21346">
    <rdf:RDF>
      <cc:Work
         rdf:about="">
        <dc:format>image/svg+xml</dc:format>
        <dc:type
           rdf:resource="http://purl.org/dc/dcmitype/StillImage" />
        <dc:title></dc:title>
      </cc:Work>
    </rdf:RDF>
  </metadata>
  <defs
     id="defs21344" />
  <path
     id="path4832"
     style="fill:#000000;fill-opacity:1;fill-rule:nonzero;stroke:none"
     d="m 73.812977,151.05156 c -7.243212,-2.88551 -14.810375,-4.9095 -22.527465,-6.02634 -7.76628,-1.12327 -15.46328,-1.27127 -23.263093,-0.88276 -0.04333,-0.50912 -0.08573,-1.01882 -0.129051,-1.5288 -0.209483,-2.48314 -0.418896,-4.96592 -0.627808,-7.44983 -0.638175,-7.56494 -1.275493,-15.1293 -1.912811,-22.69417 -0.738127,-8.75414 -1.476254,-17.508196 -2.214167,-26.262836 -0.610221,-7.236838 -1.219583,-14.474395 -1.83009,-21.711952 -0.253883,-3.014279 -0.508338,-6.028558 -0.762506,-9.042122 6.887161,-0.74356 13.833737,-0.852948 20.746495,-0.440415 9.343416,0.557669 18.710497,2.182777 27.598982,5.159163 5.654637,1.893219 10.951222,4.376281 16.09588,7.314058 l 0,89.012584 c -3.545784,-2.15911 -7.379488,-3.93422 -11.174366,-5.44658 z M 159.83391,47.517391 c -8.27569,-0.990937 -16.77159,-0.790032 -25.05443,-0.0057 -6.71421,0.636316 -13.38124,1.814573 -19.89526,3.561939 -7.19467,1.931112 -14.17199,4.662266 -20.721762,8.209906 -2.112715,1.143938 -4.231149,2.367237 -6.230899,3.72495 -0.723542,-0.46689 -1.499277,-0.865124 -2.129158,-1.245484 C 83.561709,60.41387 81.270322,59.12408 78.911803,57.993725 70.643119,54.030692 61.949035,51.236622 52.959525,49.480676 46.832082,48.283116 40.602113,47.583883 34.367711,47.290748 28.103425,46.996184 21.736612,47.031932 15.504978,47.80552 c -2.222254,0.273116 -3.683459,2.294312 -3.487401,4.469941 0.515838,5.712544 1.403392,11.416509 2.102998,17.107603 1.482431,12.055684 2.96402,24.11136 4.445322,36.167336 1.34227,10.91382 2.683325,21.82814 4.02531,32.74138 0.320303,2.61098 0.641536,5.22202 0.962697,7.83298 0.152215,1.23838 0.565821,2.49264 2.028991,2.70485 1.31067,0.18939 2.791429,-0.13013 4.111035,-0.18153 1.438576,-0.0573 2.880226,-0.0966 4.319088,-0.0907 1.950204,0.007 3.899621,0.0377 5.847608,0.13291 7.84085,0.38601 15.670548,1.67516 23.200819,3.89933 3.31142,0.9772 6.574293,2.13901 9.748086,3.49916 2.723789,1.16682 5.386739,2.47581 7.958104,3.9479 1.359858,0.77779 2.695408,1.60447 3.981626,2.50013 0.878689,0.61219 1.688741,1.45507 2.832681,1.45507 0.07007,0 0.133699,-0.0156 0.200905,-0.0206 1.504996,0.23655 2.932776,-1.01826 2.995692,-2.65681 0.01361,-0.34827 0,-0.69932 0,-1.04675 0,-4.64166 0,-9.2839 0,-13.92529 0,-7.96539 0,-15.93163 0,-23.89703 0,-8.7873 0,-17.5741 0,-26.361696 0,-7.10701 0,-14.215158 0,-21.321877 0,-2.432299 0,-4.866029 0,-7.298329 1.549325,-0.913006 3.107228,-1.809568 4.713034,-2.62248 8.450137,-4.276185 17.678877,-7.036652 27.025577,-8.49875 6.18872,-0.968056 12.43964,-1.447082 18.70342,-1.463526 4.57004,-0.01215 9.21587,0.150857 13.7809,0.706383 -0.20233,2.600316 -0.40538,5.200631 -0.60771,7.801661 -0.62774,8.047609 -1.25548,16.095218 -1.88321,24.142829 -0.72569,9.298369 -1.45066,18.597075 -2.17635,27.895785 -0.59842,7.66991 -1.19685,15.34008 -1.79527,23.01084 -0.17445,2.2407 -0.3489,4.48138 -0.52407,6.72285 -1.94326,-0.17173 -3.88868,-0.31945 -5.83981,-0.38537 -9.49041,-0.32035 -18.96224,0.93311 -27.9393,4.06021 -6.07719,2.11636 -11.35432,4.83829 -16.700099,8.14692 -0.611293,0.379 -0.174451,2.41803 0.321018,2.91291 0.290989,0.29157 1.630833,-0.58257 2.416581,-1.01881 2.58173,-1.43496 4.89891,-2.468 7.62722,-3.6005 5.98708,-2.48535 12.17008,-4.19618 18.60546,-5.05699 6.2695,-0.83866 12.60979,-0.58985 18.88144,0.0674 1.08246,0.11282 2.16062,0.28377 3.23735,0.43677 0.80934,0.11425 1.72735,0.36027 2.5417,0.18381 1.30981,-0.28318 2.03549,-1.36714 2.19207,-2.62555 0.14228,-1.13386 0.25238,-2.27194 0.37821,-3.40808 0.63918,-5.78111 1.27979,-11.56172 1.91897,-17.34282 0.9273,-8.37371 1.85389,-16.74798 2.7812,-25.12226 0.94732,-8.560016 1.89465,-17.119178 2.84269,-25.679416 0.69995,-6.324551 1.3999,-12.647673 2.09985,-18.972223 0.17302,-1.567911 0.34675,-3.134392 0.52049,-4.701588 0.0278,-0.251667 0.0629,-0.503334 0.0837,-0.755714 0.21163,-2.618191 -1.6487,-4.480667 -4.14964,-4.780235" />
</svg>
