<?xml version="1.0" encoding="UTF-8"?>
<svg version="1.1" viewBox="0 0 192 192" xmlns="http://www.w3.org/2000/svg">
  <path d="m79.573 148.83c-8.3869-3.3411-17.149-5.6847-26.084-6.9779-8.9925-1.3006-17.905-1.472-26.936-1.0221-0.05017-0.58951-0.09927-1.1797-0.14943-1.7702-0.24256-2.8752-0.48504-5.75-0.72694-8.6261-0.73894-8.7594-1.4769-17.518-2.2148-26.277-0.85467-10.136-1.7093-20.273-2.5638-30.41-0.70657-8.3795-1.4121-16.76-2.1191-25.14-0.29397-3.4902-0.5886-6.9804-0.8829-10.47 7.9746-0.86096 16.018-0.98762 24.022-0.50995 10.819 0.64572 21.665 2.5274 31.957 5.9738 6.5475 2.1921 12.68 5.0673 18.637 8.4689v103.07c-4.1056-2.5-8.5447-4.5554-12.939-6.3066zm99.603-119.88c-9.5824-1.1474-19.42-0.91477-29.01-0.0066-7.7744 0.73679-15.494 2.1011-23.037 4.1244-8.3307 2.236-16.41 5.3984-23.994 9.5062-2.4463 1.3246-4.8992 2.741-7.2147 4.3131-0.83779-0.54061-1.736-1.0017-2.4653-1.4421-2.5945-1.5622-5.2477-3.0556-7.9786-4.3644-9.5743-4.5888-19.641-7.824-30.05-9.8572-7.0949-1.3866-14.309-2.1963-21.527-2.5357-7.2534-0.34107-14.625-0.29968-21.841 0.59605-2.5731 0.31624-4.2651 2.6566-4.038 5.1757 0.59729 6.6145 1.625 13.219 2.435 19.809 1.7165 13.959 3.432 27.918 5.1472 41.878 1.5542 12.637 3.107 25.275 4.6609 37.911 0.37088 3.0232 0.74283 6.0466 1.1147 9.0698 0.17625 1.4339 0.65516 2.8862 2.3494 3.1319 1.5176 0.21929 3.2322-0.15068 4.7601-0.2102 1.6657-0.0663 3.335-0.11185 5.001-0.10502 2.2581 8e-3 4.5154 0.0437 6.7709 0.1539 9.0789 0.44696 18.145 1.9397 26.864 4.515 3.8343 1.1315 7.6123 2.4768 11.287 4.0517 3.1539 1.3511 6.2373 2.8667 9.2146 4.5712 1.5746 0.9006 3.121 1.8578 4.6103 2.8949 1.0174 0.70885 1.9554 1.6848 3.2799 1.6848 0.08113 0 0.15481-0.0181 0.23263-0.0239 1.7426 0.2739 3.3958-1.179 3.4687-3.0763 0.0158-0.40326 0-0.80974 0-1.212v-16.124-27.67-30.524-24.688-8.4507c1.794-1.0572 3.5979-2.0953 5.4572-3.0366 9.7844-4.9514 20.47-8.1477 31.293-9.8407 7.1659-1.1209 14.404-1.6756 21.657-1.6946 5.2916-0.01407 10.671 0.17468 15.957 0.81792-0.23428 3.0109-0.46939 6.0218-0.70366 9.0335-0.72686 9.3183-1.4537 18.637-2.1806 27.955-0.84027 10.767-1.6797 21.533-2.52 32.3-0.6929 8.881-1.3858 17.762-2.0787 26.644-0.20199 2.5945-0.40399 5.189-0.60682 7.7844-2.2501-0.19884-4.5027-0.36989-6.7619-0.44622-10.989-0.37093-21.956 1.0804-32.351 4.7013-7.0367 2.4505-13.147 5.6022-19.337 9.4333-0.7078 0.43885-0.20199 2.7998 0.37171 3.3728 0.33694 0.3376 1.8883-0.67456 2.7982-1.1797 2.9894-1.6615 5.6724-2.8577 8.8315-4.169 6.9324-2.8778 14.092-4.8587 21.543-5.8555 7.2594-0.97108 14.601-0.68298 21.863 0.078 1.2534 0.13064 2.5018 0.32858 3.7485 0.50574 0.93713 0.13229 2.0001 0.41715 2.943 0.21283 1.5166-0.32789 2.3569-1.583 2.5382-3.0401 0.16475-1.3129 0.29223-2.6307 0.43793-3.9462 0.7401-6.6939 1.4819-13.387 2.222-20.081 1.0737-9.6959 2.1466-19.392 3.2203-29.089 1.0969-9.9116 2.1938-19.822 3.2915-29.734 0.81047-7.3232 1.6209-14.645 2.4314-21.968 0.20034-1.8155 0.4015-3.6293 0.60268-5.4439 0.0322-0.2914 0.0728-0.58281 0.0969-0.87504 0.24505-3.0316-1.909-5.1881-4.8048-5.535"/>
</svg>
