<?xml version="1.0" encoding="UTF-8"?>
<svg version="1.1" viewBox="0 0 192 192" xmlns="http://www.w3.org/2000/svg">
  <path d="m129.56 180.58s-0.55005-1.959-3.3356-1.959h-52.822c-6.2535 0-11.998-5.7858-11.998-15.538 0-5.9549-0.51328-13.595 0.82654-17.034 1.3413-3.437 4.5872-10.533 5.0784-19.887 0.49122-9.3537-2.0502-16.796-4.5563-23.356-2.5076-6.5608-1.2501-13.917-0.60299-18.319 0.64711-4.4018 1.131-9.7332 7.3021-14.359 5.0416-3.7783 5.5416-7.7154 5.6225-9.8096 0.12942-3.3973-0.27061-3.012-1.5428-4.7401-1.2707-1.7281-3.69-4.8107-3.69-11.914v-9.9347c0-4.3739 2.662-8.4066 8.564-8.4066h11.055s2.7252 0.50004 3.4135-1.7354c0.68829-2.237 0.86036-5.3343-1.5693-7.9683-2.6488-2.8723-2.8311-5.474 4.8283-5.474 7.6595 0 8.839 2.2575 6.1049 5.4019-2.7355 3.1444-2.8267 6.6682-2.337 7.8021 0.48975 1.1324 1.331 1.9737 3.162 1.9737h6.9491c1.2869 0 7.5609 0.68976 7.5609 8.6875v10.802c0 5.7049-1.8104 8.186-3.7018 10.316-1.8899 2.1296-2.0002 6.024-0.36769 9.689 1.634 3.665 6.6873 5.1651 9.1081 10.798 2.4208 5.6328 5.3534 19.035 1.8075 27.789-3.5459 8.7551-6.6417 20.203-2.1634 34.707 2.0649 6.6932 3.7562 6.2799 3.7562 20.894 0 6.2505-0.80301 11.78 2.4017 11.485 3.2032-0.29709 6.052-0.51181 7.1403-0.91626 1.0869-0.40591 2.8811-0.73241 2.8811-3.6738 0-3.9989 0.0808-7.0726 0.0808-9.3302s0.0162-4.7857-2.609-9.8155c-2.6237-5.0298-4.9872-13.792-4.9872-22.631 0-15.26 7.8639-19.702 7.5962-31.438-0.58388-25.582-14.057-18.2-17.175-30.778-0.81184-3.2723-0.4265-5.5814 1.9899-7.8536 2.4149-2.2722 4.4107-5.2593 4.4107-11.28v-11.26c0-3.2179-1.5707-10.024-9.2743-10.024h-11.748c-1.7016 0-4.115-0.60299-3.4988-3.2753 0.41915-1.8222 2.2722-2.3473 3.3679-2.4061 1.0957-0.05883 2.6855-1.7369 0.18972-4.4371-2.4958-2.7002-7.1594-3.3679-10.779-3.3679-3.6194 0-9.945 1.0545-11.223 5.2269-0.90007 2.9326 1.2295 2.5664 2.8208 2.9841 1.4722 0.3868 2.0502 2.1575 1.9002 3.4429-0.15149 1.2854-0.88684 1.8325-2.9091 1.8325h-12.317c-3.1297 0-10.01 1.6854-10.01 9.2787 0 7.5933 0.0118 10.023 0.0118 12.554 0 2.5311 0.78536 7.9286 5.0137 11.88 2.7326 2.5532 2.1281 5.8946 0.89567 8.2875-1.2325 2.3928-1.5134 3.6738-7.0079 7.1741-5.4946 3.5003-9.6935 9.8876-9.6935 22.62 0 12.73 7.0021 13.604 7.5815 30.332 0.77212 22.309-7.5815 19.993-7.5815 32.77 0 8.411 0.0045 12.008 0.0045 13.282 0 1.2736 1.1604 14.335 14.903 14.335 13.742 0 59.242-0.32356 59.242-0.32356 2.2987-0.0396 3.0341-0.88977 1.9296-3.1003"/>
</svg>
