<?xml version="1.0" encoding="UTF-8" standalone="no"?>
<svg
   xmlns:dc="http://purl.org/dc/elements/1.1/"
   xmlns:cc="http://creativecommons.org/ns#"
   xmlns:rdf="http://www.w3.org/1999/02/22-rdf-syntax-ns#"
   xmlns:svg="http://www.w3.org/2000/svg"
   xmlns="http://www.w3.org/2000/svg"
   height="176"
   width="176"
   version="1.1"
   id="svg2"
   viewBox="0 0 176 176">
  <metadata
     id="metadata16699">
    <rdf:RDF>
      <cc:Work
         rdf:about="">
        <dc:format>image/svg+xml</dc:format>
        <dc:type
           rdf:resource="http://purl.org/dc/dcmitype/StillImage" />
        <dc:title></dc:title>
      </cc:Work>
    </rdf:RDF>
  </metadata>
  <defs
     id="defs16697" />
  <path
     id="path5142"
     style="fill:#000000;fill-opacity:1;fill-rule:nonzero;stroke:none"
     d="m 116.98158,161.04306 c 0,0 -0.47504,-1.69184 -2.88073,-1.69184 H 68.481799 c -5.400715,0 -10.361961,-4.99681 -10.361961,-13.41924 0,-5.14288 -0.443287,-11.74136 0.71383,-14.71099 1.158387,-2.96836 3.96163,-9.09688 4.385857,-17.17509 0.424235,-8.07822 -1.770602,-14.505229 -3.934952,-20.171409 -2.16562,-5.66618 -1.079632,-12.01952 -0.520764,-15.8211 0.558868,-3.80159 0.976755,-8.40592 6.306342,-12.40057 4.354109,-3.26304 4.785962,-6.66326 4.855821,-8.47197 0.111772,-2.934067 -0.233709,-2.601285 -1.332401,-4.093723 -1.097414,-1.492438 -3.186827,-4.154692 -3.186827,-10.289563 v -8.579928 c 0,-3.777455 2.298992,-7.260233 7.396139,-7.260233 h 9.547794 c 0,0 2.353599,0.431854 2.94804,-1.498789 0.594432,-1.931912 0.743038,-4.606869 -1.355262,-6.881725 -2.287557,-2.480621 -2.445058,-4.727534 4.16993,-4.727534 6.614997,0 7.633665,1.949695 5.272431,4.665297 -2.362494,2.715601 -2.441241,5.758904 -2.018283,6.738196 0.422965,0.978024 1.1495,1.704555 2.730844,1.704555 h 6.001503 c 1.1114,0 6.5299,0.595705 6.5299,7.502833 v 9.329322 c 0,4.92695 -1.56357,7.06971 -3.19699,8.9089 -1.63216,1.839191 -1.72742,5.202572 -0.31755,8.367812 1.41115,3.16524 5.77543,4.4608 7.86611,9.32551 2.09068,4.86471 4.62338,16.43968 1.56102,23.99967 -3.06235,7.561249 -5.73604,17.448179 -1.86841,29.974489 1.78331,5.7805 3.24399,5.42358 3.24399,18.04515 0,5.39818 -0.69351,10.17399 2.07417,9.91869 2.76641,-0.25658 5.22671,-0.44202 6.16663,-0.79132 0.93865,-0.35056 2.48824,-0.63253 2.48824,-3.17285 0,-3.45357 0.0698,-6.1082 0.0698,-8.0579 0,-1.9497 0.014,-4.1331 -2.25327,-8.47704 -2.26596,-4.34395 -4.30711,-11.91156 -4.30711,-19.54522 0,-13.179169 6.79155,-17.015049 6.56038,-27.150919 -0.50426,-22.09316 -12.14019,-15.71823 -14.83293,-26.58063 -0.70113,-2.826111 -0.36834,-4.820261 1.71853,-6.782658 2.0856,-1.962397 3.80921,-4.542091 3.80921,-9.742125 v -9.724342 c 0,-2.779109 -1.35653,-8.657408 -8.00964,-8.657408 H 97.255928 c -1.469573,0 -3.553907,-0.520765 -3.021709,-2.828645 0.361994,-1.573728 1.962398,-2.027175 2.908667,-2.077982 0.946269,-0.05081 2.319321,-1.500059 0.163849,-3.832071 -2.155473,-2.332013 -6.183145,-2.908666 -9.309008,-2.908666 -3.125863,0 -8.58882,0.910705 -9.692591,4.514148 -0.777333,2.532698 1.061858,2.216428 2.436172,2.577153 1.271428,0.334053 1.770601,1.863325 1.641047,2.973444 -0.130832,1.11012 -0.765907,1.582619 -2.512379,1.582619 h -10.63759 c -2.702897,0 -8.644707,1.455603 -8.644707,8.013437 0,6.557834 0.01019,8.656138 0.01019,10.842083 0,2.185945 0.678266,6.847431 4.329971,10.26035 2.359955,2.204997 1.837922,5.090803 0.773533,7.157353 -1.064397,2.06655 -1.307001,3.17286 -6.052312,6.19584 -4.745319,3.02298 -8.371621,8.53928 -8.371621,19.53505 0,10.9945 6.04723,11.74897 6.547673,26.195769 0.666831,19.26705 -6.547673,17.26655 -6.547673,28.3017 0,7.26403 0.0039,10.37084 0.0039,11.47081 0,1.09995 1.002152,12.38024 12.870528,12.38024 11.868367,0 51.163292,-0.27944 51.163292,-0.27944 1.98526,-0.0342 2.62034,-0.76844 1.66646,-2.6775" />
</svg>
