<?xml version="1.0" encoding="UTF-8"?>
<svg version="1.1" viewBox="0 0 192 192" xmlns="http://www.w3.org/2000/svg">
  <path d="m151.05 80.278c-0.0582 0.67711-0.0508 1.5463-0.17929 2.2952-0.12745 0.7417-0.26677 1.5518-0.41692 2.4259-0.16524 0.87886-0.25814 1.8058-0.4936 2.8268-0.27867 1.0307-0.57353 2.1252-0.88567 3.2825-1.3112 4.5833-3.3451 10.119-7.0682 15.686-3.6151 5.5945-8.7261 11.358-15.549 16.029-6.8262 4.6258-15.317 8.08-24.744 9.3289-1.1708 0.20499-2.3762 0.18016-3.5762 0.28601l-1.8113 0.11772-0.90943 0.0605c-0.14798-8.8e-4 -0.05616 3e-3 0.0345 8e-3l-0.02918-8.7e-4 -0.24735-9e-3 -0.49684-0.0195c-2.6084-0.12962-5.4869-0.0984-7.7032-0.55322-1.1888-0.19865-2.3667-0.26744-3.5924-0.55475-1.2289-0.30047-2.4639-0.60172-3.7056-0.90415-1.2615-0.23966-2.445-0.75606-3.6694-1.1633-1.2003-0.46993-2.4829-0.76275-3.636-1.3792-4.8275-2.0028-9.3285-4.9069-13.563-8.2261-4.1613-3.4382-7.8256-7.5374-11.008-12.038-3.0905-4.5765-5.4693-9.647-7.2421-14.949-1.6277-5.3625-2.3703-10.967-2.5356-16.595l0.20457-4.3042c0.01146-1.5661 0.25404-2.8774 0.46282-4.2113 0.25533-1.3469 0.28482-2.6722 0.70379-4.0406l1.0294-4.0806c1.7033-5.3357 3.9976-10.478 7.0649-15.115 3.1707-4.5537 6.8316-8.7121 11.003-12.208 0.80251-0.63834 1.6252-1.2454 2.4479-1.8513 5.1107 2.1861 15.806 6.3985 29.008 9.5394 8.9994 1.591 18.822 1.4441 25.353-4.3009 0.59406-0.52169 1.497-0.46552 2.0209 0.12961 0.52275 0.59405 0.46443 1.4992-0.12962 2.0219-3.0718 2.7013-6.6977 4.3161-10.571 5.1693 10.879 1.3242 22.424 1.3318 33.386-1.1762 0.88892 1.1838 1.7271 2.3697 2.4842 3.5481 3.709 5.6608 5.6705 11.281 6.9267 15.909 0.28514 1.1697 0.55625 2.2779 0.81115 3.3191 0.21709 1.0488 0.29919 2.0576 0.44499 2.98 0.13069 0.92564 0.25167 1.7822 0.36292 2.5663 0.10583 0.78415 0.0724 1.5111 0.11336 2.1548 0.0853 2.2056 0.1361 3.5222 0.15014 3.8581-0.0281 0.45148-0.11231 1.8534-0.24951 4.1395zm10.551-8.7288c-0.067-0.76039-0.0627-1.6169-0.2063-2.5458-0.15014-0.92672-0.31539-1.9399-0.49253-3.0351-0.1955-1.0898-0.33699-2.2747-0.62212-3.5103-0.32836-1.2281-0.67831-2.5317-1.0477-3.9099-1.6083-5.4415-4.1119-11.999-8.6073-18.536-4.4176-6.54-10.594-13.196-18.719-18.512-0.16634-0.10261-0.34133-0.2009-0.50873-0.30243 3.8549-1.4603 5.7029-2.8244 5.8865-2.9659 0.62538-0.48064 0.74311-1.3739 0.26463-2.0003-0.47633-0.62754-1.3739-0.75283-2.0036-0.27434-0.0497 0.03672-2.3136 1.6785-7.2636 3.25-3.0891-7.6546-6.3996-10.659-6.6242-10.854-0.59512-0.52276-1.4938-0.45688-2.0122 0.13609-0.5206 0.59189-0.46336 1.4949 0.12638 2.0198 0.041 0.03672 2.1418 1.9733 4.4975 6.7679-1.8837-0.91268-3.8224-1.7638-5.8649-2.4637-1.2313-0.42772-2.4648-0.88568-3.7231-1.2929-1.2842-0.31755-2.5803-0.63834-3.8851-0.96237-2.5458-0.75174-5.4502-0.96344-8.2422-1.3976-1.4192-0.19658-2.6268-0.14473-3.9629-0.22898l-1.9679-0.07885-0.98829-0.03996c0.14472 0.0043-0.33699-0.0065-0.33699-0.0065l-0.13286 0.0076-0.26354 0.01512-0.52925 0.03024c-2.8234 0.19766-5.6932 0.2171-8.5386 0.80035-5.7464 0.75499-11.403 2.656-16.914 4.989-5.511 2.4043-10.637 5.7936-15.423 9.6701-4.7064 3.9985-8.8349 8.7337-12.381 13.922-3.4647 5.2557-6.165 11.043-8.1226 17.105l-1.21 4.6282c-0.46412 1.5089-0.57677 3.2154-0.8712 4.8183-0.25739 1.6331-0.52536 3.2878-0.54221 4.7351l-0.24983 4.7027c0.11698 6.3923 0.92823 12.788 2.7383 18.924 1.8881 6.0975 4.5039 11.956 7.9455 17.273 3.5334 5.2415 7.6598 10.034 12.378 14.091 1.1695 1.0197 2.445 1.9074 3.661 2.8588l1.8492 1.3915 1.9577 1.2193c1.3163 0.78857 2.5745 1.6728 3.9309 2.3687 1.3683 0.6784 2.7298 1.3534 4.0875 2.0265 0.37134 0.16071 0.74343 0.29777 1.1147 0.4544-0.78686 0.66112-1.5788 1.3222-2.3289 1.9896-3.6652 3.2466-6.7358 6.7182-9.5403 10.062-2.7277 3.3955-5.1612 6.6847-7.2358 9.8149-2.1139 3.1053-3.8542 6.0612-5.3765 8.6838-1.5007 2.6353-2.7572 4.9587-3.717 6.9139-0.98181 1.9408-1.7032 3.4981-2.1969 4.5676l-0.36496 0.81851c-0.27542 0.61557-0.29951 1.3223-0.01685 1.9345 0.64006 1.3881 2.5357 2.061 6.4392 2.3762l0.06243-0.10803s0.28568-0.49912 0.82357-1.4353c0.55701-0.94173 1.3789-2.3332 2.4928-4.0719 1.1032-1.7433 2.4816-3.8386 4.0989-6.2097 1.6294-2.3631 3.542-4.9726 5.6937-7.743 2.1357-2.7879 4.5967-5.6628 7.2864-8.5783 2.7454-2.8406 5.6418-5.8409 8.9411-8.4268 2.928-2.3534 6.0895-4.5406 9.4128-6.2139 0.54004 0.0898 1.0645 0.21602 1.613 0.28936 3.1228 0.60507 5.6362 0.59319 8.3169 0.79613l0.49576 0.0311 0.24735 0.0152 0.12421 8e-3 0.37695 5e-3 1.066-0.0388 2.1235-0.0811c1.4095-0.0852 2.8223-0.0456 4.2037-0.24432 2.3611-0.25479 4.6682-0.65982 6.9331-1.1493 0.24733 0.13501 0.49793 0.27132 0.74526 0.40633 0.42773 0.23675 0.86625 0.43625 1.2832 0.69785l1.2119 0.89323c0.81008 0.5864 1.6158 1.1674 2.4151 1.7463 0.11775 0.0856 0.23008 0.17713 0.337 0.27467 1.3879 1.2733 2.7553 2.5327 4.1 3.7693 0.66966 0.76157 1.3318 1.5155 1.9874 2.2606 1.308 1.494 2.6484 2.8913 3.7522 4.5106 1.146 1.5628 2.306 3.0348 3.3548 4.5386 0.99046 1.5648 1.9474 3.0761 2.8677 4.5276 0.46119 0.72484 0.91267 1.4345 1.3534 2.1277 0.42447 0.70886 0.79386 1.4387 1.1805 2.1303 0.76039 1.3922 1.4808 2.712 2.1591 3.9528 1.4063 2.4425 2.427 4.7267 3.3105 6.5747 0.46769 1.0164 1.0855 1.8168 1.7465 2.442 0.89756 0.8489 2.1699 1.1742 3.3796 0.92568 2.4875-0.50883 6.9418-1.7484 8.158-4.2436 0.21709-1.3792 0.1404-3.2424-0.84141-5.1984-0.9602-1.9635-2.0608-4.3702-3.614-7.035-0.74743-1.3413-1.5424-2.7689-2.3805-4.2748-0.42664-0.74839-0.83276-1.5294-1.3069-2.3061-0.49469-0.7687-1.0023-1.5573-1.5208-2.3611-1.0358-1.6049-2.117-3.2791-3.237-5.0106-1.1989-1.6956-2.5501-3.4023-3.883-5.1778-1.2788-1.8015-2.8655-3.5247-4.4921-5.2646-0.81115-0.87164-1.632-1.753-2.4594-2.6407-0.93104-0.82402-1.8696-1.6569-2.8169-2.4961-0.43961-0.37254-0.86517-0.75943-1.295-1.143 2.4637-1.2074 4.8162-2.5314 7.0174-3.9668 8.1914-5.392 14.403-12.127 18.839-18.737 4.4824-6.6291 6.9126-13.272 8.4669-18.759 0.34348-1.3902 0.66858-2.7071 0.97317-3.9462 0.26571-1.2645 0.39639-2.5294 0.57353-3.6642 0.1577-1.1456 0.30351-2.2053 0.43744-3.1758 0.12313-0.96398 0.0918-1.6792 0.14041-2.4048 0.11556-2.8166 0.17713-4.3179 0.17713-4.3179l8e-3 -0.26787s-0.0993-1.6277-0.28298-4.6822"/>
</svg>
