<?xml version="1.0" encoding="UTF-8" standalone="no"?>
<svg
   xmlns:dc="http://purl.org/dc/elements/1.1/"
   xmlns:cc="http://creativecommons.org/ns#"
   xmlns:rdf="http://www.w3.org/1999/02/22-rdf-syntax-ns#"
   xmlns:svg="http://www.w3.org/2000/svg"
   xmlns="http://www.w3.org/2000/svg"
   viewBox="0 0 176 176"
   id="svg2"
   version="1.1">
  <metadata
     id="metadata22995">
    <rdf:RDF>
      <cc:Work
         rdf:about="">
        <dc:format>image/svg+xml</dc:format>
        <dc:type
           rdf:resource="http://purl.org/dc/dcmitype/StillImage" />
        <dc:title></dc:title>
      </cc:Work>
    </rdf:RDF>
  </metadata>
  <defs
     id="defs22993" />
  <path
     d="m 135.54112,86.421831 c -0.0503,0.584779 -0.0439,1.335411 -0.15484,1.982222 -0.11007,0.640561 -0.2304,1.340168 -0.36007,2.095094 -0.14271,0.759024 -0.22294,1.559563 -0.42629,2.441344 -0.24067,0.890185 -0.49532,1.8354 -0.7649,2.834904 -1.13244,3.958287 -2.88892,8.738945 -6.10431,13.546925 -3.12212,4.83158 -7.53618,9.80905 -13.42874,13.84346 -5.89536,3.99504 -13.22818,6.97816 -21.369739,8.05678 -1.011166,0.17704 -2.052182,0.15559 -3.088534,0.24701 l -1.564323,0.10167 -0.785426,0.0522 c -0.127795,-7.6e-4 -0.04851,0.003 0.02985,0.007 l -0.02518,-7.5e-4 -0.213614,-0.008 -0.429092,-0.0168 c -2.252738,-0.11194 -4.738677,-0.085 -6.652803,-0.47778 -1.026651,-0.17156 -2.043973,-0.23097 -3.102526,-0.4791 -1.061352,-0.2595 -2.127927,-0.51967 -3.200285,-0.78086 -1.089522,-0.20698 -2.111603,-0.65296 -3.169037,-1.00464 -1.036631,-0.40585 -2.144343,-0.65874 -3.140212,-1.1911 -4.169195,-1.72971 -8.056401,-4.23775 -11.71367,-7.10437 -3.593838,-2.96932 -6.75849,-6.50962 -9.506642,-10.39682 -2.669049,-3.9524 -4.72347,-8.33148 -6.254585,-12.910643 C 38.710407,92.628361 38.0691,87.788286 37.926287,82.927132 l 0.176675,-3.717249 c 0.0099,-1.352574 0.219396,-2.485006 0.399709,-3.637027 0.220515,-1.163214 0.245981,-2.307772 0.607818,-3.489642 l 0.889062,-3.524157 c 1.471042,-4.608083 3.452517,-9.049192 6.101512,-13.053746 2.738357,-3.932728 5.900024,-7.524047 9.503003,-10.543553 0.693079,-0.551291 1.4036,-1.075531 2.114121,-1.598837 4.413779,1.888008 13.650744,5.525967 25.052017,8.238579 7.772174,1.374029 16.255146,1.247167 21.895846,-3.71445 0.51305,-0.450547 1.29288,-0.402041 1.7453,0.111938 0.45147,0.513045 0.4011,1.29474 -0.11194,1.74622 -2.65291,2.332958 -5.78436,3.72751 -9.129416,4.46443 9.395266,1.143625 19.366076,1.150155 28.833156,-1.015831 0.7677,1.02236 1.49157,2.046586 2.14546,3.064282 3.20327,4.888858 4.89726,9.742269 5.98212,13.739361 0.24626,1.010233 0.4804,1.967297 0.70054,2.866525 0.18749,0.90576 0.25839,1.777004 0.38431,2.573623 0.11287,0.799419 0.21735,1.539138 0.31343,2.216358 0.0914,0.67722 0.0625,1.305001 0.0979,1.860956 0.0737,1.904799 0.11754,3.041894 0.12967,3.331998 -0.0243,0.389915 -0.097,1.600703 -0.21549,3.574995 z m 9.11263,-7.538505 c -0.0579,-0.656699 -0.0541,-1.396417 -0.17816,-2.198634 -0.12967,-0.800351 -0.27239,-1.675327 -0.42537,-2.621196 -0.16884,-0.941206 -0.29104,-1.964499 -0.53729,-3.031634 -0.28358,-1.060605 -0.58581,-2.186507 -0.90484,-3.376773 -1.38895,-4.699497 -3.5512,-10.362588 -7.43356,-16.007955 -3.8152,-5.648165 -9.149,-11.396142 -16.16652,-15.987434 -0.14366,-0.08862 -0.29478,-0.173502 -0.43936,-0.261186 3.3292,-1.261159 4.92523,-2.439298 5.08381,-2.561497 0.5401,-0.4151 0.64178,-1.186534 0.22854,-1.727564 -0.41137,-0.541963 -1.18654,-0.650169 -1.73036,-0.236934 -0.0429,0.03171 -1.99808,1.449587 -6.27315,2.806826 -2.66783,-6.610826 -5.5269,-9.205903 -5.72093,-9.37381 -0.51397,-0.451479 -1.29007,-0.394578 -1.73782,0.117534 -0.44961,0.511181 -0.40018,1.29101 0.10914,1.744356 0.0354,0.03171 1.84977,1.704244 3.88422,5.844988 -1.62682,-0.788224 -3.30121,-1.523279 -5.06514,-2.12774 -1.06342,-0.369392 -2.12869,-0.764904 -3.21541,-1.116573 -1.10911,-0.274246 -2.22848,-0.551291 -3.35532,-0.831135 -2.198629,-0.649235 -4.706957,-0.832066 -7.118272,-1.207056 -1.225712,-0.169771 -2.268594,-0.124996 -3.42248,-0.197755 l -1.69958,-0.0681 -0.853522,-0.03451 c 0.124997,0.0037 -0.291036,-0.0056 -0.291036,-0.0056 l -0.114736,0.0066 -0.227606,0.01306 -0.457077,0.02612 c -2.438366,0.170704 -4.916842,0.187495 -7.374237,0.691212 -4.962831,0.652035 -9.848424,2.293781 -14.607248,4.30865 -4.759477,2.076436 -9.186687,5.003594 -13.319876,8.351449 -4.064628,3.453264 -7.630108,7.542703 -10.69271,12.023924 -2.99227,4.539054 -5.324295,9.537051 -7.015013,14.772915 l -1.045028,3.997091 c -0.400828,1.303136 -0.49812,2.776975 -0.752404,4.161266 -0.222289,1.410409 -0.453719,2.839475 -0.468271,4.08944 l -0.215759,4.061456 c 0.101024,5.52065 0.801657,11.043915 2.364861,16.343853 1.630645,5.266 3.889725,10.32537 6.862031,14.91759 3.051596,4.52675 6.615304,8.66572 10.690099,12.16926 1.010047,0.88067 2.111602,1.64734 3.161759,2.46896 l 1.597065,1.20174 1.690718,1.05305 c 1.136816,0.68104 2.223447,1.44474 3.39487,2.04566 1.181684,0.58589 2.357584,1.16889 3.530126,1.75014 0.320701,0.13879 0.642054,0.25716 0.962661,0.39243 -0.679552,0.57097 -1.363489,1.14194 -2.011326,1.71833 -3.165398,2.80392 -5.817284,5.80208 -8.239325,8.69015 -2.355719,2.93248 -4.457434,5.77316 -6.249082,8.47654 -1.825603,2.68183 -3.32864,5.23464 -4.643342,7.49961 -1.296047,2.27596 -2.381186,4.28253 -3.210174,5.9711 -0.847925,1.67613 -1.470948,3.02105 -1.897336,3.94476 l -0.315197,0.7069 c -0.237866,0.53163 -0.258668,1.14195 -0.01455,1.67067 0.552783,1.1988 2.189959,1.77999 5.561135,2.05218 l 0.05392,-0.0933 c 0,0 0.246728,-0.43106 0.711267,-1.23961 0.481051,-0.81331 1.190826,-2.01502 2.152833,-3.51663 0.952772,-1.50561 2.143225,-3.31511 3.539922,-5.36291 1.407237,-2.04089 3.058964,-4.29456 4.917308,-6.68713 1.844446,-2.40776 3.969854,-4.89062 6.292831,-7.40856 2.371017,-2.45329 4.87244,-5.04445 7.721896,-7.27769 2.528755,-2.0325 5.259091,-3.92145 8.129254,-5.36655 0.466405,0.0776 0.919378,0.18656 1.393059,0.2499 2.696941,0.52256 4.86759,0.5123 7.182825,0.68757 l 0.42816,0.0269 0.213613,0.0131 0.107273,0.007 0.325551,0.004 0.920683,-0.0335 1.833905,-0.07 c 1.217318,-0.0736 2.437433,-0.0394 3.630497,-0.211 2.039123,-0.22005 4.031607,-0.56985 5.987706,-0.9926 0.213609,0.1166 0.430029,0.23432 0.643639,0.35092 0.3694,0.20447 0.74812,0.37676 1.10818,0.60269 l 1.04661,0.77143 c 0.69961,0.50643 1.39548,1.00818 2.08576,1.50817 0.10169,0.0739 0.1987,0.15297 0.29104,0.23721 1.19866,1.09969 2.3796,2.18734 3.54095,3.25532 0.57834,0.65772 1.15015,1.30883 1.71637,1.95238 1.12963,1.29026 2.28725,2.49704 3.24058,3.8955 0.98971,1.34969 1.99155,2.62101 2.89731,3.91967 0.85539,1.35145 1.68185,2.65664 2.47662,3.91016 0.3983,0.626 0.78822,1.23887 1.1688,1.83754 0.36659,0.6122 0.68561,1.2425 1.01956,1.83978 0.6567,1.20239 1.27888,2.3422 1.86469,3.4138 1.21451,2.10946 2.09603,4.08219 2.85906,5.67816 0.40391,0.87779 0.93748,1.56901 1.50836,2.10903 0.77516,0.73314 1.87401,1.01407 2.91876,0.79945 2.14826,-0.43944 5.99517,-1.50999 7.04552,-3.66493 0.18749,-1.19116 0.12126,-2.80022 -0.72667,-4.48953 -0.82926,-1.69575 -1.77979,-3.77424 -3.12118,-6.07568 -0.64551,-1.15836 -1.33205,-2.39135 -2.05591,-3.69187 -0.36846,-0.64634 -0.7192,-1.32086 -1.1287,-1.99165 -0.42723,-0.66388 -0.86565,-1.34492 -1.3134,-2.03912 -0.89457,-1.38606 -1.8283,-2.83192 -2.79563,-4.32731 -1.03542,-1.46441 -2.20237,-2.93835 -3.35346,-4.4717 -1.10444,-1.55583 -2.47474,-3.04404 -3.87954,-4.5467 -0.70054,-0.75278 -1.40949,-1.51396 -2.12401,-2.28063 -0.80408,-0.71165 -1.6147,-1.43093 -2.43277,-2.15572 -0.37966,-0.32174 -0.74719,-0.65587 -1.11845,-0.98711 2.12774,-1.04279 4.15941,-2.18622 6.06048,-3.42583 7.07442,-4.65677 12.43901,-10.47369 16.27007,-16.18211 3.87116,-5.72513 5.96998,-11.46228 7.31229,-16.200952 0.29664,-1.200627 0.57741,-2.337906 0.84047,-3.408116 0.22947,-1.092042 0.34233,-2.184455 0.49532,-3.164562 0.13619,-0.989338 0.26212,-1.904611 0.37779,-2.74274 0.10634,-0.832533 0.0793,-1.45024 0.12126,-2.076902 0.0998,-2.432489 0.15298,-3.729095 0.15298,-3.729095 l 0.007,-0.231337 c 0,0 -0.0858,-1.405745 -0.24439,-4.043732"
     style="fill:#000000;fill-opacity:1;fill-rule:nonzero;stroke:none"
     id="path4719" />
</svg>
