<?xml version="1.0" encoding="UTF-8"?>
<svg width="192" height="192" version="1.1" viewBox="0 0 192 192" xmlns="http://www.w3.org/2000/svg">
 <path d="m83.765 8.0176c-2.57 0.08734-5.1449 0.50811-7.6734 1.2868-11.662 3.5905-19.183 11.873-22.828 24.486-0.084874 0.294-0.19092 0.58526-0.30531 0.87295-1.3608-1.5371-2.9346-2.9416-4.7763-4.0594-4.8691-2.9601-10.659-3.4081-17.206-1.3388-6.0534 1.9116-10.145 5.3973-12.158 10.36l0.0068-0.01135c-4.6833 11.543 3.4549 26.893 3.8039 27.539 0.145 0.268 0.42045 0.44101 0.72595 0.45004h0.0294c0.2929 0 0.56945-0.14703 0.72595-0.39803 0.0321-0.053 1.0887-1.7099 2.7862-3.9079 0.80751 3.6031 1.7815 6.1368 1.8793 6.382 0.12187 0.31246 0.4163 0.52346 0.75083 0.5405 0.01454 1e-3 0.02943 0 0.04297 0 0.31897 0 0.61317-0.17748 0.76213-0.46135 1.2015-2.3137 3.8526-6.6373 6.9271-9.962-4.6896 10.193-7.4519 21.214-8.388 32.996-1.152 14.5 0.0198 28.969 1.9834 43.39 1.5031 11.044 3.4106 22.038 5.1405 33.052 0.06419 0.40977 0.11732 0.82504 0.23068 1.2212 0.42631 1.4906 1.746 2.386 3.1458 2.1598 1.4374-0.2322 2.3733-1.4292 2.2955-3.0056-0.03411-0.68611-0.14395-1.3736-0.24877-2.0557-1.6997-11.017-3.4877-22.024-5.0817-33.057-1.4755-10.212-2.2654-20.474-2.2954-30.777-0.01592-5.3441 0.31287-10.568 1.0041-15.666-1.59e-4 0.0027-0.0068 0.12665-0.0068 0.12665l0.0068 0.23972s0.05499 1.3465 0.15831 3.8717c0.04364 0.6515 0.01531 1.2933 0.12664 2.1575 0.11987 0.87062 0.25157 1.8219 0.3935 2.8495 0.15798 1.0181 0.27464 2.1532 0.51337 3.2883 0.27384 1.1109 0.56401 2.2892 0.87295 3.537 1.3927 4.922 3.5724 10.881 7.5942 16.828 3.979 5.9281 9.5516 11.969 16.898 16.805 1.8191 1.1856 3.7474 2.2968 5.7692 3.3109-0.1625 0.14294-0.32273 0.28799-0.48623 0.42743-0.85111 0.7523-1.6916 1.4991-2.5261 2.2389-0.74281 0.79691-1.48 1.5864-2.2073 2.3678-1.4609 1.5608-2.8825 3.1062-4.03 4.7221-1.1957 1.5934-2.4064 3.124-3.4828 4.6452-1.0031 1.5538-1.9729 3.055-2.9038 4.4959-0.46446 0.7212-0.91884 1.4267-1.3637 2.1168-0.42482 0.69721-0.7893 1.3962-1.1715 2.0693-0.75231 1.3501-1.4671 2.6296-2.1371 3.8333-1.3937 2.3898-2.3796 4.55-3.2408 6.3119-0.88071 1.7549-0.94995 3.4247-0.75535 4.661 1.0908 2.2379 5.087 3.351 7.3183 3.8084 1.0853 0.22318 2.2255-0.0704 3.0304-0.83224 0.59333-0.5602 1.1485-1.2779 1.5672-2.1892 0.79391-1.6561 1.7075-3.7058 2.9694-5.8981 0.60831-1.1119 1.2555-2.2978 1.9381-3.5461 0.34602-0.62041 0.67773-1.2743 1.0584-1.9087 0.3957-0.6219 0.79992-1.261 1.2122-1.911 0.82551-1.3014 1.6849-2.6566 2.5736-4.0594 0.94091-1.3497 1.9817-2.6684 3.0078-4.0707 0.99101-1.452 2.1938-2.708 3.3674-4.0482 0.58881-0.66849 1.1822-1.3437 1.7821-2.0263 1.2077-1.1088 2.4324-2.2395 3.6772-3.381 0.0953-0.0888 0.19672-0.1703 0.30304-0.24649 0.71671-0.51761 1.4393-1.0411 2.1665-1.5672l1.0878-0.80058c0.21165-0.1319 0.43039-0.24124 0.64906-0.35506 2.3507 0.55218 4.767 0.97376 7.2392 1.2416 1.2387 0.17752 2.5073 0.1426 3.7722 0.21937l1.9042 0.0724 0.95663 0.0339 0.33697-5e-3 0.11081-5e-3 0.22389-0.0159 0.44552-0.0249c2.4028-0.18356 4.6564-0.17424 7.4585-0.7169 0.94541-0.12538 1.8606-0.31648 2.7794-0.49754 2.5498 1.4083 4.9825 3.1347 7.2595 4.9663 2.9601 2.32 5.5564 5.0117 8.0194 7.558 2.4114 2.6165 4.6199 5.1957 6.5358 7.696 1.9294 2.4851 3.6473 4.8256 5.1088 6.9452 1.4495 2.1266 2.6854 4.0073 3.675 5.5701 0.99852 1.5613 1.7366 2.8073 2.2366 3.6524 0.48198 0.83953 0.73952 1.2868 0.73952 1.2868l0.0543 0.0973c3.5022-0.28231 5.2044-0.88453 5.7782-2.1304 0.25328-0.5487 0.23043-1.1852-0.0159-1.7368l-0.32793-0.735c-0.44231-0.95741-1.0886-2.3543-1.9698-4.0956-0.8606-1.7544-1.9874-3.8369-3.3335-6.2011-1.3657-2.3522-2.928-5.0059-4.8238-7.791-1.8607-2.8071-4.0436-5.7555-6.4906-8.8019-2.5162-2.9997-5.27-6.1133-8.5576-9.0258-0.47296-0.42076-0.97471-0.83639-1.4632-1.2552 0.0753-0.0331 0.15101-0.0607 0.22616-0.0927 1.2167-0.6039 2.4386-1.2081 3.6659-1.816 1.2172-0.62491 2.3446-1.4196 3.5257-2.1258l1.7572-1.0946 1.6577-1.2461c1.0919-0.85421 2.2335-1.6503 3.2837-2.5646 4.231-3.6399 7.9336-7.9392 11.102-12.64 3.0884-4.769 5.4341-10.026 7.1283-15.496 1.623-5.5051 2.3512-11.241 2.456-16.975l-0.22388-4.2178c-0.0151-1.298-0.25729-2.7831-0.4885-4.2472-0.13537-0.73948-0.22934-1.501-0.34375-2.2525 0.87784 2.1554 1.7092 4.343 2.4877 6.5652 4.5676 13.038 7.527 26.524 10.204 40.077 1.4469 7.3225 2.67 14.69 4.0006 22.036 0.0902 0.49702 0.15047 1.0379 0.37767 1.4632 0.30847 0.57728 0.68926 1.181 1.1737 1.5627 0.94893 0.7468 1.9971 0.70076 2.9445 0.0406 1.0934-0.76082 1.4378-1.8968 1.1805-3.3177-1.1676-6.4403-2.2712-12.893-3.494-19.322v-2e-3c-0.99807-5.2472-2.0776-10.482-3.2182-15.7-2.4189-11.066-5.2886-21.996-9.3084-32.571-3.87-10.165-8.8313-19.634-15.421-28.066-3.3831-4.3316-7.088-8.2118-11.027-11.767 7.6422 2.2466 15.331 14.598 15.417 14.738 0.15698 0.25428 0.43407 0.40708 0.73048 0.40708 0.0181 0 0.0369 2e-3 0.0565 0 0.31598-0.02156 0.59657-0.21795 0.72595-0.50884 0.2819-0.63201 6.8226-15.618 1.7911-26.881-2.1765-4.8739-6.2075-8.2878-11.975-10.152-6.1677-1.9906-11.471-1.561-15.77 1.2778-3.3739 2.2285-5.6416 5.6172-7.1826 8.9964-0.23844-0.14906-0.47071-0.30687-0.71012-0.45457-0.89002-0.54901-1.7781-1.3168-2.3791-2.2118-6.8258-10.149-17.876-16.032-29.013-15.653zm1.522 6.1627c11.533 0.10606 21.232 7.9412 25.58 17.791-0.59647-0.18318-1.1964-0.3483-1.7957-0.5111-1.5101-1.2811-3.1276-2.4153-4.6791-3.6411-0.44737-0.35358-0.94939-0.7418-1.2122-1.2438-2.1085-4.0303-5.125-6.266-9.3966-6.0654-0.57277 0.02657-1.2312 0.10369-1.6735 0.43421-0.88472 0.66103-1.4763 0.39635-2.2728-0.30078-5.7969-5.0746-12.327-3.9481-16.039 2.7591-0.49954 0.90278-0.96276 1.1514-2.015 1.0968-3.3849-0.17805-5.711 1.8237-7.35 4.8419-0.41628 0.76686-0.8459 1.6495-0.89104 2.5171-0.09981 1.9124-1.1071 3.1072-2.0625 4.5321-0.96705 1.4421-1.6931 3.0841-2.4153 4.7266-0.44466 0.3344-0.89279 0.66714-1.3253 1.0086 0.35364-11.207 7.7202-24.476 21.991-27.401 1.8883-0.38687 3.7441-0.5617 5.5566-0.54503zm-2.352 9.4803c1.9404-0.03863 3.961 0.94872 5.3983 3.0734 1.1174 1.6516 2.5712 1.8092 4.0843 0.72595 2.288-1.6385 4.9866-0.61364 6.0564 2.2412 1e-3 0.0038 3e-3 0.0075 5e-3 0.01135-0.96352-0.05701-1.9264-0.10548-2.8812-0.17188l-0.47492-0.02714-0.23746-0.01357-0.1176-0.0068s-0.43495 0.01031-0.30304 0.0068l-0.88652 0.03393-1.7663 0.07011c-1.1997 0.07673-2.2827 0.02926-3.5551 0.2058-2.5046 0.38814-5.1076 0.57957-7.3907 1.2551-1.1711 0.28989-2.3348 0.57677-3.4873 0.86164-1.1284 0.36567-2.2346 0.77648-3.338 1.1602-1.8729 0.64193-3.6511 1.4218-5.3757 2.2615 0.0095-0.16364 0.03195-0.32694 0.03393-0.49075 0.03812-3.0428 2.2449-4.9256 4.9482-4.1522 1.7955 0.51408 3.1135-0.12801 3.6071-2.0489 0.82351-3.2009 3.1862-4.9461 5.681-4.9957zm55.043 36.555c2.5824 4.0233 4.5506 8.4407 6.0157 13.031l0.92271 3.6592c0.37565 1.2273 0.40175 2.4153 0.63096 3.623 0.18707 1.1967 0.40569 2.3737 0.41612 3.779l0.18545 3.8604c-0.14851 5.0495-0.81608 10.075-2.2751 14.885-1.5914 4.756-3.7248 9.3057-6.4974 13.411-2.8547 4.0378-6.1419 7.7143-9.8738 10.799-3.7989 2.9786-7.8339 5.5811-12.165 7.3771-1.0347 0.55222-2.1856 0.81527-3.2634 1.2371-1.0979 0.36564-2.159 0.83017-3.2905 1.0448-1.1139 0.27083-2.2215 0.5408-3.3244 0.80963-1.0989 0.25729-2.1564 0.32176-3.2227 0.4998-1.988 0.40822-4.5687 0.37994-6.909 0.49527l-0.44552 0.0181-0.22163 7e-3h-0.02714c0.08125-3e-3 0.16507-7e-3 0.03166-5e-3l-0.81641-0.0565-1.6238-0.1063c-1.0753-0.0957-2.1571-0.0714-3.2068-0.25556-8.4561-1.1199-16.074-4.2189-22.197-8.3676-6.1201-4.191-10.704-9.3598-13.947-14.379-3.3402-4.9938-5.164-9.9583-6.3391-14.069-0.28036-1.0377-0.54503-2.0207-0.7938-2.9445-0.21164-0.9168-0.29631-1.7485-0.44326-2.5374-0.13542-0.78441-0.26056-1.51-0.37541-2.1756-0.11585-0.6721-0.10741-1.4506-0.16057-2.058-0.12288-2.0528-0.19982-3.3097-0.22389-3.7134 0.01054-0.3024 0.05669-1.483 0.13343-3.4601 0.03762-0.57671 0.0072-1.2299 0.10403-1.9336 0.01655-0.11736 0.03672-0.26233 0.05427-0.3822 12.265-4.565 21.98-13.595 26.444-18.282 27.757 13.733 59.794-0.42124 66.704-3.8107z"/>
</svg>
