<?xml version="1.0" encoding="UTF-8"?>
<svg width="192" height="192" version="1.1" viewBox="0 0 192 192" xmlns="http://www.w3.org/2000/svg">
 <path d="m79.902 8.007c-1.657 0.053322-3.4182 0.37931-5.2761 0.97924-4.6329 1.4974-7.8696 4.2398-9.6183 8.1551-4.0421 9.0469 1.2122 21.09 1.4383 21.598 0.10394 0.23347 0.32911 0.38985 0.58347 0.40708 0.01567 0.0016 0.03062-2e-6 0.04523 0 0.23765 0 0.4616-0.12144 0.588-0.32566 0.0768-0.12692 7.8-12.543 14.562-12.117 0.83831 0.05798 1.6315 0.34286 2.3837 0.81189-1.617 1.0639-3.1919 2.2098-4.7108 3.4398-3.3924 2.8805-6.3666 6.2915-8.9217 10.03-2.4971 3.7877-4.4433 7.9571-5.8551 12.325l-0.87069 3.3358c-0.33427 1.0874-0.41491 2.3156-0.62644 3.4714-0.18594 1.1762-0.38149 2.3695-0.39351 3.4126l-0.17866 3.39c0.08409 4.6058 0.66839 9.2126 1.9721 13.635 1.3606 4.3931 3.2453 8.6163 5.7262 12.447 2.5452 3.7757 5.5203 7.2304 8.9195 10.154 0.84353 0.73436 1.7617 1.3734 2.6392 2.0602l1.332 1.0019 1.4089 0.87747c0.94904 0.56724 1.8559 1.206 2.8337 1.7075 0.9856 0.48888 1.9673 0.97627 2.9445 1.461 0.06061 0.0261 0.12311 0.0474 0.18318 0.0747-0.39226 0.33584-0.79578 0.66847-1.176 1.0064-2.6408 2.3394-4.8537 4.8405-6.875 7.2505-1.966 2.4475-3.7203 4.8171-5.2151 7.0718-0.11904 0.17491-0.2066 0.34663-0.30304 0.52016-0.20483-0.31269-0.41337-0.62305-0.6174-0.93627-0.4236-0.65079-0.8848-1.1552-1.7346-1.1014-0.86026 0.0538-1.2283 0.65322-1.5672 1.3343-7.2191 14.492-14.446 28.98-21.67 43.469-1.1412 2.2887-0.80724 3.3823 1.4293 4.6814 9.8881 5.7418 21.907 4.1392 29.968-3.9984 7.7438-7.8171 9.0765-20.809 3.0689-30.006-1.4922-2.2846-3.0105-4.5518-4.5163-6.8276v-2e-3c9.26e-4 0 0.0049-1e-3 0.0068-2e-3 -0.09576-0.14472-0.19139-0.28955-0.28722-0.43422 0.61666-0.83372 1.2582-1.6845 1.9449-2.5691 1.5392-2.0088 3.3118-4.0818 5.249-6.183 1.979-2.0459 4.0651-4.2063 6.4431-6.0699 1.8291-1.4718 3.784-2.8603 5.8325-3.9916 0.73802 0.1452 1.4727 0.29948 2.2321 0.40029 2.2511 0.43612 4.0626 0.42715 5.9931 0.57443l0.35732 0.0226 0.17866 0.0116 0.0905 5e-3 0.26912 2e-3 0.76893-0.0271 1.531-0.0588c1.0164-0.0616 2.0326-0.031 3.0282-0.17414 1.9858-0.21517 3.9285-0.55336 5.8166-0.99732 0.17602 0.0914 0.35265 0.17614 0.52241 0.28269l0.87295 0.64453c0.58446 0.42308 1.1635 0.84167 1.7391 1.2574 0.0857 0.0611 0.168 0.12851 0.24425 0.19902 1.0002 0.91769 1.9859 1.8255 2.9558 2.7161 0.48209 0.54843 0.95829 1.0931 1.4315 1.6306 0.94226 1.076 1.9088 2.084 2.7048 3.2498 0.82419 1.1266 1.6595 2.1864 2.4153 3.2702 0.714 1.1261 1.4042 2.2159 2.067 3.2611 0.33167 0.5223 0.65663 1.0335 0.97472 1.5333 0.30554 0.50924 0.57246 1.0379 0.85034 1.5356 0.54843 1.0028 1.0675 1.9547 1.5559 2.8473 1.0138 1.7617 1.8954 3.3465 2.3859 4.7379 8.1966 23.257 8.7259 42.352 9.2022 42.802 0.64714 0.61162 1.5634 0.84404 2.4357 0.66489 1.7915-0.36771 5.0013-1.2598 5.8777-3.0576 0.15669-0.99343-0.71767-25.754-8.5486-44.785-0.59962-1.4572-1.4855-3.1498-2.6053-5.0704-0.53797-0.9668-1.1094-1.9931-1.7142-3.0779-0.30713-0.54059-0.60201-1.1028-0.94307-1.6622-0.35778-0.55469-0.72112-1.1237-1.0946-1.7029-0.74742-1.1574-1.5257-2.3622-2.3316-3.6094-0.86493-1.2222-1.8388-2.4518-2.7998-3.7315-0.92135-1.2984-2.0626-2.539-3.2362-3.7926-0.58447-0.62834-1.176-1.2638-1.773-1.9042-0.67013-0.59438-1.3472-1.1936-2.0309-1.7979-0.13162-0.11232-0.25841-0.22885-0.38898-0.34376 1.6238-0.81427 3.1725-1.7073 4.6339-2.6596 5.9021-3.8854 10.377-8.7395 13.574-13.501 3.231-4.7776 4.9823-9.5635 6.1016-13.517 0.24757-1.0023 0.48118-1.9501 0.70107-2.8427 0.19168-0.91091 0.28694-1.8241 0.41387-2.6415 0.11382-0.82577 0.21825-1.5894 0.31434-2.2887 0.0893-0.69415 0.0668-1.209 0.10178-1.7323 0.083-2.0286 0.12666-3.1119 0.12666-3.1119l5e-3 -0.19223s-0.0714-1.1742-0.20354-3.3742c-0.0475-0.54843-0.0431-1.1651-0.147-1.8341-0.10861-0.66856-0.22762-1.3987-0.35505-2.1869-0.14155-0.78555-0.24253-1.64-0.44779-2.5307-0.2366-0.88479-0.49002-1.8245-0.75536-2.8179-1.16-3.9209-2.9645-8.644-6.2034-13.354-0.058-0.08513-0.12242-0.17163-0.18092-0.25781 0.13789-0.02716 0.27336-0.06575 0.41386-0.07463 4.4756-0.21571 9.932 8.3043 11.66 11.633 0.11961 0.22772 0.35641 0.36863 0.61287 0.36863 0.0104 0 0.022 1e-3 0.0339 0 0.26846-0.0141 0.50565-0.18351 0.60383-0.43421 0.0783-0.19691 0.86202-2.2323 1.5107-5.1269 1.369 1.7748 2.2173 3.1062 2.2434 3.148 0.12534 0.20161 0.34619 0.32114 0.58122 0.32114h0.0249c0.24549-0.0073 0.46753-0.14613 0.58348-0.36184 0.28048-0.5197 6.8181-12.849 3.0553-22.122-1.617-3.9862-4.9026-6.7864-9.7653-8.3224-5.2602-1.662-9.9106-1.3015-13.822 1.0765-3.723 2.26-6.1384 5.9399-7.6734 9.2587-1.0712-0.84666-2.1836-1.6686-3.3697-2.4447-2.9698-1.8301-6.1708-3.5986-9.7314-4.8193-0.88635-0.30816-1.7737-0.63769-2.6799-0.93175-0.92606-0.22825-1.8613-0.45908-2.802-0.69203-1.8338-0.54268-3.9268-0.69635-5.9388-1.0086-1.0222-0.14102-1.8904-0.10346-2.8541-0.16509l-1.418-0.05654-0.71463-0.02714c0.10548 0.0031-0.24199-0.0045-0.24199-0.0045l-0.0949 0.0045-0.18997 0.01135-0.38219 0.02036c-2.0333 0.14207-4.1007 0.15624-6.1514 0.57669-2.811 0.36875-5.5898 1.1383-8.3292 2.1077-0.925-3.8123-3.0104-9.4689-7.5739-12.484-2.1582-1.426-4.6316-2.0956-7.3934-2.0067zm-4.5864 36.456c5.5506 2.7222 31.285 14.092 53.585 3.0598 3.5856 3.7648 11.39 11.019 21.243 14.686 0.0141 0.09663 0.0322 0.21303 0.0453 0.30757 0.0778 0.56566 0.0511 1.0899 0.0814 1.5537 0.0616 1.5878 0.10004 2.5366 0.1085 2.7794-0.0193 0.32435-0.0794 1.334-0.17866 2.983h-2e-3c-0.0423 0.48784-0.036 1.1126-0.1289 1.6532-0.0919 0.53433-0.19163 1.1178-0.30079 1.7482-0.11805 0.63356-0.18705 1.3012-0.35732 2.0376-0.20004 0.7422-0.41263 1.5313-0.63776 2.3656-0.94433 3.302-2.4093 7.2914-5.093 11.303-2.6047 4.0317-6.2853 8.1836-11.201 11.55-4.919 3.3328-11.037 5.8214-17.83 6.7213-0.84404 0.14782-1.7142 0.1285-2.5781 0.20581l-1.3049 0.0859-0.65584 0.0453c-0.10711-2e-3 -0.0404 2e-3 0.0249 5e-3l-0.0204-2e-3 -0.17866-5e-3 -0.35732-0.0159c-1.8798-0.0924-3.9548-0.0701-5.5521-0.39803-0.85654-0.14364-1.7045-0.19293-2.5872-0.4003-0.88635-0.21571-1.7757-0.43404-2.6709-0.65132-0.90881-0.17237-1.7615-0.54548-2.6437-0.83903-0.86591-0.33892-1.79-0.54931-2.621-0.99275-3.4791-1.4431-6.7202-3.5342-9.7721-5.9275-2.9985-2.4779-5.64-5.4317-7.9334-8.6752-2.2276-3.2973-3.9393-6.9514-5.2173-10.772-1.172-3.8645-1.7082-7.9011-1.8273-11.957l0.147-3.1028c8e-3 -1.1287 0.18429-2.074 0.33471-3.035 0.18386-0.97045 0.20521-1.9251 0.50658-2.9106l0.74178-2.94c1.1767-3.6864 2.7583-7.2348 4.8329-10.466zm-30.807 51.334c-6.1549-0.08673-12.296 2.1302-17.004 6.5539-7.0867 6.6591-9.7425 17.54-6.0111 26.539 1.2635 3.0476 4.8915 8.6679 4.9641 8.6277 1.1031 1.6677 2.2407 3.3129 3.2973 5.0093 0.81171 1.3026 1.9197 1.8251 3.4307 1.7301 8.3491-0.5265 16.699-1.0321 25.049-1.5288 0.52854-0.0318 0.84944-0.18573 1.0991-0.68976 3.7712-7.6091 7.5614-15.207 11.353-22.805 0.62155-1.2457 0.55993-2.417-0.22615-3.589-2.0516-3.0566-4.0394-6.1552-6.1197-9.1909-0.82051-1.1976-1.7266-2.3649-2.7478-3.3923-4.7606-4.787-10.929-7.1773-17.084-7.264zm8.5011 9.9847c0.21363-0.0202 0.42938 0.0492 0.70334 0.22841 8.9581 5.8611 10.148 18.958 2.3814 26.378-7.1671 6.8475-18.191 6.4052-24.752-1.0471-2.001-2.2725-3.2953-4.9408-3.8808-7.9425-0.13841-0.70881 0.3022-0.74345 0.70334-1.2846 1.9148-2.5844 4.9118-3.9252 5.8958-8.3111 0.4476-1.9957 5.8823-1.6927 5.1495-3.632 5.57 4.0521 8.3208 1.432 9.8919-0.4817 0.76571-0.93232 1.8744-2.6635 3.2204-3.5958 0.26405-0.18281 0.47388-0.29199 0.6875-0.31209zm3.2227 42.399c-6.4531 0.39588-12.711 0.76652-18.967 1.176-1.4405 0.094-2.04 1.3958-1.2461 2.6008 2.8617 4.3438 5.8046 8.6369 8.5712 13.04 0.97821 1.558 2.6269 1.4455 3.3968-0.18092 2.0866-4.4075 4.3237-8.7429 6.4996-13.108 0.56201-1.1282 1.1176-2.2593 1.7459-3.528z"/>
</svg>
