<?xml version="1.0" encoding="UTF-8" standalone="no"?>
<svg xmlns:rdf="http://www.w3.org/1999/02/22-rdf-syntax-ns#" xmlns="http://www.w3.org/2000/svg" height="100%" width="100%" version="1.1" xmlns:cc="http://creativecommons.org/ns#" xmlns:dc="http://purl.org/dc/elements/1.1/" viewBox="0 0 176 176">
 <g transform="matrix(.86364 0 0 .86364 22.199 12)">
  <path d="m151.22 19.913c-1.617-3.9862-4.9034-6.7858-9.766-8.3218-5.2601-1.662-9.9102-1.3021-13.822 1.0759-3.723 2.26-6.1376 5.9401-7.6726 9.2589-1.0712-0.84665-2.1843-1.6698-3.3704-2.4459-2.9698-1.8301-6.1689-3.5981-9.7294-4.8188-0.88635-0.30816-1.7753-0.63773-2.6815-0.93179-0.92604-0.22825-1.8599-0.4591-2.8006-0.69205-1.8338-0.54267-3.9267-0.69571-5.9386-1.008-1.0222-0.14102-1.8923-0.10342-2.856-0.16505l-1.4175-0.05641-0.71294-0.0282c0.1055 0.0031-0.24287-0.0052-0.24287-0.0052l-0.0945 0.0052-0.19169 0.01097-0.38076 0.02194c-2.0333 0.14207-4.1016 0.15617-6.1522 0.57662-2.811 0.36875-5.5892 1.1376-8.3286 2.107-0.92499-3.8123-3.0095-9.4683-7.5729-12.483-3.4524-2.2804-7.7144-2.6261-12.669-1.0263-4.6328 1.4974-7.8695 4.2395-9.6182 8.1547-4.0421 9.0468 1.2123 21.088 1.4384 21.596 0.10394 0.23347 0.32853 0.38964 0.58289 0.40687 0.01567 0.0016 0.03134 0.0016 0.04596 0.0016 0.23765 0 0.46067-0.12326 0.58707-0.32748 0.0768-0.12692 7.8001-12.542 14.562-12.116 0.8383 0.05798 1.6306 0.34159 2.3827 0.81061-1.617 1.0639-3.1918 2.2099-4.7106 3.4399-3.3924 2.8805-6.3669 6.2927-8.922 10.031-2.4971 3.7877-4.4422 7.9578-5.854 12.326l-0.8712 3.3354c-0.33427 1.0874-0.41523 2.3159-0.62676 3.4717-0.18594 1.1762-0.37971 2.3686-0.39173 3.4117l-0.17967 3.3892c0.08409 4.6057 0.66855 9.2139 1.9722 13.636 1.3606 4.3931 3.2456 8.6149 5.7265 12.446 2.5452 3.7757 5.5192 7.2302 8.9183 10.154 0.84352 0.73436 1.7612 1.3737 2.6387 2.0605l1.3324 1.0018 1.4097 0.87904c0.94903 0.56722 1.8557 1.205 2.8335 1.7064 0.98559 0.48887 1.9675 0.97514 2.9447 1.4598 0.0606 0.0261 0.12222 0.0475 0.18229 0.0747-0.39225 0.33584-0.79599 0.6696-1.1762 1.0075-2.6408 2.3394-4.8527 4.8402-6.874 7.2501-1.966 2.4475-3.7193 4.8167-5.2141 7.0714-1.523 2.2376-1.0577 4.3685-2.1545 6.2588-1.0812 1.8986-1.9863 3.572-2.6778 4.9817-0.70772 1.3982-1.2274 2.5212-1.5831 3.2905l-0.26324 0.5902c-0.19796 0.44291-0.21572 0.9532-0.012 1.3935 0.46067 1.0002 0.10655 1.4854 2.9202 1.7121l0.0449-0.0773s0.20578-0.35935 0.59333-1.0342c0.40113-0.67899 0.99394-1.6808 1.7957-2.9343 0.79546-1.2561 1.7894-2.7656 2.9541-4.474 1.1736-1.7027 2.5525-3.583 4.1022-5.5792 1.5392-2.0088 3.313-4.0808 5.2502-6.182 1.979-2.0459 4.0656-4.2082 6.4436-6.0718 1.8291-1.4718 3.7825-2.8586 5.831-3.9899 0.73801 0.1452 1.4729 0.29928 2.2323 0.40008 2.2511 0.43612 4.0625 0.42724 5.9929 0.57453l0.35725 0.0219 0.17915 0.012 0.0893 0.004 0.27108 0.004 0.76883-0.0282 1.5298-0.058c1.0164-0.0616 2.0338-0.0324 3.0294-0.1755 1.9858-0.21518 3.9277-0.55311 5.8158-0.99707 0.17602 0.0914 0.35255 0.17758 0.5223 0.28413l0.87329 0.644c0.58446 0.42307 1.1642 0.84247 1.7398 1.2582 0.0857 0.0611 0.16662 0.12744 0.24287 0.19795 1.0002 0.91768 1.9858 1.8254 2.9557 2.716 0.48209 0.54842 0.95895 1.0921 1.4322 1.6296 0.94224 1.076 1.9074 2.084 2.7034 3.2498 0.82419 1.1266 1.6604 2.1874 2.4162 3.2712 0.71399 1.1261 1.4045 2.2161 2.0673 3.2613 0.33167 0.5223 0.65758 1.0342 0.97566 1.534 0.30555 0.50924 0.5714 1.0368 0.84927 1.5345 0.54842 1.0028 1.0681 1.955 1.5565 2.8476 1.0138 1.7617 1.8954 3.3464 2.3859 4.7378 8.1965 23.257 8.7256 42.35 9.2019 42.8 0.64713 0.61162 1.5627 0.84613 2.435 0.66698 1.7915-0.3677 5.0016-1.2598 5.878-3.0576 0.15669-0.99342-0.71816-25.754-8.549-44.785-0.59961-1.4572-1.4849-3.1495-2.6047-5.07-0.53798-0.96678-1.1104-1.9947-1.7152-3.0795-0.30712-0.54059-0.60013-1.1031-0.94119-1.6625-0.35778-0.55469-0.72235-1.1219-1.0958-1.7011-0.74742-1.1574-1.5267-2.3624-2.3326-3.6096-0.86493-1.2222-1.8375-2.4527-2.7985-3.7324-0.92134-1.2984-2.0636-2.5394-3.2372-3.793-0.58446-0.62833-1.1752-1.2624-1.7722-1.9028-0.67012-0.59438-1.3465-1.1945-2.0302-1.7988-0.13162-0.1123-0.25959-0.22929-0.39016-0.3442 1.6238-0.81427 3.1719-1.7058 4.6333-2.658 5.902-3.8854 10.378-8.7392 13.575-13.501 3.231-4.7775 4.9817-9.5644 6.101-13.518 0.24757-1.0023 0.48209-1.9503 0.70198-2.8429 0.19168-0.9109 0.2857-1.8234 0.41262-2.6408 0.11386-0.82576 0.21884-1.5894 0.31494-2.2887 0.0893-0.69414 0.0669-1.2097 0.10185-1.733 0.083-2.0286 0.12744-3.1108 0.12744-3.1108l0.005-0.19273s-0.0715-1.1736-0.20369-3.3736c-0.0475-0.54842-0.0444-1.1658-0.14834-1.8348-0.10864-0.66855-0.2272-1.3982-0.35464-2.1864-0.14154-0.78554-0.24339-1.64-0.44866-2.5306-0.2366-0.88478-0.48887-1.8239-0.7542-2.8173-1.16-3.9209-2.9646-8.6457-6.2034-13.356-0.058-0.08513-0.12326-0.17079-0.18176-0.25697 0.13789-0.02716 0.27369-0.06529 0.41419-0.07417 4.4756-0.21571 9.9326 8.303 11.661 11.632 0.11961 0.22772 0.35569 0.37031 0.61214 0.37031 0.0105 0 0.023 0 0.035-0.001 0.26846-0.0141 0.50559-0.18333 0.60378-0.43403 0.0783-0.19691 0.86023-2.2313 1.5089-5.1259 1.369 1.7748 2.2187 3.1046 2.2448 3.1464 0.12535 0.20161 0.34629 0.32174 0.58132 0.32174h0.0235c0.24548-0.0073 0.46746-0.14572 0.58341-0.36143 0.28048-0.51969 6.8187-12.85 3.056-22.123m-20.83 41.918c-0.0423 0.48783-0.0366 1.1141-0.12953 1.6547-0.0919 0.53432-0.19221 1.1167-0.30137 1.7471-0.11804 0.63355-0.18542 1.3016-0.35569 2.038-0.20004 0.74219-0.41262 1.5303-0.63773 2.3645-0.94432 3.302-2.4094 7.2913-5.093 11.303-2.6047 4.0317-6.287 8.184-11.203 11.55-4.919 3.3328-11.037 5.8221-17.83 6.722-0.84404 0.14781-1.7126 0.12849-2.5765 0.20579l-1.3058 0.08566-0.65548 0.0444c-0.10708-0.0021-0.0397 0.0016 0.0256 0.0042l-0.0214-0.001-0.17863-0.0057-0.35778-0.01462c-1.8798-0.09245-3.9533-0.06999-5.5505-0.398-0.85657-0.14363-1.7058-0.19325-2.5885-0.40061-0.88634-0.21571-1.7753-0.43351-2.6705-0.65079-0.9088-0.17236-1.7612-0.54528-2.6434-0.83882-0.86598-0.33897-1.7894-0.54998-2.6204-0.99342-3.4791-1.4431-6.7215-3.5344-9.7733-5.9276-2.9985-2.4779-5.6388-5.4315-7.9322-8.675-2.2276-3.2973-3.9408-6.9508-5.2188-10.771-1.172-3.8645-1.7079-7.9024-1.827-11.958l0.14834-3.1025c0.008-1.1287 0.1828-2.0725 0.33322-3.0335 0.18386-0.97044 0.20527-1.9263 0.50664-2.9118l0.74167-2.94c1.1767-3.6864 2.7593-7.2355 4.8339-10.467 5.5505 2.7222 31.285 14.093 53.584 3.0607 3.5856 3.7648 11.391 11.02 21.243 14.687 0.0141 0.09663 0.0303 0.2131 0.0434 0.30764 0.0778 0.56565 0.0527 1.0895 0.083 1.5533 0.0616 1.5878 0.0987 2.5358 0.10707 2.7786-0.0193 0.32435-0.0794 1.3345-0.17863 2.9834"/>
  <path d="m61.995 124.8c1.5058 2.2757 3.0231 4.544 4.5153 6.8286 6.0075 9.1972 4.6762 22.188-3.0675 30.005-8.0602 8.1375-20.08 9.7415-29.968 3.9998-2.2365-1.299-2.5702-2.3927-1.429-4.6814 7.224-14.489 14.45-28.978 21.669-43.47 0.33898-0.68108 0.70825-1.2802 1.5685-1.334 0.84978-0.0538 1.311 0.45022 1.7346 1.101 1.6453 2.5259 3.3192 5.0329 4.9828 7.5468-0.002 0.001-0.004 0.003-0.005 0.004"/>
  <path d="m36.427 140.18c-0.62833 1.2687-1.1851 2.3994-1.7471 3.5276-2.1759 4.3649-4.4134 8.7005-6.5 13.108-0.76987 1.6264-2.4183 1.7382-3.3965 0.18019-2.7666-4.403-5.7098-8.6953-8.5715-13.039-0.79389-1.205-0.19377-2.5086 1.2467-2.6026 6.2561-0.40948 12.515-0.77823 18.968-1.1741"/>
  <path d="m19.403 102.17c0.73279 1.9393-4.7007 1.6359-5.1483 3.6316-0.98401 4.3858-3.982 5.727-5.8968 8.3114-0.40113 0.5411-0.84195 0.5761-0.70354 1.2849 0.5855 3.0017 1.8818 5.6691 3.8828 7.9416 6.5612 7.4522 17.585 7.8946 24.752 1.0472 7.7666-7.4204 6.5768-20.516-2.3812-26.377-0.5479-0.3583-0.86441-0.28152-1.3925 0.0841-1.346 0.93231-2.4548 2.6627-3.2205 3.595-1.5711 1.9137-4.322 4.5331-9.8919 0.48104m-17.716 18.719c-3.7313-8.9993-1.0759-19.88 6.0107-26.539 9.4166-8.8473 24.567-8.8635 34.088 0.71033 1.0211 1.0274 1.9273 2.1937 2.7478 3.3913 2.0803 3.0356 4.0687 6.1344 6.1203 9.191 0.78607 1.172 0.84822 2.343 0.22668 3.5887-3.7914 7.5984-7.5828 15.197-11.354 22.806-0.24966 0.50403-0.57087 0.65758-1.0994 0.68944-8.3495 0.49671-16.699 1.0023-25.048 1.5288-1.511 0.0951-2.6188-0.42829-3.4305-1.7309-1.0566-1.6964-2.1947-3.3412-3.2978-5.0089-0.0726 0.0402-3.7005-5.5787-4.964-8.6263"/>
 </g>
</svg>
