<?xml version="1.0" encoding="UTF-8" standalone="no"?>
<svg xmlns:dc="http://purl.org/dc/elements/1.1/" xmlns:cc="http://creativecommons.org/ns#" xmlns:rdf="http://www.w3.org/1999/02/22-rdf-syntax-ns#" xmlns:svg="http://www.w3.org/2000/svg" xmlns="http://www.w3.org/2000/svg" viewBox="0 0 176 176" version="1.1">
  
  
  <path d="M 74.099609 12.005859 C 72.668548 12.051911 71.14759 12.333443 69.542969 12.851562 C 65.541898 14.144777 62.746575 16.513207 61.236328 19.894531 C 57.745408 27.707709 62.283247 38.108146 62.478516 38.546875 C 62.568286 38.748509 62.762746 38.883558 62.982422 38.898438 C 62.995952 38.899837 63.008864 38.898437 63.021484 38.898438 C 63.226728 38.898438 63.420133 38.793561 63.529297 38.617188 C 63.595627 38.507574 70.265622 27.784433 76.105469 28.152344 C 76.829459 28.202414 77.51452 28.448452 78.164062 28.853516 C 76.767556 29.772343 75.407399 30.761941 74.095703 31.824219 C 71.16589 34.311934 68.597311 37.257783 66.390625 40.486328 C 64.234029 43.757538 62.553271 47.358307 61.333984 51.130859 L 60.582031 54.011719 C 60.293342 54.950841 60.223702 56.011571 60.041016 57.009766 C 59.880431 58.025579 59.711553 59.056169 59.701172 59.957031 L 59.546875 62.884766 C 59.619495 66.862433 60.124116 70.841054 61.25 74.660156 C 62.425068 78.454213 64.052708 82.101464 66.195312 85.410156 C 68.39345 88.671001 70.962839 91.654578 73.898438 94.179688 C 74.626936 94.813911 75.41989 95.365836 76.177734 95.958984 L 77.328125 96.824219 L 78.544922 97.582031 C 79.364542 98.071905 80.14772 98.623612 80.992188 99.056641 C 81.843383 99.478849 82.691207 99.89978 83.535156 100.31836 C 83.587496 100.34086 83.64148 100.35931 83.693359 100.38281 C 83.354596 100.67285 83.006099 100.96012 82.677734 101.25195 C 80.397034 103.27235 78.485909 105.43239 76.740234 107.51367 C 75.042318 109.62743 73.527297 111.67384 72.236328 113.62109 C 72.13352 113.77214 72.0579 113.92045 71.974609 114.07031 C 71.797711 113.80026 71.617609 113.53223 71.441406 113.26172 C 71.075568 112.69968 70.677263 112.26405 69.943359 112.31055 C 69.200413 112.35701 68.882601 112.87469 68.589844 113.46289 C 62.355227 125.97877 56.113935 138.49063 49.875 151.00391 C 48.889414 152.98052 49.177844 153.925 51.109375 155.04688 C 59.649048 160.00563 70.029123 158.62162 76.990234 151.59375 C 83.678003 144.84268 84.828943 133.62276 79.640625 125.67969 C 78.351902 123.70662 77.040703 121.74859 75.740234 119.7832 L 75.740234 119.78125 C 75.741034 119.78125 75.744394 119.78017 75.746094 119.7793 C 75.66339 119.65432 75.580803 119.52924 75.498047 119.4043 C 76.030617 118.68427 76.584636 117.94953 77.177734 117.18555 C 78.507049 115.45067 80.037893 113.66038 81.710938 111.8457 C 83.42008 110.07878 85.221656 108.213 87.275391 106.60352 C 88.855075 105.33241 90.543334 104.13329 92.3125 103.15625 C 92.949875 103.28165 93.584386 103.41489 94.240234 103.50195 C 96.184374 103.8786 97.748845 103.87085 99.416016 103.99805 L 99.724609 104.01758 L 99.878906 104.02734 L 99.957031 104.03125 L 100.18945 104.0332 L 100.85352 104.00977 L 102.17578 103.95898 C 103.05358 103.90578 103.93118 103.93216 104.79102 103.80859 C 106.50604 103.62276 108.18381 103.33069 109.81445 102.94727 C 109.96647 103.02617 110.11901 103.09939 110.26562 103.19141 L 111.01953 103.74805 C 111.52429 104.11343 112.02437 104.47494 112.52148 104.83398 C 112.59548 104.88678 112.66657 104.94497 112.73242 105.00586 C 113.59623 105.79841 114.44752 106.5824 115.28516 107.35156 C 115.70151 107.8252 116.11277 108.29556 116.52148 108.75977 C 117.33524 109.68905 118.16996 110.55957 118.85742 111.56641 C 119.56922 112.53938 120.29062 113.45461 120.94336 114.39062 C 121.55999 115.36316 122.1561 116.30436 122.72852 117.20703 C 123.01496 117.65811 123.2956 118.0996 123.57031 118.53125 C 123.83419 118.97105 124.06471 119.42759 124.30469 119.85742 C 124.77833 120.72348 125.22664 121.54553 125.64844 122.31641 C 126.524 123.83789 127.28536 125.20653 127.70898 126.4082 C 134.7878 146.49387 135.2449 162.98441 135.65625 163.37305 C 136.21514 163.90127 137.00642 164.10199 137.75977 163.94727 C 139.30698 163.62971 142.07905 162.85929 142.83594 161.30664 C 142.97127 160.44868 142.21614 139.06484 135.45312 122.62891 C 134.93527 121.37041 134.17023 119.90862 133.20312 118.25 C 132.73851 117.41505 132.24499 116.52868 131.72266 115.5918 C 131.45742 115.12493 131.20275 114.63937 130.9082 114.15625 C 130.59921 113.6772 130.28542 113.18577 129.96289 112.68555 C 129.31739 111.68598 128.64523 110.64549 127.94922 109.56836 C 127.20224 108.51282 126.36121 107.4509 125.53125 106.3457 C 124.73554 105.22435 123.7499 104.15297 122.73633 103.07031 C 122.23157 102.52766 121.72067 101.97885 121.20508 101.42578 C 120.62634 100.91245 120.04164 100.39495 119.45117 99.873047 C 119.3375 99.776057 119.228 99.675413 119.11523 99.576172 C 120.51761 98.872936 121.85507 98.101655 123.11719 97.279297 C 128.2144 93.92371 132.07878 89.731621 134.83984 85.619141 C 137.63026 81.4931 139.14271 77.359799 140.10938 73.945312 C 140.32319 73.079686 140.52494 72.261119 140.71484 71.490234 C 140.88038 70.703544 140.96265 69.914924 141.07227 69.208984 C 141.17057 68.495825 141.26076 67.836366 141.34375 67.232422 C 141.42085 66.632935 141.40144 66.188271 141.43164 65.736328 C 141.50334 63.984348 141.54102 63.048828 141.54102 63.048828 L 141.54492 62.882812 C 141.54492 62.882812 141.48325 61.868758 141.36914 59.96875 C 141.32814 59.495112 141.3319 58.962541 141.24219 58.384766 C 141.14839 57.80738 141.04561 57.176815 140.93555 56.496094 C 140.81331 55.81767 140.7261 55.079705 140.54883 54.310547 C 140.34449 53.546416 140.12563 52.734893 139.89648 51.876953 C 138.89466 48.490707 137.33622 44.411754 134.53906 40.34375 C 134.48896 40.27023 134.43333 40.195522 134.38281 40.121094 C 134.5019 40.097634 134.61889 40.064311 134.74023 40.056641 C 138.60554 39.870345 143.31783 47.228459 144.81055 50.103516 C 144.91385 50.300184 145.11836 50.421875 145.33984 50.421875 C 145.34884 50.421875 145.35884 50.422739 145.36914 50.421875 C 145.60099 50.409695 145.80583 50.26339 145.89062 50.046875 C 145.95822 49.876816 146.63509 48.119033 147.19531 45.619141 C 148.37763 47.151929 149.11026 48.301791 149.13281 48.337891 C 149.24106 48.512009 149.43179 48.615234 149.63477 48.615234 L 149.65625 48.615234 C 149.86826 48.608934 150.06002 48.48903 150.16016 48.302734 C 150.40239 47.853909 156.04845 37.2058 152.79883 29.197266 C 151.40232 25.754625 148.56477 23.336317 144.36523 22.009766 C 139.8224 20.574396 135.80612 20.885717 132.42773 22.939453 C 129.2124 24.89128 127.12646 28.069298 125.80078 30.935547 C 124.87565 30.204346 123.91499 29.49449 122.89062 28.824219 C 120.32579 27.243671 117.56133 25.716354 114.48633 24.662109 C 113.72085 24.39597 112.95451 24.111384 112.17188 23.857422 C 111.37211 23.660296 110.56438 23.460951 109.75195 23.259766 C 108.16821 22.791094 106.36061 22.658378 104.62305 22.388672 C 103.74024 22.266881 102.99049 22.299318 102.1582 22.246094 L 100.93359 22.197266 L 100.31641 22.173828 C 100.40751 22.176528 100.10742 22.169922 100.10742 22.169922 L 100.02539 22.173828 L 99.861328 22.183594 L 99.53125 22.201172 C 97.77521 22.323869 95.98973 22.336102 94.21875 22.699219 C 91.791058 23.017686 89.391247 23.682319 87.025391 24.519531 C 86.226533 21.227077 84.42551 16.341897 80.484375 13.738281 C 78.620856 12.507379 76.484711 11.929107 74.099609 12.005859 z M 70.138672 43.490234 C 74.932306 45.841235 97.157707 55.660748 116.41602 46.132812 C 119.51269 49.384245 126.25314 55.649438 134.76172 58.816406 C 134.77392 58.899856 134.78948 59.000383 134.80078 59.082031 C 134.86798 59.570549 134.84489 60.023272 134.87109 60.423828 C 134.92429 61.795116 134.95754 62.614528 134.96484 62.824219 C 134.94814 63.104341 134.89622 63.976335 134.81055 65.400391 L 134.80859 65.400391 C 134.77209 65.8217 134.77754 66.361241 134.69727 66.828125 C 134.61787 67.289585 134.53177 67.793453 134.4375 68.337891 C 134.33555 68.885051 134.27596 69.461671 134.12891 70.097656 C 133.95615 70.738641 133.77255 71.420176 133.57812 72.140625 C 132.76257 74.992364 131.49736 78.437679 129.17969 81.902344 C 126.93017 85.384281 123.75152 88.96994 119.50586 91.876953 C 115.25762 94.755292 109.97413 96.904451 104.10742 97.681641 C 103.37848 97.809295 102.62696 97.792616 101.88086 97.859375 L 100.75391 97.933594 L 100.1875 97.972656 C 100.095 97.970856 100.15258 97.974362 100.20898 97.976562 L 100.19141 97.974609 L 100.03711 97.970703 L 99.728516 97.957031 C 98.105046 97.877191 96.312999 97.89656 94.933594 97.613281 C 94.193856 97.489239 93.461555 97.446662 92.699219 97.267578 C 91.933741 97.081282 91.165708 96.892729 90.392578 96.705078 C 89.607702 96.556221 88.871278 96.233982 88.109375 95.980469 C 87.36148 95.687721 86.563387 95.50602 85.845703 95.123047 C 82.841013 93.876728 80.041906 92.070769 77.40625 90.003906 C 74.816625 87.863892 72.535359 85.312935 70.554688 82.511719 C 68.630842 79.664038 67.15256 76.508262 66.048828 73.208984 C 65.036642 69.871447 64.573562 66.38539 64.470703 62.882812 L 64.597656 60.203125 C 64.604556 59.228334 64.756811 58.411989 64.886719 57.582031 C 65.045508 56.74392 65.063944 55.919476 65.324219 55.068359 L 65.964844 52.529297 C 66.981089 49.345575 68.346965 46.281087 70.138672 43.490234 z M 43.533203 87.824219 C 38.217672 87.749284 32.913933 89.663934 28.847656 93.484375 C 22.727385 99.235354 20.433751 108.63214 23.65625 116.4043 C 24.74746 119.03633 27.880659 123.89017 27.943359 123.85547 C 28.896041 125.29576 29.878494 126.71656 30.791016 128.18164 C 31.492033 129.30662 32.448946 129.75788 33.753906 129.67578 C 40.964437 129.22108 48.175757 128.78445 55.386719 128.35547 C 55.843179 128.32795 56.120322 128.19507 56.335938 127.75977 C 59.592896 121.18833 62.86622 114.62673 66.140625 108.06445 C 66.677411 106.98861 66.624194 105.97703 65.945312 104.96484 C 64.173469 102.32504 62.456786 99.649009 60.660156 97.027344 C 59.951539 95.993048 59.168972 94.98496 58.287109 94.097656 C 54.175751 89.963485 48.848735 87.899153 43.533203 87.824219 z M 50.875 96.447266 C 51.059496 96.429898 51.245827 96.48981 51.482422 96.644531 C 59.218909 101.70632 60.246609 113.01723 53.539062 119.42578 C 47.349354 125.33947 37.828624 124.95749 32.162109 118.52148 C 30.433965 116.55885 29.316209 114.2545 28.810547 111.66211 C 28.691011 111.04996 29.071537 111.02005 29.417969 110.55273 C 31.071667 108.32074 33.659936 107.16276 34.509766 103.375 C 34.896331 101.65144 39.589898 101.91314 38.957031 100.23828 C 43.767419 103.7378 46.143135 101.47501 47.5 99.822266 C 48.161289 99.017095 49.11879 97.521978 50.28125 96.716797 C 50.50929 96.558916 50.690504 96.464633 50.875 96.447266 z M 53.658203 133.06445 C 48.085134 133.40634 42.680363 133.72644 37.277344 134.08008 C 36.033297 134.16126 35.515537 135.28549 36.201172 136.32617 C 38.672651 140.07757 41.214169 143.78529 43.603516 147.58789 C 44.448328 148.93345 45.872218 148.83627 46.537109 147.43164 C 48.33918 143.62515 50.271197 139.88103 52.150391 136.11133 C 52.635757 135.13697 53.115552 134.16015 53.658203 133.06445 z "/>
</svg>
