<?xml version="1.0" encoding="UTF-8" standalone="no"?>
<svg xmlns:rdf="http://www.w3.org/1999/02/22-rdf-syntax-ns#" xmlns="http://www.w3.org/2000/svg" height="100%" width="100%" version="1.1" xmlns:cc="http://creativecommons.org/ns#" xmlns:dc="http://purl.org/dc/elements/1.1/" viewBox="0 0 176 176">
 <g transform="matrix(.86364 0 0 .86364 20.095 12)">
  <path d="m92.168 23.854c-1.6375-1.4509-3.435-2.6807-5.1458-4.0324-0.44737-0.35358-0.95091-0.74077-1.2137-1.2428-2.1085-4.0303-5.1242-6.2657-9.3958-6.0651-0.57276 0.02658-1.2323 0.10231-1.6746 0.43283-0.88471 0.66102-1.476 0.39621-2.2725-0.30092-5.7968-5.0745-12.326-3.9466-16.038 2.7605-0.49953 0.90277-0.96295 1.15-2.0152 1.0954-3.3849-0.17805-5.7115 1.8236-7.3505 4.8418-0.41628 0.76685-0.84509 1.6511-0.89023 2.5187-0.09981 1.9124-1.1074 3.107-2.0628 4.5319-1.3426 2.0021-2.2148 4.3925-3.2675 6.6293-0.18206 0.38718-0.2598 0.83606-0.44687 1.4575-0.689-11.622 6.68-26.621 21.964-29.753 15.106-3.0949 28.23 7.431 32.299 20.253-0.90126-1.1555-1.5713-2.3136-2.4906-3.1286m61.511 94.711c-0.99806-5.2471-2.0784-10.481-3.2189-15.698-2.4189-11.066-5.2897-21.996-9.3095-32.57-3.87-10.165-8.83-19.635-15.42-28.066-7.89-10.102-17.45-17.868-27.944-24.342-0.89-0.549-1.778-1.318-2.379-2.213-8.401-12.492-23.2-18.52-36.685-14.367-11.662 3.5905-19.184 11.874-22.829 24.486-0.29089 1.0076-0.76635 1.9986-1.3491 2.8327-2.9566 4.234-6.1674 8.2653-8.9379 12.641-8.2302 12.997-12.837 27.567-14.105 43.526-1.152 14.5 0.01956 28.969 1.9831 43.39 1.5031 11.044 3.4099 22.036 5.1397 33.05 0.06419 0.40975 0.11886 0.82602 0.23221 1.2222 0.42631 1.4906 1.7458 2.3858 3.1456 2.1596 1.4374-0.23221 2.3733-1.4294 2.2955-3.0057-0.03411-0.68611-0.14394-1.3727-0.24876-2.0548-1.6997-11.017-3.4887-22.023-5.0826-33.056-1.4755-10.212-2.2639-20.475-2.294-30.778-0.05417-18.189 3.755-35.028 13.012-49.985 1.5156-2.4495 3.1351-4.8203 4.8143-7.3927 0.24776 1.4324 0.54868 2.5498 0.59582 3.6707 0.02106 0.49953-0.08826 1.0547-0.27885 1.5412 4.4722-6.3675 10.022-11.613 16.421-15.323 0.04765-0.4574 0.08676-0.9138 0.09228-1.3712 0.03812-3.0428 2.2449-4.9261 4.9482-4.1527 1.7955 0.51407 3.113-0.12789 3.6066-2.0488 1.464-5.6904 7.7939-6.7788 11.079-1.9224 1.1174 1.6516 2.5709 1.8095 4.084 0.72623 2.288-1.6385 4.9883-0.61438 6.0581 2.2404 0.13642 0.36462 0.29641 0.7192 0.46292 1.0723 7.2136 1.2393 14.159 4.1833 20.493 8.5281-0.72271-1.0949-1.1586-2.3673-1.2689-3.9506-0.003-0.04414 0.0135-0.08977 0.0502-0.30844 0.34857 0.20714 0.62592 0.32399 0.85412 0.51408 4.4642 3.7309 9.1455 7.1925 13.339 11.264 10.499 10.194 17.309 23.082 22.256 37.204 4.5675 13.038 7.526 26.525 10.203 40.077 1.4469 7.3224 2.6712 14.691 4.0018 22.037 0.0902 0.49701 0.14945 1.0372 0.37665 1.4625 0.30846 0.57727 0.69013 1.1801 1.1746 1.5618 0.94892 0.74679 1.9961 0.70116 2.9435 0.0411 1.0934-0.76082 1.4384-1.8968 1.1811-3.3177-1.1676-6.4402-2.2704-12.892-3.4932-19.321"/>
  <path d="m1.4489 31.626c2.0132-4.9627 6.1037-8.4474 12.157-10.359 6.547-2.0693 12.336-1.621 17.205 1.3391 4.6347 2.8131 7.6404 7.3942 9.5512 11.526 1.3341-1.0537 2.7198-2.0784 4.1963-3.0448 3.6963-2.2785 7.6785-4.4792 12.111-5.9984 1.1034-0.38368 2.2098-0.79443 3.3382-1.1601 1.1525-0.28487 2.3151-0.57175 3.4862-0.86164 2.283-0.67557 4.8875-0.86616 7.3921-1.2543 1.2724-0.17654 2.3557-0.1294 3.5554-0.20613l1.7649-0.06972 0.88722-0.0356c-0.1319 0.0035 0.30192-0.006 0.30192-0.006l0.11836 0.006 0.23773 0.01404 0.47395 0.02758c2.5317 0.17604 5.1061 0.1941 7.6589 0.7172 3.4992 0.4589 6.9578 1.4163 10.367 2.623 1.152-4.7455 3.7465-11.787 9.4269-15.539 4.2982-2.8387 9.6034-3.269 15.771-1.2784 5.7672 1.8642 9.7965 5.2782 11.973 10.152 5.0314 11.262-1.5091 26.25-1.791 26.882-0.12939 0.29089-0.40925 0.48549-0.72522 0.50705-0.0196 0.002-0.0391 0.002-0.0572 0.002-0.29641 0-0.57375-0.15397-0.73073-0.40825-0.0958-0.15748-9.7097-15.612-18.127-15.082-1.0442 0.07222-2.0302 0.4253-2.9661 1.0096 2.0127 1.3236 3.9737 2.7499 5.8639 4.2816 4.2224 3.5855 7.9253 7.8335 11.106 12.487 3.108 4.7154 5.5299 9.9054 7.2868 15.344l1.0848 4.1517c0.41628 1.3542 0.51708 2.8838 0.78039 4.3222 0.23121 1.464 0.47244 2.9485 0.48749 4.2465l0.22418 4.2189c-0.10478 5.7336-0.83254 11.47-2.4555 16.975-1.6942 5.4698-4.0404 10.725-7.1288 15.494-3.1682 4.7004-6.87 9.0001-11.101 12.64-1.0502 0.9143-2.1927 1.7107-3.2846 2.5649l-1.6586 1.2473-1.7554 1.0939c-1.1811 0.70617-2.3091 1.5001-3.5263 2.125-1.2273 0.60786-2.4495 1.2132-3.6662 1.8171-0.0752 0.0321-0.15147 0.0592-0.2267 0.0923 0.4885 0.41877 0.99104 0.83354 1.464 1.2543 3.2876 2.9124 6.041 6.0255 8.5572 9.0252 2.447 3.0463 4.6297 5.9964 6.4904 8.8035 1.8958 2.785 3.4576 5.4377 4.8233 7.7899 1.3461 2.3642 2.4726 4.4471 3.3332 6.2015 0.8812 1.7413 1.5282 3.1386 1.9705 4.096l0.328 0.73527c0.24626 0.55169 0.26833 1.1861 0.0151 1.7348-0.57376 1.2458-2.274 1.8487-5.7762 2.131l-0.0562-0.0958s-0.25629-0.44838-0.73826-1.2879c-0.50004-0.8451-1.2373-2.0919-2.2358-3.6532-0.98953-1.5628-2.2273-3.442-3.6768-5.5686-1.4615-2.1195-3.1777-4.4607-5.1071-6.9458-1.9159-2.5002-4.1241-5.0791-6.5355-7.6956-2.463-2.5463-5.0605-5.2376-8.0206-7.5576-2.277-1.8316-4.7089-3.5584-7.2587-4.9667-0.91881 0.18106-1.8336 0.37265-2.779 0.49803-2.8021 0.54266-5.057 0.53213-7.4598 0.71569l-0.44486 0.0266-0.22318 0.0151-0.11084 0.005-0.33753 0.005-0.95693-0.0351-1.9043-0.0723c-1.2649-0.0768-2.5323-0.0406-3.771-0.21816-2.4721-0.26782-4.8895-0.68912-7.2402-1.2413-0.21867 0.11382-0.43834 0.22118-0.64999 0.35308l-1.0868 0.80247c-0.72722 0.52611-1.4494 1.0482-2.1661 1.5658-0.10633 0.0762-0.20713 0.15848-0.30242 0.24726-1.2448 1.1415-2.4711 2.271-3.6788 3.3798-0.59984 0.6826-1.1937 1.3597-1.7825 2.0282-1.1736 1.3401-2.3748 2.5944-3.3658 4.0464-1.0261 1.4023-2.0668 2.7218-3.0077 4.0715-0.88872 1.4028-1.7484 2.759-2.5739 4.0604-0.41226 0.65-0.8175 1.287-1.2132 1.9089-0.38066 0.63444-0.71168 1.2904-1.0577 1.9108-0.68259 1.2483-1.3296 2.4325-1.9379 3.5444-1.2619 2.1922-2.1757 4.2415-2.9696 5.8976-0.41878 0.91129-0.97398 1.6305-1.5673 2.1907-0.80496 0.76184-1.945 1.0537-3.0303 0.83055-2.2313-0.4574-6.2271-1.5683-7.3179-3.8062-0.1946-1.2363-0.12589-2.9074 0.75481-4.6623 0.86114-1.7619 1.8482-3.921 3.2419-6.3108 0.67005-1.2037 1.3827-2.4831 2.135-3.8332 0.38217-0.67306 0.74729-1.3732 1.1721-2.0704 0.44486-0.69011 0.89925-1.3963 1.3637-2.1175 0.93085-1.4409 1.9008-2.94 2.9039-4.4938 1.0763-1.5212 2.2875-3.0524 3.4832-4.6458 1.1475-1.6159 2.5694-3.1612 4.0303-4.722 0.72723-0.78139 1.463-1.5713 2.2058-2.3682 0.83455-0.73977 1.6766-1.4871 2.5277-2.2394 0.1635-0.13943 0.32299-0.28487 0.48549-0.42781-2.0217-1.0141-3.9491-2.1235-5.7682-3.3091-7.3465-4.8363-12.919-10.878-16.898-16.806-4.0218-5.9472-6.2015-11.905-7.5942-16.827-0.30894-1.2478-0.60034-2.4279-0.87418-3.5388-0.23873-1.135-0.35559-2.27-0.51357-3.2881-0.14193-1.0276-0.27233-1.9776-0.3922-2.8482-0.11134-0.86415-0.08325-1.5061-0.12689-2.1576-0.10332-2.5252-0.15848-3.8724-0.15848-3.8724l-0.006-0.24024s0.08827-1.4615 0.25277-4.1989c0.05968-0.68309 0.05567-1.4514 0.18456-2.2845 0.13542-0.83255 0.28337-1.7403 0.44185-2.7218 0.17604-0.978 0.30343-2.0413 0.55871-3.1502 0.2944-1.1014 0.60836-2.2705 0.93837-3.5062 1.4444-4.8815 3.6908-10.763 7.7231-16.627 0.07172-0.10633 0.15297-0.21315 0.22569-0.31948-0.17203-0.0336-0.34054-0.08175-0.51558-0.09278-5.5711-0.26832-12.364 10.336-14.516 14.48-0.14896 0.28387-0.44286 0.46091-0.76183 0.46091-0.01354 0-0.02909 0-0.04363-0.001-0.33452-0.01705-0.62943-0.2277-0.7513-0.54016-0.0978-0.24525-1.0713-2.7775-1.8788-6.3806-1.6975 2.198-2.7552 3.853-2.7873 3.906-0.1565 0.251-0.4313 0.4-0.7242 0.4h-0.0291c-0.3055-0.009-0.5813-0.182-0.7263-0.45-0.349-0.646-8.4874-15.996-3.8041-27.539m25.936 52.184c0.05316 0.60736 0.04564 1.3867 0.16149 2.0588 0.11485 0.66554 0.23973 1.3913 0.37515 2.1757 0.14695 0.78892 0.23121 1.62 0.44285 2.5368 0.24876 0.92383 0.51357 1.9058 0.79393 2.9435 1.1751 4.1106 2.9997 9.0763 6.3399 14.07 3.2424 5.0189 7.826 10.187 13.946 14.378 6.1232 4.1487 13.74 7.2477 22.196 8.3676 1.0497 0.18407 2.1315 0.16049 3.2068 0.25629l1.6255 0.10629 0.8155 0.0551c0.13341-0.002 0.04965 0.002-0.0316 0.006l0.02659-0.001 0.22268-0.007 0.44486-0.0181c2.3402-0.11533 4.9216-0.0873 6.9096-0.49552 1.0663-0.17804 2.1235-0.24074 3.2224-0.49802 1.1029-0.26883 2.2103-0.53966 3.3242-0.81049 1.1315-0.21465 2.1927-0.67857 3.2906-1.0442 1.0778-0.42179 2.2273-0.68459 3.262-1.2368 4.3308-1.796 8.3671-4.4 12.166-7.3786 3.7319-3.0845 7.019-6.7612 9.8737-10.799 2.7725-4.1051 4.9055-8.653 6.4969-13.409 1.459-4.8107 2.1255-9.8366 2.274-14.886l-0.18407-3.8613c-0.0104-1.4053-0.2282-2.5804-0.41527-3.7771-0.2292-1.2077-0.25528-2.3968-0.63093-3.6241l-0.92282-3.6597c-1.465-4.5902-3.435-9.0077-6.0174-13.031-6.9096 3.3894-38.945 17.544-66.702 3.8107-4.4637 4.6869-14.179 13.717-26.444 18.282-0.01755 0.11987-0.03762 0.26582-0.05417 0.38318-0.0968 0.70366-0.0657 1.3562-0.10332 1.9329-0.07673 1.9771-0.12288 3.1572-0.13341 3.4596 0.02407 0.40374 0.0993 1.6611 0.22218 3.7139"/>
 </g>
</svg>
