<?xml version="1.0" encoding="UTF-8" standalone="no"?>
<svg xmlns:dc="http://purl.org/dc/elements/1.1/" xmlns:cc="http://creativecommons.org/ns#" xmlns:rdf="http://www.w3.org/1999/02/22-rdf-syntax-ns#" xmlns:svg="http://www.w3.org/2000/svg" xmlns="http://www.w3.org/2000/svg" viewBox="0 0 176 176" version="1.1">
  
  
  <path d="M 77.435547 12.017578 C 75.215999 12.093006 72.992254 12.456401 70.808594 13.128906 C 60.736825 16.229806 54.241717 23.383163 51.09375 34.275391 C 51.020449 34.529295 50.928862 34.780843 50.830078 35.029297 C 49.654851 33.701782 48.295684 32.48888 46.705078 31.523438 C 42.500015 28.966976 37.499955 28.580057 31.845703 30.367188 C 26.617831 32.018122 23.084383 35.028466 21.345703 39.314453 L 21.351562 39.304688 C 17.306878 49.273683 24.335309 62.529979 24.636719 63.087891 C 24.761947 63.319346 24.99983 63.468762 25.263672 63.476562 L 25.289062 63.476562 C 25.542022 63.476562 25.780856 63.349586 25.916016 63.132812 C 25.943739 63.087039 26.856237 61.656092 28.322266 59.757812 C 29.019655 62.869594 29.860853 65.057723 29.945312 65.269531 C 30.050564 65.539384 30.304845 65.721608 30.59375 65.736328 C 30.60631 65.737192 30.619169 65.736328 30.630859 65.736328 C 30.906334 65.736328 31.160415 65.583053 31.289062 65.337891 C 32.32672 63.339724 34.61626 59.605695 37.271484 56.734375 C 33.22142 65.537623 30.835754 75.055844 30.027344 85.230469 C 29.032431 97.753249 30.04444 110.24858 31.740234 122.70312 C 33.038372 132.24116 34.685762 141.73592 36.179688 151.24805 C 36.235127 151.60193 36.281012 151.96058 36.378906 152.30273 C 36.747084 153.59008 37.886779 154.36333 39.095703 154.16797 C 40.337099 153.96743 41.145316 152.93362 41.078125 151.57227 C 41.048665 150.97972 40.953808 150.38596 40.863281 149.79688 C 39.395352 140.28215 37.851164 130.77659 36.474609 121.24805 C 35.200308 112.42856 34.518184 103.56605 34.492188 94.667969 C 34.478443 90.05267 34.762389 85.541032 35.359375 81.138672 C 35.359237 81.140961 35.353516 81.248047 35.353516 81.248047 L 35.359375 81.455078 C 35.359375 81.455078 35.406864 82.617964 35.496094 84.798828 C 35.533781 85.36149 35.509309 85.915794 35.605469 86.662109 C 35.708993 87.413994 35.822736 88.235571 35.945312 89.123047 C 36.08175 90.002319 36.182495 90.98266 36.388672 91.962891 C 36.625171 92.922309 36.875765 93.939928 37.142578 95.017578 C 38.345369 99.268414 40.227784 104.41454 43.701172 109.55078 C 47.137595 114.67044 51.95019 119.88763 58.294922 124.06445 C 59.865969 125.08838 61.531323 126.04802 63.277344 126.92383 C 63.137002 127.04728 62.998627 127.17255 62.857422 127.29297 C 62.122378 127.94268 61.396532 128.58767 60.675781 129.22656 C 60.03427 129.9148 59.397596 130.59665 58.769531 131.27148 C 57.50784 132.61945 56.28009 133.95406 55.289062 135.34961 C 54.256408 136.72574 53.210786 138.04756 52.28125 139.36133 C 51.414933 140.70326 50.577357 141.99972 49.773438 143.24414 C 49.37232 143.86699 48.979902 144.47627 48.595703 145.07227 C 48.22882 145.6744 47.914041 146.27809 47.583984 146.85938 C 46.934267 148.02537 46.316963 149.13036 45.738281 150.16992 C 44.534626 152.23385 43.683168 154.09944 42.939453 155.62109 C 42.178845 157.13669 42.119044 158.57876 42.287109 159.64648 C 43.229167 161.57922 46.680382 162.54053 48.607422 162.93555 C 49.54473 163.12828 50.529413 162.87475 51.224609 162.2168 C 51.737024 161.73299 52.21645 161.1132 52.578125 160.32617 C 53.263769 158.8959 54.052751 157.12569 55.142578 155.23242 C 55.667931 154.27214 56.226894 153.24801 56.816406 152.16992 C 57.115243 151.63412 57.401716 151.06941 57.730469 150.52148 C 58.072212 149.98438 58.4213 149.43245 58.777344 148.87109 C 59.490279 147.74715 60.232466 146.57675 61 145.36523 C 61.812599 144.19958 62.711475 143.0607 63.597656 141.84961 C 64.453524 140.59561 65.492291 139.51088 66.505859 138.35352 C 67.01437 137.77618 67.526876 137.19304 68.044922 136.60352 C 69.08794 135.64591 70.145644 134.66943 71.220703 133.68359 C 71.302999 133.60691 71.390592 133.5365 71.482422 133.4707 C 72.101393 133.02368 72.725459 132.57156 73.353516 132.11719 L 74.292969 131.42578 C 74.475758 131.31187 74.664664 131.21744 74.853516 131.11914 C 76.883675 131.59602 78.970465 131.96011 81.105469 132.19141 C 82.17526 132.34472 83.270863 132.31456 84.363281 132.38086 L 86.007812 132.44336 L 86.833984 132.47266 L 87.125 132.46875 L 87.220703 132.46484 L 87.414062 132.45117 L 87.798828 132.42969 C 89.873982 132.27116 91.820229 132.27921 94.240234 131.81055 C 95.05672 131.70227 95.847104 131.53723 96.640625 131.38086 C 98.842734 132.59713 100.94366 134.08808 102.91016 135.66992 C 105.46662 137.67357 107.7088 139.99818 109.83594 142.19727 C 111.91853 144.45698 113.82583 146.68447 115.48047 148.84375 C 117.14678 150.98998 118.63037 153.01131 119.89258 154.8418 C 121.14443 156.67841 122.21181 158.30265 123.06641 159.65234 C 123.92876 161.00074 124.56619 162.07678 124.99805 162.80664 C 125.4143 163.53168 125.63672 163.91797 125.63672 163.91797 L 125.68359 164.00195 C 128.70823 163.75814 130.17831 163.23804 130.67383 162.16211 C 130.89257 161.68823 130.87284 161.13857 130.66016 160.66211 L 130.37695 160.02734 C 129.99496 159.20049 129.43682 157.99409 128.67578 156.49023 C 127.93254 154.97506 126.95942 153.17659 125.79688 151.13477 C 124.61741 149.10332 123.26814 146.81149 121.63086 144.40625 C 120.02388 141.98193 118.13871 139.43559 116.02539 136.80469 C 113.8523 134.21402 111.47407 131.52504 108.63477 129.00977 C 108.2263 128.64639 107.79298 128.28744 107.37109 127.92578 C 107.43606 127.89718 107.50151 127.8734 107.56641 127.8457 C 108.6172 127.32415 109.67248 126.80232 110.73242 126.27734 C 111.78364 125.73765 112.7573 125.05129 113.77734 124.44141 L 115.29492 123.49609 L 116.72656 122.41992 C 117.66957 121.6822 118.65551 120.99471 119.5625 120.20508 C 123.21656 117.06152 126.41421 113.34852 129.15039 109.28906 C 131.81766 105.17037 133.84346 100.63019 135.30664 95.90625 C 136.70829 91.151912 137.33723 86.197861 137.42773 81.246094 L 137.23438 77.603516 C 137.22137 76.482511 137.01218 75.199916 136.8125 73.935547 C 136.69559 73.296912 136.61443 72.639219 136.51562 71.990234 C 137.27375 73.851721 137.99177 75.740979 138.66406 77.660156 C 142.60874 88.920295 145.16459 100.56743 147.47656 112.27148 C 148.72616 118.59539 149.78248 124.95843 150.93164 131.30273 C 151.00954 131.73197 151.06159 132.19911 151.25781 132.56641 C 151.52421 133.06497 151.85307 133.58637 152.27148 133.91602 C 153.091 134.56098 153.99624 134.52122 154.81445 133.95117 C 155.75875 133.2941 156.0562 132.31308 155.83398 131.08594 C 154.8256 125.52392 153.87247 119.95078 152.81641 114.39844 L 152.81641 114.39648 C 151.95445 109.86488 151.02209 105.3435 150.03711 100.83789 C 147.94805 91.280854 145.46971 81.841113 141.99805 72.708984 C 138.65577 63.930083 134.37107 55.752051 128.67969 48.470703 C 125.75792 44.729806 122.55824 41.378736 119.15625 38.308594 C 125.75626 40.248849 132.39679 50.915555 132.4707 51.037109 C 132.60627 51.256715 132.84557 51.388672 133.10156 51.388672 C 133.11716 51.388672 133.13349 51.390372 133.15039 51.388672 C 133.42328 51.370052 133.6656 51.200443 133.77734 50.949219 C 134.0208 50.403399 139.66954 37.460688 135.32422 27.734375 C 133.44451 23.525166 129.9632 20.576795 124.98242 18.966797 C 119.65583 17.247636 115.07538 17.618697 111.36328 20.070312 C 108.44947 21.994933 106.49098 24.921538 105.16016 27.839844 C 104.95424 27.711115 104.75364 27.574823 104.54688 27.447266 C 103.77823 26.973127 103.01124 26.310067 102.49219 25.537109 C 96.597142 16.771379 87.053589 11.690722 77.435547 12.017578 z M 78.75 17.339844 C 88.710135 17.431444 97.086905 24.198108 100.8418 32.705078 C 100.32667 32.546877 99.808557 32.40428 99.291016 32.263672 C 97.986866 31.157264 96.589888 30.177784 95.25 29.119141 C 94.863633 28.813775 94.430081 28.478495 94.203125 28.044922 C 92.38214 24.564194 89.777016 22.633395 86.087891 22.806641 C 85.593233 22.829591 85.024566 22.896192 84.642578 23.181641 C 83.878507 23.752524 83.367576 23.523944 82.679688 22.921875 C 77.673338 18.539333 72.033957 19.512168 68.828125 25.304688 C 68.396711 26.084356 67.996656 26.299108 67.087891 26.251953 C 64.164556 26.098182 62.15574 27.826956 60.740234 30.433594 C 60.380718 31.095877 60.009688 31.858128 59.970703 32.607422 C 59.884503 34.259047 59.014575 35.290884 58.189453 36.521484 C 57.354277 37.766909 56.727223 39.185016 56.103516 40.603516 C 55.719498 40.892312 55.332475 41.17968 54.958984 41.474609 C 55.264403 31.795752 61.626357 20.336151 73.951172 17.810547 C 75.58194 17.476437 77.184654 17.325448 78.75 17.339844 z M 76.71875 25.527344 C 78.394535 25.493988 80.139609 26.346686 81.380859 28.181641 C 82.345891 29.608029 83.601429 29.744149 84.908203 28.808594 C 86.884211 27.39352 89.21475 28.278639 90.138672 30.744141 C 90.1399 30.747423 90.141346 30.750626 90.142578 30.753906 C 89.310452 30.704663 88.478912 30.662808 87.654297 30.605469 L 87.244141 30.582031 L 87.039062 30.570312 L 86.9375 30.564453 C 86.9375 30.564453 86.561867 30.573313 86.675781 30.570312 L 85.910156 30.599609 L 84.384766 30.660156 C 83.348657 30.726423 82.413348 30.685424 81.314453 30.837891 C 79.15138 31.173105 76.903332 31.338426 74.931641 31.921875 C 73.920233 32.172236 72.915267 32.419991 71.919922 32.666016 C 70.94539 32.981823 69.990049 33.336607 69.037109 33.667969 C 67.419577 34.222363 65.883905 34.895863 64.394531 35.621094 C 64.402687 35.479768 64.42212 35.338734 64.423828 35.197266 C 64.456748 32.569383 66.362588 30.943388 68.697266 31.611328 C 70.247931 32.055299 71.386207 31.500772 71.8125 29.841797 C 72.523708 27.077415 74.564169 25.57023 76.71875 25.527344 z M 124.25586 57.097656 C 126.48613 60.572339 128.18594 64.387282 129.45117 68.351562 L 130.24805 71.511719 C 130.57248 72.571664 130.59502 73.597607 130.79297 74.640625 C 130.95453 75.674143 131.14334 76.690624 131.15234 77.904297 L 131.3125 81.238281 C 131.18425 85.599145 130.60771 89.939038 129.34766 94.09375 C 127.97326 98.201222 126.13078 102.13045 123.73633 105.67578 C 121.2709 109.16299 118.432 112.33805 115.20898 115.00195 C 111.9281 117.57439 108.44338 119.82196 104.70312 121.37305 C 103.80952 121.84996 102.8156 122.07714 101.88477 122.44141 C 100.93658 122.75719 100.02018 123.15837 99.042969 123.34375 C 98.08096 123.57765 97.124383 123.8108 96.171875 124.04297 C 95.222821 124.26517 94.309571 124.32085 93.388672 124.47461 C 91.671756 124.82716 89.442965 124.80274 87.421875 124.90234 L 87.037109 124.91797 L 86.845703 124.92383 L 86.822266 124.92383 C 86.892436 124.92083 86.964827 124.91792 86.849609 124.91992 L 86.144531 124.87109 L 84.742188 124.7793 C 83.813515 124.69656 82.879219 124.71756 81.972656 124.55859 C 74.669716 123.5914 68.090975 120.91501 62.802734 117.33203 C 57.517257 113.71251 53.558079 109.24859 50.757812 104.91406 C 47.873083 100.6013 46.298066 96.313751 45.283203 92.763672 C 45.041072 91.867473 44.812495 91.018559 44.597656 90.220703 C 44.414875 89.428918 44.341756 88.71064 44.214844 88.029297 C 44.09789 87.351858 43.989815 86.725178 43.890625 86.150391 C 43.790576 85.569939 43.797863 84.897588 43.751953 84.373047 C 43.645829 82.600167 43.579384 81.514703 43.558594 81.166016 C 43.567689 80.904852 43.607558 79.885236 43.673828 78.177734 C 43.706318 77.679672 43.680072 77.115521 43.763672 76.507812 C 43.777962 76.406455 43.795387 76.281259 43.810547 76.177734 C 54.403092 72.235218 62.793408 64.436466 66.648438 60.388672 C 90.620494 72.249299 118.28845 60.024877 124.25586 57.097656 z "/>
</svg>
