<?xml version="1.0" encoding="UTF-8" standalone="no"?>
<svg
   xmlns:dc="http://purl.org/dc/elements/1.1/"
   xmlns:cc="http://creativecommons.org/ns#"
   xmlns:rdf="http://www.w3.org/1999/02/22-rdf-syntax-ns#"
   xmlns:svg="http://www.w3.org/2000/svg"
   xmlns="http://www.w3.org/2000/svg"
   height="176"
   width="176"
   version="1.1"
   id="svg2"
   viewBox="0 0 176 176">
  <metadata
     id="metadata16699">
    <rdf:RDF>
      <cc:Work
         rdf:about="">
        <dc:format>image/svg+xml</dc:format>
        <dc:type
           rdf:resource="http://purl.org/dc/dcmitype/StillImage" />
        <dc:title></dc:title>
      </cc:Work>
    </rdf:RDF>
  </metadata>
  <defs
     id="defs16697" />
  <path
     id="path19145"
     d="m 133.2861,151.1565 c 0,0 -35.069431,22.69507 -72.742523,7.74794 C 9.0655366,138.4563 7.1383995,89.448314 16.150076,63.715971 28.014016,29.846166 66.44686,2.3333629 112.09775,15.250323 c 39.09658,11.072699 53.56492,50.986447 47.88438,81.275841 -3.67538,19.535346 -12.57231,30.538246 -14.05282,32.765396 -2.52752,3.75267 -3.82953,3.4016 -4.9594,-0.013 -0.37651,-1.13586 0.38324,-1.75535 2.55937,-4.9204 6.36305,-9.16474 13.83648,-29.631946 8.16943,-50.973696 C 146.96957,55.50849 138.38577,43.191196 124.46606,32.896625 106.80721,19.826283 72.68277,11.631738 43.758856,33.050006 12.257178,56.369915 16.079575,94.043034 26.450257,114.85527 c 16.746845,33.52524 53.201178,39.46637 72.545663,36.02046 10.08306,-1.81268 17.08434,-5.04821 27.92753,-10.20498 2.90365,-1.37206 4.48652,-0.78514 5.11203,0.72122 1.75539,4.19926 4.14191,8.02845 1.25062,9.76427" />
</svg>
