<?xml version="1.0" encoding="UTF-8" standalone="no"?>
<svg
   xmlns:dc="http://purl.org/dc/elements/1.1/"
   xmlns:cc="http://creativecommons.org/ns#"
   xmlns:rdf="http://www.w3.org/1999/02/22-rdf-syntax-ns#"
   xmlns:svg="http://www.w3.org/2000/svg"
   xmlns="http://www.w3.org/2000/svg"
   version="1.1"
   id="svg19143"
   viewBox="0 0 176 176">
  <metadata
     id="metadata19151">
    <rdf:RDF>
      <cc:Work
         rdf:about="">
        <dc:format>image/svg+xml</dc:format>
        <dc:type
           rdf:resource="http://purl.org/dc/dcmitype/StillImage" />
        <dc:title></dc:title>
      </cc:Work>
    </rdf:RDF>
  </metadata>
  <defs
     id="defs19149" />
  <path
     id="path19145"
     d="m 134.70065,163.1565 c 0,0 -35.069472,22.69507 -72.742603,7.74794 C 10.479954,150.4563 8.5528149,101.44831 17.564501,75.715965 29.428453,41.84616 67.861337,14.333357 113.51227,27.250317 c 39.09663,11.072699 53.56498,50.986447 47.88444,81.275843 -3.67539,19.53535 -12.57233,30.53825 -14.05284,32.7654 -2.52752,3.75267 -3.82953,3.4016 -4.9594,-0.013 -0.37651,-1.13586 0.38324,-1.75535 2.55937,-4.9204 6.36306,-9.16474 13.83649,-29.63195 8.16944,-50.973706 C 148.38413,67.508484 139.80032,55.19119 125.8806,44.896619 108.22173,31.826277 74.097253,23.631732 45.173309,45.05 13.671599,68.369909 17.494,106.04303 27.864693,126.85527 c 16.746862,33.52524 53.201232,39.46637 72.545737,36.02046 10.08307,-1.81268 17.08436,-5.04821 27.92756,-10.20498 2.90365,-1.37206 4.48653,-0.78514 5.11204,0.72122 1.75539,4.19926 4.14191,8.02845 1.25062,9.76427" />
</svg>
