<?xml version="1.0" encoding="UTF-8"?>
<svg version="1.1" viewBox="0 0 192 192" xmlns="http://www.w3.org/2000/svg">
 <path d="m150.07 169.13s-40.607 26.278-84.228 8.9713c-59.606-23.677-61.838-80.423-51.403-110.22 13.737-39.218 58.238-71.075 111.1-56.118 45.27 12.821 62.023 59.037 55.445 94.109-4.2557 22.62-14.557 35.36-16.272 37.939-2.9266 4.3452-4.4342 3.9387-5.7425-0.0151-0.43596-1.3152 0.44376-2.0325 2.9635-5.6973 7.3677-10.612 16.021-34.311 9.4593-59.022-5.4758-20.698-15.415-34.961-31.533-46.881-20.447-15.134-59.96-24.623-93.45 0.1776-36.476 27.002-32.05 70.624-20.042 94.722 19.391 38.819 61.601 45.698 84 41.708 11.675-2.0989 19.782-5.8453 32.337-11.816 3.3621-1.5887 5.1949-0.90911 5.9192 0.8351 2.0326 4.8623 4.7959 9.2961 1.4481 11.306" />
</svg>
