<?xml version="1.0" encoding="UTF-8"?>
<svg width="192" height="192" version="1.1" viewBox="0 0 192 192" xmlns="http://www.w3.org/2000/svg">
 <path d="m124.1 34.639c1.4104-2.4488 4.5485-3.2872 6.9972-1.8752 2.4575 1.4173 3.2943 4.5537 1.8751 7.0078-1.4156 2.4522-4.5502 3.2907-6.999 1.8769-2.4575-1.4173-3.2907-4.5537-1.8734-7.0095m-64.736 112.13c1.4103-2.4522 4.5502-3.2925 6.999-1.8786 2.4558 1.4191 3.2978 4.5519 1.8805 7.0059-1.4243 2.4488-4.5554 3.2943-7.0059 1.8769-2.454-1.4138-3.2907-4.5537-1.8734-7.0042m95.432-25.566c2.4488 1.4156 3.2925 4.5485 1.8734 7.0007-1.4156 2.4505-4.5466 3.296-6.9972 1.8769-2.4558-1.4173-3.2978-4.5466-1.8839-7.0042 1.4191-2.4505 4.5519-3.296 7.0078-1.8734m-112.13-64.738c2.4488 1.4173 3.2943 4.5537 1.8734 7.0042-1.4121 2.454-4.5466 3.2943-7.0007 1.8752-2.4505-1.4138-3.2943-4.5502-1.8769-7.0059 1.4156-2.4452 4.5554-3.2907 7.0042-1.8734m107 1.1e-5c2.4488-1.4138 5.5886-0.57185 7.0042 1.8734 1.4191 2.4593 0.56658 5.5921-1.8734 7.0059-2.4575 1.4191-5.5886 0.57885-7.0078-1.8752-1.4138-2.4505-0.57886-5.5869 1.8769-7.0042m-112.12 64.738c2.447-1.4226 5.5886-0.57711 7.0007 1.8734 1.4209 2.4575 0.57536 5.5869-1.8734 7.0042-2.4558 1.4191-5.5957 0.58061-7.0042-1.8734-1.4173-2.4522-0.5736-5.5886 1.8769-7.0042m95.428 25.569c1.4209 2.4505 0.5736 5.5904-1.8734 7.0042-2.4505 1.4209-5.5886 0.57536-6.999-1.8769-1.4156-2.454-0.58413-5.5869 1.8752-7.0025 2.447-1.4173 5.5816-0.57711 6.9972 1.8752m-64.727-112.12c1.4104 2.4558 0.5736 5.5904-1.8805 7.0059-2.4505 1.4173-5.5904 0.57184-6.999-1.8769-1.4173-2.4575-0.57536-5.5904 1.8734-7.0042 2.4488-1.4156 5.5816-0.57886 7.0059 1.8752m92.663 53.494c2.8259 7e-6 5.1256 2.2997 5.1253 5.1311 0 2.8329-2.2997 5.1256-5.1256 5.1256-2.8347-7e-6 -5.1308-2.2926-5.131-5.1253-1e-5 -2.8311 2.2962-5.1307 5.1308-5.1308m-129.47-5.66e-4c2.8259 0 5.1256 2.2996 5.1253 5.1311 1e-6 2.8329-2.2997 5.1256-5.1256 5.1256-2.8311-2e-6 -5.1308-2.2926-5.1311-5.1253-4e-6 -2.8311 2.2996-5.1308 5.1308-5.1308m69.858 69.866c1e-5 2.8329-2.2979 5.1273-5.1241 5.127-2.8347 0-5.1308-2.2943-5.1304-5.1276 3e-6 -2.8329 2.2962-5.129 5.1306-5.1292 2.8259-1e-5 5.1238 2.2962 5.1236 5.1292m6.5e-4 -129.46c0 2.8294-2.2979 5.1238-5.1238 5.1238-2.8347 2e-6 -5.1308-2.2943-5.1308-5.1238-3e-6 -2.8311 2.2962-5.1273 5.1307-5.1273 2.8259 1e-6 5.1238 2.2962 5.1241 5.127m48.786 140.58s-40.608 26.279-84.228 8.9671c-59.602-23.675-61.84-80.414-51.397-110.22 13.735-39.213 58.237-71.073 111.09-56.112 45.27 12.821 62.02 59.033 55.446 94.112-4.259 22.616-14.557 35.354-16.272 37.935-2.9294 4.345-4.4326 3.938-5.7483-0.0158-0.42801-1.3138 0.44906-2.0348 2.9715-5.6956 7.3691-10.616 16.024-34.314 9.4617-59.021-5.4781-20.699-15.421-34.961-31.538-46.885-20.444-15.131-59.963-24.621-93.456 0.17893-36.466 27.005-32.049 70.622-20.036 94.721 19.387 38.819 61.596 45.698 84.001 41.708 11.676-2.1014 19.788-5.843 32.337-11.817 3.3574-1.591 5.1887-0.90513 5.915 0.83672 2.0348 4.8624 4.7958 9.2951 1.4472 11.307"/>
</svg>
