<?xml version="1.0" encoding="UTF-8" standalone="no"?>
<svg
   xmlns:dc="http://purl.org/dc/elements/1.1/"
   xmlns:cc="http://creativecommons.org/ns#"
   xmlns:rdf="http://www.w3.org/1999/02/22-rdf-syntax-ns#"
   xmlns:svg="http://www.w3.org/2000/svg"
   xmlns="http://www.w3.org/2000/svg"
   viewBox="0 0 176 176"
   id="svg2"
   version="1.1">
  <metadata
     id="metadata16699">
    <rdf:RDF>
      <cc:Work
         rdf:about="">
        <dc:format>image/svg+xml</dc:format>
        <dc:type
           rdf:resource="http://purl.org/dc/dcmitype/StillImage" />
        <dc:title></dc:title>
      </cc:Work>
    </rdf:RDF>
  </metadata>
  <defs
     id="defs16697" />
  <g
     transform="matrix(1.2119467,0,0,1.2119467,-93.433441,17.931844)"
     style="fill:#000000"
     id="g17465">
    <g
       style="fill:#000000"
       transform="matrix(1.25,0,0,-1.25,188.2362,119.82881)"
       id="g4996">
      <path
         id="path4998"
         style="fill:#000000;fill-opacity:1;fill-rule:nonzero;stroke:none"
         d="m 0,0 c 0,0 -23.15,-14.981 -48.017,-5.112 -33.978,13.497 -35.254,45.843 -29.301,62.834 7.83,22.355 33.2,40.518 63.333,31.989 C 11.823,82.402 21.372,56.057 17.624,36.059 15.196,23.166 9.325,15.904 8.348,14.433 6.678,11.956 5.821,12.188 5.071,14.442 c -0.244,0.749 0.256,1.16 1.694,3.247 4.201,6.052 9.135,19.562 5.394,33.647 C 9.036,63.136 3.368,71.267 -5.82,78.064 -17.475,86.69 -40.004,92.1 -59.098,77.962 -79.887,62.567 -77.369,37.701 -70.52,23.963 -59.468,1.833 -35.405,-2.089 -22.632,0.186 -15.976,1.384 -11.351,3.517 -4.197,6.923 -2.283,7.83 -1.239,7.439 -0.825,6.446 0.335,3.674 1.909,1.147 0,0" />
    </g>
    <g
       style="fill:#000000"
       transform="matrix(1.25,0,0,-1.25,153.47182,19.653064)"
       id="g5000">
      <path
         id="path5002"
         style="fill:#000000;fill-opacity:1;fill-rule:nonzero;stroke:none"
         d="m 0,0 c 0,-1.613 -1.31,-2.921 -2.921,-2.921 -1.616,0 -2.925,1.308 -2.925,2.921 0,1.614 1.309,2.923 2.925,2.923 C -1.31,2.923 0,1.614 0,0" />
    </g>
    <g
       style="fill:#000000"
       transform="matrix(1.25,0,0,-1.25,153.47182,111.91256)"
       id="g5004">
      <path
         id="path5006"
         style="fill:#000000;fill-opacity:1;fill-rule:nonzero;stroke:none"
         d="m 0,0 c 0,-1.615 -1.31,-2.923 -2.921,-2.923 -1.616,0 -2.925,1.308 -2.925,2.923 0,1.615 1.309,2.924 2.925,2.924 C -1.31,2.924 0,1.615 0,0" />
    </g>
    <g
       style="fill:#000000"
       transform="matrix(1.25,0,0,-1.25,103.69032,62.125064)"
       id="g5008">
      <path
         id="path5010"
         style="fill:#000000;fill-opacity:1;fill-rule:nonzero;stroke:none"
         d="M 0,0 C 1.611,0 2.922,-1.311 2.922,-2.925 2.922,-4.54 1.611,-5.847 0,-5.847 c -1.614,0 -2.925,1.307 -2.925,2.922 C -2.925,-1.311 -1.614,0 0,0" />
    </g>
    <g
       style="fill:#000000"
       transform="matrix(1.25,0,0,-1.25,195.95233,62.125064)"
       id="g5012">
      <path
         id="path5014"
         style="fill:#000000;fill-opacity:1;fill-rule:nonzero;stroke:none"
         d="M 0,0 C 1.611,0 2.922,-1.311 2.922,-2.925 2.922,-4.54 1.611,-5.847 0,-5.847 c -1.616,0 -2.925,1.307 -2.925,2.922 C -2.925,-1.311 -1.616,0 0,0" />
    </g>
    <g
       style="fill:#000000"
       transform="matrix(1.25,0,0,-1.25,129.91957,24.004939)"
       id="g5016">
      <path
         id="path5018"
         style="fill:#000000;fill-opacity:1;fill-rule:nonzero;stroke:none"
         d="M 0,0 C 0.804,-1.4 0.327,-3.187 -1.072,-3.994 -2.469,-4.802 -4.259,-4.32 -5.062,-2.924 -5.87,-1.523 -5.39,0.263 -3.994,1.069 -2.598,1.876 -0.812,1.399 0,0" />
    </g>
    <g
       style="fill:#000000"
       transform="matrix(1.25,0,0,-1.25,176.04507,103.90481)"
       id="g5020">
      <path
         id="path5022"
         style="fill:#000000;fill-opacity:1;fill-rule:nonzero;stroke:none"
         d="m 0,0 c 0.81,-1.397 0.327,-3.187 -1.068,-3.993 -1.397,-0.81 -3.186,-0.328 -3.99,1.07 -0.807,1.399 -0.333,3.185 1.069,3.992 C -2.594,1.877 -0.807,1.398 0,0" />
    </g>
    <g
       style="fill:#000000"
       transform="matrix(1.25,0,0,-1.25,108.0422,85.683314)"
       id="g5024">
      <path
         id="path5026"
         style="fill:#000000;fill-opacity:1;fill-rule:nonzero;stroke:none"
         d="M 0,0 C 1.395,0.811 3.186,0.329 3.991,-1.068 4.801,-2.469 4.319,-4.253 2.923,-5.061 1.523,-5.87 -0.267,-5.392 -1.07,-3.993 -1.878,-2.595 -1.397,-0.807 0,0" />
    </g>
    <g
       style="fill:#000000"
       transform="matrix(1.25,0,0,-1.25,187.94082,39.550564)"
       id="g5028">
      <path
         id="path5030"
         style="fill:#000000;fill-opacity:1;fill-rule:nonzero;stroke:none"
         d="M 0,0 C 1.396,0.806 3.186,0.326 3.993,-1.068 4.802,-2.47 4.316,-4.256 2.925,-5.062 1.524,-5.871 -0.261,-5.392 -1.07,-3.993 -1.876,-2.596 -1.4,-0.808 0,0" />
    </g>
    <g
       style="fill:#000000"
       transform="matrix(1.25,0,0,-1.25,111.6957,39.550564)"
       id="g5032">
      <path
         id="path5034"
         style="fill:#000000;fill-opacity:1;fill-rule:nonzero;stroke:none"
         d="M 0,0 C 1.396,-0.808 1.878,-2.596 1.068,-3.993 0.263,-5.392 -1.524,-5.871 -2.923,-5.062 -4.32,-4.256 -4.801,-2.468 -3.993,-1.068 -3.186,0.326 -1.396,0.808 0,0" />
    </g>
    <g
       style="fill:#000000"
       transform="matrix(1.25,0,0,-1.25,191.59682,85.683314)"
       id="g5036">
      <path
         id="path5038"
         style="fill:#000000;fill-opacity:1;fill-rule:nonzero;stroke:none"
         d="m 0,0 c 1.396,-0.807 1.877,-2.593 1.068,-3.991 -0.807,-1.397 -2.592,-1.879 -3.989,-1.07 -1.4,0.808 -1.88,2.592 -1.074,3.993 C -3.186,0.329 -1.4,0.811 0,0" />
    </g>
    <g
       style="fill:#000000"
       transform="matrix(1.25,0,0,-1.25,123.59145,103.90231)"
       id="g5040">
      <path
         id="path5042"
         style="fill:#000000;fill-opacity:1;fill-rule:nonzero;stroke:none"
         d="M 0,0 C 0.804,1.398 2.594,1.877 3.99,1.071 5.39,0.262 5.87,-1.524 5.062,-2.923 4.25,-4.319 2.465,-4.801 1.068,-3.993 -0.331,-3.187 -0.808,-1.397 0,0" />
    </g>
    <g
       style="fill:#000000"
       transform="matrix(1.25,0,0,-1.25,169.72307,24.000064)"
       id="g5044">
      <path
         id="path5046"
         style="fill:#000000;fill-opacity:1;fill-rule:nonzero;stroke:none"
         d="M 0,0 C 0.804,1.396 2.593,1.874 3.989,1.069 5.39,0.261 5.867,-1.527 5.058,-2.926 4.251,-4.324 2.464,-4.802 1.068,-3.996 -0.333,-3.188 -0.808,-1.4 0,0" />
    </g>
  </g>
</svg>
