<?xml version="1.0" encoding="UTF-8" standalone="no"?>
<svg xmlns:rdf="http://www.w3.org/1999/02/22-rdf-syntax-ns#" xmlns="http://www.w3.org/2000/svg" version="1.1" xmlns:cc="http://creativecommons.org/ns#" xmlns:dc="http://purl.org/dc/elements/1.1/" viewBox="0 0 176 176">
 <path d="m108.24 176-26.401-0.17602-26.402-0.21992-0.0439-0.00036c-0.51655-0.004-1.0109-0.15208-1.4277-0.3955-0.66508-0.39151-1.3208-0.90229-1.8835-1.5173-0.55956-0.61675-1.0154-1.3266-1.3364-2.0343-0.3219-0.70809-0.53428-1.4122-0.67306-2.0746l-0.0905-0.46378-0.0683-0.38043-0.13745-0.76041-1.0987-6.0859-2.1974-12.172-4.3709-24.349-8.697-48.704c-0.71873-4.0602-1.4335-8.1207-2.1181-12.187l-1.0375-6.0975-0.52409-3.0483-0.2678-1.5226c-0.0417-0.23943-0.0967-0.54537-0.13346-0.83446-0.0386-0.29263-0.0665-0.59103-0.0798-0.89387-0.0652-1.2091 0.14144-2.506 0.61808-3.6398 0.23322-0.56887 0.52054-1.0987 0.83578-1.59l0.84953-1.3098 3.3711-5.1836 6.7444-10.367c4.4813-6.9208 8.8868-13.89 13.21-20.911l3.2629-5.3184c0.33077-0.49171 0.72937-0.97767 1.2224-1.4033 0.48994-0.42609 1.0788-0.78169 1.6964-1.0087 0.61719-0.23234 1.249-0.35072 1.8525-0.40038 0.63759-0.0448 1.1058-0.0399 1.6308-0.0581l12.367-0.3188c8.2443-0.25051 16.488-0.37067 24.731-0.45757l6.1826-0.0736 3.0913-0.0372c0.44871-0.006 1.1927-0.0261 1.8959 0.0825 0.7174 0.10464 1.4898 0.33653 2.2005 0.71873 0.71163 0.3822 1.3248 0.90495 1.8104 1.445 0.12193 0.13523 0.23144 0.27224 0.34495 0.41013 0.10242 0.13701 0.20928 0.27534 0.30549 0.41324l0.26692 0.39904 0.21017 0.32412 1.6813 2.5947 3.3564 5.193 6.7133 10.385 6.6725 10.411c2.2169 3.4748 4.456 6.935 6.6552 10.421l1.6525 2.6124 0.41323 0.65311 0.21771 0.34761c0.0887 0.1481 0.18001 0.29042 0.26381 0.44472 0.34052 0.607 0.63183 1.281 0.83446 1.9908 0.20395 0.70897 0.31569 1.4468 0.34362 2.1553 0.0279 0.70942-0.0239 1.3847-0.11173 2.017-0.0231 0.15696-0.0443 0.31614-0.0727 0.46689l-0.078 0.42875-0.1441 0.75952-0.28821 1.519c-1.5275 8.1029-3.074 16.202-4.8019 24.267-1.7199 8.0665-3.552 16.111-5.2564 24.181l-5.0786 24.216-5.0453 24.222c-0.10908 0.52541-0.62341 0.86239-1.1484 0.75376-0.51344-0.10686-0.84687-0.60301-0.75996-1.1151l8.3636-48.775c1.382-8.1317 2.6368-16.288 4.0033-24.423 1.3585-8.1362 2.8984-16.238 4.4574-24.337l0.29042-1.5186 0.14543-0.75907 0.0607-0.33166c0.0199-0.10286 0.0319-0.19908 0.047-0.29662 0.11262-0.78657 0.0869-1.4016-0.0732-1.9576-0.0798-0.28199-0.19642-0.56177-0.35915-0.85396-0.0381-0.0727-0.0882-0.14632-0.13035-0.22036l-0.19199-0.30727-0.41235-0.65444-1.6498-2.6169c-2.2041-3.4864-4.3678-6.998-6.5537-10.496l-6.5364-10.507-6.4956-10.532-3.2478-5.2657-1.621-2.6346-0.35914-0.57729-0.14763-0.21282-0.14765-0.18534c-0.19819-0.22967-0.37954-0.38663-0.57285-0.50103-0.19554-0.10996-0.41856-0.19642-0.71918-0.25095-0.31658-0.0545-0.60833-0.0616-1.1892-0.0661l-3.0935-0.0377-6.1866-0.0754c-8.249-0.0801-16.498-0.2029-24.746-0.4552l-12.371-0.3224c-0.50546-0.0102-1.0694-0.0346-1.4614-0.0253-0.42388 0.0128-0.81805 0.0705-1.1732 0.18223-0.70499 0.21992-1.2801 0.70632-1.8002 1.4202l-0.18844 0.27357-0.2115 0.3219-0.42388 0.6469-0.84775 1.2938-1.6782 2.5982c-4.476 6.9284-8.87 13.908-13.189 20.935l-6.4553 10.556-3.2283 5.2776-0.79765 1.308c-0.23012 0.3822-0.42388 0.76883-0.5702 1.1586-0.29396 0.78081-0.3955 1.5718-0.32899 2.42 0.0164 0.21149 0.043 0.42609 0.0789 0.64291 0.0355 0.22169 0.078 0.4221 0.13302 0.68902l0.31436 1.5137 0.64025 3.0261 1.2916 6.0505c0.86815 4.0322 1.7062 8.0701 2.5406 12.109l4.9664 24.241c0.83578 4.0388 1.6401 8.0829 2.4466 12.127l2.4227 12.132 4.8232 24.267 2.4005 12.136 1.1998 6.0682 0.14987 0.75863 0.13745 0.67306c0.078 0.34496 0.18045 0.62917 0.28908 0.85796 0.22879 0.4487 0.44295 0.66552 0.89254 0.932l-1.4712-0.39551 26.402-0.21992 26.401-0.17602c1.8383-0.0124 3.3387 1.468 3.3507 3.3063 0.0124 1.8383-1.468 3.3383-3.3063 3.3507z"/>
</svg>
