<?xml version="1.0" encoding="UTF-8" standalone="no"?>
<svg
   xmlns:dc="http://purl.org/dc/elements/1.1/"
   xmlns:cc="http://creativecommons.org/ns#"
   xmlns:rdf="http://www.w3.org/1999/02/22-rdf-syntax-ns#"
   xmlns:svg="http://www.w3.org/2000/svg"
   xmlns="http://www.w3.org/2000/svg"
   height="176"
   width="176"
   version="1.1"
   id="svg2"
   viewBox="0 0 176 176">
  <metadata
     id="metadata16699">
    <rdf:RDF>
      <cc:Work
         rdf:about="">
        <dc:format>image/svg+xml</dc:format>
        <dc:type
           rdf:resource="http://purl.org/dc/dcmitype/StillImage" />
        <dc:title></dc:title>
      </cc:Work>
    </rdf:RDF>
  </metadata>
  <defs
     id="defs16697" />
  <path
     d="m 60.873828,158.12765 c -3.60238,-1.95926 -3.927659,-3.10534 -3.7635,-9.78874 0.16112,-6.68796 0.650556,-24.14205 0.317678,-27.89187 -0.317678,-3.7559 1.813352,-4.8974 -5.239414,-4.73476 -7.049723,0.16416 -30.332966,0.8755 -30.332966,0.8755 -8.701348,-0.7539 -8.556036,-5.37316 -9.332449,-13.92617 -0.990578,-10.76306 -0.49339,-16.14992 0.81081,-27.57114 1.311861,-11.41515 7.710466,-18.159349 11.642229,-18.650309 3.935261,-0.4864 23.441321,-0.4864 26.722986,-0.4864 3.277711,0 3.767301,-1.138005 4.256737,-3.101997 0.493375,-1.952574 0.332741,-6.634003 0.99058,-14.132125 0.657837,-7.509522 -0.160626,-12.891368 0.325096,-16.312565 0.489558,-3.425449 2.619858,-1.796469 3.931763,-0.818311 1.311845,0.981977 1.151212,3.912613 1.476307,7.50177 0.328913,3.592958 0.328913,9.465744 0,13.382309 -0.325095,3.912613 0,11.58204 -0.325095,15.985768 -0.328911,4.39992 -3.771101,5.54935 -6.559222,5.7091 -2.780523,0.16359 -17.046714,0.16359 -22.129569,0.16359 -5.079053,0 -7.53825,1.63276 -8.689492,3.74526 -1.151212,2.12372 -3.273911,13.86947 -3.767301,18.27638 -0.493373,4.40372 0.325096,17.28686 0.98292,19.73863 0.654006,2.43974 1.633078,4.39611 4.589463,4.39611 2.948786,0 30.978963,0.33113 34.421746,0.16739 3.438374,-0.16739 2.619858,2.93451 2.619858,6.36376 0,3.42926 -0.160626,25.61187 -0.160626,28.54545 0,2.93449 1.147382,7.17832 4.096227,8.8073 2.952581,1.63276 8.199901,2.44733 15.245521,3.102 13.7725,1.27887 21.804295,-2.28743 24.753075,-2.9383 4.25294,-0.94012 3.7673,-2.44733 4.10003,-6.03651 0.32891,-3.58535 0.48956,-22.67372 0.65401,-28.21864 0.16446,-5.54555 1.31184,-6.69116 6.39096,-6.52365 5.0868,0.16359 20.44693,-2.23805 25.20451,-2.07815 4.75392,0.16359 5.89377,0 7.86717,-1.46915 1.96581,-1.46918 2.15703,-4.62063 3.48033,-13.74015 1.48012,-10.1166 -0.98292,-23.14186 -1.79754,-26.40682 -0.82229,-3.25795 -1.47631,-5.70528 -3.93177,-5.70528 -2.46694,0 -5.41558,0.15979 -10.32652,0.32351 -4.92614,0.16359 -20.6567,0.49098 -23.9338,0.65465 -3.27771,0.16359 -4.42895,-0.97818 -4.26069,-3.2619 0.16446,-2.28363 0.48573,-11.9359 0.98292,-21.722211 0.48954,-9.78937 1.79754,-12.56396 -7.21328,-15.007493 -9.018115,-2.450848 -25.081395,-0.818064 -30.000085,-0.1634 -4.91566,0.647045 -6.391567,-0.818368 -8.521078,-4.571229 -2.134068,-3.752713 -2.131028,-5.868998 8.853958,-7.501774 16.63327,-2.473939 32.619035,-0.163666 36.715415,0.814564 4.09622,0.981975 6.22649,2.934497 6.22649,8.647535 0,5.709101 1.31185,28.054508 1.31185,31.15681 0,3.094397 2.45919,3.752861 5.24732,3.752861 2.78432,0 15.56928,-0.490979 23.76964,0.15979 8.1923,0.650847 9.64572,-0.871587 13.43582,14.516527 4.26053,17.29144 0.49337,40.29502 -0.48956,43.23316 -0.98675,2.93449 -5.08286,5.78523 -10.32653,5.13439 -5.20141,-0.64705 -24.25148,0.16359 -27.36898,0.49098 -3.12465,0.32733 -3.7749,0.0838 -3.93936,2.52728 -0.1721,2.45116 -0.32891,21.04735 -0.81847,25.12397 -0.48955,4.07632 0.48956,9.46194 -3.44598,11.25843 C 111.69327,161.7124 102.51404,164 89.563705,164 c -12.95033,0 -28.688336,-5.87326 -30.320806,-6.69102"
     id="path6842" />
</svg>
