<?xml version="1.0" encoding="UTF-8"?>
<svg width="192" height="192" version="1.1" viewBox="0 0 192 192" xmlns="http://www.w3.org/2000/svg">
 <path d="m68.874 166.13c-3.6024-1.9593-3.9277-3.1053-3.7635-9.7887 0.16112-6.688 0.65056-24.142 0.31768-27.892-0.31768-3.7559 1.8134-4.8974-5.2394-4.7348-7.0497 0.16416-30.333 0.8755-30.333 0.8755-8.7013-0.7539-8.556-5.3732-9.3324-13.926-0.99058-10.763-0.49339-16.15 0.81081-27.571 1.3119-11.415 7.7105-18.159 11.642-18.65 3.9353-0.4864 23.441-0.4864 26.723-0.4864 3.2777 0 3.7673-1.138 4.2567-3.102 0.49338-1.9526 0.33274-6.634 0.99058-14.132 0.65784-7.5095-0.16063-12.891 0.3251-16.313 0.48956-3.4254 2.6199-1.7965 3.9318-0.81831 1.3118 0.98198 1.1512 3.9126 1.4763 7.5018 0.32891 3.593 0.32891 9.4657 0 13.382-0.3251 3.9126 0 11.582-0.3251 15.986-0.32891 4.3999-3.7711 5.5494-6.5592 5.7091-2.7805 0.16359-17.047 0.16359-22.13 0.16359-5.0791 0-7.5382 1.6328-8.6895 3.7453-1.1512 2.1237-3.2739 13.869-3.7673 18.276-0.49337 4.4037 0.3251 17.287 0.98292 19.739 0.65401 2.4397 1.6331 4.3961 4.5895 4.3961 2.9488 0 30.979 0.33113 34.422 0.16739 3.4384-0.16739 2.6199 2.9345 2.6199 6.3638 0 3.4293-0.16063 25.612-0.16063 28.545 0 2.9345 1.1474 7.1783 4.0962 8.8073 2.9526 1.6328 8.1999 2.4473 15.246 3.102 13.773 1.2789 21.804-2.2874 24.753-2.9383 4.2529-0.94012 3.7673-2.4473 4.1-6.0365 0.32891-3.5854 0.48956-22.674 0.65401-28.219 0.16446-5.5456 1.3118-6.6912 6.391-6.5236 5.0868 0.16359 20.447-2.238 25.205-2.0782 4.7539 0.16359 5.8938 0 7.8672-1.4692 1.9658-1.4692 2.157-4.6206 3.4803-13.74 1.4801-10.117-0.98292-23.142-1.7975-26.407-0.82229-3.258-1.4763-5.7053-3.9318-5.7053-2.4669 0-5.4156 0.15979-10.327 0.32351-4.9261 0.16359-20.657 0.49098-23.934 0.65465-3.2777 0.16359-4.429-0.97818-4.2607-3.2619 0.16446-2.2836 0.48573-11.936 0.98292-21.722 0.48954-9.7894 1.7975-12.564-7.2133-15.007-9.0181-2.4508-25.081-0.81806-30-0.1634-4.9157 0.64704-6.3916-0.81837-8.5211-4.5712-2.1341-3.7527-2.131-5.869 8.854-7.5018 16.633-2.4739 32.619-0.16367 36.715 0.81456 4.0962 0.98198 6.2265 2.9345 6.2265 8.6475 0 5.7091 1.3118 28.055 1.3118 31.157 0 3.0944 2.4592 3.7529 5.2473 3.7529 2.7843 0 15.569-0.49098 23.77 0.15979 8.1923 0.65085 9.6457-0.87159 13.436 14.517 4.2605 17.291 0.49337 40.295-0.48956 43.233-0.98675 2.9345-5.0829 5.7852-10.327 5.1344-5.2014-0.64705-24.251 0.16359-27.369 0.49098-3.1246 0.32733-3.7749 0.0838-3.9394 2.5273-0.1721 2.4512-0.32891 21.047-0.81847 25.124-0.48955 4.0763 0.48956 9.4619-3.446 11.258-3.9307 1.789-13.11 4.0766-26.06 4.0766-12.95 0-28.688-5.8733-30.321-6.691"/>
</svg>
