<?xml version="1.0" encoding="UTF-8"?>
<svg width="192" height="192" version="1.1" viewBox="0 0 192 192" xmlns="http://www.w3.org/2000/svg">
 <path d="m134.96 72.323c-3.8985 0.87426-8.8466 1.3284-9.3537 5.6287-0.50851 4.3003-11.22 94.846-11.948 102.21-0.67529 6.8328-3.7399 6.0828-5.3888 6.0828-1.7452 0-19.471-0.14496-28.468-0.14496-3.0225 0-3.4985-5.0681-3.63-6.0562-0.99395-7.5015-12.904-100.77-14.147-103.62-0.49765-1.142-1.0251-1.7767-1.7289-1.9408-2.6768-0.63313-3.8809-1.0488-3.508 1.0666 0 0 12.95 101.72 14.016 109.89 0.21425 1.6317 0.93564 6.5548 4.5101 6.5548h40.542c3.8565 0 6.5549 0.49556 7.3889-6.9674 0.89361-7.9838 14.226-106.79 14.547-109.59 0.32137-2.8092-0.70377-3.5843-2.8313-3.1065m-13.024-9.003h-56.556c-2.1289 0-5.7413-0.15384-2.7446-3.4231 0 0 2.2008-2.648 3.5283-4.0962s3.3914-2.0962 8.0235-2.0962h39.72c5.7061 0 6.3678 1.9334 7.5991 3.5133 2.0028 2.571 4.9494 6.102 0.42986 6.102m14.652-2.9822s-4.6918-6.2914-5.6356-7.5843c-0.98039-1.3462-1.6231-2.8683-6.3556-2.8683h-53.166c-2.7012 0-7.8052 0.13462-10.66 4.8979s-2.8273 6.0488-5.4769 6.4393c-2.5073 0.36834-3.6395 1.1198-4.247 3.997-0.60885 2.8772 3.3005 2.8092 5.6749 2.8092h80.217s4.3175 0.05326 4.0599-2.7515c-0.48002-5.2234-4.4111-4.9393-4.4111-4.9393m-43.333-59.565c-1.4875 1.6671-7.534 7.7367-1.7411 17.16 4.6728 7.6006 7.1841 5.0192 8.711 14.962 0.65631 4.2662 1.6774 2.0414 2.0733 0.82397 0.82717-2.5414 3.1636-9.0177-6.1861-18.498-3.9731-4.0296-2.2794-11.854-1.3994-13.72 0.82988-1.7634-0.38104-1.935-1.4577-0.72781m-7.2713 11.975s-6.1115 6.176 1.836 14.966c7.4106 8.1967 5.7752 12.286 4.3962 14.87-1.3777 2.5858 1.3587 2.0222 2.8015 0.9571 1.4441-1.0636 8.7951-8.1464-1.8387-19.683-6.9455-7.5355-5.8932-9.3091-5.7373-10.655 0.15458-1.3462-1.0631-0.93047-1.4577-0.45414"/>
</svg>
