<?xml version="1.0" encoding="UTF-8" standalone="no"?>
<svg
   xmlns:dc="http://purl.org/dc/elements/1.1/"
   xmlns:cc="http://creativecommons.org/ns#"
   xmlns:rdf="http://www.w3.org/1999/02/22-rdf-syntax-ns#"
   xmlns:svg="http://www.w3.org/2000/svg"
   xmlns="http://www.w3.org/2000/svg"
   viewBox="0 0 176 176"
   id="svg2"
   version="1.1">
  <metadata
     id="metadata16699">
    <rdf:RDF>
      <cc:Work
         rdf:about="">
        <dc:format>image/svg+xml</dc:format>
        <dc:type
           rdf:resource="http://purl.org/dc/dcmitype/StillImage" />
        <dc:title></dc:title>
      </cc:Work>
    </rdf:RDF>
  </metadata>
  <defs
     id="defs16697" />
  <g
     transform="matrix(1.0848033,0,0,1.0848033,39.215946,-120.89845)"
     style="fill:#000000"
     id="g17319">
    <g
       style="fill:#000000"
       transform="matrix(1.25,0,0,-1.25,35.740582,122.22175)"
       id="g5080">
      <path
         id="path5082"
         style="fill:#000000;fill-opacity:1;fill-rule:nonzero;stroke:none"
         d="m 0,0 c 0,0 -4.507,-4.175 1.354,-10.117 5.465,-5.541 4.259,-8.305 3.242,-10.052 -1.016,-1.748 1.002,-1.367 2.066,-0.647 1.065,0.719 6.486,5.507 -1.356,13.306 C 0.184,-2.416 0.96,-1.217 1.075,-0.307 1.189,0.603 0.291,0.322 0,0" />
    </g>
    <g
       style="fill:#000000"
       transform="matrix(1.25,0,0,-1.25,42.443452,112.10275)"
       id="g5084">
      <path
         id="path5086"
         style="fill:#000000;fill-opacity:1;fill-rule:nonzero;stroke:none"
         d="m 0,0 c -1.097,-1.127 -5.556,-5.23 -1.284,-11.6 3.446,-5.138 5.298,-3.393 6.424,-10.114 0.484,-2.884 1.237,-1.38 1.529,-0.557 0.61,1.718 2.333,6.096 -4.562,12.504 -2.93,2.724 -1.681,8.013 -1.032,9.275 C 1.687,0.7 0.794,0.816 0,0" />
    </g>
    <g
       style="fill:#000000"
       transform="matrix(1.25,0,0,-1.25,68.882082,164.9555)"
       id="g5088">
      <path
         id="path5090"
         style="fill:#000000;fill-opacity:1;fill-rule:nonzero;stroke:none"
         d="m 0,0 -41.708,0 c -1.57,0 -4.234,0.104 -2.024,2.314 0,0 1.623,1.79 2.602,2.769 0.979,0.979 2.501,1.417 5.917,1.417 l 29.292,0 c 4.208,0 4.696,-1.307 5.604,-2.375 C 1.16,2.387 3.333,0 0,0 m 10.805,2.016 c 0,0 -3.46,4.253 -4.156,5.127 -0.723,0.91 -1.197,1.939 -4.687,1.939 l -39.208,0 c -1.992,0 -5.756,-0.091 -7.861,-3.311 -2.105,-3.22 -2.085,-4.089 -4.039,-4.353 -1.849,-0.249 -2.684,-0.757 -3.132,-2.702 -0.449,-1.945 2.434,-1.899 4.185,-1.899 l 59.157,0 c 0,0 3.184,-0.036 2.994,1.86 -0.354,3.531 -3.253,3.339 -3.253,3.339" />
    </g>
    <g
       style="fill:#000000"
       transform="matrix(1.25,0,0,-1.25,80.888332,172.56299)"
       id="g5092">
      <path
         id="path5094"
         style="fill:#000000;fill-opacity:1;fill-rule:nonzero;stroke:none"
         d="m 0,0 c -2.875,-0.591 -6.524,-0.898 -6.898,-3.805 -0.375,-2.907 -8.274,-64.116 -8.811,-69.097 -0.498,-4.619 -2.758,-4.112 -3.974,-4.112 -1.287,0 -14.359,0.098 -20.994,0.098 -2.229,0 -2.58,3.426 -2.677,4.094 -0.733,5.071 -9.516,68.122 -10.433,70.049 -0.367,0.772 -0.756,1.201 -1.275,1.312 -1.974,0.428 -2.862,0.709 -2.587,-0.721 0,0 9.55,-68.765 10.336,-74.283 0.158,-1.103 0.69,-4.431 3.326,-4.431 l 29.898,0 c 2.844,0 4.834,-0.335 5.449,4.71 C -7.981,-70.789 1.851,-3.998 2.088,-2.1 2.325,-0.201 1.569,0.323 0,0" />
    </g>
  </g>
</svg>
