<?xml version="1.0" encoding="UTF-8" standalone="no"?>
<svg
   xmlns:dc="http://purl.org/dc/elements/1.1/"
   xmlns:cc="http://creativecommons.org/ns#"
   xmlns:rdf="http://www.w3.org/1999/02/22-rdf-syntax-ns#"
   xmlns:svg="http://www.w3.org/2000/svg"
   xmlns="http://www.w3.org/2000/svg"
   height="176"
   width="176"
   version="1.1"
   id="svg2"
   viewBox="0 0 176 176">
  <metadata
     id="metadata16699">
    <rdf:RDF>
      <cc:Work
         rdf:about="">
        <dc:format>image/svg+xml</dc:format>
        <dc:type
           rdf:resource="http://purl.org/dc/dcmitype/StillImage" />
        <dc:title></dc:title>
      </cc:Work>
    </rdf:RDF>
  </metadata>
  <defs
     id="defs16697" />
  <g
     style="fill:#000000"
     transform="matrix(1.6081541,0,0,-1.6081541,98.293872,130.78998)"
     id="g4342">
    <path
       id="path4344"
       style="fill:#000000;fill-opacity:1;fill-rule:nonzero;stroke:none"
       d="m 0,0 c -0.418,-0.05 -0.825,-0.093 -1.233,-0.137 -0.101,6.924 -0.237,15.283 -0.4,23.741 0.154,-0.047 0.321,-0.096 0.465,-0.143 C 10.508,19.641 14.52,1.737 0,0 m -17.159,37.134 c -2.055,1.559 -3.23,4.476 -3.443,7.074 -0.212,2.598 0.128,9.497 8.39,11.371 0.176,0.04 0.346,0.06 0.521,0.096 -0.201,-6.016 -0.444,-13.354 -0.694,-20.973 -1.946,0.73 -3.515,1.477 -4.774,2.432 M 4.402,29.099 c -2.254,0.83 -4.307,1.531 -6.191,2.149 -0.014,0.643 -0.027,1.284 -0.042,1.923 -0.19,8.532 -0.422,16.561 -0.623,22.889 7.526,-0.911 13.032,-4.492 14.986,-5.591 2.726,-1.533 4.325,0.95 4.792,1.879 0.731,1.453 1.264,2.395 2.826,5.831 1.563,3.435 -11.476,8.163 -17.701,9.344 -1.414,0.269 -3.239,0.569 -5.314,0.778 -0.015,0.424 -0.026,0.738 -0.031,0.932 0,2.604 -0.779,3.188 -2.447,3.757 -1.668,0.57 -5.86,2.658 -5.86,-2.717 0,0 -0.023,-0.657 -0.063,-1.844 -6.882,-0.558 -14.29,-3.022 -18.875,-10.126 -8.732,-13.532 0.21,-23.935 6.864,-27.676 3.014,-1.695 6.871,-3.007 10.626,-4.081 -0.326,-9.987 -0.64,-19.809 -0.863,-27.154 -10.131,0.394 -15.269,2.787 -16.33,3.078 -1.457,0.4 -2.226,-0.916 -2.226,-0.916 0,0 -0.372,-0.681 -0.696,-1.45 -0.323,-0.768 -0.383,-2.096 0.877,-2.865 5.996,-3.653 11.955,-6.253 18.102,-7.404 -0.031,-1.254 -0.048,-2.118 -0.048,-2.507 0,-4.841 -0.073,-6.041 3.424,-6.801 3.497,-0.759 4.84,-1.052 5.624,-1.143 0.784,-0.091 3.759,-0.297 3.759,3.735 0,0.61 -0.024,2.96 -0.067,6.5 1.055,0.161 2.116,0.352 3.189,0.607 12.132,2.877 17.722,10.582 18.758,20.121 1.035,9.539 -5.082,14.567 -16.45,18.752" />
  </g>
</svg>
