<?xml version="1.0" encoding="UTF-8"?>
<svg width="192" height="192" version="1.1" viewBox="0 0 192 192" xmlns="http://www.w3.org/2000/svg">
 <path d="m85.706 53.21c0.67222-0.08042 1.3267-0.14956 1.9829-0.22032 0.16248 11.135 0.38113 24.577 0.64326 38.179-0.24766-0.075582-0.51622-0.15438-0.7478-0.22996-18.777-6.1431-25.229-34.936-1.8783-37.729m27.594 59.717c3.3048 2.5071 5.1944 7.1981 5.5369 11.376 0.34094 4.178-0.20583 15.273-13.492 18.286-0.28304 0.0643-0.55643 0.0965-0.83787 0.15437 0.32325-9.6746 0.71403-21.475 1.1161-33.728 3.1295 1.174 5.6527 2.3752 7.6774 3.911m-34.673-12.922c3.6248 1.3348 6.9263 2.4621 9.9561 3.4559 0.02254 1.034 0.04344 2.0649 0.06762 3.0925 0.30555 13.721 0.67864 26.633 1.0019 36.809-12.103-1.465-20.958-7.2238-24.1-8.9912-4.3838-2.4653-6.9553 1.5277-7.7063 3.0217-1.1756 2.3366-2.0327 3.8515-4.5447 9.3771-2.5135 5.524 18.455 13.127 28.466 15.027 2.2739 0.43258 5.2088 0.91503 8.5458 1.2511 0.02409 0.68185 0.04171 1.1868 0.04983 1.4988 0 4.1876 1.2528 5.1268 3.9352 6.0418 2.6824 0.91665 9.4238 4.2745 9.4238-4.3694 0 0 0.037-1.0566 0.10138-2.9654 11.067-0.89735 22.981-4.8598 30.354-16.284 14.042-21.762-0.33771-38.491-11.038-44.507-4.847-2.7258-11.05-4.8357-17.088-6.5629 0.52427-16.061 1.0292-31.856 1.3878-43.668 16.292 0.63361 24.555 4.4819 26.261 4.9499 2.3431 0.64326 3.5798-1.4731 3.5798-1.4731s0.59822-1.0952 1.1193-2.3318c0.51945-1.2351 0.61593-3.3707-1.4104-4.6074-9.6425-5.8746-19.225-10.056-29.111-11.907 0.0499-2.0166 0.0773-3.4061 0.0773-4.0316 0-7.7851 0.11742-9.7149-5.5063-10.937-5.6237-1.2206-7.7835-1.6918-9.0443-1.8381-1.2608-0.14634-6.0451-0.47762-6.0451 6.0065 0 0.98098 0.03852 4.7601 0.10773 10.453-1.6966 0.25891-3.4029 0.56607-5.1284 0.97615-19.51 4.6267-28.5 17.017-30.166 32.358-1.6645 15.34 8.1726 23.426 26.454 30.156"/>
</svg>
