<?xml version="1.0" encoding="UTF-8" standalone="no"?>
<svg
   xmlns:dc="http://purl.org/dc/elements/1.1/"
   xmlns:cc="http://creativecommons.org/ns#"
   xmlns:rdf="http://www.w3.org/1999/02/22-rdf-syntax-ns#"
   xmlns:svg="http://www.w3.org/2000/svg"
   xmlns="http://www.w3.org/2000/svg"
   height="176"
   width="176"
   version="1.1"
   id="svg2"
   viewBox="0 0 176 176">
  <metadata
     id="metadata16699">
    <rdf:RDF>
      <cc:Work
         rdf:about="">
        <dc:format>image/svg+xml</dc:format>
        <dc:type
           rdf:resource="http://purl.org/dc/dcmitype/StillImage" />
        <dc:title></dc:title>
      </cc:Work>
    </rdf:RDF>
  </metadata>
  <defs
     id="defs16697" />
  <g
     transform="translate(1.2943291e-4,-23.999607)"
     id="g7454">
    <path
       id="path6611"
       d="m 123.57422,115.80273 c -1.23669,-0.0238 -2.52111,2.1e-4 -3.82813,0.0918 -0.45212,0.0284 -0.91877,0.0621 -1.38671,0.10547 l 0.1289,-0.006 c -0.22173,0 -0.33439,0.0246 -0.37109,0.0312 -0.002,2.2e-4 -0.004,0.002 -0.006,0.002 -2.8701,0.30705 -5.6797,0.87574 -8.41211,1.69922 -0.002,5.8e-4 -0.004,9.6e-4 -0.006,0.002 -1.22407,0.35341 -2.41587,0.76565 -3.57422,1.20898 l -0.0117,0.006 -0.0117,0.004 c -0.20261,0.082 -0.41349,0.17056 -0.59961,0.24414 l -0.0117,0.004 -0.008,0.004 c -0.43247,0.17854 -0.87191,0.36295 -1.30859,0.55078 h -0.0156 l -0.18945,0.0879 c -0.0116,0.005 -0.0236,0.009 -0.0352,0.0137 l -0.15234,0.0664 -0.01,0.008 c -0.0683,0.03 -0.13171,0.0562 -0.22656,0.0996 l -0.22851,0.10547 -0.0293,0.0293 c -0.78445,0.3607 -1.5519,0.73898 -2.31055,1.1289 l -0.01,0.004 -0.0117,0.006 c -1.240132,0.663 -2.46969,1.3758 -3.666017,2.14453 l -0.07422,0.0469 -0.06641,0.0547 c 0.0045,-0.004 -0.05697,0.0423 -0.11914,0.0859 -1.086287,0.70715 -2.119942,1.47803 -3.138672,2.26953 h -0.09375 l -0.38086,0.30273 C 78.921792,137.67025 75.54401,154.51934 75.4375,155.06641 l -0.15625,0.58789 -0.0059,0.0293 c -0.175829,0.79124 -0.241855,1.06822 -0.384766,1.88282 -0.24454,1.38408 -0.321207,1.72971 -0.449219,3.17578 l 0.0293,-0.1875 c -0.09902,0.43546 -0.0752,0.52237 -0.03125,0.89648 0.04395,0.37412 0.121545,0.95692 0.761719,1.45703 l 0.002,0.002 h 0.002 c 0.638321,0.49596 1.691336,1.19427 3.042969,1.07617 h 0.002 0.0039 c 0.811193,-0.0739 1.724411,-0.82404 1.841797,-1.78516 l 0.01367,0.002 c 0.776458,-6.25681 2.928417,-12.42522 6.548828,-18.09765 13.018734,-20.41153 40.110582,-26.39664 60.527342,-13.35938 7.87093,5.02505 11.82778,12.10882 15.18945,20.38868 l -0.0703,-0.23243 c 0.0641,0.29879 0.1248,0.37934 0.13672,0.38868 1.14262,2.62174 1.48269,5.51586 2.07031,8.69921 0.0774,0.58627 0.39045,1.13825 0.82617,1.51172 l 0.0527,0.0449 0.0566,0.0391 c 0.1799,0.12585 0.37732,0.24426 0.65234,0.33594 l 0.16992,0.0566 6.73438,0.4375 c 0.87475,0.19747 1.78499,-0.13255 2.35156,-0.81641 0.16874,-0.20156 0.10851,-0.49151 0.20117,-0.73242 L 176,160.42773 l -0.11328,-0.70507 c -3.13016,-19.65277 -19.59154,-35.55952 -37.33789,-41.4961 l -0.0117,-0.004 c -0.15282,-0.054 -0.31817,-0.11288 -0.52734,-0.16993 l -0.0508,-0.0156 -0.0527,-0.01 c 0.10492,0.0203 0.0764,0.007 -0.11719,-0.0312 -0.10611,-0.0375 -0.18121,-0.0747 -0.36523,-0.10547 l 0.17969,0.043 c -0.4723,-0.14458 -1.0021,-0.29583 -1.5879,-0.4414 l -0.0137,-0.004 c -2.95793,-0.7651 -7.30913,-1.6129 -12.41992,-1.68555 z" />
    <path
       d="m 113.39258,60.910156 c -1.28566,-0.005 -2.58416,0.102033 -3.88672,0.332032 C 95.615834,63.69571 86.929011,78.9196 89.775391,94.994141 c 2.83676,16.070149 16.215719,27.390959 30.105469,24.937499 13.89406,-2.45834 22.58377,-17.68201 19.74219,-33.751952 -2.48637,-14.06114 -13.04133,-24.48557 -24.94922,-25.228516 -0.42528,-0.02653 -0.8527,-0.03936 -1.28125,-0.04102 z m -1.28516,10.806641 c 0.29404,0.0018 0.58839,0.01215 0.88086,0.03125 8.1892,0.53479 15.70262,7.789963 17.50586,17.990234 2.06068,11.656549 -4.20485,22.259419 -13.66602,23.935549 0,0 -0.002,0 -0.002,0 C 107.37003,115.343 97.845222,107.52906 95.789062,95.873047 93.728252,84.215728 99.994407,73.612 109.45117,71.941406 c 0.88709,-0.15664 1.77414,-0.22992 2.65625,-0.224609 z"
       id="path7436" />
    <path
       d="m 40.355469,124.16406 c -1.010396,-0.019 -2.058444,6.1e-4 -3.136719,0.0781 -0.378897,0.0198 -0.765727,0.0489 -1.150391,0.0879 l 0.140625,-0.006 c -0.124804,0 -0.248038,0.0116 -0.36914,0.0293 -2.348125,0.25671 -4.645331,0.71976 -6.876953,1.39257 0,0 -0.002,0 -0.002,0 -0.0019,5.9e-4 -0.0039,9.6e-4 -0.0059,0.002 -0.998405,0.29444 -1.977264,0.6278 -2.93164,0.99414 l -0.01563,0.006 -0.01562,0.006 c -0.144812,0.0596 -0.321865,0.13023 -0.494141,0.20117 -0.335482,0.13792 -0.675643,0.28252 -1.015625,0.42969 h -0.03711 l -0.285156,0.13476 c -0.06813,0.0322 -0.155996,0.073 -0.253906,0.11914 -0.0058,0.003 -0.0097,0.003 -0.01563,0.006 l -0.0332,0.0156 -0.04102,0.0215 c -0.691922,0.31396 -1.357367,0.64984 -2.019531,0.99219 l -0.0059,0.002 -0.0059,0.004 c -1.024562,0.54127 -2.037067,1.13447 -3.011718,1.76172 l -0.06055,0.0391 -0.05664,0.0449 c 0.0083,-0.007 -0.05223,0.0347 -0.09766,0.0664 -0.0035,0.002 -0.0063,0.006 -0.0098,0.008 -0.0215,0.0151 -0.0091,0.005 -0.04102,0.0273 -0.852229,0.55554 -1.658556,1.16156 -2.457031,1.77735 h -0.07813 l -0.380859,0.30078 c -11.8741403,9.39776 -14.65191413,23.18116 -14.74977712,23.683 l -0.12695313,0.48633 -0.005859,0.0273 c -0.14258933,0.64395 -0.19841657,0.87129 -0.31835938,1.54297 l -0.001953,0.002 v 0.002 c -0.19795318,1.12788 -0.26422246,1.42495 -0.36914063,2.61719 l 0.03125,-0.19727 c -0.055097,0.2341 -0.0440882,0.26964 -0.04882812,0.39258 -0.00473995,0.12294 -0.002389538,0.26316 0.01757812,0.43164 0.03993532,0.33696 0.10435301,0.87761 0.71289063,1.35742 l 0.003906,0.002 0.003906,0.004 c 0.51657673,0.4023 1.48242983,1.02861 2.65234373,0.92969 0.7864227,-0.0625 1.6307515,-0.78352 1.7421875,-1.68164 l 0.023437,0.002 C 5.785562,157.2432 7.5263128,152.24493 10.460937,147.65454 v -0.002 c 10.544331,-16.53889 32.481925,-21.38496 49.021484,-10.82226 6.361481,4.06514 9.553638,9.77782 12.291016,16.51562 l -0.06055,-0.1914 c 0.05851,0.23657 0.09714,0.28195 0.08203,0.24414 l 0.0078,0.0234 0.0098,0.0215 c 0.93359,2.11724 1.206912,4.48683 1.699219,7.13476 l -0.01367,-0.0918 c 0.06821,0.57275 0.369692,1.07302 0.767578,1.41406 l 0.03906,0.0352 0.04297,0.0312 c 0.17442,0.128 0.361877,0.23728 0.623047,0.32422 l 0.171875,0.0566 5.507813,0.35937 c 0.805641,0.17158 1.635729,-0.12752 2.15625,-0.75976 l 0.002,-0.004 0.002,-0.002 c 0.103355,-0.1267 0.05312,-0.32597 0.126953,-0.47461 l 0.507812,-0.27344 -0.15625,-0.98047 C 80.712024,144.05269 67.205668,131.02146 52.634766,126.14844 v -0.002 c -0.125469,-0.0418 -0.255325,-0.0855 -0.408204,-0.13086 l -0.01367,-0.002 -0.01172,-0.004 c -0.10209,-0.0282 -0.140633,-0.0352 -0.132813,-0.0332 l 0.167969,0.0547 c -0.08388,-0.0326 -0.260397,-0.10702 -0.507812,-0.1543 l 0.142578,0.0352 c -0.386897,-0.11754 -0.821189,-0.24007 -1.300782,-0.36133 -2.424518,-0.62537 -6.002124,-1.32798 -10.207031,-1.38672 z"
       id="path7438" />
    <path
       d="m 32.054688,79.384766 c -1.062907,-0.0036 -2.13723,0.08709 -3.214844,0.277343 -11.495083,2.029434 -18.650763,14.606662 -16.3125,27.833981 2.33421,13.227 13.371555,22.57997 24.865234,20.55079 C 48.886822,126.01254 56.041377,113.4421 53.703125,100.21484 51.657092,88.644912 42.957176,80.032466 33.113281,79.419922 32.761714,79.398044 32.40899,79.38598 32.054688,79.384766 Z m -1.75586,9.351562 C 37.3717,88.356823 44.193598,94.39698 45.75,103.20703 c 1.66015,9.39296 -3.379606,17.88503 -10.941406,19.22461 -7.550613,1.33493 -15.205761,-4.91685 -16.861328,-14.30859 -1.660064,-9.392478 3.38481,-17.889677 10.935546,-19.224612 0.472274,-0.08345 0.944491,-0.13681 1.416016,-0.16211 z"
       id="path7440" />
  </g>
</svg>
