<?xml version="1.0" encoding="UTF-8"?>
<svg width="192" height="192" version="1.1" viewBox="0 0 192 192" xmlns="http://www.w3.org/2000/svg">
 <path d="m40.055 62.93c-1.0629-0.0036-2.1372 0.08709-3.2148 0.27734-11.495 2.0294-18.651 14.607-16.312 27.834 2.3342 13.227 13.372 22.58 24.865 20.551 11.494-2.0343 18.649-14.605 16.311-27.832-2.046-11.57-10.746-20.182-20.59-20.795-0.35157-0.02188-0.70429-0.03394-1.0586-0.03516zm-1.7559 9.3516c7.0729-0.37951 13.895 5.6606 15.451 14.471 1.6602 9.393-3.3796 17.885-10.941 19.225-7.5506 1.3349-15.206-4.9168-16.861-14.309-1.6601-9.3925 3.3848-17.89 10.936-19.225 0.47227-0.0834 0.94449-0.13681 1.416-0.16211zm10.057 35.428c-1.0104-0.019-2.0584 6.1e-4 -3.1367 0.0781-0.3789 0.0198-0.76573 0.0489-1.1504 0.0879l0.14062-6e-3c-0.1248 0-0.24804 0.0116-0.36914 0.0293-2.3481 0.25671-4.6453 0.71976-6.877 1.3926h-2e-3c-0.0019 5.9e-4 -0.0039 9.6e-4 -0.0059 2e-3 -0.9984 0.29444-1.9773 0.6278-2.9316 0.99414l-0.01563 6e-3 -0.01562 6e-3c-0.14481 0.0596-0.32186 0.13023-0.49414 0.20117-0.33548 0.13792-0.67564 0.28252-1.0156 0.42969h-0.03711l-0.28516 0.13476c-0.06813 0.0322-0.156 0.073-0.25391 0.11914-0.0058 3e-3 -0.0097 3e-3 -0.01563 6e-3l-0.0332 0.0156-0.04102 0.0215c-0.69192 0.31396-1.3574 0.64984-2.0195 0.99219l-0.0059 2e-3 -0.0059 4e-3c-1.0246 0.54127-2.0371 1.1345-3.0117 1.7617l-0.06055 0.0391-0.05664 0.0449c0.0083-7e-3 -0.05223 0.0347-0.09766 0.0664-0.0035 2e-3 -0.0063 6e-3 -0.0098 8e-3 -0.0215 0.0151-0.0091 5e-3 -0.04102 0.0273-0.85223 0.55554-1.6586 1.1616-2.457 1.7774h-0.07813l-0.38086 0.30078c-11.874 9.3978-14.652 23.181-14.75 23.683l-0.12695 0.48633-0.00586 0.0273c-0.14259 0.64395-0.19842 0.87129-0.31836 1.543l-0.00195 2e-3v2e-3c-0.19795 1.1279-0.26422 1.425-0.36914 2.6172l0.03125-0.19727c-0.055097 0.2341-0.044088 0.26964-0.048828 0.39258s-0.00239 0.26316 0.017578 0.43164c0.039935 0.33696 0.10435 0.87761 0.71289 1.3574l0.00391 2e-3 0.00391 4e-3c0.51658 0.4023 1.4824 1.0286 2.6523 0.92969 0.78642-0.0625 1.6308-0.78352 1.7422-1.6816l0.02344 2e-3c0.62736-5.0637 2.3681-10.062 5.3027-14.652v-2e-3c10.544-16.539 32.482-21.385 49.021-10.822 6.3615 4.0651 9.5536 9.7778 12.291 16.516l-0.06055-0.1914c0.05851 0.23657 0.09714 0.28195 0.08203 0.24414l0.0078 0.0234 0.0098 0.0215c0.93359 2.1172 1.2069 4.4868 1.6992 7.1348l-0.01367-0.0918c0.06821 0.57275 0.36969 1.073 0.76758 1.4141l0.03906 0.0352 0.04297 0.0312c0.17442 0.128 0.36188 0.23728 0.62305 0.32422l0.17188 0.0566 5.5078 0.35937c0.80564 0.17158 1.6357-0.12752 2.1562-0.75976l2e-3 -4e-3 2e-3 -2e-3c0.10336-0.1267 0.05312-0.32597 0.12695-0.47461l0.50781-0.27344-0.15625-0.98047c-2.5772-16.16-16.084-29.191-30.654-34.064v-2e-3c-0.12547-0.0418-0.25532-0.0855-0.4082-0.13086l-0.01367-2e-3 -0.01172-4e-3c-0.10209-0.0282-0.14063-0.0352-0.13281-0.0332l0.16797 0.0547c-0.08388-0.0326-0.2604-0.10702-0.50781-0.1543l0.14258 0.0352c-0.3869-0.11754-0.82119-0.24007-1.3008-0.36133-2.4245-0.62537-6.0021-1.328-10.207-1.3867zm73.037-63.254c-1.2857-5e-3 -2.5842 0.10203-3.8867 0.33203-13.89 2.4535-22.577 17.677-19.73 33.752 2.8368 16.07 16.216 27.391 30.105 24.937 13.894-2.4583 22.584-17.682 19.742-33.752-2.4864-14.061-13.041-24.486-24.949-25.229-0.42528-0.02653-0.8527-0.03936-1.2812-0.04102zm-1.2852 10.807c0.29404 0.0018 0.58839 0.01215 0.88086 0.03125 8.1892 0.53479 15.703 7.79 17.506 17.99 2.0607 11.657-4.2048 22.259-13.666 23.936h-2e-3c-9.4561 1.6692-18.981-6.1448-21.037-17.801-2.0608-11.657 4.2053-22.261 13.662-23.932 0.88709-0.15664 1.7741-0.22992 2.6562-0.22461zm11.467 44.086c-1.2367-0.0238-2.5211 2.1e-4 -3.8281 0.0918-0.45212 0.0284-0.91877 0.0621-1.3867 0.10547l0.1289-6e-3c-0.22173 0-0.33439 0.0246-0.37109 0.0312-2e-3 2.2e-4 -4e-3 2e-3 -6e-3 2e-3 -2.8701 0.30705-5.6797 0.87574-8.4121 1.6992-2e-3 5.8e-4 -4e-3 9.6e-4 -6e-3 2e-3 -1.2241 0.35341-2.4159 0.76565-3.5742 1.209l-0.0117 6e-3 -0.0117 4e-3c-0.20261 0.082-0.41349 0.17056-0.59961 0.24414l-0.0117 4e-3 -8e-3 4e-3c-0.43247 0.17854-0.87191 0.36295-1.3086 0.55078h-0.0156l-0.18945 0.0879c-0.0116 5e-3 -0.0236 9e-3 -0.0352 0.0137l-0.15234 0.0664-0.01 8e-3c-0.0683 0.03-0.13171 0.0562-0.22656 0.0996l-0.22851 0.10547-0.0293 0.0293c-0.78445 0.3607-1.5519 0.73898-2.3106 1.1289l-0.01 4e-3 -0.0117 6e-3c-1.2401 0.663-2.4697 1.3758-3.666 2.1445l-0.0742 0.0469-0.0664 0.0547c5e-3 -4e-3 -0.057 0.0423-0.11914 0.0859-1.0863 0.70715-2.1199 1.478-3.1387 2.2695h-0.0937l-0.38086 0.30273c-14.487 11.466-17.865 28.315-17.972 28.863l-0.15625 0.58789-0.0059 0.0293c-0.17583 0.79124-0.24186 1.0682-0.38477 1.8828-0.24454 1.3841-0.32121 1.7297-0.44922 3.1758l0.0293-0.1875c-0.09902 0.43546-0.0752 0.52237-0.03125 0.89648 0.04395 0.37412 0.12154 0.95692 0.76172 1.457l2e-3 2e-3h2e-3c0.63832 0.49596 1.6913 1.1943 3.043 1.0762h0.0059c0.81119-0.0739 1.7244-0.82404 1.8418-1.7852l0.01367 2e-3c0.77646-6.2568 2.9284-12.425 6.5488-18.098 13.019-20.412 40.111-26.397 60.527-13.359 7.8709 5.025 11.828 12.109 15.189 20.389l-0.0703-0.23243c0.0641 0.29879 0.1248 0.37934 0.13672 0.38868 1.1426 2.6217 1.4827 5.5159 2.0703 8.6992 0.0774 0.58627 0.39045 1.1382 0.82617 1.5117l0.0527 0.0449 0.0566 0.0391c0.1799 0.12585 0.37732 0.24426 0.65234 0.33594l0.16992 0.0566 6.7344 0.4375c0.87475 0.19747 1.785-0.13255 2.3516-0.81641 0.16874-0.20156 0.10851-0.49151 0.20117-0.73242l0.44334-0.43953-0.11328-0.70507c-3.1302-19.653-19.592-35.56-37.338-41.496l-0.0117-4e-3c-0.15282-0.054-0.31817-0.11288-0.52734-0.16993l-0.0508-0.0156-0.0527-0.01c0.10492 0.0203 0.0764 7e-3 -0.11719-0.0312-0.10611-0.0375-0.18121-0.0747-0.36523-0.10547l0.17969 0.043c-0.4723-0.14458-1.0021-0.29583-1.5879-0.4414l-0.0137-4e-3c-2.9579-0.7651-7.3091-1.6129-12.42-1.6855z"/>
</svg>
