<?xml version="1.0" encoding="UTF-8" standalone="no"?>
<svg
   xmlns:dc="http://purl.org/dc/elements/1.1/"
   xmlns:cc="http://creativecommons.org/ns#"
   xmlns:rdf="http://www.w3.org/1999/02/22-rdf-syntax-ns#"
   xmlns:svg="http://www.w3.org/2000/svg"
   xmlns="http://www.w3.org/2000/svg"
   height="176"
   width="176"
   version="1.1"
   id="svg2"
   viewBox="0 0 176 176">
  <metadata
     id="metadata16699">
    <rdf:RDF>
      <cc:Work
         rdf:about="">
        <dc:format>image/svg+xml</dc:format>
        <dc:type
           rdf:resource="http://purl.org/dc/dcmitype/StillImage" />
        <dc:title></dc:title>
      </cc:Work>
    </rdf:RDF>
  </metadata>
  <defs
     id="defs16697" />
  <g
     transform="translate(1.1196182e-6,-12)"
     id="g8028">
    <path
       d="m 88.263889,24.014677 c 2.079583,0.221667 3.574285,3.109033 4.468627,4.435765 4.564563,6.710572 10.722854,16.545579 13.526574,20.821263 9.33027,14.215318 18.97619,28.920101 28.25076,43.50792 9.97704,15.973025 10.93638,36.307905 2.52211,53.093575 -2.63971,5.26381 -5.24538,8.20354 -9.16626,12.45766 -0.86649,0.93579 -1.64633,0.80036 -2.20336,-0.17556 -0.33732,-0.57871 -0.60345,-0.94501 -0.87887,-1.79152 -0.25065,-0.75726 0.25376,-1.63149 0.71795,-2.17634 1.2069,-1.39751 2.94298,-4.57426 5.56721,-8.90844 8.43593,-13.91983 6.95361,-26.15276 1.439,-40.36195 -5.53936,-14.261524 -34.724696,-51.283579 -43.825967,-64.289179 -0.646775,-0.923451 -1.404956,-2.296365 -2.432367,-2.47798 -2.076489,-0.363229 -2.692317,1.080467 -3.206024,1.871576 -30.760494,47.63586 -31.772437,48.651676 -35.90994,56.17798 -5.935473,10.780013 -7.03097,24.699843 -3.57428,36.812753 3.462877,12.11288 12.697213,23.85333 23.744996,29.3326 6.062355,3.01054 13.901022,3.82318 20.73084,3.15828 6.266603,-0.6064 10.156536,-3.22293 17.187502,-5.99951 0.86959,-0.34476 3.88684,-0.89883 5.11231,0.54793 1.25642,1.48372 2.12291,2.6596 3.14413,4.84518 1.02123,2.18862 0.6313,4.37724 -1.25641,5.23916 C 104.28163,173.75904 96.538898,176 87.514992,176 h -0.003 c -8.451399,0 -16.537634,-1.88698 -24.029701,-5.60242 -13.600883,-6.75059 -23.84097,-19.14052 -28.083689,-33.98073 -4.239627,-14.84331 -2.082679,-30.73321 5.920003,-43.594133 9.119835,-14.674003 18.805989,-29.317226 28.1703,-43.483296 2.939885,-4.457298 8.940346,-14.978738 14.024804,-21.356885 1.2069,-1.514478 2.515924,-4.204877 4.750235,-3.967859"
       id="path8014" />
    <path
       d="m 54.357284,104.27328 c -2.681105,8.22801 -3.786183,17.08706 -1.335938,25.70292 3.038178,10.69059 10.330426,19.58966 20.002119,24.41318 3.42604,1.7084 6.704315,2.81349 10.786006,3.48145 6.057886,0.99117 7.110628,-1.08659 6.236423,-4.8266 -0.904993,-3.88778 -0.08925,-5.25143 -8.123361,-6.64276 -2.111645,-0.36938 -4.780438,-1.4406 -6.633513,-2.57029 -7.172198,-4.38951 -13.257789,-10.76137 -15.474095,-18.57693 -1.628364,-5.72235 -1.19434,-9.92102 -0.200083,-17.62266 0.190861,-1.52063 0.126236,-2.67497 -1.092756,-3.7985 -0.624874,-0.57562 -1.539096,-1.26515 -1.985436,-1.48676 -0.292423,-0.1477 -1.326705,-0.69877 -2.179364,1.92695"
       id="path8016" />
  </g>
</svg>
