<?xml version="1.0" encoding="UTF-8"?>
<svg width="192" height="192" version="1.1" viewBox="0 0 192 192" xmlns="http://www.w3.org/2000/svg">
 <path d="m62.357 100.27c-2.6811 8.228-3.7862 17.087-1.3359 25.703 3.0382 10.691 10.33 19.59 20.002 24.413 3.426 1.7084 6.7043 2.8135 10.786 3.4814 6.0579 0.99117 7.1106-1.0866 6.2364-4.8266-0.90499-3.8878-0.08925-5.2514-8.1234-6.6428-2.1116-0.36938-4.7804-1.4406-6.6335-2.5703-7.1722-4.3895-13.258-10.761-15.474-18.577-1.6284-5.7224-1.1943-9.921-0.20008-17.623 0.19086-1.5206 0.12624-2.675-1.0928-3.7985-0.62487-0.57562-1.5391-1.2652-1.9854-1.4868-0.29242-0.1477-1.3267-0.69877-2.1794 1.927m33.907-80.259c2.0796 0.22167 3.5743 3.109 4.4686 4.4358 4.5646 6.7106 10.723 16.546 13.527 20.821 9.3303 14.215 18.976 28.92 28.251 43.508 9.977 15.973 10.936 36.308 2.5221 53.094-2.6397 5.2638-5.2454 8.2035-9.1663 12.458-0.86649 0.93579-1.6463 0.80036-2.2034-0.17556-0.33732-0.57871-0.60345-0.94501-0.87887-1.7915-0.25065-0.75726 0.25376-1.6315 0.71795-2.1763 1.2069-1.3975 2.943-4.5743 5.5672-8.9084 8.4359-13.92 6.9536-26.153 1.439-40.362-5.5394-14.262-34.725-51.284-43.826-64.289-0.64678-0.92345-1.405-2.2964-2.4324-2.478-2.0765-0.36323-2.6923 1.0805-3.206 1.8716-30.76 47.636-31.772 48.652-35.91 56.178-5.9355 10.78-7.031 24.7-3.5743 36.813 3.4629 12.113 12.697 23.853 23.745 29.333 6.0624 3.0105 13.901 3.8232 20.731 3.1583 6.2666-0.6064 10.157-3.2229 17.188-5.9995 0.86959-0.34476 3.8868-0.89883 5.1123 0.54793 1.2564 1.4837 2.1229 2.6596 3.1441 4.8452 1.0212 2.1886 0.6313 4.3772-1.2564 5.2392-7.9408 3.6232-15.684 5.8642-24.707 5.8642h-3e-3c-8.4514 0-16.538-1.887-24.03-5.6024-13.601-6.7506-23.841-19.141-28.084-33.981-4.2396-14.843-2.0827-30.733 5.92-43.594 9.1198-14.674 18.806-29.317 28.17-43.483 2.9399-4.4573 8.9403-14.979 14.025-21.357 1.2069-1.5145 2.5159-4.2049 4.7502-3.9679"/>
</svg>
