<?xml version="1.0" encoding="UTF-8"?>
<svg width="192" height="192" version="1.1" viewBox="0 0 192 192" xmlns="http://www.w3.org/2000/svg">
 <path d="m31.284 116.76s114.08-7.2583 128.51-7.9342c12.521-0.58633 12.74 5.3983 11.94 10.176-1.4586 8.7083-2.8334 17.682-3.284 19.476-0.44769 1.7908-0.82028 9.8809-9.0578 9.8809-7.6396 0-121.11 6e-3 -129.08-0.0174-7.9718-0.026-10.834-3.3158-10.23-9.1069 0.60366-5.7911 1.8427-13.399 2.3309-16.305 0.92426-5.5022 4.7599-6.0626 8.8758-6.1694m0-65.152s114.08-7.2583 128.51-7.9342c12.521-0.58631 12.74 5.3983 11.94 10.176-1.4586 8.7083-2.8334 17.682-3.284 19.476-0.44769 1.7908-0.82028 9.8809-9.0578 9.8809-7.6396 0-121.11 0.0063-129.08-0.01676-7.9718-0.02597-10.834-3.3158-10.23-9.1069 0.60366-5.7911 1.8427-13.399 2.3309-16.305 0.92426-5.5022 4.7599-6.0626 8.8758-6.1694"/>
</svg>
