<?xml version="1.0" encoding="UTF-8" standalone="no"?>
<svg
   xmlns:dc="http://purl.org/dc/elements/1.1/"
   xmlns:cc="http://creativecommons.org/ns#"
   xmlns:rdf="http://www.w3.org/1999/02/22-rdf-syntax-ns#"
   xmlns:svg="http://www.w3.org/2000/svg"
   xmlns="http://www.w3.org/2000/svg"
   viewBox="0 0 176 176"
   id="svg2"
   version="1.1">
  <metadata
     id="metadata16699">
    <rdf:RDF>
      <cc:Work
         rdf:about="">
        <dc:format>image/svg+xml</dc:format>
        <dc:type
           rdf:resource="http://purl.org/dc/dcmitype/StillImage" />
        <dc:title></dc:title>
      </cc:Work>
    </rdf:RDF>
  </metadata>
  <defs
     id="defs16697" />
  <g
     transform="matrix(1.9458134,0,0,1.9458134,-30.590994,14.138374)"
     id="g17277">
    <g
       transform="matrix(1.25,0,0,-1.25,32.939286,28.979357)"
       id="g5148"
       style="fill:#000000">
      <path
         id="path5150"
         style="fill:#000000;fill-opacity:1;fill-rule:nonzero;stroke:none"
         d="m 0,0 c 0,0 39.496,2.513 44.492,2.747 4.335,0.203 4.411,-1.869 4.134,-3.523 -0.505,-3.015 -0.981,-6.122 -1.137,-6.743 -0.155,-0.62 -0.284,-3.421 -3.136,-3.421 -2.645,0 -41.931,-0.002 -44.691,0.006 -2.76,0.009 -3.751,1.148 -3.542,3.153 0.209,2.005 0.638,4.639 0.807,5.645 C -2.753,-0.231 -1.425,-0.037 0,0" />
    </g>
    <g
       transform="matrix(1.25,0,0,-1.25,32.939286,57.175107)"
       id="g5152"
       style="fill:#000000">
      <path
         id="path5154"
         style="fill:#000000;fill-opacity:1;fill-rule:nonzero;stroke:none"
         d="m 0,0 c 0,0 39.496,2.513 44.492,2.747 4.335,0.203 4.411,-1.869 4.134,-3.523 -0.505,-3.015 -0.981,-6.122 -1.137,-6.743 -0.155,-0.62 -0.284,-3.421 -3.136,-3.421 -2.645,0 -41.931,-0.002 -44.691,0.006 -2.76,0.009 -3.751,1.148 -3.542,3.153 0.209,2.005 0.638,4.639 0.807,5.645 C -2.753,-0.231 -1.425,-0.037 0,0" />
    </g>
  </g>
</svg>
