<?xml version="1.0" encoding="UTF-8" standalone="no"?>
<svg xmlns:dc="http://purl.org/dc/elements/1.1/" xmlns:cc="http://creativecommons.org/ns#" xmlns:rdf="http://www.w3.org/1999/02/22-rdf-syntax-ns#" xmlns:svg="http://www.w3.org/2000/svg" xmlns="http://www.w3.org/2000/svg" version="1.1" viewBox="0 0 176 176">
  
  
  <g transform="matrix(1.9122428,0,0,-1.9122428,131.54848,41.31694)">
    <path d="m 0,0 c 0,0 -5.29,0.656 -9.071,0.675 -3.943,0.019 -15.11,-1.789 -18.586,-12.086 0,0 14.59,0.217 19.14,0.159 3.674,-0.047 4.085,-2.67 3.788,-3.857 -0.296,-1.188 -1.098,-3.976 -1.098,-3.976 0,0 -0.329,-2.232 -3.731,-2.18 -3.401,0.053 -20.836,0.32 -20.836,0.32 0,0 -1.218,-3.911 -1.237,-6.864 0,0 13.412,-0.008 18.566,0 5.153,0.009 5.251,-2.25 4.854,-3.85 -0.396,-1.601 -1.172,-4.119 -1.172,-4.119 0,0 -0.007,-1.986 -3.846,-1.986 -3.838,0 -18.145,0.358 -18.145,0.358 0,0 0.758,-7.38 6.577,-12.762 6.105,-5.645 13.262,-8.534 26.971,-3.669 2.157,0.766 3.579,1.115 4.09,-0.911 0.51,-2.026 1.534,-3.798 -0.401,-5.146 -1.934,-1.347 -10.759,-5.24 -22.327,-4.034 -11.567,1.206 -22.97,8.004 -27.374,26.68 0,0 -5.512,-0.148 -8.146,-0.12 -2.635,0.028 -2.932,2.005 -2.051,4.128 0.881,2.123 1.117,3.561 4.296,4.007 3.178,0.445 4.652,0.52 4.652,0.52 0,0 -0.244,5.273 0.101,7.834 0,0 -2.816,-0.097 -5.126,0.002 -2.577,0.11 -2.917,1.527 -2.288,3.689 0.539,1.852 1.258,4.272 4.144,4.644 2.886,0.372 4.756,0.392 4.756,0.392 0,0 3.554,18.495 21.463,24.964 12.88,4.652 24.093,1.595 27.544,0.766 C 8.353,12.895 9.53,11.172 8.645,9.27 7.759,7.367 6.183,4.004 4.845,1.755 4.035,0.394 3.093,-0.702 0,0"/>
  </g>
</svg>
