<?xml version="1.0" encoding="UTF-8"?>
<svg width="192" height="192" version="1.1" viewBox="0 0 192 192" xmlns="http://www.w3.org/2000/svg">
 <path d="m139.55 49.317s-10.116-1.2544-17.346-1.2908c-7.54-0.0363-28.894 3.421-35.541 23.111 0 0 27.9-0.41496 36.6-0.30405 7.0256 0.0899 7.8115 5.1057 7.2436 7.3755-0.56602 2.2718-2.0996 7.6031-2.0996 7.6031s-0.62913 4.2681-7.1346 4.1687c-6.5035-0.10135-39.843-0.61192-39.843-0.61192s-2.3291 7.4788-2.3654 13.126c0 0 25.647 0.0153 35.503 0 9.8538-0.0172 10.041 4.3025 9.282 7.3621-0.75725 3.0615-2.2412 7.8765-2.2412 7.8765s-0.0134 3.7977-7.3545 3.7977c-7.3392 0-34.698-0.68458-34.698-0.68458s1.4495 14.112 12.577 24.404c11.674 10.795 25.36 16.319 51.575 7.016 4.1247-1.4648 6.8439-2.1322 7.8211 1.742 0.97525 3.8742 2.9334 7.2627-0.7668 9.8404-3.6983 2.5758-20.574 10.02-42.695 7.714-22.119-2.3062-43.924-15.306-52.346-51.019 0 0-10.54 0.28302-15.577 0.22947-5.0388-0.0535-5.6067-3.834-3.922-7.8937s2.136-6.8095 8.215-7.6624c6.0771-0.85095 8.8958-0.99436 8.8958-0.99436s-0.46659-10.083 0.19314-14.981c0 0-5.3849 0.18549-9.8022-0.0038-4.9278-0.21034-5.578-2.92-4.3752-7.0543 1.0307-3.5415 2.4056-8.1691 7.9243-8.8805 5.5187-0.71136 9.0946-0.7496 9.0946-0.7496s6.7961-35.367 41.042-47.737c24.63-8.8958 46.072-3.05 52.671-1.4648 5.4422 1.3061 7.693 4.6008 6.0006 8.238-1.6942 3.639-4.708 10.07-7.2665 14.37-1.5489 2.6026-3.3502 4.6984-9.2648 3.356"/>
</svg>
