<?xml version="1.0" encoding="UTF-8" standalone="no"?>
<svg xmlns:rdf="http://www.w3.org/1999/02/22-rdf-syntax-ns#" xmlns="http://www.w3.org/2000/svg" height="100%" width="100%" version="1.1" xmlns:cc="http://creativecommons.org/ns#" xmlns:dc="http://purl.org/dc/elements/1.1/" viewBox="0 0 176 176">
 <g transform="matrix(.47113 0 0 .47113 28.733 42.99)">
  <path d="m182.3-22.667c-10.422 0.2025-16.676 0.0875-25.516-0.13-1.5538-0.0387-3.505-1.4362-4.5262-2.7675-10.55-13.758-9.6612-34.234 10.72-34.234 16.269 1.98 17.154 20.421 24.278 33.708 0.61875 1.155-0.2175 3.3338-4.955 3.4238m12.005 1.6225c-9.4538-17.632-10.628-42.109-32.219-44.734-27.049 0-28.228 27.174-14.229 45.43 1.3562 1.77 3.9475 3.6238 6.0088 3.675 11.732 0.29 20.032 0.44125 33.865 0.17375 6.2862-0.12125 7.3962-3.0138 6.5738-4.545"/>
  <path d="m83.003 66.884c-7.9325 5.5875-16.466 2.3662-22.944-9.0575-8.1212-14.315-16.089-28.741-23.961-43.229-7.8238-14.222 0.62-25.09 5.4512-28.122 7.3512-4.6162 14.316-0.28625 18.795 7.4525 8.74 15.1 17.188 30.425 25.519 45.815 6.3538 11.738 5.1638 21.488-2.86 27.141m10.955-22.274c-9.9362-19.362-20.036-38.654-30.565-57.7-5.395-9.7625-14.584-15.626-25.234-10.711-6.9988 3.2275-19.805 15.605-10.452 33.508 9.3925 18.229 18.922 36.39 28.676 54.434 7.7812 14.396 19.255 19.064 30.808 13.026 11.688-6.1112 14.344-17.791 6.7675-32.556"/>
  <path d="m117.13-17.897c-8.0512 1.9112-13.415 4.255-16.678 12.099-0.815 1.96-3.3675 6.39-5.8075 2.7562-5.1462-10.374-8.61-18.316-12.812-27.735-3.6875-8.265-0.31875-14.852 7.0425-19.299 6.9362-4.19 15.459-2.5538 20.119 4.6588 4.5012 6.9662 8.1162 14.492 12.196 22.368 0.66375 1.28 0.59375 4.0475-4.06 5.1525m10.609-4.0788c-5.3962-10.418-10.18-20.375-16.135-29.591-6.1662-9.5412-17.438-11.704-26.615-6.1612-9.7388 5.8812-14.195 14.598-9.3162 25.53 5.5588 12.461 11.795 24.622 18.604 38.345 3.2275 4.8062 6.6038-1.0525 7.6825-3.6475 4.315-10.375 9.7575-15.129 20.41-17.659 6.1562-1.4612 6.2488-5.1212 5.37-6.8162"/>
  <path d="m33.366 106.54c-8.0925 4.2788-17.096 2.0575-22.272-6.7437-6.86-11.659-11.974-24.315-19.061-35.851-5.6888-9.2638 4.4438-20.151 9.8988-22.954 8.0012-4.1112 15.138 0.25625 19.312 7.4462 6.7925 11.7 13.179 23.675 18.988 35.886 4.2625 8.9588 0.94125 18.09-6.865 22.216m13.308-19.454c-7.37-15.488-15.469-30.676-24.085-45.516-5.2938-9.1188-14.345-14.658-24.495-9.4438-6.9175 3.555-19.77 17.362-12.554 29.114 8.9888 14.632 15.475 30.685 24.175 45.472 6.5662 11.161 17.988 13.978 28.25 8.5512 9.9012-5.2325 14.115-16.815 8.7088-28.177"/>
  <path d="m227.88 179.03c7.69-11.618-1.1488-9.0912-4.0175-8.6838-0.345 0.0488-3.9125 4.2312-5.3388 5.6138-7.985 7.7312-11.726 14.669-11.989 25.812-0.26 11.169-0.4825 17.998-0.71 29.165-0.025 1.2425 1.4188 14.122-12.58 14.122h-111.39c-9.0938 0-10.759-8.7925-10.791-10.508-0.2475-12.58-5.3975-22.949-13.062-34.266-10.205-15.071-14.531-18.182-21.631-36.18-2.38-4.4925-1.0775-12.436 0.30375-16.854 1.38-4.4125 4.6938-3.1862 6.0562-3.2312 25.005-0.7925 28.659-3.7175 34.949-24.18 0.495-1.6088 2.2675-6.0812 6.91-5.6475 24.099-2.5512 32.261-8.7688 38.504-30.181 0.5-1.7075 5.7712-14.749 7.9362-14.752 12.37-0.02 24.999-0.825 37.566 0.05 39.111 2.7188 41.105-27.062 31.028-28.92-0.51875-0.09625-4.4238 0-4.6912-0.005-12.046-0.18625-31.1 0.0575-43.144-0.2425-13.514-0.34125-22.799-6.0112-22.698-17.441 0.10125-11.621 9.1625-19.734 22.854-19.942 14.542-0.21625 35.106-0.065 49.651-0.0175 22.172 0.06625 32.311 19.969 38.639 41.224 6.0238 20.226 11.208 40.699 17.101 60.965 3.5362 12.161-3.1125 29.096-12.341 41.959-1.155 2.7975 3.3138 11.151 8.4688 6.0088 14.749-13.51 17.672-29.888 12.1-49.051-7.0225-24.151-13.201-48.546-20.379-72.651-7.5412-25.328-19.622-33.915-46.046-33.996-17.331-0.0575-34.67-0.235-52 0.0225-16.316 0.24875-27.115 9.9138-27.236 23.765-0.12 13.62 10.944 23.562 27.05 23.968 14.352 0.3575 25.264 0.41125 39.62 0.63375 0.31625 0.0062 4.0038-0.17 5.7275 3.2762 1.7238 8.6175-9.5225 9.7512-18.498 9.66-15.01-0.15-30.025-0.08375-44.768-0.05875-2.5775 0.0037-8.8612 4.4312-9.455 6.4662-7.4412 25.516-17.168 32.926-45.884 35.965-5.5338-0.51625-7.6475 4.8138-8.2362 6.73-7.495 24.385-11.85 27.871-41.648 28.815-1.6225 0.0538-5.5738-1.4075-7.215 3.85-1.6475 5.265-3.2012 14.731-0.3625 20.084 8.46 21.448 13.614 25.156 25.776 43.116 9.135 13.485 15.271 25.841 15.566 40.834 0.03875 2.0438 2.0225 12.522 12.859 12.522h132.76c16.682 0 14.962-15.35 14.991-16.829 0.27125-13.31 0.53625-21.448 0.84625-34.756 0.235-9.955 3.3225-18.631 8.8638-26.232"/>
 </g>
</svg>
