<?xml version="1.0" encoding="UTF-8"?>
<svg version="1.1" viewBox="0 0 192 192" xmlns="http://www.w3.org/2000/svg">
 <path d="m151.69 141.55c4.1951-6.3379-0.62669-4.9594-2.1916-4.7372-0.1882 0.0266-2.1344 2.3082-2.9124 3.0624-4.356 4.2175-6.3968 8.0022-6.5402 14.081-0.14184 6.0929-0.26322 9.8183-0.38732 15.91-0.0136 0.67781 0.77398 7.7038-6.8627 7.7038h-60.766c-4.9609 0-5.8693-4.7965-5.8867-5.7323-0.13502-6.8627-2.9445-12.519-7.1256-18.693-5.567-8.2216-7.927-9.9187-11.8-19.737-1.2983-2.4508-0.5878-6.7841 0.1657-9.1942 0.75282-2.4071 2.5606-1.7381 3.3038-1.7627 13.641-0.43232 15.634-2.028 19.065-13.191 0.27003-0.87764 1.237-3.3174 3.7696-3.0808 13.147-1.3917 17.599-4.7836 21.005-16.464 0.27276-0.93148 3.1483-8.0459 4.3294-8.0475 6.7481-0.0109 13.637-0.45006 20.493 0.0273 21.336 1.4832 22.424-14.763 16.926-15.776-0.28299-0.0525-2.4133 0-2.5592-3e-3 -6.5714-0.1016-16.966 0.0314-23.536-0.13229-7.3722-0.18616-12.437-3.2792-12.382-9.5144 0.05523-6.3395 4.9983-10.765 12.467-10.879 7.933-0.11797 19.151-0.0355 27.086-0.01 12.095 0.0362 17.626 10.894 21.078 22.489 3.2861 11.034 6.1142 22.202 9.329 33.258 1.9291 6.6341-1.6979 15.872-6.7323 22.89-0.63008 1.5261 1.8078 6.0831 4.6199 3.2779 8.0459-7.37 9.6404-16.305 6.6008-26.758-3.8309-13.175-7.2014-26.483-11.117-39.633-4.1139-13.817-10.704-18.501-25.119-18.546-9.4544-0.0314-18.913-0.1282-28.367 0.0123-8.9007 0.13569-14.792 5.4082-14.858 12.964-0.06546 7.43 5.9702 12.854 14.756 13.075 7.8293 0.19503 13.782 0.22435 21.614 0.34573 0.17253 3e-3 2.1842-0.0927 3.1245 1.7872 0.94037 4.701-5.1947 5.3195-10.091 5.2697-8.1883-0.0818-16.379-0.0457-24.422-0.032-1.4061 2e-3 -4.834 2.4173-5.1579 3.5274-4.0593 13.92-9.3655 17.962-25.031 19.62-3.0188-0.28162-4.1719 2.626-4.493 3.6714-4.0887 13.303-6.4644 15.204-22.72 15.719-0.88511 0.0293-3.0406-0.76783-3.9359 2.1002-0.89875 2.8722-1.7463 8.0361-0.19775 10.956 4.6151 11.7 7.4267 13.723 14.061 23.521 4.9833 7.3564 8.3307 14.097 8.4916 22.276 0.02114 1.1149 1.1033 6.831 7.0149 6.831h72.423c9.1004 0 8.1621-8.3738 8.1779-9.1806 0.14797-7.2609 0.29254-11.7 0.46165-18.96 0.1282-5.4307 1.8125-10.164 4.8354-14.31m-106.12-39.545c-4.4146 2.3342-9.3262 1.1224-12.15-3.6788-3.7423-6.3602-6.5321-13.264-10.398-19.557-3.1034-5.0536 2.4242-10.993 5.4-12.522 4.3648-2.2427 8.2581 0.13979 10.535 4.0621 3.7055 6.3826 7.1894 12.915 10.358 19.577 2.3253 4.8872 0.51347 9.8685-3.745 12.119m7.2598-10.613c-4.0205-8.449-8.4387-16.734-13.139-24.83-2.8879-4.9745-7.8255-7.9962-13.363-5.1518-3.7736 1.9393-10.785 9.4713-6.8485 15.882 4.9036 7.9821 8.4419 16.739 13.188 24.806 3.582 6.0886 9.8128 7.6253 15.411 4.6649 5.4013-2.8544 7.7-9.1729 4.7508-15.371m38.435-57.27c-4.3921 1.0426-7.3182 2.3212-9.0982 6.6003-0.4446 1.0692-1.837 3.4859-3.1681 1.5036-2.8074-5.6592-4.6969-9.9918-6.9892-15.13-2.0116-4.5087-0.17388-8.1021 3.8418-10.528 3.7838-2.2857 8.4332-1.3932 10.975 2.5415 2.4555 3.8002 4.4276 7.9057 6.6532 12.202 0.36209 0.69826 0.3239 2.208-2.2148 2.8108m5.7874-2.2251c-2.9437-5.6832-5.5534-11.115-8.802-16.143-3.3638-5.2049-9.5128-6.3848-14.519-3.3611-5.3127 3.2083-7.7437 7.9635-5.0822 13.927 3.0324 6.7977 6.4344 13.432 10.149 20.918 1.7607 2.6219 3.6025-0.57416 4.191-1.9898 2.3539-5.6598 5.3229-8.2532 11.134-9.6334 3.3583-0.79712 3.4089-2.7937 2.9294-3.7184m-24.405 48.475c-4.3273 3.0481-8.9826 1.2908-12.516-4.9411-4.4303-7.8091-8.7769-15.679-13.071-23.582-4.268-7.7584 0.33822-13.687 2.9737-15.341 4.0102-2.5182 7.8097-0.15615 10.253 4.0655 4.7679 8.2374 9.3764 16.597 13.921 24.993 3.4661 6.4033 2.817 11.722-1.5602 14.806m5.9762-12.151c-5.4204-10.562-10.93-21.087-16.674-31.477-2.9431-5.3256-7.9559-8.5243-13.766-5.8431-3.818 1.7607-10.804 8.5128-5.7018 18.279 5.1238 9.9443 10.322 19.852 15.643 29.695 4.2448 7.8533 10.504 10.4 16.806 7.106 6.3761-3.3338 7.825-9.7054 3.6918-17.76m48.192-36.702c-5.6854 0.11046-9.0971 0.0477-13.92-0.0709-0.84763-0.0211-1.912-0.78348-2.4691-1.5097-5.7552-7.5053-5.2704-18.675 5.848-18.675 8.8751 1.0801 9.3579 11.14 13.244 18.388 0.33754 0.63008-0.11865 1.8187-2.7031 1.8678m6.549 0.88511c-5.1572-9.6187-5.7978-22.971-17.576-24.403-14.756 0-15.399 14.824-7.7622 24.783 0.73984 0.96557 2.1534 1.9769 3.2779 2.0048 6.4 0.1582 10.928 0.24071 18.474 0.0948 3.4292-0.0662 4.0348-1.6441 3.5861-2.4794"/>
</svg>
