<?xml version="1.0" encoding="UTF-8"?>
<svg width="192" height="194" version="1.1" viewBox="0 0 192 194" xmlns="http://www.w3.org/2000/svg">
 <path d="m138.18 89.083c-0.0554 0.63177-0.0476 1.4426-0.16803 2.1426-0.11925 0.69238-0.24933 1.447-0.39025 2.2633-0.15285 0.82028-0.24066 1.6853-0.46072 2.639-0.25907 0.9612-0.53441 1.983-0.82602 3.0628-1.2228 4.2768-3.1209 9.4429-6.5963 14.639-3.3735 5.2216-8.1421 10.599-14.51 14.959-6.3708 4.3166-14.295 7.5408-23.093 8.7061-1.0927 0.19177-2.2179 0.16683-3.3366 0.26678l-1.6911 0.11046-0.84858 0.0572c-0.13887-2e-3 -0.05199 3e-3 0.03265 6e-3l-0.02756-8.5e-4 -0.23166-7e-3 -0.46278-0.0186c-2.4348-0.12023-5.1204-0.091-7.1889-0.51579-1.1094-0.18548-2.2095-0.25063-3.3528-0.51828-1.1476-0.27989-2.2993-0.56153-3.4584-0.84347-1.1771-0.22321-2.2814-0.70549-3.4236-1.0862-1.1212-0.43903-2.3175-0.7122-3.3939-1.2869-4.5055-1.8686-8.7053-4.5774-12.658-7.6766-3.883-3.2089-7.3023-7.0344-10.273-11.235-2.8846-4.271-5.1035-9.0031-6.7591-13.951-1.5181-5.0052-2.2116-10.235-2.3662-15.488l0.19176-4.0168c0.01065-1.4621 0.23718-2.6847 0.43198-3.9292 0.23794-1.2575 0.26548-2.4943 0.65638-3.7713l0.95991-3.8082c1.5244-4.7741 3.5739-9.3703 6.2607-13.557 7.1893 3.5263 40.519 18.253 69.399 3.9654 4.644 4.876 14.753 14.271 27.513 19.021 0.0184 0.12466 0.039 0.27567 0.0564 0.39762 0.10085 0.73259 0.0683 1.411 0.10733 2.0114 0.0803 2.0567 0.12792 3.2847 0.13875 3.5993-0.025 0.42006-0.10293 1.7286-0.23089 3.864zm26.985-54.293c-2.0943-5.1632-6.3502-8.7882-12.648-10.777-6.812-2.154-12.835-1.6867-17.901 1.393-4.8217 2.9269-7.9492 7.6933-9.9373 11.992-1.3876-1.097-2.8293-2.1626-4.3654-3.1675-3.8461-2.3708-7.9893-4.6602-12.601-6.2418-1.148-0.39784-2.2992-0.82603-3.4732-1.2065-1.1989-0.29594-2.4087-0.59513-3.6272-0.89649-2.3751-0.70245-5.0852-0.90083-7.6912-1.3052-1.3236-0.1832-2.451-0.13442-3.6987-0.21355l-1.8363-0.07372-0.92283-0.03684c0.13691 0.0044-0.31459-0.0065-0.31459-0.0065l-0.12282 0.0065-0.24771 0.01518-0.49333 0.02818c-2.6339 0.1832-5.3122 0.20271-7.968 0.7469-3.6408 0.47697-7.2388 1.4732-10.787 2.7285-1.1983-4.9367-3.8978-12.263-9.8078-16.167-4.4716-2.9529-9.9913-3.4006-16.409-1.329-6.0003 1.9393-10.192 5.4906-12.457 10.562-5.2347 11.717 1.5702 27.311 1.8632 27.969 0.13464 0.30245 0.42559 0.50407 0.75503 0.52684 0.01984 0.0021 0.04023 0.0021 0.05928 0.0021 0.30786 0 0.59708-0.16044 0.76001-0.42494 0.09952-0.16369 10.102-16.243 18.86-15.691 1.0861 0.0748 2.1117 0.44228 3.0857 1.0504-2.094 1.3767-4.1337 2.8607-6.1007 4.4543-4.3932 3.7301-8.2458 8.1497-11.555 12.992-3.2339 4.9052-5.7535 10.306-7.5819 15.964l-1.1285 4.3188c-0.43274 1.4092-0.53778 3.0006-0.81172 4.4965-0.24054 1.5241-0.49128 3.0684-0.50732 4.4193l-0.23285 4.389c0.10916 5.9655 0.86592 11.934 2.5546 17.661 1.7624 5.6898 4.2035 11.158 7.4167 16.12 3.2965 4.89 7.1478 9.3637 11.55 13.15 1.0925 0.95199 2.2816 1.7802 3.4172 2.6691l1.7256 1.2974 1.8264 1.1382c1.2289 0.73519 2.4031 1.5613 3.6691 2.2104 1.2768 0.63307 2.5479 1.2631 3.814 1.8906 0.07838 0.0335 0.15794 0.0619 0.23632 0.0966-0.50819 0.43566-1.0311 0.86722-1.5236 1.305-3.4202 3.0298-6.2849 6.2687-8.903 9.39-2.5457 3.1695-4.8167 6.2387-6.7527 9.1587-1.9724 2.8977-3.5971 5.6578-5.0179 8.1053-1.4008 2.4598-2.5724 4.6266-3.468 6.452-0.91676 1.8116-1.5901 3.2653-2.0508 4.2616l-0.34093 0.76516c-0.25616 0.57337-0.27946 1.2335-0.01561 1.8052 0.59708 1.2953 2.3658 1.9229 6.0095 2.2167l0.05842-0.0999s0.26678-0.46621 0.76858-1.3398c0.51958-0.87906 1.2873-2.1765 2.3256-3.8004 1.0303-1.626 2.3175-3.582 3.8259-5.7945 1.5202-2.2049 3.3063-4.6405 5.3135-7.2257 1.9932-2.6017 4.2904-5.2846 6.7993-8.007 2.5631-2.6492 5.2656-5.4494 8.3453-7.8634 2.3693-1.9056 4.8993-3.7018 7.5522-5.1673 0.95568 0.1884 1.9077 0.38786 2.8909 0.51785 2.9155 0.56489 5.2613 0.55382 7.7619 0.74483l0.46278 0.0283 0.23165 0.0147 0.11556 6e-3 0.35144 6e-3 0.99524-0.0369 1.9816-0.0749c1.316-0.0801 2.6342-0.0423 3.9231-0.22744 2.5724-0.27859 5.0874-0.71644 7.5329-1.2911 0.22764 0.11814 0.45637 0.22947 0.67643 0.36758l1.1306 0.83458c0.75665 0.54755 1.5079 1.0903 2.2537 1.629 0.11058 0.0793 0.21573 0.16519 0.31437 0.25703 1.2954 1.1882 2.5713 2.3633 3.8277 3.5168 0.6244 0.71003 1.2423 1.4146 1.8548 2.1104 1.2206 1.394 2.4705 2.6995 3.5014 4.2095 1.0678 1.4588 2.1507 2.8324 3.1296 4.2363 0.92467 1.4591 1.819 2.8705 2.6776 4.2242 0.42928 0.67665 0.85095 1.339 1.2629 1.986 0.39567 0.66006 0.7404 1.3431 1.1003 1.988 0.71005 1.2988 1.3832 2.5314 2.0163 3.6883 1.3128 2.2807 2.2634 4.4128 3.0895 6.1353 0.43577 0.94852 1.0136 1.6968 1.6304 2.2798 0.83796 0.79227 2.0239 1.0959 3.1534 0.86384 2.3209-0.47594 6.4782-1.6315 7.6131-3.9601 0.20272-1.2864 0.13117-3.0256-0.78483-4.8511-0.8965-1.8331-1.9231-4.0791-3.3735-6.5655-0.69702-1.2522-1.4385-2.5835-2.2212-3.9885-0.39784-0.69996-0.77725-1.4287-1.2195-2.1536-0.46288-0.71772-0.93551-1.4529-1.419-2.2028-0.96805-1.4994-1.9773-3.0593-3.0212-4.6756-1.1198-1.5825-2.3794-3.1759-3.6239-4.8337-1.1935-1.6811-2.6732-3.2889-4.193-4.9129-0.75665-0.81301-1.522-1.6345-2.2949-2.4636-0.86828-0.76988-1.7442-1.5473-2.6298-2.3298-0.1702-0.14526-0.33606-0.29691-0.50516-0.44555 2.103-1.0548 4.1085-2.2091 6.0012-3.443 7.6435-5.0318 13.441-11.318 17.581-17.485 4.1844-6.1883 6.4521-12.388 7.9015-17.508 0.32088-1.2979 0.62441-2.5259 0.90951-3.6819 0.24824-1.1806 0.36964-2.362 0.53441-3.4207 0.14744-1.0692 0.28293-2.0579 0.4076-2.9641 0.11599-0.89855 0.0867-1.5669 0.13226-2.2444 0.10733-2.6275 0.16477-4.029 0.16477-4.029l7e-3 -0.24987s-0.0921-1.5202-0.26341-4.3687c-0.0619-0.71058-0.0575-1.5094-0.19187-2.3766-0.14092-0.86614-0.29485-1.8103-0.45963-2.8315-0.18319-1.0179-0.31545-2.1236-0.58103-3.2781-0.30678-1.1447-0.63308-2.3621-0.97671-3.6478-1.5025-5.0787-3.8396-11.198-8.0348-17.299-0.0748-0.11057-0.15935-0.22114-0.23522-0.3328 0.17886-0.03469 0.35446-0.08456 0.53659-0.09539 5.7963-0.27968 12.864 10.752 15.103 15.065 0.15503 0.29486 0.46072 0.47914 0.79244 0.47914 0.0142 0 0.0305 0 0.0455-0.0011 0.34798-0.01734 0.65477-0.2374 0.7816-0.56153 0.1019-0.25583 1.1144-2.89 1.9545-6.6386 1.7735 2.2981 2.8738 4.0207 2.9074 4.0749 0.1626 0.26125 0.44877 0.41627 0.75339 0.41627h0.0305c0.31763-0.0097 0.60488-0.18971 0.75558-0.46722 0.36314-0.67318 8.8305-16.643 3.9578-28.653"/>
</svg>
