<?xml version="1.0" encoding="UTF-8" standalone="no"?>
<svg xmlns:dc="http://purl.org/dc/elements/1.1/" xmlns:cc="http://creativecommons.org/ns#" xmlns:rdf="http://www.w3.org/1999/02/22-rdf-syntax-ns#" xmlns:svg="http://www.w3.org/2000/svg" xmlns="http://www.w3.org/2000/svg" version="1.1" viewBox="0 0 176 176">
  
  
  <path d="m 124.43042,81.162744 c -0.0478,0.54562 -0.0411,1.245902 -0.14511,1.85041 -0.10299,0.597954 -0.21533,1.249648 -0.33704,1.954703 -0.132,0.708427 -0.20784,1.45552 -0.39789,2.2791 -0.22374,0.830133 -0.46154,1.712603 -0.71338,2.645163 -1.05605,3.69361 -2.69534,8.15519 -5.69681,12.64242 -2.91348,4.50952 -7.03185,9.15394 -12.53112,12.91927 -5.502088,3.72797 -12.345748,6.51252 -19.943988,7.51894 -0.94369,0.16562 -1.91548,0.14408 -2.88164,0.2304 l -1.46048,0.0954 -0.73286,0.0494 c -0.11993,-0.002 -0.0449,0.003 0.0282,0.005 l -0.0238,-7.4e-4 -0.20007,-0.006 -0.39967,-0.0161 c -2.102806,-0.10383 -4.422162,-0.0786 -6.208629,-0.44545 -0.958112,-0.16019 -1.908174,-0.21645 -2.89559,-0.44761 -0.991068,-0.24172 -1.985786,-0.48495 -2.986777,-0.72845 -1.016627,-0.19277 -1.97034,-0.60928 -2.956725,-0.93808 -0.968317,-0.37916 -2.001515,-0.61508 -2.931072,-1.11138 -3.891153,-1.61382 -7.5182,-3.95322 -10.932074,-6.62982 -3.353488,-2.77136 -6.306561,-6.07514 -8.871953,-9.70293 C 38.720696,99.63794 36.804377,95.55112 35.37451,91.2779 34.063447,86.955252 33.464464,82.438813 33.330961,77.90224 l 0.165611,-3.469034 c 0.0092,-1.262754 0.204841,-2.318608 0.373078,-3.393371 0.205497,-1.085998 0.229277,-2.154209 0.566872,-3.257059 l 0.829011,-3.288891 c 1.316492,-4.123049 3.086576,-8.092561 5.406961,-11.708187 6.208916,3.045476 34.993588,15.76383 59.935226,3.42464 4.0107,4.211053 12.74082,12.325148 23.7609,16.4276 0.0159,0.107663 0.0337,0.238078 0.0487,0.3434 0.0871,0.632688 0.059,1.218565 0.0927,1.73713 0.0693,1.776262 0.11047,2.836796 0.11983,3.108483 -0.0216,0.36278 -0.0889,1.492874 -0.19941,3.337105 z m 23.30497,-46.889016 c -1.80875,-4.459148 -5.48429,-7.589819 -10.92366,-9.307756 -5.88311,-1.86024 -11.08467,-1.456736 -15.45956,1.203024 -4.16423,2.527754 -6.86519,6.644251 -8.58219,10.356307 -1.19834,-0.94744 -2.44351,-1.867731 -3.77011,-2.735593 -3.32166,-2.047483 -6.89983,-4.024748 -10.882458,-5.390672 -0.99144,-0.343587 -1.98569,-0.713389 -2.9996,-1.041997 -1.03544,-0.255584 -2.08024,-0.513977 -3.13254,-0.774242 -2.05122,-0.606663 -4.39174,-0.777987 -6.64238,-1.127192 -1.1431,-0.158219 -2.11676,-0.11609 -3.19433,-0.184432 l -1.58593,-0.06367 -0.79699,-0.03182 c 0.11824,0.0038 -0.27169,-0.0056 -0.27169,-0.0056 l -0.10607,0.0056 -0.21393,0.01311 -0.42606,0.02434 c -2.274702,0.158219 -4.587784,0.175071 -6.881488,0.645046 -3.14434,0.411931 -6.251701,1.272303 -9.315621,2.35643 -1.034881,-4.26348 -3.366314,-10.590359 -8.470413,-13.962571 -3.861849,-2.550224 -8.62882,-2.936877 -14.171065,-1.147788 -5.182084,1.674871 -8.802579,4.741881 -10.758406,9.121451 -4.520844,10.119447 1.356094,23.586764 1.60915,24.15504 0.116277,0.261203 0.367555,0.435336 0.652068,0.454997 0.01713,0.0018 0.03474,0.0018 0.0512,0.0018 0.265881,0 0.515662,-0.13856 0.656374,-0.366993 0.08595,-0.141367 8.724687,-14.028105 16.288574,-13.551577 0.937984,0.0646 1.823728,0.381972 2.664909,0.907184 -1.808469,1.188981 -3.570033,2.470647 -5.268779,3.846869 -3.794161,3.221483 -7.121341,7.038393 -9.979296,11.220424 -2.792889,4.236331 -4.968911,8.900507 -6.548009,13.7875 l -0.974591,3.729843 c -0.373733,1.217067 -0.464451,2.591418 -0.701031,3.883382 -0.207743,1.316303 -0.424288,2.650022 -0.438143,3.816629 l -0.201097,3.790509 c 0.09427,5.152033 0.747841,10.30669 2.206262,15.25285 1.522083,4.91395 3.630325,9.63626 6.405331,13.92165 2.847002,4.22314 6.173059,8.08686 9.975365,11.35693 0.943507,0.82218 1.970432,1.53743 2.951201,2.30513 l 1.490251,1.12045 1.577321,0.98301 c 1.061282,0.63494 2.07538,1.34842 3.168775,1.90902 1.102662,0.54674 2.200456,1.09087 3.293945,1.63283 0.06769,0.0289 0.136405,0.0535 0.204092,0.0834 -0.438892,0.37625 -0.890518,0.74896 -1.315836,1.12708 -2.953823,2.61661 -5.427839,5.4139 -7.688963,8.10952 -2.198585,2.73728 -4.159843,5.38795 -5.831906,7.90981 -1.703425,2.50257 -3.106611,4.88625 -4.333602,7.00001 -1.209765,2.12434 -2.221615,3.99573 -2.995109,5.57219 -0.791749,1.56454 -1.373227,2.82 -1.771113,3.68051 l -0.294437,0.66082 c -0.221226,0.49518 -0.241354,1.0653 -0.01348,1.55902 0.515662,1.11868 2.043175,1.66066 5.190043,1.91446 l 0.05045,-0.0863 c 0,0 0.230401,-0.40264 0.66377,-1.15709 0.448724,-0.75919 1.111744,-1.87971 2.008442,-3.28221 0.889769,-1.4043 2.001514,-3.09352 3.304151,-5.00431 1.312935,-1.90424 2.855427,-4.00772 4.588905,-6.24037 1.721401,-2.2469 3.705315,-4.56401 5.872162,-6.9151 2.213564,-2.2879 4.547526,-4.70631 7.207285,-6.79115 2.046171,-1.64575 4.231182,-3.19704 6.522358,-4.4627 0.825359,0.16271 1.647534,0.33497 2.496674,0.44723 2.517924,0.48786 4.543873,0.4783 6.703417,0.64326 l 0.39967,0.0244 0.20006,0.0127 0.0998,0.005 0.30352,0.005 0.85953,-0.0319 1.71139,-0.0647 c 1.13655,-0.0692 2.27498,-0.0365 3.38812,-0.19643 2.22162,-0.2406 4.39362,-0.61874 6.5057,-1.115 0.1966,0.10203 0.39414,0.19818 0.58419,0.31745 l 0.97646,0.72078 c 0.65347,0.47288 1.30227,0.94164 1.94637,1.40684 0.0955,0.0685 0.18631,0.14267 0.2715,0.22198 1.11877,1.02618 2.22068,2.04102 3.30575,3.03724 0.53926,0.61321 1.072888,1.22174 1.601858,1.82261 1.05415,1.20395 2.1336,2.33142 3.02392,3.63547 0.92216,1.25985 1.85744,2.44621 2.70283,3.65859 0.79858,1.26014 1.57097,2.47907 2.31243,3.64821 0.37074,0.58438 0.73491,1.1564 1.09068,1.71522 0.34171,0.57005 0.63943,1.15996 0.95025,1.7169 0.61322,1.12168 1.1946,2.18623 1.74133,3.18535 1.13375,1.9697 1.9548,3.81101 2.6682,5.29869 0.37635,0.81918 0.87535,1.46539 1.40805,1.96896 0.72369,0.68423 1.74789,0.94646 2.72342,0.74604 2.00442,-0.41104 5.59478,-1.40906 6.57497,-3.42007 0.17508,-1.11102 0.11328,-2.61298 -0.67781,-4.18956 -0.77425,-1.58312 -1.66083,-3.52284 -2.91347,-5.67021 -0.60198,-1.08142 -1.24235,-2.23117 -1.91828,-3.44459 -0.34359,-0.60451 -0.67126,-1.23391 -1.05324,-1.85996 -0.39976,-0.61985 -0.80794,-1.25479 -1.22549,-1.90245 -0.83604,-1.29497 -1.70763,-2.64216 -2.6092,-4.03806 -0.9671,-1.36667 -2.05498,-2.7428 -3.12974,-4.17452 -1.03076,-1.45187 -2.30868,-2.84045 -3.62125,-4.243 -0.65347,-0.70214 -1.31443,-1.4116 -1.98195,-2.12761 -0.74988,-0.66489 -1.50634,-1.33634 -2.27122,-2.01209 -0.14699,-0.12545 -0.29023,-0.25642 -0.43627,-0.38479 1.81623,-0.91093 3.54822,-1.90788 5.18283,-2.97347 6.60119,-4.34567 11.60802,-9.77503 15.18338,-15.10072 3.61375,-5.34443 5.57229,-10.6984 6.82401,-15.12047 0.27712,-1.12092 0.53926,-2.18145 0.78548,-3.17982 0.21439,-1.01963 0.31924,-2.039903 0.46154,-2.954198 0.12733,-0.92338 0.24435,-1.777293 0.35202,-2.559868 0.10017,-0.77602 0.0749,-1.353191 0.11422,-1.93832 0.0927,-2.269175 0.1423,-3.479596 0.1423,-3.479596 l 0.006,-0.215795 c 0,0 -0.0795,-1.312934 -0.22749,-3.773002 -0.0535,-0.613682 -0.0497,-1.303572 -0.16571,-2.052537 -0.1217,-0.748028 -0.25464,-1.563463 -0.39695,-2.44537 -0.15821,-0.879096 -0.27244,-1.834026 -0.5018,-2.831085 -0.26495,-0.988633 -0.54675,-2.039992 -0.84352,-3.150331 -1.29758,-4.386125 -3.31605,-9.671005 -6.93916,-14.93997 -0.0646,-0.09549 -0.13762,-0.190986 -0.20315,-0.287414 0.15447,-0.02996 0.30613,-0.07303 0.46342,-0.08238 5.00588,-0.241541 11.10994,9.286222 13.0432,13.010448 0.13389,0.254649 0.3979,0.413804 0.68438,0.413804 0.0123,0 0.0263,0 0.0393,-9.5e-4 0.30053,-0.01498 0.56548,-0.205029 0.67502,-0.484955 0.088,-0.220945 0.96241,-2.495925 1.68797,-5.733323 1.53163,1.984756 2.48189,3.472387 2.51091,3.519197 0.14043,0.225625 0.38758,0.359503 0.65066,0.359503 0.009,0 0.0179,0 0.0263,0 0.27431,-0.0084 0.52239,-0.163837 0.65254,-0.403505 0.31362,-0.581384 7.62633,-14.373565 3.41808,-24.745787"/>
</svg>
