<?xml version="1.0" encoding="UTF-8"?>
<svg width="192" height="192" version="1.1" viewBox="0 0 192 192" xmlns="http://www.w3.org/2000/svg">
 <path d="m106.74 42.602c8.3885-8.2978 20.246-10.741 25.314-10.848 21.242-0.46221 42.878 17.424 37.354 37.962-2.7788 10.334-6.8148 17.853-13.778 24.802l-63.298 60.236-62.024-56.31c-6.9689-6.9496-13.701-16.802-14.906-30.698-1.8323-21.193 21.102-41.211 41.596-35.607 15.451 4.2287 18.106 10.02 24.318 23.383l2.8778 7.632c0.65755 2.1762 1.714 2.7265 2.8228 2.3358 3.0456-1.0812 8.3198-5.3539 7.8576-7.7145 0 0-0.12656-3.6399-2.8145-8.2813-9.6706-16.706-22.266-25.782-40.061-25.782-24.296 0-44.003 19.685-44.003 44.006 0 12.139 4.9275 23.127 12.892 31.078l75.109 69.491 75.104-69.491c7.9594-7.9511 12.895-18.94 12.895-31.078 0-24.321-18.761-42.826-43.054-42.826-16.648 0-27.026 3.4336-37.439 12.983-1.9919 1.8241-2.8228 2.2423-4.7322 5.0623-1.5269 2.2588-1.3921 3.2905-0.92442 3.9948 1.4086 2.1542 1.5847 4.1929 3.5931 1.6618 1.648-2.0882 2.6852-3.4033 5.3017-5.9922"/>
</svg>
