<?xml version="1.0" encoding="UTF-8" standalone="no"?>
<svg xmlns:dc="http://purl.org/dc/elements/1.1/" xmlns:cc="http://creativecommons.org/ns#" xmlns:rdf="http://www.w3.org/1999/02/22-rdf-syntax-ns#" xmlns:svg="http://www.w3.org/2000/svg" xmlns="http://www.w3.org/2000/svg" version="1.1" viewBox="0 0 176 176">
  
  
  <path d="M 99.424084,40.724346 C 106.8509,33.377909 117.3493,31.214899 121.83608,31.1199 c 18.807,-0.409215 37.96228,15.426062 33.07115,33.60947 -2.46018,9.148948 -6.03353,15.806045 -12.1986,21.95894 L 86.667684,140.01819 31.754514,90.16422 C 25.584578,84.01134 19.624123,75.28866 18.557232,62.985323 16.934975,44.222188 37.239985,26.499147 55.384422,31.460917 c 13.679574,3.743858 16.030143,8.871264 21.530232,20.702049 l 2.54787,6.75697 c 0.58216,1.926735 1.51751,2.413899 2.49915,2.068013 2.69645,-0.957277 7.36592,-4.740109 6.95671,-6.830045 0,0 -0.11205,-3.222591 -2.49185,-7.331824 C 77.864624,32.035771 66.71343,23.999995 50.958536,23.999995 29.447792,23.999995 12,41.4283 12,62.960964 12,73.70781 16.362557,83.43649 23.414261,90.47601 L 89.912194,152 156.40527,90.47601 c 7.04683,-7.03952 11.41669,-16.7682 11.41669,-27.515046 0,-21.532664 -16.60987,-37.916001 -38.11818,-37.916001 -14.73915,0 -23.92708,3.039905 -33.146656,11.494642 -1.76354,1.614949 -2.49916,1.985196 -4.18962,4.481913 -1.35188,1.999809 -1.23253,2.913242 -0.81844,3.536814 1.24714,1.907247 1.40304,3.712191 3.18119,1.471236 1.45905,-1.848789 2.37736,-3.013112 4.69383,-5.305222"/>
</svg>
