<?xml version="1.0" encoding="UTF-8" standalone="no"?>
<svg
   xmlns:dc="http://purl.org/dc/elements/1.1/"
   xmlns:cc="http://creativecommons.org/ns#"
   xmlns:rdf="http://www.w3.org/1999/02/22-rdf-syntax-ns#"
   xmlns:svg="http://www.w3.org/2000/svg"
   xmlns="http://www.w3.org/2000/svg"
   version="1.1"
   id="svg17493"
   viewBox="0 0 176 176">
  <metadata
     id="metadata17501">
    <rdf:RDF>
      <cc:Work
         rdf:about="">
        <dc:format>image/svg+xml</dc:format>
        <dc:type
           rdf:resource="http://purl.org/dc/dcmitype/StillImage" />
        <dc:title></dc:title>
      </cc:Work>
    </rdf:RDF>
  </metadata>
  <defs
     id="defs17499" />
  <path
     id="path17495"
     d="m 97.513104,52.724351 c 7.426816,-7.346437 17.925216,-9.509447 22.411996,-9.604446 18.807,-0.409215 37.96228,15.426062 33.07115,33.60947 -2.46018,9.148948 -6.03353,15.806045 -12.1986,21.958935 L 84.756702,152.01819 29.843534,102.16422 C 23.673598,96.01134 17.713143,87.288665 16.646252,74.985328 15.023995,56.222193 35.329005,38.499152 53.473442,43.460922 67.153016,47.20478 69.503585,52.332186 75.003671,64.162971 l 2.547869,6.75697 c 0.582161,1.926735 1.517518,2.413899 2.499154,2.068013 2.696455,-0.957277 7.365924,-4.740109 6.956707,-6.830045 0,0 -0.112049,-3.222591 -2.491844,-7.331824 C 75.95364,44.035776 64.80245,36 49.047556,36 27.536812,36 10.08902,53.428305 10.08902,74.960969 c 0,10.746846 4.362557,20.475521 11.414261,27.515041 L 88.001216,164 154.49429,102.47601 c 7.04683,-7.03952 11.41669,-16.768195 11.41669,-27.515041 0,-21.532664 -16.60987,-37.916001 -38.11818,-37.916001 -14.73915,0 -23.92708,3.039905 -33.14666,11.494642 -1.763537,1.614949 -2.499156,1.985196 -4.189615,4.481913 -1.351883,1.999809 -1.232526,2.913242 -0.818437,3.536814 1.247141,1.907247 1.403033,3.712191 3.181183,1.471236 1.459057,-1.848789 2.377361,-3.013112 4.693833,-5.305222" />
</svg>
