<?xml version="1.0" encoding="UTF-8"?>
<svg version="1.1" viewBox="0 0 192 192" xmlns="http://www.w3.org/2000/svg">
 <path d="m126.72 122.57c-1.9786 0.0387-3.9764 0.29105-5.9626 0.7309-1.9725 0.48743-3.9163 1.2172-5.7182 2.2455-1.7893 1.0488-3.3959 2.4046-4.8337 3.9124-1.4088 1.5402-2.6502 3.2312-3.7036 5.0426-0.80045 1.4523-1.4332 2.9885-1.9482 4.5623-3.444 2.6307-5.7469 6.5174-6.7095 10.575-1.0708 4.5299-0.55792 9.4225 1.7566 13.324 1.1282 1.9427 2.5819 3.6478 4.2675 5.0094 1.6612 1.3876 3.5187 2.4928 5.518 3.2295 3.6661 1.3784 7.917 1.5385 11.689 0.0221 1.8274 0.76684 3.7467 1.3614 5.7378 1.7284 2.2524 0.41432 4.573 0.4122 6.8655 0.0946 4.0692-0.55771 8.0461-2.1811 11.412-4.7048 3.3554 0.18223 6.829-0.7035 9.6982-2.6447 0.33849-0.22389 0.66689-0.46477 0.98763-0.71493 0.013 0.0448 0.0223 0.0905 0.0356 0.13513 0.92291 2.6983 2.787 5.0128 5.1298 6.4712 1.1581 0.73668 2.4249 1.3263 3.7724 1.5244 1.342 0.21777 2.6645 0.17909 3.9444 0.13267 2.5378-0.17453 5.1571-0.63333 7.4441-2.076 2.3648-1.3137 4.0834-3.6543 5.0905-6.244 2.0596-5.2504 0.0699-11.939-4.8067-15.359l-0.0577-0.0405c-0.0401-0.0275-0.0835-0.0528-0.12283-0.0811-2.721-1.9866-2.8816-0.38289-3.652 0.8648-0.76963 1.2468-0.3833 2.8823 0.86357 3.652 1.552 0.95913 2.8767 2.3975 3.6188 4.1483 0.76731 1.7398 0.91605 3.7694 0.54419 5.7206-0.408 1.9662-1.5206 3.7625-3.0206 5.2735-1.5181 1.4654-3.6771 2.5237-5.9098 2.4089-4.4562-0.68743-7.756-3.9499-8.7757-7.6676-0.2846-0.92926-0.36829-1.8949-0.42257-2.8658-1e-4 -3e-3 1e-4 -5e-3 0-7e-3 0.95857-1.4689 1.6975-3.0969 2.1644-4.8166 0.29128-1.0544 0.47642-2.1394 0.56137-3.2356 0.1536-0.15552 0.30752-0.311 0.47048-0.45819l0.016-0.0123c0.26023-0.23585 0.33624-0.62722 0.16092-0.94955-0.12666-0.23291-0.35684-0.36025-0.60191-0.38695-0.0616-2.3789-0.60246-4.7587-1.6362-6.9417-1.7547-3.7469-4.9032-6.7788-8.7044-8.4342l-0.0884-0.0393c-2.3695-1.0322-4.2821 0.66684-6.1272 2.4986-2.309 2.2917-2.2961 4.5053 2.4556 6.2341 0.0901 0.0321 0.18781 0.0783 0.27639 0.11056h1e-3c1.785 0.6448 3.3608 1.9869 4.3362 3.7122 0.98668 1.7037 1.3344 3.8511 0.93972 5.8779-0.38051 2.0173-1.5184 3.9514-3.2024 5.2588-1.6761 1.3043-3.8189 2.018-6.0376 1.9151l-0.37834-0.0184c-0.87895-0.0401-1.694 0.30963-2.275 0.89059-2.4836 2.4969-5.6313 4.3884-9.1233 5.2649-1.7437 0.43476-3.5619 0.6405-5.3976 0.66088-1.8412 0.0259-3.7076-0.26316-5.5032-0.84883l-0.22603-0.0749c-0.47406-0.15409-0.97302-0.0754-1.3684 0.16829-1.4246 0.88681-3.0264 1.4867-4.7097 1.7124-1.684 0.1533-3.4431 6e-3 -5.0438-0.64369-1.6006-0.63207-3.0467-1.672-4.1655-2.9825-1.0975-1.3357-1.9051-2.8762-2.3917-4.48-0.92379-3.1934-1.0419-6.5852-7e-3 -9.5815 0.9953-3.0008 3.136-5.435 5.6408-6.8373 0.7414-0.4151 1.2638-1.0776 1.5232-1.8316l0.0983-0.28989c0.97561-2.8507 2.5021-5.4809 4.5328-7.6664 2.1014-2.1108 4.4446-3.9414 7.164-5.4234 1.3735-0.69813 2.8577-1.201 4.4001-1.5453 1.5511-0.26809 3.1512-0.4154 4.7527-0.30218 3.2029 0.18396 6.4212 1.1783 9.2879 2.9236l0.0111 6e-3c0.64624 0.39308 1.3118 0.0351 1.8708-0.47908 1.2508-1.1517 0.20961-1.3532-0.30219-1.7824-2.9026-2.441-6.4469-4.2046-10.261-5.0254-1.9073-0.4139-3.8662-0.58904-5.8447-0.55032zm38.994 1.0855c-1.8452-6.6592-3.9969-13.028-6.3636-19.408-2.375-6.3561-5.0001-12.62-7.8718-18.781-2.9026-6.1486-6.1306-12.156-9.6574-18.004-3.1863-5.1377-6.7793-10.038-10.672-14.723l1.3152-1.4049 0.0354-0.03695 0.11556-0.13365c0.89153-1.1022 0.72171-2.7178-0.37972-3.6094l-13.617-11.025-0.044-0.03535-0.011-0.0087c-1.0456-0.82706-2.5637-0.6502-3.3907 0.39623l-1.1069 1.3986c-6.1605-4.1392-12.867-6.7831-19.598-9.0221-7.502-2.4167-15.126-4.254-22.798-5.7461-7.6825-1.4418-15.41-2.5511-23.167-3.3876-7.7605-0.8129-15.538-1.3947-23.397-1.3962-0.62815-6.29e-4 -1.206 0.42925-1.3578 1.0676-0.17689 0.74605 0.28381 1.4945 1.0299 1.6714 13.908 3.3004 27.702 7.351 41.172 12.169 6.7642 2.3389 13.327 5.2163 19.731 8.3095 5.8413 2.8837 11.62 6.1605 16.295 10.381-15.078 15.529-29.994 31.209-44.884 46.913-15.346 16.064-30.509 32.298-45.716 48.491l-0.0912 0.0951c-0.28695 0.30504-0.49293 0.69259-0.57548 1.1345l-0.59042 3.1494c-0.05113 1.1289-0.18318 2.2249-0.08098 3.4096 0.10613 2.3161 1.1077 5.1062 3.1982 6.9492 2.0897 1.853 4.6447 2.4961 6.88 2.6934 2.3129 0.17925 4.3436-0.011 6.6252-0.54796 0.47799-0.11164 0.92769-0.36007 1.2893-0.74454l0.03774-0.0401c13.781-14.645 27.163-29.67 40.78-44.472l40.875-44.378c1.0692-0.97486 0.35771-1.0354-0.0386-1.4214-0.40331-0.39309-1.0496-0.38365-1.4427 0.01965l-42.065 43.252c-13.81 14.179-27.843 28.146-41.502 42.466-1.3152 0.23349-2.8058 0.35692-4.0889 0.25393-1.5339-0.11871-2.8515-0.5629-3.6258-1.2689-0.76177-0.70127-1.2689-1.7186-1.3617-3.206-0.07311-0.70831 0.03692-1.5322 0.04403-2.3027l0.33806-1.8428c14.936-16.078 29.914-32.119 44.712-48.324 15.041-16.349 30.061-32.716 44.901-49.252l0.0708-0.07862c0.5794-0.64624 0.53145-1.6391-0.10928-2.2257-5.6189-5.1408-12.151-8.485-18.721-11.513-6.5944-3.0048-13.352-5.5417-20.114-8.0278-9.4504-3.3805-19-6.4114-28.632-9.2039 3.3444 0.31997 6.6863 0.70517 10.015 1.1486 7.6429 1.0291 15.246 2.3601 22.771 3.9765 7.5271 1.5991 14.98 3.5362 22.202 6.0032 7.1649 2.4945 14.308 5.4922 20.014 9.924l0.0181 0.01415c1.033 0.80033 2.522 0.6368 3.3554-0.37972l0.92844-1.1328 9.4083 7.8907-1.0094 1.0425c-0.90957 0.9458-0.98586 2.4529-0.12264 3.4796l0.0472 0.05661c8.4039 9.9964 14.981 21.569 20.494 33.585 0.86869 1.923 1.6722 3.875 2.493 5.8201-4.7831-7.2856-9.9536-14.34-15.673-21.025-6e-3 -0.0055-0.0236-0.02673-0.0283-0.03223-2.5448-2.7453-3.7831-2.0173-4.9325-0.32312-1.0842 1.5975-1.5959 3.4812-0.32311 4.9325l0.0236 0.02673c12.734 14.519 23.119 31.234 32.098 48.556l0.0393 0.0763c0.66824 1.2886 2.1674 1.9804 3.6227 1.5771 1.6698-0.46306 2.6478-2.1911 2.1848-3.8609"/>
</svg>
