<?xml version="1.0" encoding="UTF-8" standalone="no"?>
<svg xmlns:rdf="http://www.w3.org/1999/02/22-rdf-syntax-ns#" xmlns="http://www.w3.org/2000/svg" height="100%" width="100%" version="1.1" xmlns:cc="http://creativecommons.org/ns#" xmlns:dc="http://purl.org/dc/elements/1.1/" viewBox="0 0 176 176">
 <g transform="matrix(.64356 0 0 .64356 34.013 52.192)">
  <path d="m194.73 113.47c-2.9338-10.588-6.355-20.714-10.118-30.859-3.7762-10.106-7.95-20.066-12.516-29.862-4.615-9.7762-9.7475-19.327-15.355-28.626-5.0662-8.1688-10.779-15.96-16.969-23.409l2.0912-2.2338 0.0563-0.05875 0.18375-0.2125c1.4175-1.7525 1.1475-4.3213-0.60375-5.7388l-21.65-17.53-0.07-0.0562-0.0175-0.0138c-1.6625-1.315-4.0762-1.0338-5.3912 0.63l-1.76 2.2238c-9.795-6.5812-20.459-10.785-31.16-14.345-11.928-3.8425-24.05-6.7638-36.249-9.1362-12.215-2.2925-24.502-4.0562-36.835-5.3862-12.339-1.2925-24.705-2.2175-37.2-2.22-0.99875-0.001-1.9175 0.6825-2.1588 1.6975-0.28125 1.1862 0.45125 2.3762 1.6375 2.6575 22.114 5.2475 44.046 11.688 65.462 19.349 10.755 3.7188 21.189 8.2938 31.372 13.212 9.2875 4.585 18.475 9.795 25.908 16.505-23.974 24.69-47.69 49.622-71.365 74.59-24.4 25.541-48.508 51.353-72.688 77.099l-0.145 0.15125c-0.45625 0.485-0.78375 1.1012-0.915 1.8038l-0.93875 5.0075c-0.0813 1.795-0.29125 3.5375-0.12875 5.4212 0.16875 3.6825 1.7612 8.1188 5.085 11.049 3.3225 2.9462 7.385 3.9688 10.939 4.2825 3.6775 0.285 6.9062-0.0175 10.534-0.87125 0.76-0.1775 1.475-0.5725 2.05-1.1838l0.06-0.0637c21.912-23.285 43.188-47.175 64.839-70.709l64.991-70.56c1.7-1.55 0.56875-1.6462-0.0613-2.26-0.64125-0.625-1.6688-0.61-2.2938 0.03125l-66.882 68.769c-21.958 22.544-44.269 44.751-65.988 67.52-2.0912 0.37125-4.4612 0.5675-6.5012 0.40375-2.4388-0.18875-4.5338-0.895-5.765-2.0175-1.2112-1.115-2.0175-2.7325-2.165-5.0975-0.11625-1.1262 0.0587-2.4362 0.07-3.6612l0.5375-2.93c23.748-25.564 47.562-51.068 71.091-76.834 23.915-25.994 47.796-52.017 71.391-78.31l0.1125-0.125c0.92124-1.0275 0.845-2.6062-0.17375-3.5388-8.9338-8.1738-19.319-13.491-29.766-18.305-10.485-4.7775-21.23-8.8112-31.981-12.764-15.026-5.375-30.21-10.194-45.524-14.634 5.3175 0.50875 10.631 1.1212 15.924 1.8262 12.152 1.6362 24.241 3.7525 36.206 6.3225 11.968 2.5425 23.818 5.6225 35.3 9.545 11.392 3.9662 22.749 8.7325 31.822 15.779l0.0288 0.0225c1.6425 1.2725 4.01 1.0125 5.335-0.60375l1.4762-1.8012 14.959 12.546-1.605 1.6575c-1.4462 1.5038-1.5675 3.9-0.195 5.5325l0.075 0.09c13.362 15.894 23.819 34.295 32.585 53.399 1.3812 3.0575 2.6588 6.1612 3.9638 9.2538-7.605-11.584-15.826-22.801-24.919-33.43-0.009-0.0088-0.0375-0.0425-0.045-0.05125-4.0462-4.365-6.015-3.2075-7.8425-0.51375-1.7238 2.54-2.5375 5.535-0.51374 7.8425l0.0375 0.0425c20.246 23.085 36.758 49.661 51.035 77.203l0.0625 0.12125c1.0625 2.0488 3.4462 3.1488 5.76 2.5075 2.655-0.73625 4.21-3.4838 3.4738-6.1388"/>
  <path d="m211.7 154.67c7.7538 5.4375 10.916 16.071 7.6412 24.419-1.6012 4.1175-4.3338 7.84-8.0938 9.9288-3.6362 2.2938-7.8 3.0225-11.835 3.3-2.035 0.0738-4.1388 0.135-6.2725-0.21125-2.1425-0.315-4.1562-1.2512-5.9975-2.4225-3.725-2.3188-6.6888-5.9988-8.1562-10.289-0.6475-2.1625-1.025-4.42-0.94625-6.6738 0.14125-2.255 0.9075-4.4338 1.9138-6.3775 1.9162-3.9338 4.91-7.1425 8.5062-9.095 0.6-0.32625 1.3512-0.10375 1.6775 0.49625 0.27875 0.5125 0.15625 1.1338-0.2575 1.5088l-0.0237 0.02c-2.635 2.38-4.5312 5.47-5.0475 8.745-0.26625 1.6388-0.0987 3.26-0.035 4.7975 0.0863 1.5438 0.21875 3.08 0.67125 4.5575 1.6212 5.9112 6.8688 11.098 13.954 12.191 3.55 0.1825 6.9825-1.5012 9.3962-3.8312 2.385-2.4025 4.1538-5.2575 4.8025-8.3838 0.59125-3.1025 0.355-6.33-0.865-9.0962-1.18-2.7838-3.2862-5.0712-5.7538-6.5962-1.9825-1.2238-2.5975-3.8238-1.3738-5.8062 1.225-1.9838 1.4812-4.5325 5.8075-1.3738 0.0625 0.045 0.13125 0.0837 0.195 0.1275z" fill="#292929"/>
  <path d="m167.2 146.68c2.8388 1.025 5.3438 3.1575 6.895 5.9012 1.5688 2.7088 2.1225 6.125 1.495 9.3475-0.605 3.2075-2.415 6.2825-5.0925 8.3612-2.665 2.0738-6.0712 3.2075-9.5988 3.0438l-0.60125-0.0288c-1.3975-0.0637-2.6938 0.4925-3.6175 1.4162-3.9488 3.97-8.9538 6.9775-14.506 8.3712-2.7725 0.69125-5.6638 1.0188-8.5825 1.0512-2.9275 0.0412-5.8938-0.42-8.7488-1.3512l-0.36-0.1175c-0.75375-0.245-1.5475-0.12125-2.1762 0.26625-2.265 1.41-4.8125 2.365-7.4888 2.7238-2.6775 0.24375-5.4738 0.009-8.0188-1.0238-2.545-1.005-4.845-2.6588-6.6238-4.7425-1.745-2.1238-3.0288-4.5725-3.8025-7.1225-1.4688-5.0775-1.6562-10.471-0.01125-15.235 1.5825-4.7712 4.9862-8.6425 8.9688-10.872 1.1788-0.66 2.0088-1.7125 2.4212-2.9112l0.1575-0.46125c1.5512-4.5325 3.9775-8.715 7.2062-12.19 3.3412-3.3562 7.0662-6.2662 11.39-8.6225 2.1838-1.11 4.5438-1.91 6.9962-2.4575 2.4662-0.42625 5.0112-0.65875 7.5575-0.47875 5.0925 0.2925 10.21 1.8725 14.768 4.6475l0.0162 0.01c1.0275 0.625 2.0862 0.0563 2.975-0.76125 1.9888-1.8312 0.33375-2.1525-0.48-2.835-4.615-3.8812-10.25-6.685-16.314-7.99-6.065-1.3162-12.458-1.1112-18.774 0.2875-3.1362 0.775-6.2275 1.935-9.0925 3.57-2.845 1.6675-5.3988 3.8225-7.685 6.22-2.24 2.4488-4.2138 5.1375-5.8888 8.0175-1.61 2.9212-2.805 6.0538-3.7162 9.2538l2.5788-3.3712c-6.5712 4.1238-10.921 10.99-12.628 18.186-1.7025 7.2025-0.88625 14.982 2.7938 21.186 1.7938 3.0888 4.1038 5.8 6.7838 7.965 2.6412 2.2062 5.595 3.9638 8.7738 5.135 6.29 2.365 13.664 2.48 19.995-0.5825l-2.5338 0.14875c3.2338 1.46 6.675 2.5588 10.249 3.2175 3.5812 0.65875 7.27 0.65375 10.915 0.14875 7.2962-1 14.409-4.15 20.148-9.0838l-4.2175 1.3862c5.9925 0.87 12.438-0.47125 17.635-3.9875 5.2175-3.4512 9.16-8.93 10.854-15.169 1.7162-6.2125 1.1862-13.096-1.6362-19.056-2.79-5.9575-7.7962-10.778-13.84-13.41l-0.14125-0.0613c-3.7675-1.6412-6.8075 1.0588-9.7412 3.9712-3.6712 3.6438-3.6512 7.165 3.9038 9.9138 0.14375 0.0513 0.3 0.12375 0.44125 0.175" fill="#292929"/>
 </g>
</svg>
