<?xml version="1.0" encoding="UTF-8" standalone="no"?>
<svg
   xmlns:dc="http://purl.org/dc/elements/1.1/"
   xmlns:cc="http://creativecommons.org/ns#"
   xmlns:rdf="http://www.w3.org/1999/02/22-rdf-syntax-ns#"
   xmlns:svg="http://www.w3.org/2000/svg"
   xmlns="http://www.w3.org/2000/svg"
   xmlns:sodipodi="http://sodipodi.sourceforge.net/DTD/sodipodi-0.dtd"
   xmlns:inkscape="http://www.inkscape.org/namespaces/inkscape"
   viewBox="0 0 176 176"
   version="1.1"
   inkscape:version="0.92.1 r15371"
   sodipodi:docname="labour.svg"
   height="100%"
   width="100%">
  <sodipodi:namedview
     pagecolor="#ffffff"
     bordercolor="#666666"
     borderopacity="1"
     objecttolerance="10"
     gridtolerance="10"
     guidetolerance="10"
     inkscape:pageopacity="0"
     inkscape:pageshadow="2"
     inkscape:window-width="1680"
     inkscape:window-height="988"
     id="namedview10"
     showgrid="true"
     showguides="true"
     inkscape:zoom="4.2131068"
     inkscape:cx="87.272727"
     inkscape:cy="90"
     inkscape:window-x="-8"
     inkscape:window-y="-8"
     inkscape:window-maximized="1">
    <sodipodi:guide
       position="95.999997,152"
       orientation="0,1"
       id="guide4146"
       inkscape:label=""
       inkscape:color="rgb(0,0,255)"
       inkscape:locked="false" />
    <sodipodi:guide
       position="24,28"
       orientation="1,0"
       id="guide4148"
       inkscape:label=""
       inkscape:color="rgb(0,0,255)"
       inkscape:locked="false" />
    <sodipodi:guide
       position="95.999997,164"
       orientation="0,1"
       id="guide4150"
       inkscape:label=""
       inkscape:color="rgb(0,0,255)"
       inkscape:locked="false" />
    <sodipodi:guide
       position="12,28"
       orientation="1,0"
       id="guide4152"
       inkscape:label=""
       inkscape:color="rgb(0,0,255)"
       inkscape:locked="false" />
    <sodipodi:guide
       position="-41.249999,12"
       orientation="0,1"
       id="guide4154"
       inkscape:label=""
       inkscape:color="rgb(0,0,255)"
       inkscape:locked="false" />
    <sodipodi:guide
       position="152,184"
       orientation="1,0"
       id="guide4156"
       inkscape:label=""
       inkscape:color="rgb(0,0,255)"
       inkscape:locked="false" />
    <sodipodi:guide
       position="44,24"
       orientation="0,1"
       id="guide4158"
       inkscape:label=""
       inkscape:color="rgb(0,0,255)"
       inkscape:locked="false" />
    <sodipodi:guide
       position="164,180"
       orientation="1,0"
       id="guide4160"
       inkscape:label=""
       inkscape:color="rgb(0,0,255)"
       inkscape:locked="false" />
    <inkscape:grid
       type="xygrid"
       id="grid4162"
       empspacing="3"
       spacingx="4"
       spacingy="4"
       enabled="true"
       originx="0"
       originy="0"
       dotted="false" />
  </sodipodi:namedview>
  <metadata
     id="metadata16699">
    <rdf:RDF>
      <cc:Work
         rdf:about="">
        <dc:format>image/svg+xml</dc:format>
        <dc:type
           rdf:resource="http://purl.org/dc/dcmitype/StillImage" />
        <dc:title></dc:title>
      </cc:Work>
    </rdf:RDF>
  </metadata>
  <defs
     id="defs16697">
    <clipPath
       id="clipPath4333"
       clipPathUnits="userSpaceOnUse">
      <path
         id="path4335"
         d="M 0,600 H 600 V 0 H 0 Z"
         inkscape:connector-curvature="0" />
    </clipPath>
    <clipPath
       id="clipPath5000"
       clipPathUnits="userSpaceOnUse">
      <path
         id="path5002"
         d="M 0,600 H 600 V 0 H 0 Z"
         inkscape:connector-curvature="0" />
    </clipPath>
    <clipPath
       id="clipPath5126"
       clipPathUnits="userSpaceOnUse">
      <path
         id="path5128"
         d="M 0,600 600,600 600,0 0,0 0,600 Z" />
    </clipPath>
    <clipPath
       id="clipPath5182"
       clipPathUnits="userSpaceOnUse">
      <path
         id="path5184"
         d="M 0,600 600,600 600,0 0,0 0,600 Z" />
    </clipPath>
    <clipPath
       id="clipPath5126-6"
       clipPathUnits="userSpaceOnUse">
      <path
         id="path5128-3"
         d="M 0,600 600,600 600,0 0,0 0,600 Z" />
    </clipPath>
    <clipPath
       id="clipPath5182-1"
       clipPathUnits="userSpaceOnUse">
      <path
         id="path5184-9"
         d="M 0,600 600,600 600,0 0,0 0,600 Z" />
    </clipPath>
  </defs>
  <path
     d="m 92.167583,23.853549 c -1.637516,-1.450945 -3.435023,-2.680713 -5.145765,-4.032354 -0.44737,-0.353584 -0.950913,-0.74077 -1.213719,-1.242809 -2.10846,-4.030347 -5.124201,-6.265697 -9.395787,-6.065082 -0.572757,0.02658 -1.232276,0.102311 -1.674632,0.432827 -0.884711,0.661025 -1.476022,0.396214 -2.272463,-0.300923 -5.796761,-5.0745477 -12.325765,-3.9465916 -16.037637,2.760458 -0.499531,0.902766 -0.962952,1.150024 -2.015175,1.095357 -3.38487,-0.178047 -5.711499,1.823587 -7.350521,4.841835 -0.416275,0.766849 -0.845089,1.651058 -0.890227,2.518716 -0.09981,1.91236 -1.107394,3.10702 -2.062821,4.531885 -1.342613,2.002135 -2.214786,4.392459 -3.267511,6.629313 -0.182058,0.387185 -0.259796,0.83606 -0.44687,1.457463 C 39.706347,24.860134 47.075426,9.8606769 62.359254,6.7285804 77.465037,3.634099 90.58925,14.159848 94.658215,26.982135 c -0.90126,-1.15554 -1.571314,-2.313588 -2.490632,-3.128586 m 61.510957,94.711201 c -0.99806,-5.24708 -2.07838,-10.48062 -3.21886,-15.69761 -2.4189,-11.066404 -5.28971,-21.996397 -9.30952,-32.569793 C 137.28332,60.126685 132.32411,50.657173 125.73292,42.225839 117.83623,32.123889 108.27744,24.357594 97.7863,17.88426 96.895571,17.334576 96.008353,16.56572 95.406508,15.671481 87.005769,3.1792055 72.207428,-2.8487634 58.721608,1.3039595 47.060379,4.8944606 39.537831,13.178343 35.893165,25.789982 c -0.290893,1.007589 -0.766349,1.998624 -1.349134,2.83268 -2.956559,4.233972 -6.167396,8.265323 -8.937885,12.641229 -8.230216,12.997324 -12.836831,27.567464 -14.104716,43.525857 -1.152029,14.500432 0.01956,28.968772 1.983076,43.390462 1.503106,11.04383 3.409948,22.03551 5.139748,33.05026 0.06419,0.40975 0.118864,0.82602 0.232212,1.22224 0.426306,1.49057 1.745849,2.38581 3.145638,2.15962 1.437403,-0.23221 2.373271,-1.42937 2.295533,-3.00571 -0.03411,-0.68611 -0.143942,-1.37271 -0.248763,-2.0548 -1.699707,-11.01726 -3.488688,-22.02347 -5.082572,-33.05577 -1.475521,-10.2123 -2.263936,-20.47475 -2.294029,-30.777811 -0.05417,-18.189235 3.755005,-35.028327 13.012369,-49.985154 1.515644,-2.449505 3.135107,-4.82027 4.814251,-7.392651 0.247759,1.432388 0.54868,2.549813 0.595825,3.670747 0.02106,0.499529 -0.08826,1.054732 -0.278854,1.541222 4.472202,-6.36751 10.022206,-11.612578 16.420812,-15.323448 0.04765,-0.457402 0.08676,-0.9138 0.09228,-1.3712 0.03812,-3.042823 2.244879,-4.926093 4.94816,-4.152724 1.795502,0.514074 3.113038,-0.127892 3.60655,-2.048778 1.463986,-5.690434 7.793881,-6.778769 11.078945,-1.922391 1.117424,1.651563 2.570878,1.809546 4.084013,0.726227 2.288012,-1.638522 4.988285,-0.614383 6.058063,2.240364 0.136417,0.364617 0.296408,0.719203 0.462918,1.072285 7.213601,1.239297 14.159381,4.183318 20.492785,8.528128 -0.72271,-1.094853 -1.15855,-2.367251 -1.26889,-3.950603 -0.003,-0.04414 0.0135,-0.08977 0.0502,-0.308445 0.34857,0.207136 0.62592,0.323994 0.85412,0.514076 4.46418,3.73093 9.14552,7.192536 13.33887,11.263508 10.49916,10.193733 17.30902,23.082221 22.25619,37.204492 4.56749,13.038452 7.52605,26.525266 10.20326,40.077296 1.44692,7.32244 2.67119,14.69101 4.00175,22.03703 0.0902,0.49701 0.14945,1.03717 0.37665,1.46248 0.30846,0.57727 0.69013,1.1801 1.17461,1.56178 0.94892,0.74679 1.99612,0.70116 2.94352,0.0411 1.09335,-0.76082 1.43839,-1.89679 1.1811,-3.31766 -1.16756,-6.44022 -2.27044,-12.8925 -3.49319,-19.32119"
     id="path5188"
     inkscape:connector-curvature="0" />
  <path
     d="m 1.4488857,31.626105 c 2.013162,-4.962707 6.1036808,-8.447384 12.1572083,-10.359243 6.547038,-2.06934 12.335754,-1.620967 17.204656,1.339103 4.634685,2.81312 7.640384,7.394157 9.551232,11.525817 1.334083,-1.053729 2.719824,-2.078369 4.196343,-3.044829 3.696313,-2.278483 7.678501,-4.479226 12.111067,-5.998381 1.103377,-0.383675 2.209763,-0.794434 3.338217,-1.160055 1.152527,-0.284872 2.315085,-0.571752 3.486169,-0.861639 2.282988,-0.675571 4.887458,-0.866155 7.392125,-1.254344 1.272394,-0.176541 2.355709,-0.129397 3.55538,-0.206132 l 1.764902,-0.06972 0.887215,-0.0356 c -0.131903,0.0035 0.301924,-0.006 0.301924,-0.006 l 0.118363,0.006 0.237727,0.01404 0.473951,0.02758 c 2.531748,0.17604 5.106128,0.194095 7.65894,0.717199 3.499211,0.458905 6.957795,1.41634 10.36723,2.623036 1.152026,-4.74554 3.746467,-11.786616 9.426855,-15.539113 4.29815,-2.838699 9.60339,-3.269017 15.77128,-1.278418 5.76715,1.864213 9.79647,5.278174 11.97314,10.152108 5.0314,11.261507 -1.50912,26.249934 -1.79099,26.881871 -0.12939,0.290891 -0.40925,0.485487 -0.72522,0.507054 -0.0196,0.002 -0.0391,0.002 -0.0572,0.002 -0.29641,0 -0.57375,-0.153972 -0.73073,-0.408251 -0.0958,-0.157483 -9.70972,-15.611838 -18.12749,-15.082215 -1.04419,0.07222 -2.03021,0.425303 -2.96607,1.009593 2.01266,1.323556 3.97366,2.749926 5.86394,4.28162 4.22243,3.585486 7.92526,7.833503 11.106,12.487263 3.10801,4.715449 5.52992,9.905353 7.28679,15.344018 l 1.08483,4.15172 c 0.41628,1.35415 0.51708,2.883837 0.78039,4.322245 0.23121,1.463986 0.47244,2.948535 0.48749,4.246512 l 0.22418,4.218927 c -0.10478,5.733569 -0.83254,11.470147 -2.4555,16.974513 -1.6942,5.469766 -4.04038,10.724866 -7.12882,15.493976 -3.16821,4.7004 -6.87003,9.00009 -11.10149,12.63974 -1.05021,0.9143 -2.19271,1.71074 -3.28455,2.56486 l -1.65858,1.24731 -1.75537,1.09386 c -1.18111,0.70617 -2.30907,1.5001 -3.52629,2.12501 -1.22726,0.60786 -2.4495,1.21322 -3.66622,1.81707 -0.0752,0.0321 -0.15147,0.0592 -0.2267,0.0923 0.4885,0.41877 0.99104,0.83354 1.46398,1.25433 3.28757,2.91242 6.04099,6.02546 8.55719,9.02516 2.44699,3.04633 4.62967,5.99638 6.49037,8.80348 1.89581,2.78503 3.45759,5.43766 4.82326,7.78986 1.34612,2.36425 2.47257,4.44713 3.33321,6.20151 0.8812,1.74133 1.52817,3.13862 1.97053,4.09604 l 0.328,0.73527 c 0.24626,0.55169 0.26833,1.18613 0.0151,1.73481 -0.57376,1.24581 -2.27396,1.84867 -5.77618,2.13103 l -0.0562,-0.0958 c 0,0 -0.25629,-0.44838 -0.73826,-1.28794 -0.50004,-0.8451 -1.23729,-2.09192 -2.23584,-3.6532 -0.98953,-1.56279 -2.22733,-3.44205 -3.67676,-5.56856 -1.46147,-2.1195 -3.17773,-4.46068 -5.10713,-6.94579 -1.91587,-2.50016 -4.12412,-5.07906 -6.5355,-7.69558 -2.46304,-2.54631 -5.060492,-5.23755 -8.020551,-7.55765 -2.276969,-1.83162 -4.708913,-3.55842 -7.258716,-4.96673 -0.918812,0.18106 -1.833612,0.37265 -2.779006,0.49803 -2.802075,0.54266 -5.056977,0.53213 -7.459831,0.71569 l -0.444861,0.0266 -0.223183,0.0151 -0.110845,0.005 -0.337534,0.005 -0.956928,-0.0351 -1.904328,-0.0723 c -1.264872,-0.0768 -2.532251,-0.0406 -3.771042,-0.21816 -2.472066,-0.26782 -4.889465,-0.68912 -7.240159,-1.24131 -0.218669,0.11382 -0.438341,0.22118 -0.649989,0.35308 l -1.086827,0.80247 c -0.727225,0.52611 -1.449436,1.0482 -2.16613,1.56579 -0.106329,0.0762 -0.207133,0.15848 -0.302425,0.24726 -1.24481,1.14149 -2.471063,2.27096 -3.678759,3.37985 -0.599836,0.6826 -1.193653,1.35967 -1.782455,2.02822 -1.173592,1.3401 -2.374768,2.59445 -3.365801,4.0464 -1.026141,1.4023 -2.066826,2.72184 -3.007706,4.07147 -0.888719,1.4028 -1.74835,2.75896 -2.573877,4.06044 -0.412262,0.65 -0.817502,1.28695 -1.213213,1.90886 -0.380665,0.63444 -0.711679,1.29044 -1.057737,1.91085 -0.682589,1.24833 -1.32957,2.43246 -1.937931,3.54436 -1.261862,2.19221 -2.175659,4.2415 -2.969589,5.89757 -0.418782,0.91129 -0.973981,1.6305 -1.567297,2.19071 -0.804963,0.76184 -1.944952,1.05373 -3.030274,0.83055 -2.231329,-0.4574 -6.227059,-1.56831 -7.317897,-3.80617 -0.194597,-1.23628 -0.125886,-2.90741 0.75481,-4.66227 0.861136,-1.76191 1.848156,-3.92102 3.241923,-6.31084 0.67005,-1.20369 1.38273,-2.48312 2.135033,-3.83325 0.38217,-0.67306 0.747288,-1.37321 1.172088,-2.07035 0.444861,-0.69011 0.899252,-1.39628 1.363673,-2.11748 0.930849,-1.44092 1.900817,-2.94001 2.903888,-4.49377 1.076294,-1.52116 2.287501,-3.05236 3.48316,-4.64575 1.147512,-1.61594 2.569364,-3.16118 4.030335,-4.72196 0.727226,-0.78139 1.462978,-1.57131 2.205751,-2.36825 0.834554,-0.73977 1.676631,-1.48706 2.527737,-2.23937 0.1635,-0.13943 0.322988,-0.28487 0.485486,-0.42781 -2.021689,-1.01411 -3.949088,-2.12351 -5.768154,-3.30913 -7.346478,-4.8363 -12.918531,-10.87832 -16.89771,-16.80648 -4.021809,-5.94722 -6.20148,-11.90548 -7.594243,-16.827063 -0.308945,-1.247824 -0.600337,-2.42794 -0.874175,-3.538844 -0.238731,-1.134978 -0.355588,-2.269955 -0.513572,-3.288075 -0.141934,-1.027648 -0.272334,-1.977559 -0.3922,-2.848227 -0.111343,-0.864148 -0.08325,-1.506116 -0.126889,-2.157611 -0.103319,-2.525239 -0.158484,-3.872367 -0.158484,-3.872367 l -0.006,-0.240236 c 0,0 0.08827,-1.461478 0.252774,-4.198865 0.05968,-0.683093 0.05567,-1.451448 0.184564,-2.2845 0.135415,-0.832552 0.283368,-1.740333 0.441852,-2.721841 0.176039,-0.977996 0.303429,-2.041254 0.558711,-3.150153 0.294401,-1.101374 0.608361,-2.270457 0.938371,-3.506243 1.444421,-4.881457 3.690796,-10.76298 7.723138,-16.626949 0.07172,-0.106329 0.152968,-0.213152 0.22569,-0.319478 -0.172026,-0.0336 -0.340542,-0.08175 -0.515577,-0.09278 -5.571051,-0.268322 -12.364342,10.33567 -14.515928,14.479869 -0.148956,0.283869 -0.442855,0.460912 -0.761832,0.460912 -0.01354,0 -0.02909,0 -0.04363,-0.001 -0.334525,-0.01705 -0.629427,-0.2277 -0.7513,-0.540158 -0.0978,-0.24525 -1.071279,-2.77751 -1.8787503,-6.38055 C 7.8224128,57.50741 6.7646751,59.162482 6.7325772,59.214642 6.5760984,59.465911 6.3012576,59.61537 6.0083606,59.61537 H 5.9792556 C 5.6738207,59.605874 5.3979767,59.432814 5.2530327,59.165494 4.9039647,58.518513 -3.2344433,43.16948 1.4488907,31.62611 M 27.385266,83.809504 c 0.05316,0.607361 0.04564,1.386749 0.161494,2.058808 0.114851,0.665539 0.239734,1.391263 0.375149,2.175666 0.146949,0.788918 0.231207,1.619965 0.442854,2.536773 0.248762,0.923832 0.513573,1.905841 0.79393,2.943521 1.175097,4.110594 2.999682,9.076308 6.339904,14.070108 3.242424,5.01888 7.825952,10.18722 13.946183,14.37806 6.123241,4.14872 13.739551,7.24771 22.195932,8.36764 1.049713,0.18407 2.131524,0.16049 3.206816,0.25629 l 1.625473,0.10629 0.815497,0.0551 c 0.133408,-0.002 0.04965,0.002 -0.0316,0.006 l 0.02659,-0.001 0.222682,-0.007 0.444862,-0.0181 c 2.340162,-0.11533 4.921563,-0.0873 6.909647,-0.49552 1.066264,-0.17804 2.1235,-0.24074 3.222363,-0.49802 1.102875,-0.26883 2.210264,-0.53966 3.324174,-0.81049 1.131462,-0.21465 2.19271,-0.67857 3.29057,-1.0442 1.077799,-0.42179 2.227317,-0.68459 3.261984,-1.23679 4.33075,-1.796 8.36711,-4.39998 12.16623,-7.3786 3.73193,-3.08446 7.01898,-6.76123 9.87372,-10.7986 2.77249,-4.10508 4.90551,-8.653011 6.49689,-13.409084 1.45896,-4.810741 2.1255,-9.836641 2.27396,-14.885613 l -0.18407,-3.861331 c -0.0104,-1.405307 -0.2282,-2.580407 -0.41527,-3.777074 -0.2292,-1.2077 -0.25528,-2.396844 -0.63093,-3.624105 l -0.92282,-3.659713 c -1.46499,-4.590165 -3.43502,-9.007702 -6.01742,-13.03103 -6.90965,3.389386 -38.944694,17.543757 -66.702147,3.810676 -4.463661,4.686862 -14.179396,13.71653 -26.443932,18.282019 -0.01755,0.119867 -0.03762,0.265815 -0.05417,0.383175 -0.0968,0.703655 -0.0657,1.356156 -0.103318,1.932923 -0.07673,1.977057 -0.122876,3.157173 -0.133408,3.459601 0.02407,0.403736 0.0993,1.661089 0.22218,3.71388"
     id="path5132"
     inkscape:connector-curvature="0" />
</svg>
