<?xml version="1.0" encoding="UTF-8"?>
<svg width="192" height="192" version="1.1" viewBox="0 0 192 192" xmlns="http://www.w3.org/2000/svg">
 <path d="m148.08 47.944c-17.29 17.379-33.589 26.802-48.419 27.925-11.408 0.85901-23.503-2.5374-35.922-10.113-10.272-6.2603-18.195-13.741-22.939-18.206l-0.48215-0.45468h-0.0031 0.0031c8.4712-9.0677 19.237-15.749 31.221-19.356 0-0.0046 0-0.0046 0.0031-0.0076l0.0076 0.0031c-0.0031 0-0.0076 0.0046-0.01068 0.0046-1.2771 4.6903-1.5059 9.7147-0.71712 14.738 1.4159 9.0098 6.0528 16.97 12.731 21.826 5.2212 3.8023 11.34 5.3937 17.229 4.4644 5.8788-0.92463 11.221-4.3134 15.021-9.5346 4.8672-6.6738 6.8401-15.67 5.4226-24.68-0.25938-1.657-0.63472-3.2911-1.1123-4.8871l3e-3 0.0046c8.642 3.291 16.636 8.1064 23.715 14.274 1.4403 1.2572 2.8639 2.5984 4.2508 3.9945zm-81.571 69.788c-1.7958 10.595-4.2554 25.061-2.0415 46.926l-0.0076-8e-3c-5.8193-2.9493-11.324-6.6326-16.271-10.943-13.488-11.75-22.606-27.745-25.664-45.023-2.9493-16.607-0.18767-33.535 7.7601-47.827h-0.0046l0.0046-0.0031v0.0031c3.0272 3.1645 6.686 6.7989 10.52 10.601 9.3836 9.2966 20.02 19.838 25.192 27.334 2.9966 4.3424 2.0629 9.8352 0.51114 18.94m99.823-66.547c7.2795-8.5978 10.504-12.572 9.8047-14.741-0.53097-1.625-2.2261-3.0577-4.7757-4.0265-2.7434-1.0391-6.5029-1.5182-8.3933-0.40891-0.63015 0.36771-1.654 1.5227-4.1166 4.3088l-2.2994 2.5938h-9e-3c-1.4648-1.4968-3.0272-2.9875-4.5575-4.3164-11.128-9.7025-24.776-16.025-39.471-18.309-5.9216-6.2939-13.647-9.2157-21.248-8.0241-6.3793 1.0055-12.002 4.8154-15.853 10.742-14.936 4.5468-28.46 13.116-39.17 24.82v-0.0092c-2.394-0.71559-7.6457 0.21361-10.929 2.014-1.892 1.036-2.9722 2.2383-3.2087 3.5841-0.18157 1.0192 0.23192 2.6152 4.3241 7.2841l-0.0031 0.0046c-10.517 16.758-15.076 36.588-12.806 55.854 2.3299 19.76 11.712 37.693 26.416 50.516 5.2167 4.5392 10.938 8.3292 17.093 11.326 8.8785 4.321 18.682 7.3375 29.156 8.7412 21.997 2.9341 43.251-1.7592 60.656-11.915l0.032-0.0259c2.2185-1.2313 3.0241-3.932 1.9118-6.4358l-0.33109-0.74917c-4.5224-10.136-18.283-40.981-10.619-69.123 3.2041-11.778 12.449-24.321 20.436-34.162h5e-3c8.5032 13.206 12.849 28.915 12.218 44.339-0.59658 14.622-5.4135 28.224-13.987 39.649-0.26244 0.32041-0.40128 0.7278-0.37229 1.1703 0.0137 0.18461 0.0534 0.36008 0.12206 0.52028l0.87275 2.0339c0.28227 0.60422 0.92004 1.0116 1.628 0.96278 0.47452-0.0381 0.90174-0.26701 1.1748-0.61032 22.588-28.647 25.294-68.071 6.2984-97.607"/>
</svg>
