<?xml version="1.0" encoding="UTF-8" standalone="no"?>
<svg xmlns:dc="http://purl.org/dc/elements/1.1/" xmlns:cc="http://creativecommons.org/ns#" xmlns:rdf="http://www.w3.org/1999/02/22-rdf-syntax-ns#" xmlns:svg="http://www.w3.org/2000/svg" xmlns="http://www.w3.org/2000/svg" version="1.1" viewBox="0 0 176 176">
  <g transform="matrix(1.397874,0,0,-1.397874,135.70999,45.34971)">
    <path d="m 0,0 c -11.332,-11.39 -22.014,-17.566 -31.734,-18.302 -7.477,-0.563 -15.404,1.663 -23.543,6.628 -6.732,4.103 -11.925,9.006 -15.034,11.932 l -0.316,0.298 h -0.002 0.002 c 5.552,5.943 12.608,10.322 20.462,12.686 0,0.003 0,0.003 0.002,0.005 l 0.005,-0.002 c -0.002,0 -0.005,-0.003 -0.007,-0.003 -0.837,-3.074 -0.987,-6.367 -0.47,-9.659 0.928,-5.905 3.967,-11.122 8.344,-14.305 3.422,-2.492 7.432,-3.535 11.292,-2.926 3.853,0.606 7.354,2.827 9.845,6.249 3.19,4.374 4.483,10.27 3.554,16.175 -0.17,1.086 -0.416,2.157 -0.729,3.203 l 0.002,-0.003 C -12.663,9.819 -7.424,6.663 -2.784,2.621 -1.84,1.797 -0.907,0.918 0.002,0.003 Z m -53.462,-45.739 c -1.177,-6.944 -2.789,-16.425 -1.338,-30.755 l -0.005,0.005 c -3.814,1.933 -7.422,4.347 -10.664,7.172 -8.84,7.701 -14.816,18.184 -16.82,29.508 -1.933,10.884 -0.123,21.979 5.086,31.346 h -0.003 l 0.003,0.002 v -0.002 c 1.984,-2.074 4.382,-4.456 6.895,-6.948 6.15,-6.093 13.121,-13.002 16.511,-17.915 1.964,-2.846 1.352,-6.446 0.335,-12.413 m 65.424,43.615 c 4.771,5.635 6.884,8.24 6.426,9.661 -0.348,1.065 -1.459,2.004 -3.13,2.639 -1.798,0.681 -4.262,0.995 -5.501,0.268 C 9.344,10.203 8.673,9.446 7.059,7.62 L 5.552,5.92 H 5.546 c -0.96,0.981 -1.984,1.958 -2.987,2.829 -7.293,6.359 -16.238,10.503 -25.869,12 -3.881,4.125 -8.944,6.04 -13.926,5.259 -4.181,-0.659 -7.866,-3.156 -10.39,-7.04 -9.789,-2.98 -18.653,-8.596 -25.672,-16.267 v 0.006 c -1.569,0.469 -5.011,-0.14 -7.163,-1.32 -1.24,-0.679 -1.948,-1.467 -2.103,-2.349 -0.119,-0.668 0.152,-1.714 2.834,-4.774 l -0.002,-0.003 c -6.893,-10.983 -9.881,-23.98 -8.393,-36.607 1.527,-12.951 7.676,-24.704 17.313,-33.108 3.419,-2.975 7.169,-5.459 11.203,-7.423 5.819,-2.832 12.244,-4.809 19.109,-5.729 14.417,-1.923 28.347,1.153 39.754,7.809 l 0.021,0.017 c 1.454,0.807 1.982,2.577 1.253,4.218 l -0.217,0.491 c -2.964,6.643 -11.983,26.859 -6.96,45.303 2.1,7.719 8.159,15.94 13.394,22.39 h 0.003 c 5.573,-8.655 8.421,-18.951 8.008,-29.06 -0.391,-9.583 -3.548,-18.498 -9.167,-25.986 -0.172,-0.21 -0.263,-0.477 -0.244,-0.767 0.009,-0.121 0.035,-0.236 0.08,-0.341 l 0.572,-1.333 c 0.185,-0.396 0.603,-0.663 1.067,-0.631 0.311,0.025 0.591,0.175 0.77,0.4 14.804,18.775 16.578,44.614 4.128,63.972"/>
  </g>
</svg>
