<?xml version="1.0" encoding="UTF-8"?>
<svg version="1.1" viewBox="0 0 192 192" xmlns="http://www.w3.org/2000/svg">
 <path d="m95.46 82.916-0.01757 0.0073c-6.907 2.9611-13.802 5.8903-20.816 8.6968-1.8489 0.69598-3.2929 1.3961-5.6542 2.0517-2.1954 0.55239-4.409 0.72116-6.5559 0.64429-4.3253-0.20637-8.2725-1.1857-12.244-2.836l-0.03367-0.01492c-0.13913-0.12142 1.7507-4.07 2.5819-5.7495 0.30956-0.61911 0.6965-1.3852 0.79647-1.4075 0.02228-0.0069 0.0546 0.01823 0.0546 0.01823 2.7855 1.5399 6.1189 2.756 9.2936 3.2274 1.5985 0.23186 3.1897 0.2764 4.7186 0.07397 1.3625-0.19259 3.3629-0.82952 5.0901-1.2901 7.1422-2.0408 14.295-4.25 21.423-6.479 0.02901-0.01088 0.16887 0 0.23828 0.06278 0.1295 0.12142 0.32841 0.59684 0.52007 1.0715 0.7252 1.7868 0.71794 1.8199 0.60398 1.9231zm79.993-63.886c-5.6286-5.3478-13.632-8.1036-21.419-7.3069-3.9409 0.29837-7.6197 1.8741-10.961 3.0976l-10.325 3.8083-41.299 15.234-20.648 7.6187-10.326 3.8031c-3.4763 1.3789-6.7692 2.2813-10.53 4.1367-7.1974 3.6799-12.594 10.642-14.472 18.535-1.9417 7.8933-0.27236 16.59 4.494 23.235 4.7032 6.6967 12.398 11.164 20.586 11.96 4.088 0.42092 8.2725-0.0729 12.163-1.3994l10.409-3.819 82.599-30.471 0.57083-0.21963c0.80082-0.37296 0.91375-1.3344 0.54493-1.9311-1.008-1.6276-2.6666-5.6793-3.712-5.3333l-0.20617 0.0777-45.05 17.287-15.912-42.087 33.199-12.741 10.311-3.9585c3.5649-1.4162 6.4781-2.5247 9.8627-2.7267 6.6128-0.51489 13.423 1.9964 18.127 6.7226 4.748 4.6672 7.3255 11.5 6.8324 18.173-0.43408 6.6811-3.9088 13.128-9.3012 17.149l-0.12432 0.10049c-0.78528 0.61124-0.90235 0.73659 0.38228 2.188 0.33877 0.38746 0.68479 0.76974 1.3116 0.52629 0.32737-0.12536 1.1862-0.7024 1.3965-0.88681 5.9891-4.7853 9.7466-12.252 10.019-19.964 0.32738-7.7068-2.8407-15.505-8.5242-20.809m-12.825 130.02c-0.7656-8.1512-5.238-15.846-11.956-20.597-3.3369-2.39-7.2188-4.0331-11.252-4.8113l-10.936-1.841-86.839-14.483-0.60782-0.0923c-0.87738-0.0736-1.4548 0.70344-1.4298 1.4035 0.07003 1.915-0.50059 6.2586 0.57912 6.475l0.21652 0.0373 47.696 7.3176-7.0408 44.441-35.152-5.3957-10.915-1.6717c-3.8008-0.54193-6.8804-1.0219-9.9229-2.5241-5.9962-2.8251-10.666-8.3831-12.409-14.822-1.8122-6.4058-0.65889-13.617 3.0764-19.169 3.6907-5.5903 9.9007-9.4693 16.578-10.284l0.15902-0.0227c0.98295-0.14608 1.1534-0.19466 0.75431-2.0918-0.10598-0.50391-0.21321-1.013-0.87977-1.1088-0.35048-0.0547-1.3812 0.0222-1.6531 0.0777-7.574 1.1857-14.538 5.808-18.599 12.376-4.1022 6.5309-5.2191 14.87-2.9129 22.291 2.2392 7.4366 7.8266 13.795 14.979 16.966 3.5733 1.6949 7.5478 2.1477 11.058 2.7442l10.852 1.809 43.423 7.2447 21.71 3.6207 10.852 1.8122c3.7047 0.52731 7.0137 1.378 11.197 1.6297 8.0745 0.36787 16.214-3.0036 21.758-8.9261 5.5954-5.8971 8.461-14.276 7.6166-22.407"/>
</svg>
