<?xml version="1.0" encoding="UTF-8" standalone="no"?>
<svg xmlns:dc="http://purl.org/dc/elements/1.1/" xmlns:cc="http://creativecommons.org/ns#" xmlns:rdf="http://www.w3.org/1999/02/22-rdf-syntax-ns#" xmlns:svg="http://www.w3.org/2000/svg" xmlns="http://www.w3.org/2000/svg" version="1.1" viewBox="0 0 176 176">
  
  
  <g transform="matrix(0.86363637,0,0,0.86363637,12,15.097814)">
    <path d="m 154.62818,141.05301 c -0.7656,-8.15122 -5.23798,-15.84556 -11.9564,-20.59653 -3.33694,-2.39005 -7.2188,-4.03314 -11.25193,-4.81128 L 120.4839,113.80424 33.644434,99.321325 33.036616,99.229013 c -0.877383,-0.0736 -1.454845,0.703442 -1.429774,1.403467 0.07003,1.91504 -0.500592,6.25855 0.57912,6.47498 l 0.216523,0.0373 47.696316,7.31755 -7.040819,44.44093 -35.151781,-5.39568 -10.914814,-1.67168 c -3.80075,-0.54193 -6.880448,-1.02191 -9.922851,-2.5241 -5.996227,-2.82506 -10.6662789,-8.38308 -12.4092346,-14.82159 -1.81216,-6.40577 -0.6588919,-13.61734 3.076383,-19.16914 3.6907276,-5.59034 9.9006796,-9.46932 16.5779696,-10.2835 l 0.159025,-0.0227 c 0.982951,-0.14608 1.153372,-0.19466 0.754307,-2.09178 -0.105982,-0.50391 -0.213208,-1.01299 -0.879766,-1.10883 -0.350476,-0.0547 -1.381186,0.0222 -1.653135,0.0777 -7.574045,1.1857 -14.5383052,5.808 -18.5985713,12.37643 -4.10222383,6.53092 -5.2191285,14.86986 -2.9129032,22.29132 2.2391966,7.43659 7.8266209,13.7946 14.9794315,16.96568 3.573349,1.69489 7.547835,2.14773 11.057988,2.74415 l 10.851619,1.80896 43.422636,7.24473 21.710275,3.62072 10.85204,1.81218 c 3.70471,0.52731 7.01367,1.37795 11.19702,1.62966 8.07453,0.36787 16.21434,-3.00357 21.75794,-8.92612 5.5954,-5.8971 8.46096,-14.27614 7.61662,-22.40664"/>
    <path d="m 87.459533,74.91553 -0.01757,0.0073 c -6.906967,2.961085 -13.802022,5.890261 -20.815699,8.696774 -1.848938,0.695983 -3.292906,1.396109 -5.654246,2.051687 -2.195374,0.552394 -4.408981,0.721157 -6.555871,0.644286 -4.325273,-0.20637 -8.272513,-1.185697 -12.243683,-2.836039 l -0.03367,-0.01492 C 41.99966,83.3432 43.88952,79.394603 44.720697,77.71515 c 0.309555,-0.619111 0.696499,-1.385231 0.796472,-1.407505 0.02228,-0.0069 0.0546,0.01823 0.0546,0.01823 2.785476,1.539905 6.118889,2.755957 9.293588,3.227439 1.598538,0.231856 3.189721,0.276404 4.71864,0.07397 1.362539,-0.192592 3.362939,-0.829522 5.090148,-1.290126 7.142243,-2.040809 14.295054,-4.249967 21.423102,-6.479017 0.02901,-0.01088 0.168867,0 0.238278,0.06278 0.129499,0.121419 0.32841,0.596838 0.520069,1.071531 0.725195,1.786783 0.717943,1.819935 0.603984,1.92312 z M 167.45275,11.029267 C 161.82419,5.6814544 153.82114,2.9257044 146.03358,3.7223855 142.09266,4.0207524 138.41385,5.5965027 135.07277,6.8200143 L 124.74805,10.628336 83.449202,25.862661 62.801231,33.481378 52.47569,37.28452 c -3.476277,1.378911 -6.769183,2.281264 -10.529943,4.136733 -7.197358,3.679859 -12.593745,10.641754 -14.472312,18.535009 -1.94166,7.893255 -0.272363,16.590133 4.494036,23.235117 4.703204,6.696678 12.398253,11.164416 20.586333,11.959646 4.08803,0.420922 8.272512,-0.07285 12.162772,-1.399423 l 10.409249,-3.818997 82.598945,-30.470513 0.57083,-0.219631 c 0.80082,-0.372959 0.91375,-1.334364 0.54493,-1.931097 -1.00802,-1.627551 -2.66665,-5.679332 -3.71196,-5.333309 l -0.20617,0.0777 L 109.87222,69.342388 93.960393,27.25504 127.15985,14.514358 137.47109,10.555817 c 3.56486,-1.4162073 6.47807,-2.5247231 9.86266,-2.7267424 6.61275,-0.5148901 13.42337,1.9963646 18.12678,6.7225794 4.74796,4.667163 7.32551,11.499559 6.83238,18.173447 -0.43408,6.681139 -3.90881,13.128144 -9.30115,17.148845 l -0.12432,0.100492 c -0.78528,0.611238 -0.90235,0.736593 0.38228,2.188024 0.33877,0.387463 0.68479,0.769745 1.31157,0.526286 0.32737,-0.125355 1.18621,-0.702405 1.39652,-0.886813 5.98908,-4.785266 9.74663,-12.251691 10.01909,-19.963647 0.32738,-7.706777 -2.84069,-15.50472 -8.52415,-20.809021"/>
  </g>
</svg>
