<?xml version="1.0" encoding="UTF-8"?>
<svg version="1.1" viewBox="0 0 192 192" xmlns="http://www.w3.org/2000/svg">
 <path d="m151.82 120.07c1.6542-1.2111 4.6981 1.3694 6.3114 2.9638 0.11253 6e-3 0.20128 0.029 0.23009 0.0926 0.0406 0.0909 0.0936 0.18825 0.1436 0.2843 0.13473 0.13874 0.25878 0.26851 0.35752 0.37523 1.003 1.0826 5.0704 5.392 6.1051 6.7204 0.41391 0.3573 0.81774 0.69539 1.2001 1.0036 1.0416 0.83883-1.4386 2.7402-2.5618 3.5623-1.6268 1.1914-4.5993-1.2866-6.232-2.8857-0.16789-0.0423-0.27696-0.0986-0.30898-0.17075-0.0468-0.10459-0.11086-0.21003-0.17425-0.31504-0.12239-0.12721-0.23577-0.24546-0.32716-0.3445-0.66385-0.71631-1.9035-1.6934-2.9663-2.6569-1.8149-1.2691-3.9323-2.5459-5.4308-3.7523-1.0412-0.83883 2.5304-4.055 3.6536-4.8772m6.5799-9.6998c-1.244-0.49049 1.2071-4.6249 2.0342-5.7441 1.2182-1.649 4.8925-0.0931 6.9079 0.94853 0.1092-0.0277 0.20094-0.0324 0.2473 0.0196 0.0659 0.0747 0.14539 0.15197 0.22159 0.22838 0.16994 0.0922 0.32733 0.17929 0.45305 0.25186 1.2802 0.73424 6.447 3.6362 7.8307 4.5958 0.50125 0.21771 0.98781 0.42005 1.4444 0.6002 1.2441 0.49049-0.55645 3.0445-1.3837 4.1638-1.1983 1.6222-4.7738 0.14258-6.8088-0.89731-0.17276 9e-3 -0.29383-0.012-0.3462-0.0713-0.0757-0.0854-0.16824-0.16691-0.2601-0.24845-0.15458-0.0845-0.29818-0.16435-0.41472-0.23137-0.84728-0.48579-2.3217-1.0493-3.6233-1.6525-2.1107-0.67064-4.5125-1.2585-6.3022-1.9632m18.02-20.224c-0.10122-0.05293-0.21677-0.09648-0.33169-0.14002-0.17455-0.02391-0.33698-0.04696-0.46987-0.0683-0.96467-0.15282-2.543-0.15453-3.9742-0.25442-2.2111 0.12422-4.6648 0.42944-6.5884 0.40767-1.337-0.01537-0.51776-4.7516-0.14322-6.0921 0.55158-1.9743 4.5393-1.8279 6.7932-1.5718 0.0922-0.06489 0.17609-0.1016 0.23795-0.06958 0.0881 0.0461 0.19013 0.09007 0.28866 0.13447 0.19158 0.02561 0.36951 0.05123 0.51294 0.07428 1.4577 0.23052 7.3189 1.1035 8.9532 1.5078 0.54611 0.02519 1.0729 0.04141 1.5638 0.04738 1.3372 0.01537 0.56344 3.0433 0.18859 4.3837-0.54227 1.9423-4.4103 1.8322-6.682 1.5842-0.15825 0.07086-0.27897 0.09391-0.34902 0.05678m-4.0499-25.309c-0.11888 0.12636-0.22108 0.19423-0.30014 0.18698-0.11389-0.0098-0.23713-0.0051-0.35999-0.0013-0.17028 0.04525-0.32917 0.08666-0.45992 0.11825-0.94896 0.23137-2.4057 0.83882-3.7647 1.2982-1.992 0.96774-4.138 2.1963-5.9209 2.9182-1.2398 0.50159-2.3108-4.1839-2.4824-5.5653-0.25297-2.0345 3.4826-3.4377 5.661-4.0708 0.0601-0.09562 0.12325-0.16179 0.19261-0.15624 0.0992 9e-3 0.21012 0.0098 0.31833 0.01281 0.18642-0.05037 0.3605-0.09562 0.50159-0.12935 1.4342-0.34962 7.1783-1.8053 8.8423-2.0627 0.51359-0.1874 1.0055-0.37566 1.4608-0.56007 1.2396-0.50116 1.6937 2.5908 1.8653 3.9721 0.24862 2.0008-3.3624 3.3916-5.5538 4.0392m-13.66-17.62c-0.10373 0.04781-0.20875 0.1127-0.3135 0.17716-0.12589 0.12337-0.24363 0.23777-0.34164 0.32998-0.71072 0.66978-1.6772 1.9176-2.6317 2.9886-1.2538 1.8258-2.5124 3.9538-3.7062 5.4624-0.83012 1.0484-4.0764-2.496-4.9079-3.6123-1.2247-1.6435 1.3297-4.709 2.9106-6.3358 5e-3 -0.11312 0.0273-0.20192 0.0906-0.23094 0.0907-0.04141 0.18757-0.09562 0.28298-0.14642 0.13737-0.13532 0.26646-0.26082 0.37232-0.36029 1.0741-1.0121 5.3489-5.1162 6.6684-6.1621 0.35384-0.41621 0.68869-0.82346 0.99336-1.2085 0.83007-1.0484 2.7524 1.4155 3.5842 2.5318 1.2048 1.6166-1.2475 4.6099-2.833 6.256-0.0409 0.16819-0.0963 0.2779-0.1684 0.31034m-150.68 38.761l0.02391-0.7987c0.01067-0.27619 0.0094-0.51098 0.03031-0.82047l0.07214-0.95195c0.02647-0.31504 0.04738-0.63947 0.08111-0.94597l0.11654-0.89603 0.12209-0.89432 0.16179-0.88877 0.16648-0.88792 0.20618-0.87938 0.21131-0.87852 0.25186-0.867c1.3524-4.624 3.6443-8.9564 6.6726-12.673 3.0257-3.7203 6.7857-6.8301 11.005-9.0952 4.2168-2.2706 8.9022-3.6584 13.655-4.0904l1.7844-0.11867 1.7861-0.03073 3.1986 0.03031 6.393 0.06062c8.2747 0.08623 16.55 0.13959 24.825 0.25442l21.206-9.8281 21.998-10.101 2.7508-1.261 1.375-0.63093 0.34406-0.15752 0.25101-0.1127 0.17417-0.07342 0.0871-0.03671 0.13917-0.05336 0.30223-0.11014c0.21472-0.07897 0.36797-0.11312 0.55324-0.16776 1.4279-0.38035 2.9472-0.37907 4.3619 0.0034 0.70734 0.18996 1.3891 0.47213 2.0217 0.83584l0.23478 0.14044 0.11697 0.07129 0.11782 0.07769 0.0388 0.02689 0.15496 0.10886 0.0773 0.05421 0.12379 0.09306c0.3556 0.26808 0.61472 0.49945 0.87383 0.75729 1.0356 1.0279 1.7805 2.3325 2.1553 3.7301 0.18783 0.69881 0.28388 1.4211 0.28473 2.1412l-0.0282 1.5534-0.15069 6.0511c-0.10117 4.0336-0.23265 8.0677-0.29881 12.102l-0.19381 10.591 0.21985 0.03628c0.60959 0.14343 1.2136 0.31077 1.8185 0.46786 0.5955 0.18911 1.179 0.41536 1.7669 0.6241 0.57715 0.23607 1.1359 0.5161 1.702 0.77479 0.55452 0.28217 1.0851 0.6113 1.6256 0.91694 0.52806 0.32785 1.0267 0.70222 1.5381 1.0527 0.49689 0.37182 0.96048 0.7876 1.4394 1.1808 0.46146 0.41408 0.88791 0.86743 1.3301 1.3003 0.42172 0.4542 0.8066 0.94256 1.212 1.41 0.37868 0.49049 0.72484 1.007 1.0856 1.5103 0.32934 0.52549 0.63029 1.0698 0.94328 1.6042 0.27547 0.55666 0.52614 1.1257 0.79192 1.6862 0.21877 0.58142 0.42355 1.1692 0.63251 1.7541l0.45553 1.8104 0.27316 1.8471 0.0488 0.93274 0.0232 0.46658 0.0112 0.23308 5e-3 0.11654 3e-3 0.05806 1e-3 0.02945 6.4e-4 0.01451c-6.4e-4 0.03714 3e-3 -0.06275-9.8e-4 0.08708l-0.0904 1.7212c-0.0886 0.63606-0.18859 1.2785-0.29049 1.9154l-0.46073 1.8074c-0.2096 0.58398-0.41523 1.1705-0.63465 1.7506-0.26497 0.56007-0.52127 1.1261-0.7996 1.6794-0.31598 0.5319-0.62081 1.0723-0.95182 1.5948-0.35982 0.50202-0.705 1.0177-1.0827 1.5073-0.40354 0.46701-0.79106 0.95195-1.2131 1.4032-0.4434 0.42987-0.8705 0.88024-1.332 1.2909-0.47982 0.39017-0.94341 0.80254-1.4407 1.1709-0.50927 0.35004-1.004 0.72656-1.5295 1.0548-0.53788 0.30693-1.0655 0.63819-1.6175 0.92164-0.56391 0.25997-1.1201 0.54172-1.6952 0.77949-0.58526 0.21173-1.168 0.43627-1.76 0.63392-0.6019 0.1635-1.2038 0.33724-1.8113 0.4875l-0.18741 0.0333 0.35688 10.605 0.20746 6.0498 0.17118 6.0489c0.0589 2.0166 0.0832 4.0332 0.12636 6.0494l0.0145 0.75643 7e-3 0.3778 4e-3 0.1891 2e-3 0.0948-2e-3 0.18186-3e-3 0.1891-1e-3 0.0944-0.0102 0.1605c-0.0154 0.20619-0.0312 0.45079-0.0598 0.61984-0.0495 0.36797-0.12252 0.73381-0.22113 1.0928-0.38889 1.4373-1.1616 2.7718-2.2228 3.8287-0.26381 0.26552-0.54727 0.51183-0.84438 0.73978-0.14514 0.11868-0.30308 0.21942-0.45676 0.327l-0.16222 0.10757-0.0802 0.0504-0.0803 0.05-0.13019 0.0764c-0.20021 0.11654-0.35346 0.19594-0.52422 0.28089-0.16819 0.0832-0.3398 0.15966-0.51311 0.23265-0.34748 0.14386-0.70479 0.26424-1.0681 0.36115-0.73382 0.19465-1.4634 0.29412-2.2471 0.2954-0.72314 3e-3 -1.5005-0.0952-2.2228-0.28772-0.36498-0.0956-0.72357-0.21558-1.0719-0.35773l-0.25997-0.11056-0.22028-0.10032-0.34364-0.15795-1.3737-0.63221-2.7483-1.2644-21.973-10.141-5.4914-2.5391-5.4803-2.5613-10.192-4.7824-1.3562 0.0107-5.5661 23.005-1.6102 6.4229-0.83498 3.2042-0.41749 1.6021-0.21131 0.80041-0.05379 0.20021-0.06659 0.2446-0.03116 0.0986-0.13746 0.42603c-0.08837 0.24682-0.18356 0.49228-0.2843 0.7339-0.09861 0.22326-0.19466 0.40336-0.29668 0.60481-0.21003 0.38684-0.43756 0.76621-0.70308 1.1172-0.51994 0.70849-1.1372 1.343-1.8313 1.8744-1.3887 1.0607-3.0859 1.7059-4.8135 1.8368-0.21515 0.021-0.43115 0.0189-0.64673 0.0249l-0.16136 2e-3 -0.08068 8.1e-4 -0.05251-2e-3 -0.20661-6e-3 -0.82773-0.0268-1.6555-0.055-3.3109-0.11922-6.6218-0.23727-0.55623-0.0217-0.41237-0.0342-0.10544-0.01-0.17716-0.0234-0.35303-0.0538c-0.23265-0.0388-0.4811-0.0802-0.66338-0.13707-0.79699-0.18945-1.5496-0.52763-2.2518-0.93065-0.70137-0.41019-1.325-0.93432-1.88-1.5154-0.55068-0.58782-1.0019-1.2593-1.3737-1.9683-0.36242-0.71669-0.60959-1.4851-0.7654-2.2671-0.05379-0.39444-0.12294-0.78888-0.12337-1.1846l-0.0085-0.29669c-0.0021-0.0977-0.0051-0.20789-0.0017-0.26381l0.01153-0.41408 0.08708-3.3105 0.1541-6.6222 0.58526-25.07-0.56391-0.1016c-0.68891-0.13848-1.3736-0.29472-2.0541-0.46931-0.67874-0.17929-1.3524-0.37694-2.0192-0.59422-0.66551-0.22113-1.3242-0.46104-1.9752-0.7193-0.64929-0.26168-1.2909-0.54214-1.9235-0.84011-0.63093-0.30223-1.2525-0.62197-1.8646-0.95792-0.60959-0.34023-1.2089-0.69796-1.7985-1.0706l-0.87255-0.57629-0.85377-0.60276c-1.4015-1.1616-1.4015-1.1616-0.34748-1.7886 0.62496-0.37224 1.2085-0.78845 1.8202-0.39444l0.03671 0.0235 0.80937 0.5208 0.82431 0.49561c0.55623 0.31888 1.1197 0.62325 1.6913 0.91097 0.57373 0.28345 1.1543 0.55153 1.7421 0.80254 0.58953 0.24674 1.1846 0.47725 1.7861 0.6907 0.60276 0.2096 1.2106 0.40169 1.8232 0.57672 0.61343 0.17075 1.2316 0.324 1.8531 0.46017 0.6224 0.13234 1.2482 0.24418 1.8762 0.34066l0.94427 0.12465 0.94725 0.0956c0.81705 0.0815 1.4646 0.76156 1.4843 1.6034l0.0013 0.0534 0.61813 26.487 0.1541 6.6222 0.08751 3.3105 0.0111 0.41408c4.27e-4 0.0815 0.0073 0.10928 0.01153 0.14941l0.01281 0.11696c0.0017 0.15752 0.05507 0.30523 0.0747 0.4572 0.08837 0.29326 0.19466 0.57757 0.35004 0.83839 0.31162 0.51995 0.77864 0.93697 1.3046 1.194 0.26808 0.11624 0.53745 0.22578 0.82388 0.26079 0.08282 0.0235 0.10971 0.0112 0.14941 0.0164 0.01878 1e-3 0.03714 4e-3 0.05592 8e-3l0.02775 7e-3 0.10117 2e-3 0.41365 7e-3 0.05208 8.1e-4 0.02561 3.5e-4c-0.27577-7e-3 -0.06147-2e-3 -0.11654-4e-3l0.10331-4e-3 0.20704-7e-3 6.6218-0.23747 3.3109-0.11906 1.6555-0.055 0.82773-0.0265 0.20661-7e-3 0.05165-1e-3 0.02262-4e-3 0.04525-7e-3c0.05976-0.0111 0.12081-8e-3 0.17929-0.0227 0.47213-0.079 0.89475-0.30697 1.2448-0.60447 0.17161-0.1541 0.31589-0.33339 0.43414-0.52336 0.06489-0.0918 0.10886-0.19593 0.15624-0.2954l0.05806-0.14258c-0.0021-0.0158 0.0021-0.0282 0.01238-0.0388l1.4262-6.2786 1.518-6.4455 6.2859-25.73 0.0073-0.0337c0.38505-1.5769 1.813-2.7414 3.5064-2.7282l4.9911 0.0393h0.073c0.49561 6e-3 0.9972 0.1191 1.4719 0.3509l10.871 5.3121 5.4312 2.6646 5.421 2.6864 21.675 10.763 2.7077 1.3481 1.3541 0.67447 0.54684 0.26979c0.11611 0.0534 0.23521 0.0986 0.35688 0.13533 0.24972 0.0751 0.47896 0.11824 0.76454 0.12806 0.22412 9e-3 0.5033-0.0141 0.7462-0.07 0.12465-0.0282 0.24801-0.0636 0.3684-0.108 0.0598-0.023 0.11952-0.0465 0.17843-0.0726l0.14642-0.0683c0.0124-7e-3 5e-3 8.5e-4 0.0346-0.0167l0.0815-0.0478 0.0538-0.0312 2e-3 -1e-3 0.0201-0.0132c0.0525-0.0376 0.11313-0.0649 0.16265-0.10672 0.10544-0.0747 0.20746-0.15538 0.3018-0.24417 0.38206-0.35133 0.67363-0.80895 0.83157-1.3122 0.041-0.12508 0.0709-0.254 0.0943-0.38463 0.0192-0.079 0.0124-0.0871 0.0252-0.13105l8e-3 -0.0282 5e-3 -0.0943 0.01-0.18869 0.0303-1.4249c0.0435-2.0162 0.0674-4.0328 0.12679-6.0494l0.17075-6.0489 0.20747-6.0498 0.40767-12.099 8.5e-4 -0.0371c0.029-0.88877 0.70479-1.6456 1.6145-1.7511l1.5564-0.18014 1.5402-0.31717c0.50714-0.13362 1.0032-0.31035 1.5078-0.46147 0.49433-0.17929 0.97415-0.39998 1.4646-0.5955 0.47939-0.21984 0.93786-0.48408 1.4113-0.72228 0.45976-0.25998 0.89475-0.56392 1.3455-0.84353 0.43414-0.30394 0.83754-0.64929 1.2606-0.96988 0.40512-0.34193 0.77821-0.72015 1.1718-1.077 0.37181-0.37736 0.71204-0.78504 1.0723-1.1752 0.33425-0.41152 0.63887-0.84608 0.96271-1.267 0.28917-0.44353 0.5511-0.90456 0.8311-1.3549 0.24063-0.47043 0.46274-0.95067 0.69834-1.4245l0.55678-1.4834 0.40404-1.5295 0.23295-1.492 0.0844-1.6653-5.1e-4 -0.0081-2e-3 -0.02433-3e-3 -0.04952-6e-3 -0.09861-0.0108-0.19722-0.0212-0.39401-0.0397-0.78888-0.25062-1.5598-0.43-1.511-0.56-1.481c-0.23496-0.47341-0.46308-0.94982-0.70619-1.4177-0.28298-0.4478-0.54863-0.90457-0.83943-1.3455-0.32298-0.41963-0.62666-0.85291-0.96006-1.2636-0.35858-0.38974-0.70137-0.79358-1.0736-1.1684-0.39444-0.35389-0.76796-0.72912-1.1739-1.0672-0.42304-0.31803-0.8273-0.65954-1.261-0.96049-0.44866-0.27918-0.87981-0.58483-1.3374-0.84608-0.47042-0.23906-0.92633-0.505-1.4032-0.72656-0.48836-0.19722-0.96561-0.41963-1.4578-0.60062-0.50244-0.15368-0.9972-0.3287-1.5009-0.47085l-1.5329-0.33681-1.5534-0.20106-0.0162-0.0021c-0.8845-0.11355-1.5756-0.86102-1.5927-1.7792l-0.22113-12.102c-0.0662-4.034-0.19764-8.0681-0.29924-12.102l-0.15026-6.0511-0.0346-1.4719c-0.0154-0.28815-0.0683-0.5716-0.15624-0.84224-0.17502-0.543-0.49689-1.0292-0.9067-1.4074-0.81023-0.76199-2.0478-1.0339-3.0766-0.6971-0.0551 0.02134-0.14855 0.04397-0.16862 0.05848-0.0171 0.0081-0.0346 0.01451-0.0525 0.02006-0.0137 0.0055-8e-3 0-0.0376 0.01366l-0.0862 0.0397-0.17161 0.07897-0.0414 0.01878c-0.0111 0.0051-0.0653 0.02988 0.0551-0.02519l-0.0213 0.01067-0.0841 0.04226-0.33852 0.16862-1.3536 0.67618-2.7073 1.3515-21.684 10.803-21.699 10.725c-0.42133 0.20618-0.90841 0.33254-1.4091 0.33937l-0.09306 0.0017c-8.5236 0.11868-17.047 0.1682-25.571 0.25443l-6.393 0.05848-3.1944 0.02945-1.4091 0.05037-1.4027 0.12038c-3.7305 0.40682-7.3539 1.5743-10.622 3.3852-3.2665 1.8147-6.165 4.2863-8.4749 7.2126-2.3124 2.9246-4.0323 6.3008-5.021 9.873l-0.18569 0.66935-0.15325 0.67789-0.15453 0.67746-0.11953 0.68472-0.11995 0.68429-0.08538 0.68984-0.08538 0.68984c-0.0222 0.22283-0.03031 0.43072-0.04781 0.64673-0.13703 1.9026-0.11142 3.7677 0.12764 5.5999 0.22411 1.8377 0.6399 3.6481 1.2269 5.3996 0.29796 0.87383 0.62752 1.7378 1.0109 2.5788 0.19082 0.40938 0.39657 0.86102 0.58995 1.2222l0.14599 0.28473 0.07428 0.14471 0.0969 0.1746 0.38804 0.69881 0.01921 0.0341c2.049 2.992 0.49433 5.6011-1.7114 5.7894-2.3491 0.20063-4.6633 0.36029-5.7894-1.711l-0.38206-0.70221-0.0952-0.17545-0.108-0.21088-0.21643-0.42731c-0.3013-0.58-0.5327-1.1-0.7854-1.66-0.4901-1.103-0.9127-2.235-1.2901-3.381-0.7457-2.296-1.2657-4.667-1.5359-7.062-0.14257-1.196-0.21557-2.4-0.2335-3.603l-0.0055-0.451-0.0021-0.225 6e-3 -0.31"/>
</svg>
