<?xml version="1.0" encoding="UTF-8" standalone="no"?>
<svg
   xmlns:dc="http://purl.org/dc/elements/1.1/"
   xmlns:cc="http://creativecommons.org/ns#"
   xmlns:rdf="http://www.w3.org/1999/02/22-rdf-syntax-ns#"
   xmlns:svg="http://www.w3.org/2000/svg"
   xmlns="http://www.w3.org/2000/svg"
   viewBox="0 0 176 176">
  <metadata
     id="metadata7931">
    <rdf:RDF>
      <cc:Work
         rdf:about="">
        <dc:format>image/svg+xml</dc:format>
        <dc:type
           rdf:resource="http://purl.org/dc/dcmitype/StillImage" />
        <dc:title></dc:title>
      </cc:Work>
    </rdf:RDF>
  </metadata>
  <defs
     id="defs7929" />
  <path
     id="path7923"
     d="m 9.1875,42.794897 c 0,0 -1.9228558,-0.058 -3.90625,0.93164 -1.9833942,0.98962 -4.0914961,3.35696 -4.1445312,7.10351 l 0,0.002 -0.082031,6.29687 c -8.41e-5,0.003 -0.053496,1.94483 0.8847656,3.97266 0.939005,2.02943 3.244721,4.26442 6.921875,4.33008 l 0.041016,0.002 0.039062,-0.002 c 0,0 40.0573896,-0.96968 80.3710936,-2.30469 20.15685,-0.66751 40.37642,-1.42594 55.69922,-2.20117 7.6614,-0.38762 14.09586,-0.77912 18.70898,-1.16797 2.30657,-0.19443 4.15182,-0.38652 5.50782,-0.58594 0.67799,-0.0997 1.22891,-0.19802 1.70507,-0.32031 0.23809,-0.0611 0.45454,-0.12296 0.70508,-0.23047 0.25055,-0.10751 0.5786,-0.16397 1.01563,-0.80078 l 0.002,-0.002 0,-0.002 c 0.99438,-1.45674 2.49253,-3.49753 3.10937,-5.8164 0.30843,-1.15945 0.39755,-2.52885 -0.27148,-3.79493 -0.66903,-1.26608 -2.00261,-2.11741 -3.62305,-2.51953 l -0.20703,-0.0508 -0.21289,-0.004 L 9.1875,42.794897 Z" />
  <path
     id="path7925"
     d="m 7.3554688,93.01365 c -0.00308,-9e-5 -1.7121589,-0.0445 -3.484375,0.83789 -1.7738124,0.88316 -3.6819199,3.02221 -3.75585942,6.32617 l -0.11328125,5.40039 c -1.1693e-4,0.003 -0.06581408,1.72415 0.76171875,3.5293 0.82827322,1.80675 2.93228642,3.80988 6.18945312,3.84958 l 0.039063,0 0.039063,0 c 0,0 34.52956,-1.0119 69.28125,-2.33982 17.375845,-0.66396 34.805049,-1.40552 48.017579,-2.14062 6.60626,-0.36754 12.15547,-0.73446 16.13867,-1.08985 1.9916,-0.17769 3.58641,-0.35035 4.76563,-0.52929 0.58959,-0.0895 1.07042,-0.17799 1.49609,-0.28907 0.21283,-0.0555 0.41016,-0.11163 0.64453,-0.21289 0.23408,-0.10113 0.5462,-0.15244 0.97656,-0.77343 0.86823,-1.25163 2.18887,-3.00865 2.75586,-5.07227 0.2835,-1.03181 0.38126,-2.28211 -0.23437,-3.45508 -0.61563,-1.17297 -1.84908,-1.94521 -3.28907,-2.29492 l -0.20703,-0.0488 -0.21289,-0.004 -139.8066371,-1.69141 -0.00195,0 0,-0.002 z" />
  <path
     id="path7927"
     d="m 9.1894531,141.3633 c 0,0 -1.9238762,-0.059 -3.9082031,0.9316 -1.9843269,0.9901 -4.0915303,3.3596 -4.1445312,7.1113 l -0.082031,6.2969 c -8.41e-5,0 -0.051843,1.9442 0.8867187,3.9707 0.9393059,2.028 3.2434266,4.2606 6.9199219,4.3262 l 0.041016,0 0.039062,0 c 0,0 40.0573896,-0.9696 80.3710936,-2.3047 20.15685,-0.6675 40.37642,-1.426 55.69922,-2.2012 7.6614,-0.3876 14.09586,-0.7791 18.70898,-1.168 2.30657,-0.1944 4.15182,-0.3865 5.50782,-0.5859 0.67799,-0.1 1.22891,-0.198 1.70507,-0.3203 0.23809,-0.061 0.45454,-0.1249 0.70508,-0.2324 0.25055,-0.1075 0.5786,-0.1621 1.01563,-0.7989 l 0.002,0 c 0.99439,-1.4567 2.49253,-3.4994 3.10937,-5.8183 0.30843,-1.1594 0.39755,-2.527 -0.27148,-3.793 -0.66903,-1.2661 -2.00261,-2.1173 -3.62305,-2.5195 l -0.20703,-0.053 -0.21289,0 -162.2617167,-2.8379 0,0 z" />
</svg>
