<?xml version="1.0" encoding="UTF-8"?>
<svg version="1.1" viewBox="0 0 192 192" xmlns="http://www.w3.org/2000/svg">
 <path d="m17.189 133.97s-1.9239-0.059-3.9082 0.9316c-1.9843 0.9901-4.0915 3.3596-4.1445 7.1113l-0.082031 6.2969c-8.41e-5 0-0.051843 1.9442 0.88672 3.9707 0.93931 2.028 3.2434 4.2606 6.9199 4.3262h0.08008s40.057-0.9696 80.371-2.3047c20.157-0.6675 40.376-1.426 55.699-2.2012 7.6614-0.3876 14.096-0.7791 18.709-1.168 2.3066-0.1944 4.1518-0.3865 5.5078-0.5859 0.67799-0.1 1.2289-0.198 1.7051-0.3203 0.23809-0.061 0.45454-0.1249 0.70508-0.2324 0.25055-0.1075 0.5786-0.1621 1.0156-0.7989h2e-3c0.99439-1.4567 2.4925-3.4994 3.1094-5.8183 0.30843-1.1594 0.39755-2.527-0.27148-3.793-0.66903-1.2661-2.0026-2.1173-3.623-2.5195l-0.20703-0.053h-0.21289l-162.26-2.8379zm-1.834-48.35c-0.0031-9e-5 -1.7122-0.0445-3.4844 0.83789-1.7738 0.88316-3.6819 3.0222-3.7559 6.3262l-0.11328 5.4004c-1.17e-4 3e-3 -0.065814 1.7242 0.76172 3.5293 0.82827 1.8068 2.9323 3.8099 6.1895 3.8496h0.07812s34.53-1.0119 69.281-2.3398c17.376-0.66396 34.805-1.4055 48.018-2.1406 6.6063-0.36754 12.155-0.73446 16.139-1.0898 1.9916-0.17769 3.5864-0.35035 4.7656-0.52929 0.58959-0.0895 1.0704-0.17799 1.4961-0.28907 0.21283-0.0555 0.41016-0.11163 0.64453-0.21289 0.23408-0.10113 0.5462-0.15244 0.97656-0.77343 0.86823-1.2516 2.1889-3.0086 2.7559-5.0723 0.2835-1.0318 0.38126-2.2821-0.23437-3.4551s-1.8491-1.9452-3.2891-2.2949l-0.20703-0.0488-0.21289-4e-3 -139.81-1.6914h-2e-3v-2e-3zm1.832-50.219s-1.9229-0.058-3.9062 0.93164c-1.9834 0.98962-4.0915 3.357-4.1445 7.1035v2e-3l-0.082031 6.2969c-8.41e-5 3e-3 -0.053496 1.9448 0.88477 3.9727 0.93901 2.0294 3.2447 4.2644 6.9219 4.3301l0.04102 2e-3 0.03906-2e-3s40.057-0.96968 80.371-2.3047c20.157-0.66751 40.376-1.4259 55.699-2.2012 7.6614-0.38762 14.096-0.77912 18.709-1.168 2.3066-0.19443 4.1518-0.38652 5.5078-0.58594 0.67799-0.0997 1.2289-0.19802 1.7051-0.32031 0.23809-0.0611 0.45454-0.12296 0.70508-0.23047 0.25055-0.10751 0.5786-0.16397 1.0156-0.80078l2e-3 -2e-3v-2e-3c0.99438-1.4567 2.4925-3.4975 3.1094-5.8164 0.30843-1.1594 0.39755-2.5288-0.27148-3.7949s-2.0026-2.1174-3.623-2.5195l-0.20703-0.0508-0.21289-4e-3z"/>
</svg>
