<?xml version="1.0" encoding="UTF-8" standalone="no"?>
<svg viewBox="0 0 176 176" version="1.1">
  <path d="M 88.507812 31.861328 C 84.647524 31.762308 82.897573 33.206334 80.474609 34.148438 C 76.610013 35.655803 5.3984375 64.048828 5.3984375 64.048828 C 1.7453926 66.202178 -0.19013551 64.910871 0.013671875 69.644531 C 0.23296721 74.374341 3.8990413 74.594658 7.7597656 76.744141 C 9.3050911 77.600255 19.416565 82.16978 31.626953 87.582031 L 31.423828 118.05273 C 31.423828 118.05273 32.936371 122.35212 35.951172 123.85938 C 38.958123 125.36674 62.406986 140.4209 88.435547 139.99023 C 114.46762 139.56339 135.81867 130.58485 143.29688 123.85938 C 150.06458 117.76452 148.97541 116.52993 149.02539 112.12695 C 149.04849 109.7506 148.97589 101.01789 148.93359 99.929688 L 148.83789 98.642578 C 148.51488 94.593538 146.69562 93.316136 144.62305 93.666016 C 138.94742 94.631206 133.39808 95.962683 133.49805 100.25391 C 133.54415 101.18833 133.54492 103.72266 133.54492 103.72266 C 133.49882 106.34892 133.49901 110.23686 133.1875 112.24414 C 132.98753 113.51309 133.29224 116.13119 129.41992 118.49609 C 125.54776 120.86874 108.87296 128.37889 91.447266 129.24023 C 74.449237 130.08327 65.20316 127.51664 55.09375 123.85938 C 44.984341 120.20386 40.242836 118.47677 40.035156 111.37695 C 39.827925 104.58648 39.309713 94.67003 39.109375 90.888672 C 55.934234 98.297212 74.285792 106.22219 80.046875 108.36719 C 91.021497 112.45478 96.613281 108.14844 96.613281 108.14844 C 96.613281 108.14844 156.85104 81.044994 163.73438 78.464844 C 163.99747 78.366017 164.24287 78.26358 164.50195 78.164062 L 165.45312 106.86523 C 165.45312 106.86523 165.56004 109.99655 165.64844 110.76172 C 165.92159 113.06116 166.71386 113.98659 168.125 114.49414 C 173.50812 116.42819 175.66615 115.97961 175.91992 111.86914 C 175.95062 111.27699 176 110.73438 176 110.73438 L 175.7832 69.628906 C 175.8072 69.353637 175.81001 69.073581 175.78125 68.785156 C 175.78125 68.785156 175.78125 68.783203 175.78125 68.783203 C 175.34779 64.481214 165.23633 61.474609 165.23633 61.474609 C 165.23633 61.474609 110.15957 38.451625 98.335938 34.148438 C 93.898903 32.534808 90.823986 31.92074 88.507812 31.861328 z M 90.480469 38.878906 C 92.127815 38.923179 94.315582 39.387482 97.470703 40.607422 C 105.89967 43.856725 142.67969 61.541016 142.67969 61.541016 C 142.67969 61.541016 147.06939 63.060291 149.17383 65.365234 C 143.39829 65.51689 91.923828 65.126953 91.923828 65.126953 C 90.924046 65.169153 89.859815 65.153979 88.90625 65.261719 C 87.025871 65.473199 86.102626 66.180517 85.921875 67.341797 C 85.656556 69.018347 85.722515 69.850553 87.191406 70.158203 C 87.814339 70.292843 89.037109 70.453125 89.037109 70.453125 L 141.04492 74.625 C 134.68901 77.291239 90.166016 98.470703 90.166016 98.470703 C 90.166016 98.470703 86.180894 101.72058 78.371094 98.636719 C 70.514478 95.540889 29.650733 79.298094 26.539062 77.208984 C 23.613951 75.236021 22.103516 73.738031 22.103516 71.582031 C 22.103516 68.994141 26.609472 68.046512 29.208984 66.419922 C 29.208984 66.419922 82.01162 41.746139 84.769531 40.607422 C 86.490366 39.898441 87.734892 38.805118 90.480469 38.878906 z" />
</svg>
