<?xml version="1.0" encoding="UTF-8"?>
<svg width="192" height="192" version="1.1" viewBox="0 0 192 192" xmlns="http://www.w3.org/2000/svg">
 <path d="m96.508 41.933c-3.8603-0.09902-5.6102 1.345-8.0332 2.2871-3.8646 1.5074-75.076 29.9-75.076 29.9-3.653 2.1534-5.5886 0.86204-5.3848 5.5957 0.2193 4.7298 3.8854 4.9501 7.7461 7.0996 1.5453 0.85611 11.657 5.4256 23.867 10.838l-0.20312 30.471s1.5125 4.2994 4.5273 5.8066c3.007 1.5074 26.456 16.562 52.484 16.131 26.032-0.42684 47.383-9.4054 54.861-16.131 6.7677-6.0949 5.6785-7.3294 5.7285-11.732 0.0231-2.3764-0.0495-11.109-0.0918-12.197l-0.0957-1.2871c-0.32301-4.049-2.1423-5.3264-4.2148-4.9766-5.6756 0.96519-11.225 2.2967-11.125 6.5879 0.0461 0.93442 0.0469 3.4688 0.0469 3.4688-0.0461 2.6263-0.0459 6.5142-0.35742 8.5215-0.19997 1.269 0.10474 3.887-3.7676 6.252-3.8722 2.3726-20.547 9.8828-37.973 10.744-16.998 0.84304-26.244-1.7236-36.354-5.3808-10.109-3.6555-14.851-5.3826-15.059-12.482-0.20723-6.7905-0.72544-16.707-0.92578-20.488 16.825 7.4085 35.176 15.334 40.938 17.479 10.975 4.0876 16.566-0.21875 16.566-0.21875s60.238-27.103 67.121-29.684c0.26309-0.09883 0.50849-0.20126 0.76757-0.30078l0.95117 28.701s0.10692 3.1313 0.19532 3.8965c0.27315 2.2994 1.0654 3.2249 2.4766 3.7324 5.3831 1.934 7.5412 1.4855 7.7949-2.625 0.0307-0.59215 0.0801-1.1348 0.0801-1.1348l-0.2168-41.105c0.024-0.27527 0.0268-0.55532-2e-3 -0.84375v-2e-3c-0.43346-4.302-10.545-7.3086-10.545-7.3086s-55.077-23.023-66.9-27.326c-4.437-1.6136-7.512-2.2277-9.8281-2.2871zm1.9727 7.0176c1.6473 0.04427 3.8351 0.50858 6.9902 1.7285 8.429 3.2493 45.209 20.934 45.209 20.934s4.3897 1.5193 6.4941 3.8242c-5.7755 0.15166-57.25-0.23828-57.25-0.23828-0.99978 0.0422-2.064 0.02703-3.0176 0.13477-1.8804 0.21148-2.8036 0.9188-2.9844 2.0801-0.26532 1.6766-0.19936 2.5088 1.2695 2.8164 0.62293 0.13464 1.8457 0.29492 1.8457 0.29492l52.008 4.1719c-6.3559 2.6662-50.879 23.846-50.879 23.846s-3.9851 3.2499-11.795 0.16602c-7.8566-3.0958-48.72-19.339-51.832-21.428-2.9251-1.973-4.4355-3.471-4.4355-5.627 0-2.5879 4.506-3.5355 7.1055-5.1621 0 0 52.803-24.674 55.561-25.812 1.7208-0.70898 2.9654-1.8023 5.7109-1.7285z"/>
</svg>
