<?xml version="1.0" encoding="UTF-8"?>
<svg
   xmlns:dc="http://purl.org/dc/elements/1.1/"
   xmlns:cc="http://creativecommons.org/ns#"
   xmlns:rdf="http://www.w3.org/1999/02/22-rdf-syntax-ns#"
   xmlns:svg="http://www.w3.org/2000/svg"
   xmlns="http://www.w3.org/2000/svg"
   viewBox="0 0 176 176">
  <path
     d="m 141.60764,98.376217 c -4.89507,1.949553 -51.442883,24.094333 -51.442883,24.094333 0,0 -3.983748,3.2493 -11.793548,0.16544 -7.856616,-3.09583 -48.720172,-19.33706 -51.831842,-21.42617 -2.925111,-1.972963 -4.436947,-3.472473 -4.436947,-5.628473 0,-2.58789 4.506643,-3.53389 7.106155,-5.16048 0,0 52.803359,-24.675122 55.56127,-25.813839 2.753336,-1.134369 4.287523,-3.253174 12.701178,0 8.428967,3.249303 45.208977,20.933377 45.208977,20.933377 0,0 6.63712,2.295737 7.50216,5.525682 0.83828,3.1532 -3.6761,5.36041 -8.57505,7.30996 m 34.17382,-5.59115 c -0.43066,-4.30301 -10.54395,-7.309964 -10.54395,-7.309964 0,0 -55.07728,-23.02249 -66.90092,-27.325677 -11.832092,-4.303011 -13.985445,-1.507365 -17.862186,0 -3.864596,1.507365 -75.0760907,29.900551 -75.0760907,29.900551 -3.6530449,2.15335 -5.58727901,0.86136 -5.38347163,5.59502 0.21929533,4.72981 3.88378013,4.94893 7.74450443,7.098413 3.8799079,2.14948 61.2601329,27.51752 72.2882599,31.62358 10.974622,4.08759 16.565597,-0.21918 16.565597,-0.21918 0,0 60.237577,-27.10216 67.120917,-29.68231 6.87929,-2.584033 12.47818,-5.379603 12.04734,-9.682613" />
  <path
     d="m 133.5451,127.72238 c -0.0461,2.62626 -0.0461,6.51391 -0.35761,8.52119 -0.19997,1.26895 0.10382,3.88765 -3.7685,6.25255 -3.87216,2.37265 -20.54618,9.88255 -37.971883,10.74389 -16.998029,0.84304 -26.24504,-1.72304 -36.35445,-5.3803 -10.109409,-3.65551 -14.850834,-5.38207 -15.058514,-12.48189 -0.249919,-8.18925 -1.077116,-23.44488 -1.077116,-23.44488 l -7.312778,-3.0096 -0.219999,33.13014 c 0,0 1.511201,4.29914 4.526002,5.8064 3.006951,1.50737 26.456239,16.56173 52.4848,16.13106 26.032078,-0.42684 47.382578,-9.40559 54.860788,-16.13106 6.76771,-6.09486 5.67951,-7.32914 5.72949,-11.73212 0.0231,-2.37635 -0.05,-11.10909 -0.0923,-12.19729 l -0.0961,-1.28818 c -0.32301,-4.04904 -2.14191,-5.32574 -4.21448,-4.97586 -5.67563,0.96519 -11.22454,2.29574 -11.12457,6.58696 0.0461,0.93442 0.0461,3.46842 0.0461,3.46842" />
  <path
     d="m 165.45205,130.86573 -1.06832,-32.267753 11.39597,-5.80974 0.22,41.945953 c 0,0 -0.05,0.54215 -0.0807,1.1343 -0.25377,4.11047 -2.41084,4.56032 -7.79396,2.62627 -1.41114,-0.50755 -2.20316,-1.43422 -2.47631,-3.73366 -0.0884,-0.76517 -0.1961,-3.89504 -0.1961,-3.89504" />
  <path
     d="m 89.0366,94.453197 59.63566,4.78366 c 0,0 7.30996,-0.86134 8.17517,-4.08759 0.85751,-3.22237 -6.66774,-5.80252 -6.66774,-5.80252 -1.50734,0.21148 -58.255819,-0.21917 -58.255819,-0.21917 -0.999782,0.0422 -2.065001,0.0269 -3.018566,0.13464 -1.880379,0.21148 -2.803144,0.91903 -2.983895,2.08031 -0.265319,1.67655 -0.199953,2.50711 1.268938,2.81476 0.622933,0.13464 1.845707,0.29608 1.845707,0.29608" />
</svg>