<?xml version="1.0" encoding="UTF-8" standalone="no"?>
<svg
   xmlns:dc="http://purl.org/dc/elements/1.1/"
   xmlns:cc="http://creativecommons.org/ns#"
   xmlns:rdf="http://www.w3.org/1999/02/22-rdf-syntax-ns#"
   xmlns:svg="http://www.w3.org/2000/svg"
   xmlns="http://www.w3.org/2000/svg"
   version="1.1"
   id="svg11962"
   viewBox="0 0 176 176">
  <metadata
     id="metadata11970">
    <rdf:RDF>
      <cc:Work
         rdf:about="">
        <dc:format>image/svg+xml</dc:format>
        <dc:type
           rdf:resource="http://purl.org/dc/dcmitype/StillImage" />
        <dc:title></dc:title>
      </cc:Work>
    </rdf:RDF>
  </metadata>
  <defs
     id="defs11968" />
  <g
     transform="matrix(1.0998778,0,0,1.0998778,19.919425,8.0843396)"
     style="fill:#000000"
     id="g14963">
    <g
       style="fill:#000000"
       id="g4310"
       transform="matrix(1.25,0,0,-1.25,119.66019,94.331193)">
      <path
         d="m 0,0 c -4.24,-3.878 -9.706,-11.619 -13.08,-17.002 -6.327,-10.094 -10.199,-21.119 -31.986,-21.1 -9.83,0.009 -14.06,-0.105 -20.514,5.114 -6.458,5.218 -12.748,18.595 -17.845,23.982 -3.454,3.652 -8.751,8.342 -11.628,13.185 8.859,0.32 16.276,1.886 18.338,2.36 0.931,-10.189 1.673,-18.576 1.764,-20.352 0.231,-4.505 2.071,-4.476 3.322,-4.771 1.819,-0.429 3.812,-0.985 3.501,2.096 -0.385,3.814 -5.714,62.112 -6.342,68.153 6.14,0.558 14.103,0.261 24.622,0.189 19.62,-0.135 25.599,-1.791 32.445,-3.474 -0.587,-5.492 -5.03,-47.433 -5.877,-65.285 -0.08,-1.688 0.18,-2.422 1.641,-2.92 1.337,-0.456 2.105,-0.534 2.28,1.339 0.074,0.8 1.215,13.655 2.513,26.378 C -12.183,5.335 -1.297,3.063 2.045,2.406 1.477,1.526 0.799,0.73 0,0 m -94.553,41.455 c 2.632,4.846 6.374,7.77 13.718,9.3 0.283,-3.001 2.038,-21.594 3.561,-38.119 -4.91,-1.337 -16.205,-3.323 -19.625,-3.911 -0.058,0.293 -0.118,0.587 -0.147,0.879 -0.311,3.183 -1.113,25.21 2.493,31.851 M 0.929,33.781 C 3.538,21.971 4.711,14.23 4.125,8.797 l -20.31,5.417 c 0.088,0.815 0.175,1.623 0.263,2.416 1.39,12.619 3.411,26.469 3.977,30.275 0.38,-0.109 0.761,-0.218 1.15,-0.331 9.343,-2.691 10.183,-5.817 11.724,-12.793 M 9.052,8.834 C 9.088,17.532 8.669,29.941 7.518,37.998 6.366,46.055 4.829,49.51 -5.722,52.58 c -10.553,3.07 -19.377,4.219 -45.086,4.219 -27.526,0 -42.026,-2.642 -47.39,-13.428 -3.826,-7.692 -3.261,-31.08 -3.261,-34.726 0,-3.649 0.804,-6.044 2.303,-7.676 3.682,-4.011 6.642,-7.185 9.977,-10.744 5.753,-6.14 10.908,-24.005 18.992,-29.93 11.66,-8.544 28.353,-8.388 41.828,-4.029 12.327,3.987 15.732,17.843 18.416,23.023 2.687,5.18 9.978,14.965 14.772,19.379 4.798,4.414 4.212,7.476 4.223,10.166"
         style="fill:#000000;fill-opacity:1;fill-rule:nonzero;stroke:none"
         id="path4312" />
    </g>
    <g
       style="fill:#000000"
       id="g4314"
       transform="matrix(1.25,0,0,-1.25,70.165553,45.439573)">
      <path
         d="m 0,0 -4.157,-3.76 c -1.287,-1.212 -2.705,-2.705 -1.537,-3.636 1.508,-1.204 2.767,-2.36 2.767,-2.36 1.446,-1.264 2.905,-1.344 4.239,-0.057 L 3.297,-7.9 c -0.498,1.234 -0.232,2.697 0.781,3.673 1.337,1.286 3.46,1.247 4.746,-0.085 1.288,-1.334 1.249,-3.458 -0.084,-4.749 -1.013,-0.972 -2.481,-1.187 -3.697,-0.648 0,0 -2.396,-1.923 -2.899,-3.266 -0.586,-1.994 1.059,-3.433 3.019,-5.478 0.719,-0.746 1.305,-0.651 2.819,0.652 4.814,4.145 11.687,9.659 5.069,17.565 C 9.777,3.674 3.666,3.539 0,0"
         style="fill:#000000;fill-opacity:1;fill-rule:nonzero;stroke:none"
         id="path4316" />
    </g>
    <g
       style="fill:#000000"
       id="g4318"
       transform="matrix(1.25,0,0,-1.25,53.867933,85.947323)">
      <path
         d="m 0,0 c -2.253,-2.176 -5.845,-2.111 -8.016,0.139 -2.18,2.256 -2.114,5.845 0.142,8.019 2.253,2.178 5.843,2.112 8.016,-0.142 C 2.317,5.762 2.252,2.174 0,0 m 15.34,12.975 c -0.47,0.347 -1.092,0.781 -1.808,0.089 C 10.908,10.526 5.564,5.371 5.564,5.371 5.24,7.07 4.436,8.697 3.146,10.031 c -3.54,3.67 -9.382,3.772 -13.052,0.235 -3.667,-3.543 -3.775,-9.385 -0.234,-13.055 3.54,-3.67 9.385,-3.773 13.052,-0.231 0,0 9.63,9.301 13.355,12.901 1.044,1.009 0.862,1.769 -0.927,3.094"
         style="fill:#000000;fill-opacity:1;fill-rule:nonzero;stroke:none"
         id="path4320" />
    </g>
    <g
       style="fill:#000000"
       id="g4322"
       transform="matrix(1.25,0,0,-1.25,50.662303,66.281823)">
      <path
         d="m 0,0 c 1.512,-0.652 2.665,-1.295 3.758,-0.324 1.093,0.97 5.274,5.041 5.274,5.041 1.105,1.043 0.819,1.678 -0.88,2.937 -0.448,0.33 -0.957,0.643 -1.716,0.082 0,0 -6.538,-5.689 -6.78,-5.9 C -1.222,1.074 -0.809,0.35 0,0"
         style="fill:#000000;fill-opacity:1;fill-rule:nonzero;stroke:none"
         id="path4324" />
    </g>
  </g>
</svg>
