<?xml version="1.0" encoding="UTF-8"?>
<svg width="192" height="192" version="1.1" viewBox="0 0 192 192" xmlns="http://www.w3.org/2000/svg">
 <path d="m81.69 68.341c2.407 1.0379 4.2425 2.0615 5.9825 0.51578 1.74-1.5442 8.3958-8.0249 8.3958-8.0249 1.7591-1.6604 1.3038-2.6713-1.4009-4.6755-0.71319-0.52534-1.5235-1.0236-2.7318-0.13054 0 0-10.408 9.0565-10.793 9.3924-1.3977 1.213-0.74025 2.3656 0.54762 2.9228m4.0825 25.045c-3.5866 3.464-9.3048 3.3606-12.761-0.22128-3.4704-3.5914-3.3653-9.3048 0.22605-12.766 3.5866-3.4672 9.3016-3.3622 12.761 0.22605 3.4624 3.5882 3.359 9.3-0.22606 12.761m24.42-20.655c-0.7482-0.5524-1.7384-1.2433-2.8782-0.14168-4.1772 4.0403-12.684 12.247-12.684 12.247-0.51579-2.7047-1.7957-5.2948-3.8493-7.4184-5.6354-5.8424-14.935-6.0048-20.778-0.3741-5.8376 5.6402-6.0095 14.94-0.37251 20.783 5.6354 5.8424 14.94 6.0063 20.778 0.36774 0 0 15.33-14.807 21.26-20.537 1.662-1.6063 1.3722-2.8161-1.4757-4.9254m-3.6645-30.933-6.6176 5.9856c-2.0488 1.9294-4.3062 4.3062-2.4468 5.7883 2.4006 1.9167 4.4049 3.757 4.4049 3.757 2.3019 2.0122 4.6246 2.1396 6.7482 0.09074l3.16-3.0454c-0.79278-1.9644-0.36932-4.2934 1.2433-5.8472 2.1284-2.0472 5.5081-1.9851 7.5553 0.13531 2.0504 2.1236 1.9883 5.5049-0.13372 7.5601-1.6126 1.5474-3.9496 1.8896-5.8854 1.0316 0 0-3.8143 3.0613-4.615 5.1992-0.93288 3.1743 1.6858 5.4651 4.806 8.7206 1.1446 1.1876 2.0775 1.0363 4.4876-1.0379 7.6635-6.5985 18.605-15.376 8.0695-27.962-5.212-6.2244-14.94-6.0095-20.776-0.37569m63.034 62.266c-6.7498 6.1735-15.451 18.497-20.822 27.066-10.072 16.069-16.236 33.62-50.919 33.59-15.649-0.0143-22.382 0.16715-32.657-8.1411-10.281-8.3067-20.294-29.602-28.408-38.178-5.4985-5.8137-13.931-13.28-18.511-20.99 14.103-0.50942 25.91-3.0024 29.193-3.757 1.4821 16.22 2.6633 29.572 2.8082 32.399 0.36773 7.1716 3.2969 7.1255 5.2884 7.5951 2.8957 0.68294 6.0684 1.568 5.5733-3.3367-0.61289-6.0716-9.0963-98.878-10.096-108.49 9.7744-0.8883 22.451-0.4155 39.196-0.30088 31.234 0.21491 40.752 2.8512 51.65 5.5304-0.93446 8.7429-8.0074 75.51-9.3558 103.93-0.12736 2.6872 0.28654 3.8556 2.6124 4.6484 2.1284 0.72592 3.351 0.85009 3.6296-2.1316 0.1178-1.2735 1.9342-21.738 4.0005-41.992 7.4232 4.0706 24.753 7.6874 30.073 8.7333-0.90421 1.4009-1.9835 2.6681-3.2555 3.8302m-150.52-65.993c4.19-7.7145 10.147-12.369 21.838-14.805 0.45051 4.7774 3.2444 34.376 5.6689 60.683-7.8164 2.1284-25.797 5.29-31.242 6.226-0.0923-0.46644-0.18784-0.93446-0.23401-1.3993-0.4951-5.0671-1.7718-40.133 3.9687-50.705m152 12.216c4.1533 18.801 6.0207 31.124 5.0878 39.773l-32.332-8.6235c0.14009-1.2974 0.27859-2.5837 0.41868-3.8461 2.2128-20.089 5.4301-42.137 6.3311-48.196 0.60494 0.17352 1.2115 0.34704 1.8307 0.52693 14.873 4.2839 16.211 9.2602 18.664 20.366m12.931 39.714c0.0574-13.847-0.60972-33.601-2.442-46.427-1.8339-12.826-4.2807-18.326-21.077-23.214-16.8-4.8872-30.847-6.7163-71.774-6.7163-43.819 0-66.902 4.2059-75.441 21.376-6.0907 12.245-5.1913 49.477-5.1913 55.281 0 5.8089 1.2799 9.6216 3.6662 12.22 5.8615 6.3852 10.574 11.438 15.883 17.104 9.1584 9.7744 17.365 38.214 30.234 47.646 18.562 13.601 45.136 13.353 66.587 6.4139 19.624-6.347 25.044-28.405 29.317-36.651 4.2775-8.2462 15.884-23.823 23.516-30.85 7.6381-7.0268 6.7052-11.901 6.7227-16.184"/>
</svg>
