<?xml version="1.0" encoding="UTF-8" standalone="no"?>
<svg xmlns:dc="http://purl.org/dc/elements/1.1/" xmlns:cc="http://creativecommons.org/ns#" xmlns:rdf="http://www.w3.org/1999/02/22-rdf-syntax-ns#" xmlns:svg="http://www.w3.org/2000/svg" xmlns="http://www.w3.org/2000/svg" viewBox="0 0 176 176" version="1.1">
  <path d="M 88.412109 12 C 86.170629 12.040505 84.128372 14.438921 82.447266 17.925781 C 79.46522 24.122514 50.337745 73.048307 44.101562 83.822266 C 41.358692 88.568516 37.650391 92.495026 37.650391 101.76367 C 37.650391 111.0314 35.296475 150.16604 35.037109 151.60938 L 35.033203 152.02734 C 34.866409 158.47853 34.199809 159.74294 35.935547 160.99805 C 43.582664 166.52548 44.230613 159.03324 44.335938 157.07812 L 44.169922 152.55664 C 44.169922 152.55664 43.642578 108.78008 43.642578 104.16992 C 43.642578 99.557536 44.956841 95.331509 50.041016 86.308594 C 53.789897 79.641873 67.736533 55.708375 75.796875 41.496094 C 83.414345 39.695443 90.805724 40.036841 97.490234 41.710938 C 106.62431 57.382453 121.77325 83.104112 124.5625 88.230469 C 124.63704 88.367384 124.70471 88.47783 124.77734 88.607422 C 124.01087 88.307472 123.27344 88.033203 123.27344 88.033203 C 93.284064 78.277339 65.378975 84.896108 46.701172 98.884766 L 47.210938 103.49609 C 49.995496 101.28642 53.167478 99.218617 56.761719 97.335938 C 81.416768 84.438342 108.27625 89.11962 125.64844 98.125 L 126.875 98.761719 C 128.43696 99.515062 129.0696 98.786026 129.24023 97.814453 C 129.5191 99.842336 129.64453 102.71999 129.64453 107.24219 L 129.64453 157.29883 L 129.61523 159.2832 C 129.77098 163.35578 130.85713 164.15403 132.44141 163.97852 C 136.76636 163.47794 141.10438 163.69243 141.20312 160.44531 L 141.23242 159.36523 L 141.23242 108.85352 C 141.23242 91.17187 139.62416 94.385103 135.0293 86.119141 C 130.43443 77.851054 98.292189 24.582164 93.927734 16.779297 C 92.019247 13.362617 90.155483 11.968496 88.412109 12 z "/>
</svg>
