<?xml version="1.0" encoding="UTF-8"?>
<svg width="192" height="192" version="1.1" viewBox="0 0 192 192" xmlns="http://www.w3.org/2000/svg">
 <path d="m96.477 8.0006c-2.5954 0.046894-4.9601 2.824-6.9066 6.8614-3.4529 7.1751-37.179 63.826-44.4 76.301-3.1759 5.4956-7.4697 10.042-7.4697 20.774 0 10.731-2.7256 56.044-3.0259 57.716l-0.0045 0.48395c-0.19313 7.4697-0.96498 8.9338 1.0448 10.387 8.8545 6.4001 9.6047-2.275 9.7267-4.5388l-0.19223-5.2354s-0.6106-50.688-0.6106-56.026c0-5.3406 1.5218-10.234 7.4087-20.681 4.3408-7.7193 20.489-35.432 29.822-51.888 8.8202-2.0849 17.379-1.6896 25.118 0.24876 10.576 18.146 28.117 47.929 31.347 53.864 0.0863 0.15853 0.16466 0.28641 0.24876 0.43646-0.88748-0.34731-1.7413-0.66488-1.7413-0.66488-34.724-11.296-67.035-3.6324-88.662 12.565l0.59025 5.3394c3.2242-2.5585 6.897-4.9528 11.059-7.1327 28.548-14.934 59.648-9.5136 79.763 0.91364l1.4202 0.73724c1.8086 0.87228 2.5411 0.0281 2.7387-1.0968 0.3229 2.3481 0.46814 5.68 0.46814 10.916v57.96l-0.0339 2.2977c0.18034 4.7156 1.438 5.6399 3.2724 5.4366 5.0078-0.57961 10.031-0.33125 10.145-4.091l0.0339-1.2506v-58.487c0-20.473-1.8622-16.753-7.1825-26.324-5.3203-9.5735-42.537-71.253-47.591-80.288-2.2098-3.9561-4.3678-5.5704-6.3865-5.5339z"/>
</svg>
