<?xml version="1.0" encoding="UTF-8" standalone="no"?>
<svg
   xmlns:dc="http://purl.org/dc/elements/1.1/"
   xmlns:cc="http://creativecommons.org/ns#"
   xmlns:rdf="http://www.w3.org/1999/02/22-rdf-syntax-ns#"
   xmlns:svg="http://www.w3.org/2000/svg"
   xmlns="http://www.w3.org/2000/svg"
   height="176"
   width="176"
   version="1.1"
   id="svg2"
   viewBox="0 0 176 176">
  <metadata
     id="metadata16699">
    <rdf:RDF>
      <cc:Work
         rdf:about="">
        <dc:format>image/svg+xml</dc:format>
        <dc:type
           rdf:resource="http://purl.org/dc/dcmitype/StillImage" />
        <dc:title></dc:title>
      </cc:Work>
    </rdf:RDF>
  </metadata>
  <defs
     id="defs16697" />
  <g
     transform="translate(6.7205865e-7,-12.000086)"
     id="g9262">
    <path
       d="M 104.83918,56.174787 C 95.217094,52.089029 83.348048,50.574907 71.160823,54.851678 l 2.503713,-4.774824 c 8.492003,-2.727589 17.905613,-3.407839 27.593524,-1.279333 z"
       id="path9242" />
    <path
       d="m 35.037353,163.60763 -0.0044,0.41952 c -0.166794,6.45119 -0.833871,7.71512 0.901867,8.97023 7.647117,5.52743 8.296623,-1.96384 8.401948,-3.91896 l -0.166794,-4.52251 c 0,0 -0.526629,-43.77618 -0.526629,-48.38634 0,-4.61239 1.314384,-8.8386 6.398559,-17.861515 5.077598,-9.029607 28.982233,-49.931169 31.426676,-55.116292 2.444443,-5.187352 5.830241,-7.489138 9.40913,-0.960639 3.572313,6.530221 29.9214,51.083227 33.68461,57.999626 3.76322,6.91195 5.08198,4.22398 5.08198,19.01134 v 50.05622 l -0.0284,1.98583 c 0.15575,4.07258 1.24196,4.86916 2.82624,4.69365 4.32495,-0.50058 8.66308,-0.28576 8.76183,-3.53288 l 0.0284,-1.0796 v -50.51262 c 0,-17.68165 -1.60841,-14.46695 -6.20327,-22.732912 C 130.43423,89.851691 98.292229,36.583009 93.927774,28.780142 89.565517,20.970588 85.435861,23.726651 82.447228,29.925513 79.465182,36.122246 50.338123,85.048391 44.101941,95.82235 c -2.74287,4.74625 -6.451222,8.6719 -6.451222,17.94055 0,9.26876 -2.354479,48.41056 -2.613406,49.84565"
       id="path9244" />
    <path
       d="m 76.564558,49.781264 c 0,0 10.054178,-19.487405 11.291751,-18.868562 1.235385,0.619146 5.955277,5.490035 7.03705,7.965202 1.086171,2.470708 4.643092,11.752533 4.643092,11.752533 0,0 -8.974593,-0.772159 -14.078488,-0.307039 -5.103884,0.463093 -9.742588,1.237583 -8.893405,-0.542134"
       id="path9246" />
    <path
       d="m 125.64933,110.12554 c -17.37219,-9.00538 -44.2325,-13.687996 -68.887549,-0.7904 -3.594241,1.88268 -6.767189,3.9519 -9.551747,6.16157 l -0.509098,-4.61238 c 18.677803,-13.988658 46.58259,-20.606634 76.571964,-10.85077 0,0 1.74226,0.62117 2.609,1.02255 2.8416,1.18925 2.78236,3.73687 3.36385,7.4781 0.2128,1.36921 -0.14044,3.30245 -2.36983,2.2272 l -1.22662,-0.63637 z"
       id="path9248" />
  </g>
</svg>
