<?xml version="1.0" encoding="UTF-8" standalone="no"?>
<svg xmlns:dc="http://purl.org/dc/elements/1.1/" xmlns:cc="http://creativecommons.org/ns#" xmlns:rdf="http://www.w3.org/1999/02/22-rdf-syntax-ns#" xmlns:svg="http://www.w3.org/2000/svg" xmlns="http://www.w3.org/2000/svg" version="1.1" viewBox="0 0 176 176">
  
  
  <g transform="matrix(1.2159175,0,0,1.2159175,6.3892659,59.190141)">
    <g transform="matrix(1.25,0,0,-1.25,47.203452,-26.81361)">
      <path d="m 0,0 c 6.059,2.681 14.93,4.217 25.584,2.007 21.739,-4.509 37.222,-24.653 35.473,-47.413 -1.895,-24.746 -23.505,-43.273 -48.252,-41.367 -20.104,1.529 -36.042,15.782 -40.382,34.721 -0.248,1.081 -0.551,1.186 -1,1.396 0,0 -1.288,0.553 -2.03,0.756 -0.652,0.178 -1.34,0.041 -1.785,-0.508 -0.723,-0.73 -0.43,-1.25 -0.18,-2.361 7.553,-33.628 38.772,-42.534 62.361,-35.295 18.659,5.727 33.036,23.073 35.687,41.984 1.634,11.661 -1.13,23.323 -7.645,32.844 -2.312,3.375 -5.036,6.385 -8.115,9.021 C 46.932,-1.831 40.179,2.843 34.313,5.111 23.715,9.209 11.584,11.041 -2.209,7.269 -6.777,6.02 -6.296,2.885 -3.261,-0.188 -2.82,-0.634 -1.651,-0.73 0,0"/>
    </g>
    <g transform="matrix(1.25,0,0,-1.25,59.875582,25.31714)">
      <path d="m 0,0 c -3.507,-0.239 -28.25,-0.995 -34.888,-0.127 -2.724,0.356 -4.003,1.051 -4.047,3.082 -0.19,8.884 7.143,24.009 16.456,29.323 3.042,1.736 3.854,1.123 5.593,-1.462 C -15.609,28.918 -0.754,6.796 2.045,2.641 3.792,0.047 1.334,0.091 0,0 m 5.29,5.135 c -5.452,8.095 -22.005,34.005 -22.657,35.079 -0.805,1.328 -2.945,2.895 -5.56,0.615 -2.615,-2.28 -11.486,-9.392 -15.959,-18.7 -7.989,-16.624 -5.614,-25.254 -1.75,-25.254 6.504,0 40.802,0.076 44.074,0.076 2.11,0 4.354,-0.337 4.852,2.129 0.354,1.751 -0.943,3.001 -3,6.055"/>
    </g>
  </g>
</svg>
