<?xml version="1.0" encoding="UTF-8"?>
<svg width="192" height="192" version="1.1" viewBox="0 0 192 192" xmlns="http://www.w3.org/2000/svg">
 <path d="m85.802 98.045c-6.1719 0.42061-49.717 1.7511-61.399 0.2235-4.7939-0.62652-7.0448-1.8496-7.1222-5.424-0.33438-15.635 12.571-42.253 28.961-51.605 5.3536-3.0552 6.7826-1.9763 9.843 2.5729 2.2474 3.3403 28.39 42.272 33.316 49.585 3.0745 4.5651-1.2513 4.4877-3.599 4.6478m9.3098-9.037c-9.5949-14.246-38.726-59.845-39.874-61.735-1.4167-2.3371-5.1828-5.0949-9.7849-1.0823-4.6021 4.0125-20.214 16.529-28.086 32.91-14.06 29.256-9.88 44.444-3.0798 44.444 11.446 0 71.807-0.13375 77.565-0.13375 3.7133 0 7.6625 0.59307 8.5389-3.7468 0.623-3.0816-1.6596-5.2814-5.2796-10.656m-27.151-64.358c10.663-4.7182 26.275-7.4214 45.025-3.5321 38.258 7.9353 65.506 43.386 62.428 83.441-3.335 43.55-41.366 76.155-84.918 72.801-35.381-2.6909-63.43-27.774-71.067-61.105-0.43645-1.9024-0.96969-2.0872-1.7599-2.4568 0 0-2.2667-0.97322-3.5726-1.3305-1.1474-0.31326-2.3582-0.0721-3.1414 0.89402-1.2724 1.2847-0.75675 2.1998-0.31678 4.1551 13.292 59.181 68.234 74.855 109.75 62.115 32.838-10.079 58.139-40.606 62.805-73.887 2.8756-20.522-1.9887-41.046-13.454-57.802-4.0688-5.9396-8.8628-11.237-14.281-15.876-4.8995-4.1956-16.784-12.421-27.107-16.413-18.651-7.212-40-10.436-64.274-3.7978-8.0391 2.1981-7.1926 7.7153-1.8514 13.123 0.77611 0.78491 2.8334 0.95386 5.739-0.33086"/>
</svg>
