<?xml version="1.0" encoding="UTF-8" standalone="no"?>
<svg xmlns:dc="http://purl.org/dc/elements/1.1/" xmlns:cc="http://creativecommons.org/ns#" xmlns:rdf="http://www.w3.org/1999/02/22-rdf-syntax-ns#" xmlns:svg="http://www.w3.org/2000/svg" xmlns="http://www.w3.org/2000/svg" version="1.1" viewBox="0 0 176 176">
  
  
  <g transform="translate(-2.045026e-8,-24.000001)">
    <path d="m 169.41923,171.52076 c -2.56223,-0.83958 -2.92151,-1.58271 -2.92151,-3.53417 l 0.97951,-46.89544 c -7.26691,-5.90543 -3.64764,-49.179705 -1.32745,-59.950529 2.05357,-9.551164 5.22847,-5.907312 5.22847,-3.290244 l -0.0133,63.231323 0.9814,46.90489 c 0,1.95146 0.80176,4.74816 -2.92719,3.53417 m 6.58049,0.48788 -1.9004,-50.35021 0.0265,-67.875476 c 0,-2.813726 -6.16826,-6.722311 -10.16005,3.534175 -4.49288,11.555567 -13.97408,58.010421 0.13994,64.348871 l -1.30664,48.70129 c 0,2.0895 1.36527,4.42481 7.52597,5.43458 5.81654,0.94736 5.67472,-1.69807 5.67472,-3.79323"/>
    <path d="m 18.934627,91.487352 c -1.1535,0.722358 -2.426132,2.32591 -2.40344,5.306103 l 1.597881,68.812855 c -0.06997,2.81567 -0.603225,3.2922 -2.600102,4.13369 -1.669738,0.70155 -2.418568,-0.96629 -2.418568,-2.9556 l 0.113456,-69.990945 c 0.0208,-2.980193 -1.259394,-4.583745 -2.405329,-5.306103 -12.2176415,-5.40821 -7.0004185,-36.753148 4.056157,-36.753148 11.062251,0 16.27569,31.344938 4.05994,36.753148 M 16.899925,50.75558 c -15.7575595,0 -24.8569695,35.145813 -7.4447975,41.208305 1.6413715,0.807443 2.6322465,2.605767 2.5982085,5.943348 l -0.618351,73.311517 c 0,2.23135 3.21467,5.26449 5.46494,4.04292 2.547154,-1.38609 4.640472,-1.81157 4.640472,-7.68685 L 19.257981,94.265207 c -0.03215,0.304445 1.78887,-1.493879 3.430243,-2.301322 C 40.100394,85.901393 32.66694,50.75558 16.899925,50.75558"/>
    <path d="m 127.15126,160.71022 c 0,0 -27.00106,17.47059 -56.00463,5.9641 C 31.513956,150.93205 30.029546,113.1979 36.971286,93.386303 46.100836,67.311826 75.692502,46.127379 110.83982,56.071948 c 30.10033,8.526347 41.24188,39.256375 36.86619,62.579502 -2.83077,15.03502 -9.67983,23.50843 -10.81819,25.22353 -1.94769,2.88939 -2.9499,2.61899 -3.81975,-0.01 -0.28742,-0.87362 0.29499,-1.35015 1.97039,-3.78949 4.89948,-7.05517 10.65557,-22.81445 6.28934,-39.24313 C 137.68769,87.068052 131.07878,77.582987 120.3627,69.657966 106.76858,59.596157 80.493654,53.287908 58.223796,69.777095 c -24.25348,17.956575 -21.30736,46.958255 -13.3256,62.982275 12.89447,25.81162 40.958227,30.38397 55.853334,27.73283 7.76429,-1.39552 13.15543,-3.8878 21.50213,-7.85505 2.23512,-1.05893 3.4529,-0.60699 3.9351,0.55406 1.35392,3.23166 3.19005,6.17966 0.9625,7.51846"/>
  </g>
</svg>
