<?xml version="1.0" encoding="UTF-8"?>
<svg width="192" height="192" version="1.1" viewBox="0 0 192 192" xmlns="http://www.w3.org/2000/svg">
 <path d="m135.15 143.39s-27.001 17.471-56.005 5.9641c-39.633-15.742-41.117-53.476-34.175-73.288 9.1296-26.074 38.721-47.259 73.869-37.314 30.1 8.5263 41.242 39.256 36.866 62.579-2.8308 15.035-9.6798 23.508-10.818 25.224-1.9477 2.8894-2.9499 2.619-3.8198-0.01-0.28742-0.87362 0.29499-1.3502 1.9704-3.7895 4.8995-7.0552 10.656-22.814 6.2893-39.243-3.6401-13.764-10.249-23.249-20.965-31.174-13.594-10.062-39.869-16.37-62.139 0.11913-24.253 17.957-21.307 46.958-13.326 62.982 12.894 25.812 40.958 30.384 55.853 27.733 7.7643-1.3955 13.155-3.8878 21.502-7.855 2.2351-1.0589 3.4529-0.60699 3.9351 0.55406 1.3539 3.2317 3.19 6.1797 0.9625 7.5185m-108.22-69.222c-1.1535 0.72236-2.4261 2.3259-2.4034 5.3061l1.5979 68.813c-0.06997 2.8157-0.60322 3.2922-2.6001 4.1337-1.6697 0.70155-2.4186-0.96629-2.4186-2.9556l0.11346-69.991c0.0208-2.9802-1.2594-4.5838-2.4053-5.3061-12.218-5.4082-7.0004-36.753 4.0562-36.753 11.062 0 16.276 31.345 4.0599 36.753m-2.0347-40.732c-15.758 0-24.857 35.146-7.4448 41.208 1.6414 0.80744 2.6322 2.6058 2.5982 5.9433l-0.61835 73.312c0 2.2314 3.2147 5.2645 5.4649 4.0429 2.5472-1.3861 4.6405-1.8116 4.6405-7.6868l-2.2824-73.31c-0.03215 0.30444 1.7889-1.4939 3.4302-2.3013 17.412-6.0625 9.9787-41.208-5.7883-41.208m152.52 120.77c-2.5622-0.83958-2.9215-1.5827-2.9215-3.5342l0.97951-46.895c-7.2669-5.9054-3.6476-49.18-1.3274-59.951 2.0536-9.5512 5.2285-5.9073 5.2285-3.2902l-0.0133 63.231 0.9814 46.905c0 1.9515 0.80176 4.7482-2.9272 3.5342m6.5805 0.48788-1.9004-50.35 0.0265-67.875c0-2.8137-6.1683-6.7223-10.16 3.5342-4.4929 11.556-13.974 58.01 0.13994 64.349l-1.3066 48.701c0 2.0895 1.3653 4.4248 7.526 5.4346 5.8165 0.94736 5.6747-1.6981 5.6747-3.7932"/>
</svg>
