<?xml version="1.0" encoding="UTF-8" standalone="no"?>
<svg xmlns:dc="http://purl.org/dc/elements/1.1/" xmlns:cc="http://creativecommons.org/ns#" xmlns:rdf="http://www.w3.org/1999/02/22-rdf-syntax-ns#" xmlns:svg="http://www.w3.org/2000/svg" xmlns="http://www.w3.org/2000/svg" version="1.1" viewBox="0 0 176 176">
  
  
  <g transform="matrix(1.8721093,0,0,-1.8721093,127.51202,149.40377)">
    <path d="m 0,0 c 0,0 -19.115,0.642 -27.932,1.275 -2.878,0.207 -2.964,0.065 -1.688,4.702 1.276,4.636 5.167,18.772 5.167,18.772 0,0 6.58,-0.436 10.648,-0.436 4.069,0 4.703,1.505 5.541,3.949 0.303,0.883 0.737,2.929 1.085,4.303 0.349,1.374 -0.819,3.85 -4.253,4.151 -3.433,0.301 -9.742,-0.035 -9.742,-0.035 0,0 0.985,3.948 2.013,7.381 2.445,8.158 7.83,13.18 13.609,13.652 5.189,0.424 6.987,5.902 7.64,8.697 0.653,2.795 2.79,6.856 -4.091,6.98 -6.881,0.124 -18.749,-2.45 -25.805,-17.447 -4.318,-9.178 -7.346,-19.855 -7.346,-19.855 0,0 -2.76,-0.38 -4.735,-0.604 -1.974,-0.223 -3.073,-0.756 -3.88,-2.724 -0.806,-1.969 -3.355,-7.247 1.688,-7.308 3.331,-0.04 4.353,-0.057 4.353,-0.057 0,0 -4.535,-23.489 -5.003,-26.738 -0.469,-3.249 0.009,-6.028 5.738,-6.276 5.728,-0.248 31.194,-0.211 35.758,-0.052 1.848,0.065 2.82,0.587 3.394,2.429 C 2.733,-3.399 4.169,-0.148 0,0"/>
  </g>
</svg>
