<?xml version="1.0" encoding="UTF-8"?>
<svg width="192" height="192" version="1.1" viewBox="0 0 192 192" xmlns="http://www.w3.org/2000/svg">
 <path d="m135.51 157.4s-35.785-1.2019-52.292-2.387c-5.3879-0.38753-5.5489-0.12169-3.1601-8.8027 2.3888-8.6791 9.6732-35.143 9.6732-35.143s12.318 0.81624 19.934 0.81624c7.6176 0 8.8045-2.8175 10.373-7.393 0.56725-1.6531 1.3797-5.4834 2.0312-8.0557 0.65338-2.5723-1.5333-7.2076-7.9621-7.7711-6.427-0.5635-18.238 0.0655-18.238 0.0655s1.844-7.3911 3.7686-13.818c4.5773-15.273 14.659-24.674 25.478-25.558 9.7144-0.79378 13.08-11.049 14.303-16.282 1.2225-5.2326 5.2232-12.835-7.6588-13.067-12.882-0.23214-35.1 4.5867-48.31 32.663-8.0838 17.182-13.753 37.171-13.753 37.171s-5.167 0.71139-8.8644 1.1308c-3.6955 0.41748-5.753 1.4153-7.2638 5.0996-1.5089 3.6862-6.2809 13.567 3.1601 13.681 6.236 0.0749 8.1493 0.10671 8.1493 0.10671s-8.49 43.974-9.3662 50.056c-0.87802 6.0825 0.01685 11.285 10.742 11.749 10.723 0.46428 58.399 0.39502 66.943 0.0973 3.4597-0.12168 5.2794-1.0989 6.354-4.5474 1.0746-3.4484 3.7629-9.5346-4.0419-9.8117"/>
</svg>
