<?xml version="1.0" encoding="UTF-8"?>
<svg width="192" height="192" version="1.1" viewBox="0 0 192 192" xmlns="http://www.w3.org/2000/svg">
 <path d="m103.32 96.935c-3.385-4.5336-6.4031-8.7551-9.1191-12.709 13.478-21.118 17.512-40.2 22.246-56.031 14.551 33.804 6.9029 50.792-5.542 78.315-2.5514-3.0426-5.0883-6.2268-7.5848-9.5742m-30.097-51.102c11.714-5.7573 20.628-6.4551 33.691-0.79894-0.62991 2.4387-5.9682 21.677-15.139 35.603-10.386-15.599-15.672-26.658-18.552-34.804m-4.1189-16.993c0.8076-2.1136 2.2711-10.314 18.471-10.519 7.621-0.0968 21.131-0.95352 24.305 3.0614-0.66169 3.9571-1.8854 10.697-3.6292 18.191-14.038-5.4669-23.587-4.8341-36.718 0.91162-0.98964-3.5714-2.261-10.705-2.4286-11.645m14.332 100.68c2.7045 3.8791 5.5377 7.6094 8.4184 11.179-2.157 3.3156-11.792 18.841-23.607 29.416-3.5078 3.1394-7.1832 2.7594-9.3936 2.2104-2.2075-0.55332-16.622-5.6316-21.264-7.1818-3.2622-1.0893-2.5485-2.6814-0.27594-4.9699 1.6759-1.686 9.9426-10.217 18.228-19.055 6.2268-6.6458 15.259-18.745 19.364-24.348 2.7551 4.3154 5.6272 8.5889 8.5297 12.748m83.173 24.318c-0.7267-0.48831-1.3725-0.77581-1.3725-0.77581-6.5995-3.7765-29.595-17.958-52.107-43.943 23.384-39.564 17.909-60.683 8.9674-83.988-6.2918-16.401-9.5497-17.135-29.234-17.135-24.352 0-28.143 3.1047-32.322 15.612-2.6641 7.972-6.0751 19.709-8.8663 31.073-4.7951 19.528 20.3 57.414 20.3 57.414s-14.351 21.801-47.363 52.496c-5.1505 4.7893 1.3783 6.6284 5.5232 8.011 5.4409 1.8131 18.624 6.6732 27.064 9.3879 5.6446 1.816 8.4011 0.44931 11.399-2.6251 12.774-13.098 23.324-31.78 25.582-35.824 16.167 19.374 33.287 33.401 38.686 37.895 4.2851 3.5714 6.6068 2.9906 9.3546 0.78882 1.2526-1.0041 9.2535-8.1743 10.665-9.5294 1.6036-1.5401 1.2656-1.9735 0.59523-2.9631-1.6773-2.4748-2.5081-2.9386-4.0496-1.4375-0.53889 0.52301-3.9066 3.8748-4.5885 4.4758-4.9713 4.3963-7.0936 7.9041-11.977 3.4226-5.3787-4.9366-28.304-24.497-45.968-50.881-18.799-28.077-33.246-55.798-21.636-84.3 4.824 16.854 23.064 53.784 50.762 83.812 12.569 13.625 35.459 33.62 41.079 38.372 0 0 1.7452 1.3609 2.6337 1.8536 3.151 1.9172 5.6258-2.3304 8.7811-6.1401 1.1514-1.3884 1.3205-2.9198-1.9085-5.0725"/>
</svg>
