<?xml version="1.0" encoding="UTF-8" standalone="no"?>
<svg
   xmlns:dc="http://purl.org/dc/elements/1.1/"
   xmlns:cc="http://creativecommons.org/ns#"
   xmlns:rdf="http://www.w3.org/1999/02/22-rdf-syntax-ns#"
   xmlns:svg="http://www.w3.org/2000/svg"
   xmlns="http://www.w3.org/2000/svg"
   height="176"
   width="176"
   version="1.1"
   id="svg2"
   viewBox="0 0 176 176">
  <metadata
     id="metadata16699">
    <rdf:RDF>
      <cc:Work
         rdf:about="">
        <dc:format>image/svg+xml</dc:format>
        <dc:type
           rdf:resource="http://purl.org/dc/dcmitype/StillImage" />
        <dc:title></dc:title>
      </cc:Work>
    </rdf:RDF>
  </metadata>
  <defs
     id="defs16697" />
  <g
     style="fill:#000000"
     transform="matrix(1.2477222,0,0,-1.2477222,94.326133,88.807284)"
     id="g4162">
    <path
       id="path4164"
       style="fill:#000000;fill-opacity:1;fill-rule:nonzero;stroke:none"
       d="M 0,0 C -2.343,3.138 -4.432,6.06 -6.312,8.797 3.017,23.414 5.809,36.622 9.086,47.58 19.158,24.182 13.864,12.423 5.25,-6.627 3.484,-4.521 1.728,-2.317 0,0 m -20.832,35.371 c 8.108,3.985 14.278,4.468 23.32,0.553 C 2.052,34.236 -1.643,20.92 -7.991,11.281 -15.18,22.078 -18.839,29.733 -20.832,35.371 m -2.851,11.762 c 0.559,1.463 1.572,7.139 12.785,7.281 5.275,0.067 14.626,0.66 16.823,-2.119 C 5.467,49.556 4.62,44.891 3.413,39.704 c -9.717,3.784 -16.326,3.346 -25.415,-0.631 -0.685,2.472 -1.565,7.41 -1.681,8.06 m 9.92,-69.69 c 1.872,-2.685 3.833,-5.267 5.827,-7.738 -1.493,-2.295 -8.162,-13.041 -16.34,-20.361 -2.428,-2.173 -4.972,-1.91 -6.502,-1.53 -1.528,0.383 -11.505,3.898 -14.718,4.971 -2.258,0.754 -1.764,1.856 -0.191,3.44 1.16,1.167 6.882,7.072 12.617,13.189 4.31,4.6 10.562,12.975 13.403,16.853 1.907,-2.987 3.895,-5.945 5.904,-8.824 m 57.57,-16.832 c -0.503,0.338 -0.95,0.537 -0.95,0.537 -4.568,2.614 -20.485,12.43 -36.067,30.416 16.186,27.385 12.396,42.003 6.207,58.134 -4.355,11.352 -6.61,11.86 -20.235,11.86 -16.856,0 -19.48,-2.149 -22.372,-10.806 -1.844,-5.518 -4.205,-13.642 -6.137,-21.508 -3.319,-13.517 14.051,-39.74 14.051,-39.74 0,0 -9.933,-15.09 -32.783,-36.336 -3.565,-3.315 0.954,-4.588 3.823,-5.545 3.766,-1.255 12.891,-4.619 18.733,-6.498 3.907,-1.257 5.815,-0.311 7.89,1.817 8.842,9.066 16.144,21.997 17.707,24.796 11.19,-13.41 23.04,-23.119 26.777,-26.23 2.966,-2.472 4.573,-2.07 6.475,-0.546 0.867,0.695 6.405,5.658 7.382,6.596 1.11,1.066 0.876,1.366 0.412,2.051 -1.161,1.713 -1.736,2.034 -2.803,0.995 -0.373,-0.362 -2.704,-2.682 -3.176,-3.098 -3.441,-3.043 -4.91,-5.471 -8.29,-2.369 -3.723,3.417 -19.591,16.956 -31.818,35.218 -13.012,19.434 -23.012,38.622 -14.976,58.35 3.339,-11.666 15.964,-37.228 35.136,-58.012 8.7,-9.431 24.544,-23.271 28.434,-26.56 0,0 1.208,-0.942 1.823,-1.283 2.181,-1.327 3.894,1.613 6.078,4.25 0.797,0.961 0.914,2.021 -1.321,3.511" />
  </g>
</svg>
