<?xml version="1.0" encoding="UTF-8"?>
<svg width="192" height="192" version="1.1" viewBox="0 0 192 192" xmlns="http://www.w3.org/2000/svg">
 <path d="m110.32 110.78c-0.96281-0.0563-1.8802 0.35169-2.4669 0.84003-0.58675 0.48832-0.94729 1.0331-1.2365 1.5635-1.1569 2.1219-1.3673 4.5414-1.3673 4.5414l-0.10628 0.80324 0.43329 0.68263s10.189 16.047 21.125 32.068c5.4681 8.0107 11.119 16.013 15.815 22.045 2.3482 3.0157 4.4496 5.5322 6.2296 7.3599 0.89 0.91383 1.6915 1.6571 2.4833 2.2319 0.79177 0.57479 1.518 1.1611 2.9288 1.0792 2.9205-0.16963 8.0577-0.41879 12.51-1.3101 2.2263-0.44565 4.2851-1.0156 5.9864-2.0295 0.85064-0.50693 1.6405-1.1433 2.2094-2.0643 0.56819-0.91984 0.81145-2.1581 0.5825-3.2885-0.35151-1.742-1.3507-2.5403-2.5732-3.6769-1.2225-1.1366-2.8228-2.4076-4.7662-3.8996-3.8869-2.984-9.1366-6.8211-15.092-11.668-11.91-9.6943-26.604-23.403-38.414-41.993-1.1688-1.8388-2.3562-3.1718-4.2818-3.2845zm0.045 5.0851c0.16048 0.18264 0.25813 0.23706 0.48029 0.58659 12.174 19.163 27.248 33.199 39.36 43.058 6.0564 4.9296 11.38 8.8215 15.192 11.748 1.906 1.4633 3.437 2.6903 4.4454 3.6278 1.0084 0.93754 1.3399 1.7898 1.2406 1.2978v2e-3h2e-3c0.0237 0.1166 0.0397-8e-3 -6e-3 0.0654-0.0459 0.0742-0.25698 0.3146-0.70308 0.58044-0.8922 0.53173-2.6049 1.0925-4.5803 1.4879-3.8203 0.76475-8.5432 1.0353-11.527 1.2079-0.0546-0.0174-0.21119-0.0608-0.42308-0.21461-0.44991-0.32663-1.1258-0.92703-1.911-1.7332-1.5703-1.6123-3.6112-4.0446-5.9047-6.9899-4.5869-5.8906-10.211-13.849-15.652-21.82-10.61-15.544-20.029-30.377-20.518-31.146 0.097-0.47173 0.25359-1.0475 0.50483-1.7577zm-2.9093 2.1531s40.698 64.096 46.574 63.755c5.8755-0.34125 20.253-1.0386 19.236-6.0313-1.0089-5.0001-36.559-22.73-60.543-60.483-4.0505-6.3725-5.2672 2.7597-5.2672 2.7597m-31.341-110.01c-0.61651 0.0082-1.2313 0.02598-1.8435 0.05314-21.551 0.95611-40.363 13.569-49.931 30.367-5.3237 9.3456-9.2835 23.332-7.3844 38.042 1.8991 14.71 9.8448 30.087 27.988 41.468 26.771 16.786 56.561 4.4236 56.788 4.3289l2e-3 5e-3c7e-3 -2e-3 0.0116-9e-3 0.0184-0.0123 4.7e-4 -2e-4 0.0572-0.0184 0.0572-0.0184l-6e-3 -0.0123c1.0302-0.40833 1.9494-1.2579 2.3668-2.2155 0.42756-0.98094 0.44373-1.9217 0.37402-2.7837-0.13942-1.724-0.66967-3.3523-1.0035-4.9011l-2e-3 -5e-3v-5e-3c-0.25096-1.1432-1.1614-2.4035-2.422-2.9022-1.2605-0.49872-2.5748-0.39339-4.008-0.0104h-0.0021l-0.0021 2e-3c-8.7139 2.3489-14.034 3.7187-21.45 3.683-6.9181-0.0313-16.836-2.2929-25.808-7.7891-8.9711-5.4959-17.033-14.131-20.782-27.116-2.3072-7.9904-2.9264-18.936 0.20234-29.28 3.1287-10.344 9.8728-20.106 22.558-26.333 23.286-11.426 46.417-1.032 57.06 10.36 8.6138 9.2249 13 18.869 14.037 32.338 1.2117 15.731-6.9047 29.476-12.328 34.886-0.98486 0.98128-1.6158 1.5242-2.191 2.1808-0.57517 0.65657-1.1372 1.9736-1.0035 2.9758l2e-3 2e-3c0.1064 0.79035 0.23984 1.4925 0.57227 2.2196 0.33244 0.72713 1.059 1.6464 2.1828 1.9192 1.1238 0.27276 2.0592-0.12555 2.751-0.54979 0.6918-0.42426 1.29-0.9647 1.958-1.6514h2e-3l2e-3 -2e-3c0.44769-0.46198 3.1048-2.8461 6.0804-6.6507 2.9756-3.8045 6.4564-9.2265 9.2279-16.445 4.3477-11.315 5.1342-25.059 1.2815-37.84-3.8526-12.779-12.448-24.602-26.715-31.631-9.6715-4.7662-19.383-6.7998-28.63-6.6772zm-30.449 31.197c-0.8079 0.05107-1.0107 0.28215-1.212 0.41081-0.20132 0.12866-0.3287 0.2366-0.44556 0.33723-0.23372 0.20126-0.40322 0.37623-0.53141 0.513-0.06404 0.06838-0.10129 0.10741-0.17577 0.19621-0.01863 0.02221-0.03463 0.03724-0.09606 0.12059-0.03066 0.04168-0.20209 0.33264-0.20234 0.33315-1e-5 1.2e-5 -0.01146 0.0317-0.01433 0.03884-0.93936 1.1446-1.7284 2.399-2.2625 3.264v0.0021l-0.0021 0.0021c-1.4915 2.4292-3.2429 5.1673-4.1715 8.345-2.9174 9.9588-3.612 21.052 0.96878 30.999 2.6659 5.8067 6.9401 10.805 12.179 14.411 0.0021 1e-3 0.0063 2e-3 0.0083 5e-3 0.0021 1e-3 0.0021 3e-3 0.0042 5e-3 1.0189 0.70981 2.142 1.4438 3.403 2.0397l0.0063 5e-3 0.0063 2e-3c0.91486 0.42587 1.7926 0.16 2.24-0.0654 0.44744-0.22541 0.70278-0.45981 0.9463-0.6949 0.48704-0.4702 0.88358-0.98947 1.3142-1.6024 0.86122-1.2258 1.7844-2.799 2.655-4.4024 0.87058-1.6035 1.6755-3.2201 2.2462-4.5128 0.28537-0.64637 0.51064-1.1982 0.67447-1.7086 0.08193-0.25524 0.1545-0.48148 0.2003-0.8482 0.02292-0.18335 0.05546-0.39726-0.01842-0.80322-0.07387-0.40597-0.38864-1.2594-1.2794-1.678l-0.0021-0.0023-0.0042-0.0023c-8.6902-4.0607-14.905-14.063-16.061-23.535v-0.0021c-0.7216-5.9494 0.21173-12.09 1.9437-18.012v-0.0021c0.079-0.26849 0.22464-0.53084 0.08791-1.2733-0.06844-0.37183-0.2896-0.95251-0.81346-1.3776-0.52384-0.42504-1.1882-0.53241-1.5921-0.50687zm-2.2115 1.2958c-32.898 104.93-16.449 52.466 0 0zm-1.8803 11.766c-0.25509 2.8586-0.30506 5.7463 0.04699 8.6475v0.0021c1.2612 10.337 7.4502 20.82 16.903 26.073-0.03056 0.07098-0.03453 0.09298-0.06739 0.16759-0.49965 1.1317-1.2646 2.679-2.0827 4.1858-0.81806 1.5068-1.7014 2.991-2.3872 3.9671-0.06467 0.0921-0.08382 0.0974-0.14511 0.17987-0.53136-0.31667-1.0555-0.5872-1.5942-0.96265l-0.0063-5e-3 -0.0063-5e-3c-4.5915-3.1573-8.3535-7.5634-10.671-12.612v-0.0023c-3.98-8.6414-3.4601-18.602-0.73987-27.887 0.16748-0.57313 0.49839-1.1662 0.75008-1.7495zm19.585 33.662c-9.5625-4.466-16.083-15.067-17.33-25.282 1.4012-18.794 0.63055-26.256-5.1411-7.2553-2.819 9.6219-3.4274 20.149 0.85314 29.444 2.4926 5.4304 6.5135 10.134 11.432 13.517 0.97924 0.68251 2.0104 1.3502 3.0935 1.8621 1.2908 0.6009 7.7079-11.996 7.0921-12.285"/>
</svg>
