<svg
   xmlns:dc="http://purl.org/dc/elements/1.1/"
   xmlns:cc="http://creativecommons.org/ns#"
   xmlns:rdf="http://www.w3.org/1999/02/22-rdf-syntax-ns#"
   xmlns:svg="http://www.w3.org/2000/svg"
   xmlns="http://www.w3.org/2000/svg"
   viewBox="0 0 176 176">
    <path
       d="m 37.211943,50.946705 c -0.697731,0.04411 -0.872869,0.243679 -1.046723,0.354793 -0.173863,0.111113 -0.283877,0.204339 -0.384799,0.291247 -0.201852,0.173817 -0.348233,0.324927 -0.458942,0.44305 -0.05531,0.05906 -0.08748,0.09276 -0.151803,0.169453 -0.01609,0.01918 -0.02991,0.03216 -0.08296,0.104143 -0.02648,0.036 -0.174532,0.287277 -0.174749,0.287717 -9e-6,1.1e-5 -0.0099,0.02738 -0.01238,0.03354 -0.811261,0.988503 -1.492724,2.071838 -1.954007,2.818922 l 0,0.0018 -0.0018,0.0018 c -1.288124,2.097984 -2.800667,4.462666 -3.602636,7.207053 -2.51961,8.600776 -3.119429,18.180859 0.836673,26.771826 2.302403,5.014888 5.993688,9.331192 10.518448,12.445981 0.0018,0.001 0.0054,0.002 0.0072,0.004 0.0018,9.1e-4 0.0018,0.003 0.0036,0.004 0.87999,0.61302 1.849912,1.24692 2.938949,1.7616 l 0.0054,0.004 0.0054,0.002 c 0.790104,0.3678 1.548169,0.13818 1.934585,-0.0565 0.386426,-0.19467 0.60695,-0.39711 0.817261,-0.60014 0.420624,-0.40608 0.763091,-0.85454 1.134984,-1.38387 0.743786,-1.05867 1.541047,-2.417286 2.292913,-3.802109 0.751865,-1.384822 1.446994,-2.780965 1.939881,-3.897421 0.246452,-0.558228 0.441003,-1.034793 0.582494,-1.475655 0.07076,-0.22043 0.133429,-0.415815 0.172987,-0.732531 0.01979,-0.158358 0.0479,-0.343092 -0.01591,-0.693698 -0.0638,-0.350607 -0.335644,-1.087685 -1.10497,-1.449178 l -0.0018,-0.0018 -0.0036,-0.0018 C 43.900479,86.052282 38.533596,77.414016 37.534961,69.23352 l 0,-0.0018 c -0.623198,-5.138087 0.182856,-10.44138 1.678644,-15.556156 l 0,-0.0018 c 0.06823,-0.231874 0.194008,-0.458454 0.07592,-1.09968 -0.05911,-0.321127 -0.250113,-0.822621 -0.70253,-1.189703 -0.452409,-0.367083 -1.026172,-0.459808 -1.375038,-0.437754 z m -0.617794,0.584261 c -5.4e-5,10e-7 1.853401,1.285055 1.853392,1.285019 -1.8e-5,-3.7e-5 0.03353,1.166828 0.03353,1.166755 1.8e-5,-7.3e-5 -0.127148,0.324895 -0.127094,0.324785 1.9e-4,-3.76e-4 -0.09963,0.167912 -0.146507,0.241824 -0.02784,0.0204 -0.232942,0.05556 -0.300072,0.09355 L 35.26852,52.101102 c 0.0036,-0.0039 0.0081,-0.01085 0.03353,-0.0353 0.01265,-0.01223 0.02847,-0.02833 0.06887,-0.06354 0.02015,-0.0176 0.04681,-0.03923 0.09708,-0.07767 0.05034,-0.03843 0.339069,-0.208364 0.338906,-0.208286 -8.1e-5,3.9e-5 0.787302,-0.18534 0.787257,-0.18534 z m -2.916013,10.696727 c -0.220307,2.468792 -0.263461,4.962742 0.04058,7.468293 l 0,0.0018 c 1.089226,8.9278 6.434265,17.981021 14.597685,22.517848 -0.02639,0.06135 -0.02982,0.08035 -0.0582,0.144741 -0.431513,0.977408 -1.092163,2.313716 -1.798679,3.615 -0.706506,1.301283 -1.469416,2.583138 -2.061679,3.42613 -0.05585,0.07945 -0.07239,0.08411 -0.125323,0.155332 -0.458898,-0.273485 -0.911577,-0.507126 -1.376809,-0.831379 l -0.0054,-0.0035 -0.0054,-0.0035 c -3.96545,-2.727379 -7.214485,-6.532637 -9.215821,-10.8927 l 0,-0.0018 C 30.23184,80.359695 30.680859,71.757041 33.030112,63.738661 33.174757,63.243682 33.460541,62.731516 33.67791,62.227705 Z M 50.592828,91.299677 C 42.334298,87.442704 36.702599,78.287201 35.626242,69.464857 34.959916,63.974118 35.82485,58.412902 37.368925,53.133592 c 0.237053,-0.807274 -0.890565,0.480519 -0.717578,0.301125 -0.794459,0.826494 -1.479999,2.069439 -2.069434,3.024072 -1.294206,2.10788 -2.697323,4.350305 -3.395677,6.740091 -2.43463,8.309789 -2.959998,17.401223 0.7368,25.429107 2.152723,4.689873 5.625283,8.751867 9.873079,11.673423 0.845711,0.58944 1.736276,1.16607 2.671684,1.60814 1.114812,0.51896 6.656805,-10.360003 6.125029,-10.609873"
       />
    <path
       d="m 63.508403,24.004046 c -0.532439,0.0071 -1.063405,0.02244 -1.592154,0.04589 -18.61195,0.825735 -34.85917,11.718918 -43.122286,26.226399 -4.597736,8.071207 -8.017593,20.150793 -6.377438,32.854487 1.640152,12.703694 8.502362,25.984038 24.171779,35.812858 23.1206,14.49689 48.847887,3.82039 49.04432,3.73856 l 0.0018,0.004 c 0.0059,-0.002 0.01,-0.008 0.01589,-0.0106 4.03e-4,-1.7e-4 0.04942,-0.0159 0.04942,-0.0159 l -0.0053,-0.0106 c 0.88975,-0.35265 1.683549,-1.0864 2.044028,-1.91341 0.369265,-0.84718 0.383226,-1.65967 0.32302,-2.40412 -0.120411,-1.48891 -0.578357,-2.8952 -0.866682,-4.2328 l -0.0018,-0.004 0,-0.004 c -0.216738,-0.98733 -1.003057,-2.07578 -2.091687,-2.50649 -1.08863,-0.43071 -2.22366,-0.33974 -3.461433,-0.009 l -0.0018,0 -0.0018,0.002 c -7.525663,2.0286 -12.119918,3.21158 -18.525108,3.18077 -5.974695,-0.027 -14.540569,-1.98026 -22.28838,-6.72693 C 33.075098,103.28472 26.112736,95.827415 22.874883,84.613086 20.882341,77.712307 20.34756,68.259479 23.049632,59.325741 c 2.702072,-8.93374 8.526551,-17.36415 19.481812,-22.74202 20.110245,-9.867722 40.087364,-0.89129 49.279086,8.947477 7.439217,7.966974 11.22769,16.295707 12.12295,27.92799 1.0465,13.58615 -5.963153,25.456672 -10.647298,30.129122 -0.850564,0.84747 -1.39549,1.31635 -1.892228,1.8834 -0.49674,0.56704 -0.982094,1.70446 -0.866681,2.57004 l 0.0018,0.002 c 0.09189,0.68258 0.207137,1.28898 0.494238,1.91694 0.287102,0.62797 0.914601,1.42189 1.885165,1.65747 0.970565,0.23557 1.778409,-0.10843 2.375878,-0.47482 0.59746,-0.3664 1.114097,-0.83315 1.690997,-1.42624 l 0.0018,0 0.0018,-0.002 c 0.386642,-0.39898 2.681462,-2.45803 5.251279,-5.74376 2.56981,-3.28573 5.576,-7.968356 7.96959,-14.202289 3.75485,-9.771959 4.43405,-21.642084 1.10674,-32.679739 C 107.97911,46.052112 100.55612,35.841531 88.234436,29.770748 79.881806,25.654509 71.494974,23.89823 63.508403,24.004046 Z"
       />
    <path
       d="m 93.049727,112.76217 c -0.831522,-0.0486 -1.623779,0.30373 -2.130519,0.72548 -0.50674,0.42173 -0.818118,0.89219 -1.067908,1.35033 -0.999158,1.83255 -1.180875,3.92213 -1.180875,3.92213 l -0.09179,0.6937 0.374209,0.58955 c 0,0 8.799517,13.85837 18.244456,27.695 4.72246,6.9183 9.60255,13.82979 13.65863,19.03876 2.02803,2.60448 3.84285,4.77783 5.38013,6.35625 0.76864,0.78922 1.46085,1.43112 2.14464,1.92754 0.6838,0.49641 1.31097,1.00275 2.52944,0.93199 2.52221,-0.1465 6.95892,-0.36168 10.80441,-1.13146 1.92273,-0.38488 3.70079,-0.87714 5.17008,-1.75278 0.73464,-0.43781 1.41683,-0.98743 1.90811,-1.78279 0.49071,-0.79441 0.7008,-1.86379 0.50307,-2.8401 -0.30358,-1.50446 -1.1665,-2.19386 -2.22232,-3.17548 -1.05581,-0.98162 -2.43787,-2.07933 -4.11629,-3.36788 -3.35684,-2.57709 -7.89067,-5.89097 -13.03377,-10.07717 -10.2862,-8.37238 -22.97639,-20.2119 -33.175741,-36.26649 -1.009398,-1.58805 -2.034919,-2.7393 -3.697964,-2.83658 z m 0.03886,4.39166 c 0.138599,0.15773 0.222937,0.20473 0.414803,0.5066 10.51426,16.55028 23.53197,28.67144 33.99301,37.18613 5.23052,4.25734 9.8281,7.61858 13.12025,10.146 1.64608,1.26372 2.96828,2.32343 3.83918,3.13312 0.8709,0.8097 1.15717,1.54576 1.07144,1.12086 l 0,0.002 0.002,0 c 0.0205,0.1007 0.0343,-0.007 -0.005,0.0565 -0.0396,0.0641 -0.22193,0.2717 -0.6072,0.50129 -0.77054,0.45922 -2.24969,0.94353 -3.95568,1.28503 -3.29938,0.66046 -7.37818,0.89409 -9.95536,1.0432 -0.0472,-0.015 -0.18239,-0.0525 -0.36539,-0.18534 -0.38856,-0.28209 -0.97232,-0.80062 -1.6504,-1.49684 -1.35615,-1.39244 -3.11878,-3.49307 -5.09948,-6.03677 -3.9614,-5.08738 -8.81849,-11.96078 -13.51742,-18.8446 -9.16331,-13.42405 -17.298087,-26.23476 -17.720202,-26.89891 0.08378,-0.4074 0.219006,-0.90469 0.435987,-1.51802 z M 90.576,119.01331 c 0,0 35.14842,55.35587 40.22271,55.06116 5.07429,-0.29472 17.49092,-0.89697 16.61317,-5.20883 -0.87135,-4.31827 -31.57335,-19.63084 -52.286962,-52.23571 -3.498181,-5.50356 -4.548918,2.38338 -4.548918,2.38338" />
</svg>