<?xml version="1.0" encoding="UTF-8" standalone="no"?>
<svg
   xmlns:dc="http://purl.org/dc/elements/1.1/"
   xmlns:cc="http://creativecommons.org/ns#"
   xmlns:rdf="http://www.w3.org/1999/02/22-rdf-syntax-ns#"
   xmlns:svg="http://www.w3.org/2000/svg"
   xmlns="http://www.w3.org/2000/svg"
   height="176"
   width="176"
   version="1.1"
   id="svg2"
   viewBox="0 0 176 176">
  <metadata
     id="metadata16699">
    <rdf:RDF>
      <cc:Work
         rdf:about="">
        <dc:format>image/svg+xml</dc:format>
        <dc:type
           rdf:resource="http://purl.org/dc/dcmitype/StillImage" />
        <dc:title></dc:title>
      </cc:Work>
    </rdf:RDF>
  </metadata>
  <defs
     id="defs16697" />
  <g
     transform="translate(7.3154315,-11.999548)"
     id="g9329">
    <g
       transform="matrix(0.86363635,0,0,0.86363635,4.6845686,25.410734)"
       id="g27378">
      <path
         id="path5857"
         style="fill:#000000;fill-opacity:1;fill-rule:nonzero;stroke:none"
         d="m 161.12832,33.926338 c 0,0 26.27318,40.615195 8.97718,84.239122 C 146.4272,177.76106 89.679151,179.9953 59.87452,169.56132 20.664187,155.82267 -11.200617,111.31558 3.768338,58.460996 16.584203,13.191935 62.803713,-3.5698637 97.866303,3.0115349 120.48695,7.278525 133.23655,17.565975 135.80467,19.277695 c 4.34729,2.931013 3.94585,4.442551 0,5.753907 -1.3242,0.427127 -2.04572,-0.45496 -5.71216,-2.970622 C 119.48496,14.689557 95.778836,6.0485271 71.070724,12.603163 50.3759,18.087305 36.115295,28.013999 24.19607,44.133501 9.0531623,64.588505 -0.4320732,104.09178 24.370346,137.58872 c 27.009148,36.48039 70.619535,32.05289 94.726024,20.03955 38.82153,-19.3843 45.69733,-61.59025 41.7108,-83.997407 -2.10031,-11.677915 -5.84598,-19.785838 -11.81185,-32.347018 -1.59183,-3.355999 -0.92277,-5.17691 0.82856,-5.912339 4.85684,-2.033939 9.29833,-4.802238 11.30444,-1.445168" />
      <path
         id="path5859"
         style="fill:#000000;fill-opacity:1;fill-rule:nonzero;stroke:none"
         d="M 150.57537,25.024108 82.135368,79.17688 c -4.08073,4.079225 -4.08073,9.938467 0,14.018875 4.107492,4.07997 9.979161,4.07997 14.072737,0 L 150.57537,25.024108" />
    </g>
  </g>
</svg>
