<?xml version="1.0" encoding="UTF-8" standalone="no"?>
<svg
   xmlns:dc="http://purl.org/dc/elements/1.1/"
   xmlns:cc="http://creativecommons.org/ns#"
   xmlns:rdf="http://www.w3.org/1999/02/22-rdf-syntax-ns#"
   xmlns:svg="http://www.w3.org/2000/svg"
   xmlns="http://www.w3.org/2000/svg"
   viewBox="0 0 176 176"
   id="svg2"
   version="1.1">
  <metadata
     id="metadata26287">
    <rdf:RDF>
      <cc:Work
         rdf:about="">
        <dc:format>image/svg+xml</dc:format>
        <dc:type
           rdf:resource="http://purl.org/dc/dcmitype/StillImage" />
        <dc:title></dc:title>
      </cc:Work>
    </rdf:RDF>
  </metadata>
  <defs
     id="defs26285" />
  <path
     d="m 156.52539,79.442176 c -0.092,-3.263259 -0.43698,-5.58269 -1.09565,-8.420653 -0.65067,-2.70671 -1.58706,-5.344592 -2.83477,-7.842417 -2.44581,-5.019658 -5.97687,-9.523905 -10.19221,-13.342271 -4.21215,-3.821567 -9.05654,-7.020479 -14.23708,-9.590333 -5.17174,-2.599467 -10.71563,-4.516253 -16.38198,-5.932033 -5.68715,-1.353355 -11.50955,-2.236117 -17.380777,-2.509028 -1.467007,-0.07763 -2.934814,-0.133656 -4.405821,-0.128854 l -1.102056,-0.012 -1.050834,0.0112 -2.306553,0.05522 c -2.932412,0.112845 -5.775744,0.290518 -8.722324,0.657869 -5.821123,0.68188 -11.562535,1.907983 -17.089219,3.716725 -5.51788,1.80634 -10.848883,4.165708 -15.70553,7.19415 -4.884259,2.982823 -9.288239,6.653129 -12.917259,10.886864 -3.618615,4.24094 -6.396403,9.090128 -8.014832,14.28826 -1.677254,5.174922 -2.086223,10.756891 -1.381211,16.191921 0.721579,5.438148 2.667663,10.715358 5.533567,15.518284 5.80704,9.60106 14.998357,17.30582 25.477649,22.40728 5.25161,2.55384 10.801343,4.57058 16.52971,6.00654 5.728927,1.44058 11.631364,2.23275 17.575581,2.60171 l 4.088089,0.25386 -1.202097,3.64774 -0.0026,0.008 c -1.196495,4.14891 -3.00044,8.19841 -5.603916,11.80643 -0.359348,0.48644 -0.570635,0.79782 -0.607451,0.88442 -0.126452,0.14476 0.08003,0.19289 -0.04725,-0.66933 -0.08243,-0.43112 -0.420973,-0.89944 -0.661073,-1.07078 -0.244101,-0.19128 -0.366551,-0.21505 -0.366551,-0.21505 -0.02401,0.003 0.261707,0.0503 0.571436,0.0381 1.357361,-0.0328 3.203724,-0.51302 4.883618,-1.12047 3.431018,-1.25484 6.762794,-3.11472 9.629579,-5.38933 2.859585,-2.27534 5.283785,-5.04055 6.589925,-8.11429 l 0.002,-0.003 0.63546,-1.43908 1.57185,-0.36326 1.97841,-0.45859 0.91558,-0.21857 1.01402,-0.28068 c 1.32215,-0.38832 2.76914,-0.71157 3.98964,-1.15336 2.50744,-0.7956 5.03329,-1.74879 7.51672,-2.80362 2.46741,-1.07948 4.87241,-2.27845 7.21097,-3.58867 2.32096,-1.34055 4.57309,-2.78579 6.72278,-4.36083 1.04043,-0.82905 2.14169,-1.58721 3.13409,-2.46822 0.97961,-0.89316 2.04645,-1.69692 2.95482,-2.65732 1.89839,-1.83828 3.70554,-3.77026 5.28619,-5.85993 0.82834,-1.01882 1.58546,-2.08333 2.28175,-3.18754 0.7595,-1.0654 1.37176,-2.21091 2.00723,-3.342586 0.68667,-1.10829 1.13246,-2.32751 1.7103,-3.4827 0.52742,-1.17864 0.91718,-2.40787 1.38857,-3.6046 l 0.14886,-0.37519 c 0.75632,-1.91791 2.53065,-1.56528 4.44824,-0.80874 1.91759,0.7572 3.25335,1.63196 2.49623,3.54898 -0.003,0.007 -0.0128,0.0328 -0.0152,0.0391 -0.57304,1.40466 -1.07485,2.84277 -1.71831,4.2111 -0.69229,1.342791 -1.26612,2.753366 -2.07526,4.025086 -0.76191,1.29957 -1.50942,2.60923 -2.39859,3.81749 -0.82994,1.25339 -1.72231,2.45389 -2.68591,3.59683 -1.85437,2.34408 -3.93442,4.48184 -6.10332,6.49859 -1.04844,1.05323 -2.24252,1.92895 -3.35899,2.89871 -1.12767,0.95568 -2.35458,1.77449 -3.52866,2.66453 -2.40979,1.69253 -4.91322,3.22908 -7.48068,4.64094 -2.58187,1.38217 -5.22537,2.63236 -7.92167,3.74626 -2.70193,1.08445 -5.44546,2.06173 -8.30424,2.90055 -1.43339,0.47052 -2.73873,0.7259 -4.1145,1.10045 l -1.01882,0.25915 -1.13326,0.24978 -2.12969,0.44834 2.20651,-1.80265 -0.003,0.003 c -1.87517,4.36426 -5.00126,7.78167 -8.40907,10.5099 -3.447821,2.72116 -7.234986,4.83951 -11.363092,6.35639 -2.10487,0.72592 -4.182528,1.38119 -6.861235,1.48373 -0.693087,0.003 -1.42699,-0.009 -2.417877,-0.29199 -0.47772,-0.14006 -1.073883,-0.37141 -1.712547,-0.87504 -0.635303,-0.4802 -1.272449,-1.38432 -1.469407,-2.30815 -0.336062,-1.86701 0.254185,-2.82487 0.583998,-3.55956 0.429861,-0.8069 0.83787,-1.2959 1.064523,-1.62627 2.116952,-2.92688 3.655188,-6.33699 4.686813,-9.91631 l 0.0013,-0.007 2.885992,3.90103 c -6.351424,0.075 -12.739982,-0.46274 -19.019777,-1.71134 -6.283668,-1.22673 -12.475907,-3.11007 -18.36586,-5.78709 -5.891476,-2.65549 -11.523483,-6.01214 -16.620309,-10.15136 -5.109871,-4.1129 -9.653989,-9.06773 -13.183528,-14.77791 -3.517589,-5.702495 -6.027026,-12.159866 -7.019036,-18.917274 -0.978483,-6.740925 -0.563352,-13.730031 1.453081,-20.303927 1.932718,-6.601106 5.506996,-12.590763 9.853192,-17.70406 4.384612,-5.103694 9.577398,-9.379047 15.188435,-12.80125 5.592946,-3.470386 11.608553,-6.113869 17.774541,-8.123494 6.17287,-2.009624 12.522374,-3.351774 18.920938,-4.094479 3.160663,-0.384958 6.461067,-0.614652 9.675996,-0.692284 l 2.307353,-0.02401 1.254919,0.0024 1.204498,0.02801 c 1.606264,0.0184 3.210927,0.100841 4.814789,0.206485 6.41626,0.386558 12.80049,1.434188 19.05667,3.016436 12.43874,3.274944 24.60457,8.958074 34.20534,18.143441 4.78518,4.557069 8.86366,9.996901 11.66082,16.120211 1.41178,3.04845 2.50023,6.26497 3.1597,9.567924 0.67708,3.166098 1.00522,6.991187 0.9588,9.880773 l -0.003,0.203202 c -0.0328,2.062447 -1.38857,2.647085 -3.45022,2.614193 -2.00483,-0.03185 -3.95844,-0.5852 -4.01686,-2.568814"
     style="fill:#000000;fill-opacity:1;fill-rule:nonzero;stroke:none"
     id="path5288" />
</svg>
