<?xml version="1.0" encoding="UTF-8" standalone="no"?>
<svg xmlns:dc="http://purl.org/dc/elements/1.1/" xmlns:cc="http://creativecommons.org/ns#" xmlns:rdf="http://www.w3.org/1999/02/22-rdf-syntax-ns#" xmlns:svg="http://www.w3.org/2000/svg" xmlns="http://www.w3.org/2000/svg" version="1.1" viewBox="0 0 176 176">
  
  
  <g transform="translate(7.3154315,-11.999548)">
    <path d="m 149.21071,91.441726 c -0.092,-3.26326 -0.43698,-5.582692 -1.09565,-8.420662 -0.65067,-2.70671 -1.58706,-5.344587 -2.83477,-7.842412 -2.44581,-5.019658 -5.97687,-9.523905 -10.19221,-13.342271 -4.21215,-3.821567 -9.05654,-7.020479 -14.23708,-9.590333 -5.17174,-2.599467 -10.71563,-4.516253 -16.38198,-5.932033 -5.68715,-1.353355 -11.50955,-2.236117 -17.38078,-2.509028 -1.467,-0.07763 -2.93481,-0.133656 -4.40582,-0.128854 l -1.10205,-0.012 -1.05084,0.0112 -2.30655,0.05522 c -2.93241,0.112845 -5.77574,0.290518 -8.72232,0.657869 -5.82113,0.68188 -11.56254,1.907983 -17.089223,3.716725 -5.51788,1.80634 -10.848883,4.165708 -15.70553,7.19415 -4.884259,2.982823 -9.288239,6.653129 -12.917259,10.886864 -3.618615,4.24094 -6.396403,9.090128 -8.014832,14.288263 -1.677254,5.17492 -2.086223,10.756892 -1.381211,16.191922 0.721579,5.438144 2.667663,10.715354 5.533567,15.518274 5.80704,9.60106 14.998357,17.30582 25.477649,22.40728 5.25161,2.55384 10.801343,4.57058 16.529709,6.00654 5.72893,1.44058 11.63136,2.23275 17.57558,2.60171 l 4.08809,0.25386 -1.2021,3.64774 -0.003,0.008 c -1.19649,4.14891 -3.00044,8.19841 -5.60391,11.80643 -0.35935,0.48644 -0.57064,0.79782 -0.60745,0.88442 -0.12646,0.14476 0.08,0.19289 -0.0472,-0.66933 -0.0824,-0.43112 -0.42098,-0.89944 -0.66108,-1.07078 -0.2441,-0.19128 -0.36655,-0.21505 -0.36655,-0.21505 -0.024,0.003 0.26171,0.0503 0.57144,0.0381 1.35736,-0.0328 3.20372,-0.51302 4.88362,-1.12047 3.43101,-1.25484 6.76279,-3.11472 9.62958,-5.38933 2.85958,-2.27534 5.28378,-5.04055 6.58992,-8.11429 l 0.002,-0.003 0.63546,-1.43908 1.57185,-0.36326 1.97841,-0.45859 0.91558,-0.21857 1.01402,-0.28068 c 1.32215,-0.38832 2.76914,-0.71157 3.98964,-1.15336 2.50744,-0.7956 5.03329,-1.74879 7.51672,-2.80362 2.46741,-1.07948 4.87241,-2.27845 7.21097,-3.58867 2.32096,-1.34055 4.57309,-2.78579 6.72278,-4.36083 1.04043,-0.82905 2.14169,-1.58721 3.13409,-2.46822 0.97961,-0.89316 2.04645,-1.69692 2.95482,-2.65732 1.89839,-1.83828 3.70554,-3.77026 5.28619,-5.85993 0.82834,-1.01882 1.58546,-2.08333 2.28175,-3.18754 0.7595,-1.0654 1.37176,-2.21091 2.00723,-3.34258 0.68667,-1.10829 1.13246,-2.32751 1.7103,-3.4827 0.52742,-1.17864 0.91718,-2.40787 1.38857,-3.6046 l 0.14886,-0.37519 c 0.75632,-1.91791 2.53065,-1.56528 4.44824,-0.80874 1.91759,0.7572 3.25335,1.63196 2.49623,3.54898 -0.003,0.007 -0.0128,0.0328 -0.0152,0.0391 -0.57304,1.40466 -1.07485,2.84277 -1.71831,4.2111 -0.69229,1.34279 -1.26612,2.75336 -2.07526,4.02508 -0.76191,1.29957 -1.50942,2.60923 -2.39859,3.81749 -0.82994,1.25339 -1.72231,2.45389 -2.68591,3.59683 -1.85437,2.34408 -3.93442,4.48184 -6.10332,6.49859 -1.04844,1.05323 -2.24252,1.92895 -3.35899,2.89871 -1.12767,0.95568 -2.35458,1.77449 -3.52866,2.66453 -2.40979,1.69253 -4.91322,3.22908 -7.48068,4.64094 -2.58187,1.38217 -5.22537,2.63236 -7.92167,3.74626 -2.70193,1.08445 -5.44546,2.06173 -8.30424,2.90055 -1.43339,0.47052 -2.73873,0.7259 -4.1145,1.10045 l -1.01882,0.25915 -1.13326,0.24978 -2.12969,0.44834 2.20651,-1.80265 -0.003,0.003 c -1.87517,4.36426 -5.001261,7.78167 -8.409071,10.5099 -3.44782,2.72116 -7.23499,4.83951 -11.36309,6.35639 -2.10487,0.72592 -4.18253,1.38119 -6.86124,1.48373 -0.69308,0.003 -1.42699,-0.009 -2.41787,-0.29199 -0.47772,-0.14006 -1.07389,-0.37141 -1.71255,-0.87504 -0.6353,-0.4802 -1.27245,-1.38432 -1.46941,-2.30815 -0.33606,-1.86701 0.25419,-2.82487 0.584001,-3.55956 0.42986,-0.8069 0.837869,-1.2959 1.06452,-1.62627 2.11695,-2.92688 3.65519,-6.33699 4.686819,-9.91631 l 0.001,-0.007 2.88599,3.90103 c -6.35143,0.075 -12.73998,-0.46274 -19.01978,-1.71134 -6.283667,-1.22673 -12.475906,-3.11007 -18.365859,-5.78709 -5.891476,-2.65549 -11.523483,-6.01214 -16.620309,-10.15136 -5.109871,-4.1129 -9.653989,-9.06773 -13.183528,-14.77791 -3.5175893,-5.70249 -6.0270263,-12.15986 -7.0190363,-18.917264 -0.978483,-6.74093 -0.563352,-13.730032 1.453081,-20.303931 1.932718,-6.601106 5.5069963,-12.590763 9.8531923,-17.70406 4.384611,-5.103694 9.577398,-9.379047 15.188435,-12.80125 5.592945,-3.470386 11.608553,-6.113869 17.774541,-8.123494 6.17287,-2.009624 12.522373,-3.351774 18.920933,-4.094479 3.16067,-0.384958 6.46107,-0.614652 9.676,-0.692284 l 2.30735,-0.02401 1.25492,0.0024 1.2045,0.02801 c 1.60626,0.0184 3.210929,0.100841 4.814789,0.206485 6.41626,0.386558 12.800492,1.434188 19.056672,3.016436 12.43874,3.274944 24.60457,8.958074 34.20534,18.143441 4.78518,4.557069 8.86366,9.996901 11.66082,16.120211 1.41178,3.04845 2.50023,6.26497 3.1597,9.567923 0.67708,3.1661 1.00522,6.991192 0.9588,9.880772 l -0.003,0.20321 c -0.0328,2.06244 -1.38857,2.64708 -3.45022,2.61419 -2.00483,-0.0319 -3.95844,-0.5852 -4.01686,-2.56882"/>
  </g>
</svg>
