<?xml version="1.0" encoding="UTF-8"?>
<svg width="192" height="192" version="1.1" viewBox="0 0 192 192" xmlns="http://www.w3.org/2000/svg">
 <path d="m158.58 33.024-68.44 54.153c-4.0807 4.0792-4.0807 9.9385 0 14.019 4.1075 4.08 9.9792 4.08 14.073 0l54.367-68.172m10.553 8.9022s26.273 40.615 8.9772 84.239c-23.678 59.596-80.426 61.83-110.23 51.396-39.21-13.739-71.075-58.246-56.106-111.1 12.816-45.269 59.035-62.031 94.098-55.449 22.621 4.267 35.37 14.554 37.938 16.266 4.3473 2.931 3.9458 4.4426 0 5.7539-1.3242 0.42713-2.0457-0.45496-5.7122-2.9706-10.608-7.3714-34.314-16.012-59.022-9.4578-20.695 5.4841-34.955 15.411-46.875 31.53-15.143 20.455-24.628 59.958 0.17428 93.455 27.009 36.48 70.62 32.053 94.726 20.04 38.822-19.384 45.697-61.59 41.711-83.997-2.1003-11.678-5.846-19.786-11.812-32.347-1.5918-3.356-0.92277-5.1769 0.82856-5.9123 4.8568-2.0339 9.2983-4.8022 11.304-1.4452"/>
</svg>
