<?xml version="1.0" encoding="UTF-8"?>
<svg width="192" height="192" version="1.1" viewBox="0 0 192 192" xmlns="http://www.w3.org/2000/svg">
 <path d="m175.35 87.117c-0.10652-3.7785-0.50597-6.4642-1.2686-9.7502-0.75341-3.1341-1.8376-6.1885-3.2824-9.0807-2.832-5.8122-6.9206-11.028-11.802-15.449-4.8772-4.425-10.487-8.129-16.485-11.105-5.9883-3.0099-12.408-5.2293-18.969-6.8687-6.5851-1.567-13.327-2.5892-20.125-2.9052-1.6986-0.08989-3.3982-0.15476-5.1015-0.1492l-1.2761-0.01389-1.2168 0.01297-2.6707 0.06394c-3.3954 0.13066-6.6877 0.33639-10.1 0.76174-6.7403 0.78955-13.388 2.2092-19.788 4.3036-6.3891 2.0916-12.562 4.8235-18.185 8.3301-5.6555 3.4538-10.755 7.7036-14.957 12.606-4.19 4.9106-7.4064 10.525-9.2803 16.544-1.9421 5.992-2.4156 12.455-1.5993 18.749 0.83551 6.2968 3.0889 12.407 6.4073 17.969 6.7239 11.117 17.367 20.038 29.5 25.945 6.0808 2.9571 12.507 5.2922 19.14 6.9549 6.6335 1.668 13.468 2.5853 20.351 3.0125l4.7336 0.29394-1.3919 4.2237-0.0035 9e-3c-1.3854 4.804-3.4742 9.4929-6.4887 13.671-0.41609 0.56325-0.66074 0.9238-0.70336 1.0241-0.14643 0.16762 0.09263 0.22335-0.05465-0.77501-0.09541-0.4992-0.48745-1.0415-0.76546-1.2399-0.28264-0.22148-0.42443-0.249-0.42443-0.249-0.02779 3e-3 0.30303 0.0582 0.66167 0.0441 1.5717-0.038 3.7096-0.59403 5.6547-1.2974 3.9727-1.453 7.8306-3.6065 11.15-6.2403 3.3111-2.6346 6.1181-5.8364 7.6304-9.3955l2e-3 -3e-3 0.7358-1.6663 1.82-0.42062 2.2908-0.53099 1.0601-0.25309 1.1741-0.32499c1.5309-0.44964 3.2064-0.82393 4.6196-1.3355 2.9034-0.92122 5.828-2.0249 8.7036-3.2463 2.857-1.2499 5.6417-2.6382 8.3496-4.1553 2.6874-1.5522 5.2952-3.2256 7.7843-5.0494 1.2047-0.95996 2.4798-1.8378 3.6289-2.8579 1.1343-1.0342 2.3696-1.9649 3.4214-3.0769 2.1981-2.1285 4.2906-4.3656 6.1209-6.7852 0.95913-1.1797 1.8358-2.4123 2.642-3.6908 0.87942-1.2336 1.5884-2.56 2.3242-3.8704 0.7951-1.2833 1.3113-2.695 1.9804-4.0326 0.6107-1.3647 1.062-2.7881 1.6078-4.1738l0.17236-0.43443c0.87574-2.2207 2.9302-1.8124 5.1506-0.93644 2.2204 0.87676 3.767 1.8896 2.8904 4.1094-3e-3 8e-3 -0.0148 0.038-0.0176 0.0453-0.66352 1.6264-1.2446 3.2916-1.9896 4.876-0.8016 1.5548-1.466 3.1881-2.4029 4.6606-0.88221 1.5048-1.7478 3.0212-2.7773 4.4202-0.96098 1.4513-1.9942 2.8414-3.11 4.1648-2.1472 2.7142-4.5556 5.1895-7.067 7.5247-1.214 1.2195-2.5966 2.2335-3.8894 3.3564-1.3057 1.1066-2.7264 2.0547-4.0858 3.0852-2.7903 1.9598-5.689 3.7389-8.6618 5.3737-2.9895 1.6004-6.0504 3.048-9.1725 4.3378-3.1286 1.2557-6.3053 2.3873-9.6154 3.3585-1.6597 0.54481-3.1712 0.84052-4.7642 1.2742l-1.1797 0.30007-1.3122 0.28922-2.466 0.51913 2.5549-2.0873-3e-3 3e-3c-2.1712 5.0534-5.7909 9.0104-9.7368 12.169-3.9922 3.1508-8.3774 5.6036-13.157 7.36-2.4372 0.84053-4.8429 1.5993-7.9446 1.718-0.80251 3e-3 -1.6523-0.0104-2.7996-0.33809-0.55315-0.16218-1.2435-0.43006-1.983-1.0132-0.73561-0.55602-1.4734-1.6029-1.7014-2.6726-0.38912-2.1618 0.29432-3.2709 0.67621-4.1216 0.49773-0.9343 0.97016-1.5005 1.2326-1.883 2.4512-3.389 4.2323-7.3376 5.4268-11.482l0.0012-8e-3 3.3417 4.517c-7.3543 0.0868-14.752-0.5358-22.023-1.9816-7.2758-1.4204-14.446-3.6011-21.266-6.7008-6.8217-3.0748-13.343-6.9614-19.245-11.754-5.9169-4.7622-11.178-10.499-15.265-17.111-4.073-6.6029-6.9787-14.08-8.1273-21.904-1.133-7.8053-0.6523-15.898 1.6825-23.51 2.2379-7.6434 6.3765-14.579 11.409-20.499 5.0769-5.9095 11.09-10.86 17.587-14.822 6.476-4.0183 13.441-7.0792 20.581-9.4062 7.1475-2.3269 14.5-3.881 21.908-4.741 3.6597-0.44574 7.4812-0.7117 11.204-0.80159l2.6717-0.0278 1.4531 0.0028 1.3947 0.03243c1.8599 0.02131 3.7179 0.11676 5.575 0.23909 7.4294 0.44759 14.822 1.6606 22.066 3.4927 14.403 3.792 28.49 10.373 39.606 21.008 5.5407 5.2766 10.263 11.575 13.502 18.666 1.6347 3.5298 2.895 7.2542 3.6586 11.079 0.78398 3.666 1.1639 8.0951 1.1102 11.441l-3e-3 0.2353c-0.038 2.3881-1.6078 3.065-3.995 3.027-2.3214-0.03694-4.5835-0.6776-4.6511-2.9744"/>
</svg>
