<?xml version="1.0" encoding="UTF-8"?>
<svg width="192" height="192" version="1.1" viewBox="0 0 192 192" xmlns="http://www.w3.org/2000/svg">
 <path d="m116.37 176.06c-18.226-5.7959-2.1561-31.544-2.1561-31.544l23.42 5.2907c-0.44123 21.775-14.057 28.544-21.264 26.253m-3.8695-34.532s-21.403 34.727 2.8687 41.962c9.6446 2.8743 27.707-5.956 28.291-34.929zm29.996-12.288c-0.5526 1.5283 1.5005 2.2243 3.4227 3.2487 0.70291 0.37582 1.1776 0.17399 1.5937-1.6828 1.5047-6.716 5.3839-13.976 7.1781-19.27 2.4888-7.3424 4.7005-13.759 5.9296-23.181 2.0364-15.602-4.1716-43.681-24.514-42.811-10.576 0.45654-15.104 11.053-18.192 19.409-3.612 9.7712-5.5579 21.049-4.9942 31.471 0.38835 7.0709 3.1931 12.938 3.7443 19.877 0.33545 4.2022-1.6174 18.188-1.6174 18.188s19.581 4.8272 27.113 6.8872c1.8652 0.50945 2.1937-0.39669 1.7691-3.0539-0.11414-0.69874-0.38417-1.3168-1.4894-1.6007-1.6675-0.4301-22.926-6.5002-22.926-6.5002s1.3905-9.3258 1.1469-14.892c-0.26029-5.9685-2.6029-11.72-2.9272-17.793-0.47465-8.9472 0.89222-18.614 3.4951-26.982 2.2201-7.1558 5.4883-16.224 13.254-16.554 14.948-0.63332 19.601 23.491 18.258 36.88-0.65976 6.6116-2.2312 13.664-4.2258 19.865-0.8449 2.6321-4.3609 13.325-6.0172 18.494m-74.665 13.348c-7.4106 1.8763-20.575-5.8586-19.64-29.005l23.793-4.3692c0.02645 0.0626 14.331 28.696-4.1535 33.374m8.3209-37.32-31.512 5.2712c-1.0453 28.957 16.455 38.635 26.282 36.464 24.904-5.5036 5.2294-41.735 5.2294-41.735m-29.967-5.3807s0.05428-5.3018-6.5935-25.808c-2.0058-6.1871-3.0664-13.326-3.4756-19.884-0.83654-13.29 4.7409-36.69 19.696-34.913 7.7739 0.92146 10.708 10.105 12.662 17.314 2.2855 8.442 3.2877 18.07 2.4707 26.844-0.55259 5.9546-4.0574 16.994-4.0811 22.264-7e-3 1.9389 2.4609 2.2145 5.061 2.8757 0.95207 0.23941 1.5492-0.35633 1.41-2.4846-0.43149-6.5448 4.1507-18.842 4.9357-25.881 1.1525-10.375-0.15729-21.745-3.2098-31.705-2.6154-8.5171-6.5406-19.349-17.073-20.401-20.262-2.0169-27.95 25.664-26.889 41.364 0.52754 7.7474 2.2591 16.093 4.6156 23.479 3.7526 11.762 8.3362 23.91 8.8025 30.462 8.879-1.8095 23.404-4.3456 27.643-5.1083 1.9083-0.3424 1.7733-1.3613 0.17399-3.5229-0.42175-0.56512-0.95486-1.005-2.0586-0.73912-8.371 2.0141-15.209 3.7164-24.09 5.8447"/>
</svg>
