<?xml version="1.0" encoding="UTF-8" standalone="no"?>
<svg xmlns:dc="http://purl.org/dc/elements/1.1/" xmlns:cc="http://creativecommons.org/ns#" xmlns:rdf="http://www.w3.org/1999/02/22-rdf-syntax-ns#" xmlns:svg="http://www.w3.org/2000/svg" xmlns="http://www.w3.org/2000/svg" version="1.1" viewBox="0 0 176 176">
  
  
  <g transform="matrix(1.1135328,0,0,1.1135328,92.982587,-44.868995)">
    <g transform="matrix(1.25,0,0,-1.25,-49.205351,122.8093)">
      <path d="m 0,0 c 0,0 0.039,3.809 -4.737,18.541 -1.441,4.445 -2.203,9.574 -2.497,14.285 -0.601,9.548 3.406,26.359 14.15,25.083 5.585,-0.662 7.693,-7.26 9.097,-12.439 1.642,-6.065 2.362,-12.982 1.775,-19.286 -0.397,-4.278 -2.915,-12.209 -2.932,-15.995 -0.005,-1.393 1.768,-1.591 3.636,-2.066 0.684,-0.172 1.113,0.256 1.013,1.785 -0.31,4.702 2.982,13.537 3.546,18.594 0.828,7.454 -0.113,15.622 -2.306,22.778 -1.879,6.119 -4.699,13.901 -12.266,14.657 -14.557,1.449 -20.08,-18.438 -19.318,-29.717 0.379,-5.566 1.623,-11.562 3.316,-16.868 2.696,-8.45 5.989,-17.178 6.324,-21.885 6.379,1.3 16.814,3.122 19.86,3.67 1.371,0.246 1.274,0.978 0.125,2.531 C 18.483,4.074 18.1,4.39 17.307,4.199 11.293,2.752 6.38,1.529 0,0"/>
    </g>
    <g transform="matrix(1.25,0,0,-1.25,-29.766851,161.15643)">
      <path d="M 0,0 C -5.324,-1.348 -14.782,4.209 -14.11,20.838 L 2.984,23.977 C 3.003,23.932 13.28,3.361 0,0 M 5.978,26.812 -16.661,23.025 C -17.412,2.221 -4.839,-4.732 2.221,-3.172 20.113,0.782 5.978,26.812 5.978,26.812"/>
    </g>
    <g transform="matrix(1.25,0,0,-1.25,37.285138,149.16905)">
      <path d="m 0,0 c -0.397,-1.098 1.078,-1.598 2.459,-2.334 0.505,-0.27 0.846,-0.125 1.145,1.209 1.081,4.825 3.868,10.041 5.157,13.844 1.788,5.275 3.377,9.885 4.26,16.654 1.463,11.209 -2.997,31.382 -17.612,30.757 -7.598,-0.328 -10.851,-7.941 -13.07,-13.944 -2.595,-7.02 -3.993,-15.122 -3.588,-22.61 0.279,-5.08 2.294,-9.295 2.69,-14.28 0.241,-3.019 -1.162,-13.067 -1.162,-13.067 0,0 14.068,-3.468 19.479,-4.948 1.34,-0.366 1.576,0.285 1.271,2.194 -0.082,0.502 -0.276,0.946 -1.07,1.15 -1.198,0.309 -16.471,4.67 -16.471,4.67 0,0 0.999,6.7 0.824,10.699 -0.187,4.288 -1.87,8.42 -2.103,12.783 -0.341,6.428 0.641,13.373 2.511,19.385 1.595,5.141 3.943,11.656 9.522,11.893 C 4.981,54.51 8.324,37.178 7.359,27.559 6.885,22.809 5.756,17.742 4.323,13.287 3.716,11.396 1.19,3.714 0,0"/>
    </g>
    <g transform="matrix(1.25,0,0,-1.25,13.822019,191.21505)">
      <path d="M 0,0 C -13.094,4.164 -1.549,22.662 -1.549,22.662 L 15.277,18.861 C 14.96,3.217 5.178,-1.646 0,0 m -2.78,24.809 c 0,0 -15.377,-24.949 2.061,-30.147 6.929,-2.065 19.906,4.279 20.325,25.094 L -2.78,24.809 Z"/>
    </g>
  </g>
</svg>
