<?xml version="1.0" encoding="UTF-8" standalone="no"?>
<svg xmlns:dc="http://purl.org/dc/elements/1.1/" xmlns:cc="http://creativecommons.org/ns#" xmlns:rdf="http://www.w3.org/1999/02/22-rdf-syntax-ns#" xmlns:svg="http://www.w3.org/2000/svg" xmlns="http://www.w3.org/2000/svg" version="1.1" viewBox="0 0 176 176">
  
  
  <g transform="translate(7.3154315,-11.999548)">
    <g transform="matrix(1.1930915,0,0,1.1930915,110.04675,126.61405)">
      <g transform="matrix(1.25,0,0,-1.25,14.980444,-7.9058686)">
        <path d="m 0,0 c 0,-2.26 1.832,-4.09 4.092,-4.09 2.26,0 4.091,1.83 4.091,4.09 0,2.262 -1.831,4.092 -4.091,4.092 C 1.832,4.092 0,2.262 0,0"/>
      </g>
      <g transform="matrix(1.25,0,0,-1.25,29.714324,-24.468369)">
        <path d="m 0,0 c -8.727,4.297 -17.502,0.166 -21.146,-6.238 -2.776,-4.869 -4.208,-14.848 5.417,-20.883 1.893,-1.188 3.848,-1.828 5.699,-2.127 -1.118,-2.854 -3.427,-7.799 -7.006,-11.111 -3.245,-3.002 -13.995,-7.539 -25.504,-3.971 -12.193,3.785 -13.757,15.346 -14.151,17.463 -0.4,2.117 0.129,4.232 1.586,6.482 1.454,2.246 1.72,5.688 1.72,5.688 0,0 9.195,6.154 17.065,27.517 2.805,7.615 5.362,17.609 4.232,22.223 -0.988,4.034 -6.006,6.536 -9.087,7.809 -0.609,3.019 -3.276,5.291 -6.475,5.291 -3.648,0 -6.603,-2.957 -6.603,-6.606 0,-3.646 2.955,-6.603 6.603,-6.603 1.588,0 3.044,0.56 4.185,1.494 1.674,-1.278 3.829,-4.026 3.739,-7.807 -0.133,-5.422 -2.937,-19.581 -7.35,-27.755 -3.864,-7.159 -11.614,-12.409 -16.895,-10.802 -15.16,4.616 -22.344,25.768 -27.071,41.786 -1.679,5.689 6.273,6.976 6.273,6.976 1.037,-2.295 3.339,-3.892 6.017,-3.892 3.648,0 6.606,2.957 6.606,6.603 0,3.649 -2.958,6.606 -6.606,6.606 -2.842,0 -5.258,-1.801 -6.189,-4.319 -1.898,-1.011 -4.439,-2.417 -5.881,-3.49 -3.168,-2.356 -3.731,-5.631 -3.574,-8.201 0.222,-3.616 3.206,-16.051 8.204,-28.311 4.692,-11.511 15.476,-19.842 15.476,-19.842 0,0 0.133,-1.455 1.323,-4.099 1.19,-2.647 3.042,-4.367 3.042,-4.367 0,0 -0.356,-4.013 4.63,-14.287 2.406,-4.957 9.906,-13.916 24.934,-13.916 16.273,0 19.597,3.084 25.202,12.197 3.145,5.113 4.175,11.027 4.175,11.027 3.032,-0.007 5.52,0.583 6.918,1.668 1.365,1.06 0.429,1.71 -0.788,3.688 -1.301,2.113 -3.082,0.719 -4.981,0.438 -4.508,-0.669 -9.067,1.005 -11.805,6.196 -1.165,2.21 -2.008,8.797 3.253,12.877 5.217,4.046 19.496,2.887 19.122,-9.248 -0.175,-5.662 -2.933,-7.06 -2.25,-8.15 0.728,-1.164 1.161,-1.504 1.819,-0.768 1.119,1.252 3.338,4.002 3.604,9.659 C 7.725,-7.973 5.586,-2.751 0,0"/>
      </g>
    </g>
  </g>
</svg>
