<?xml version="1.0" encoding="UTF-8"?>
<svg width="192" height="192" version="1.1" viewBox="0 0 192 192" xmlns="http://www.w3.org/2000/svg">
 <path d="m171.05 92.077c-15.07-7.4203-30.223-0.28667-36.516 10.772-4.7937 8.408-7.2665 25.64 9.3543 36.061 3.2689 2.0515 6.6449 3.1566 9.8412 3.6729-1.9306 4.9284-5.9179 13.468-12.098 19.186-5.6037 5.184-24.168 13.019-44.042 6.8573-21.055-6.5361-23.756-26.5-24.436-30.155-0.69074-3.6558 0.22276-7.308 2.7387-11.193 2.5109-3.8784 2.9702-9.8223 2.9702-9.8223s15.879-10.627 29.468-47.518c4.8438-13.15 9.2593-30.407 7.308-38.376-1.7061-6.966-10.371-11.287-15.692-13.485-1.0517-5.2134-5.6572-9.1367-11.181-9.1367-6.2995 0-11.402 5.1063-11.402 11.408 0 6.2961 5.1029 11.402 11.402 11.402 2.7422 0 5.2565-0.96703 7.2269-2.5799 2.8907 2.2069 6.6121 6.9523 6.4567 13.481-0.22967 9.3629-5.0717 33.814-12.692 47.928-6.6725 12.363-20.056 21.428-29.176 18.654-26.179-7.9711-38.585-44.498-46.747-72.158-2.8994-9.8241 10.833-12.047 10.833-12.047 1.7907 3.9632 5.7659 6.7208 10.39 6.7208 6.2995 0 11.408-5.1063 11.408-11.402 0-6.3013-5.1081-11.408-11.408-11.408-4.9076 0-9.0797 3.1101-10.687 7.4582-3.2776 1.7458-7.6655 4.1737-10.156 6.0268-5.4706 4.0684-6.4428 9.7239-6.1717 14.162 0.38336 6.2442 5.5362 27.717 14.167 48.888 8.1023 19.878 26.725 34.264 26.725 34.264s0.22967 2.5125 2.2846 7.0783c2.055 4.5709 5.253 7.5411 5.253 7.5411s-0.61476 6.9298 7.9954 24.672c4.1548 8.56 17.106 24.03 43.057 24.03 28.1 0 33.841-5.3255 43.52-21.063 5.431-8.8293 7.2096-19.042 7.2096-19.042 5.2357 0.0122 9.5322-1.0068 11.946-2.8804 2.3571-1.8305 0.74082-2.9529-1.3608-6.3686-2.2466-3.6488-5.3221-1.2416-8.6014-0.75634-7.7846 1.1552-15.658-1.7355-20.385-10.7-2.0117-3.8163-3.4676-15.191 5.6174-22.236 9.0089-6.9868 33.666-4.9854 33.02 15.97-0.3022 9.7774-5.0648 12.191-3.8855 14.074 1.2572 2.01 2.0048 2.5972 3.1411 1.3262 1.9324-2.162 5.7643-6.9108 6.2236-16.679 0.41963-8.8621-3.2741-17.88-12.92-22.63m-20.354 22.881c0 3.9026 3.1636 7.0628 7.0662 7.0628 3.9026 0 7.0645-3.1601 7.0645-7.0628 0-3.9062-3.1618-7.0662-7.0645-7.0662-3.9026 0-7.0662 3.16-7.0662 7.0662"/>
</svg>
