<?xml version="1.0" encoding="UTF-8" standalone="no"?>
<svg xmlns:dc="http://purl.org/dc/elements/1.1/" xmlns:cc="http://creativecommons.org/ns#" xmlns:rdf="http://www.w3.org/1999/02/22-rdf-syntax-ns#" xmlns:svg="http://www.w3.org/2000/svg" xmlns="http://www.w3.org/2000/svg" viewBox="0 0 176 176" version="1.1">
  
  
  <path d="M 88.173828 44.365234 C 86.404791 44.345005 85.523438 45.150391 85.523438 45.150391 C 85.523438 45.150391 41.510821 69.569256 36.171875 72.876953 C 30.832927 76.184656 30.323589 78.471963 28.542969 82.033203 C 27.056691 84.997013 7.0151392 118.9806 1.3847656 130.63477 C 0.94179521 131.54694 0.0625 133.33594 0.0625 133.33594 C -0.6660668 135.51873 5.2266931 137.1251 8.2050781 138.25 C 9.2979307 138.658 9.9694936 137.97684 11.033203 135.99805 C 11.240115 135.61337 11.984375 134.16992 11.984375 134.16992 C 13.904879 130.24149 16.894058 123.39065 19.388672 118.41016 C 21.337474 114.51096 25.415632 104.64238 29.460938 95.837891 C 28.361556 105.25399 26.530328 121.437 25.232422 130.51172 C 23.830686 140.32679 30.324219 139.50391 30.324219 139.50391 C 30.324219 139.50391 78.137059 140 85.005859 140 C 91.87757 140 90.857422 132.75886 90.857422 130.01367 C 90.857422 127.71105 90.705484 80.367751 90.648438 62.626953 C 92.037472 80.023643 94.231497 107.5868 94.806641 115.56641 C 95.587703 126.4867 96.369324 136.36424 98.453125 137.66406 C 100.53984 138.96389 100.52841 139.34157 104.45703 139.48438 C 109.66508 139.67091 138.86422 139.74414 142.76953 139.74414 C 146.6865 139.74414 153.45899 140.26307 152.15625 129.3457 C 151.1229 120.70293 148.34181 102.41814 147.00391 93.6875 C 154.85982 108.21192 167.24499 131.02898 169.58594 135.46094 C 169.58594 135.46094 170.40468 137.07243 171.03125 138.02539 C 171.92302 139.38927 172.03396 139.48538 172.73047 139.67773 C 175.37079 140.4092 176.55629 139.91365 175.75195 137.99023 C 175.75195 137.99023 174.38127 135.37873 174.08984 134.79297 C 148.58705 83.787379 148.69929 84.153299 146.3125 78.980469 C 144.78543 75.675687 142.5 74.404297 142.5 74.404297 C 142.5 74.404297 99.510424 50.746057 93.912109 46.677734 C 91.461571 44.896568 89.549746 44.380968 88.173828 44.365234 z M 93.820312 50.601562 C 100.03753 54.536928 125.1679 70.836893 130.4668 73.832031 C 132.8209 75.161491 134.67362 76.251129 136.15234 77.248047 C 138.92907 80.102472 140.05664 87.462891 140.05664 87.462891 C 140.05664 87.462891 144.67284 115.34988 145.78906 125.27344 C 146.90236 135.197 144.52368 133.58059 138.05078 133.86328 C 135.4764 133.97571 122.42884 132.66287 114.51953 132.05273 C 118.45267 128.66868 122.32111 123.90049 127.50586 114.71875 C 133.70749 103.75515 125.21785 97.488039 120.60742 90.412109 C 116.39278 83.923324 97.283106 55.71263 93.820312 50.601562 z M 92.34375 51.503906 C 98.951747 62.158724 99.697849 64.183129 115.63672 90.765625 C 119.51566 97.241205 125.69977 102.5105 120.25586 112.45117 C 115.35692 121.39516 115.38819 120.77702 110.30273 125.89453 C 105.12684 131.11394 100.76605 131.54253 100.18164 131.58008 C 100.03512 131.51359 99.89283 131.44021 99.761719 131.35352 C 97.9781 130.16735 97.546305 122.52512 96.878906 112.60156 C 96.235467 103.03428 92.612812 55.06512 92.34375 51.503906 z M 85.345703 52.876953 C 85.774457 52.892617 85.903891 53.281242 86.011719 54.199219 L 86.052734 54.847656 C 86.052734 54.847656 86.150391 123.24388 86.150391 125.76758 C 86.150391 128.29129 87.023428 134.94336 81.136719 134.94336 C 75.250008 134.94336 34.283203 135.79687 34.283203 135.79688 C 34.283203 135.79688 28.758173 136.35066 29.929688 127.53516 C 31.447995 116.11436 33.854815 92.210712 34.283203 89.226562 C 34.50722 87.697274 34.623 85.927016 35.351562 84.132812 C 36.415651 82.339899 37.376645 80.973695 38.158203 80.300781 C 38.210709 80.255605 38.270117 80.211007 38.324219 80.166016 C 38.586647 79.953322 38.931501 79.691516 39.373047 79.378906 C 39.494462 79.29603 39.606528 79.212866 39.734375 79.130859 C 44.743908 75.919398 80.269723 54.939215 82.880859 53.791016 C 84.187884 53.218373 84.91695 52.861289 85.345703 52.876953 z "/>
</svg>
