<?xml version="1.0" encoding="UTF-8"?>
<svg
   xmlns:dc="http://purl.org/dc/elements/1.1/"
   xmlns:cc="http://creativecommons.org/ns#"
   xmlns:rdf="http://www.w3.org/1999/02/22-rdf-syntax-ns#"
   xmlns:svg="http://www.w3.org/2000/svg"
   xmlns="http://www.w3.org/2000/svg"
   viewBox="0 0 176 176">
  <path
     d="m 138.05134,157.86313 c -3.337,0.14573 -24.38194,-2.11877 -28.84682,-2.11877 -4.45322,0 -7.66198,0.78689 -9.442685,-0.39053 -1.783619,-1.18617 -2.214949,-8.82775 -2.882348,-18.75131 -0.667401,-9.92356 -4.686372,-63.096955 -4.686372,-63.096955 0.227313,-2.12752 3.348657,1.183251 5.578179,2.602566 2.229526,1.416404 34.261796,22.359348 37.604626,24.481039 3.34865,2.13043 4.68054,10.87366 4.68054,10.87366 0,0 4.61642,27.88798 5.73264,37.81154 1.1133,9.92356 -1.26486,8.30607 -7.73776,8.58876 m 14.10574,-4.51733 c -1.30565,-10.92029 -6.25432,-42.89719 -6.25432,-42.89719 0,0 -1.56504,-9.61755 -5.47326,-11.957818 C 136.51253,96.150524 98.453266,74.572239 95.844869,73.010118 93.245217,71.45382 89.593463,67.81081 89.33408,70.151082 c 0,0 4.686371,58.498018 5.47326,69.415398 0.781062,10.92029 1.562125,20.79722 3.645926,22.09704 2.086714,1.29983 2.075064,1.6787 6.003684,1.82151 5.20805,0.18653 34.40751,0.25938 38.31282,0.25938 3.91697,0 10.69005,0.51876 9.38731,-10.39861" />
  <path
     d="m 81.135762,158.94384 c -5.886711,0 -46.851798,0.85387 -46.851798,0.85387 0,0 -5.525348,0.5537 -4.353834,-8.2618 1.518307,-11.4208 3.925446,-35.32608 4.353834,-38.31023 0.437133,-2.98416 0.442962,-6.88338 5.449578,-10.09484 5.009533,-3.211461 40.536698,-24.190878 43.147834,-25.339077 2.614049,-1.145286 2.914211,-1.427965 3.129866,0.407989 l 0.04081,0.646955 c 0,0 0.09909,68.396573 0.09909,70.920273 0,2.52371 0.871348,9.17686 -5.015361,9.17686 m 9.721812,-4.93085 c 0,-2.7481 -0.250624,-80.423524 -0.250624,-80.423524 l -0.509988,0.746039 c -0.259366,-1.996234 0,-2.995809 -3.054094,-1.748528 -3.048267,1.247283 -44.511685,25.726671 -50.357597,29.223733 -5.851738,3.49705 -5.851738,7.74306 -6.361726,10.98949 -0.507073,3.24935 -3.31346,29.28201 -5.091127,41.71112 -1.401736,9.81507 5.091127,8.99327 5.091127,8.99327 0,0 47.81349,0.49541 54.68229,0.49541 6.871711,0 5.851738,-7.24182 5.851738,-9.98701" />
  <path
     d="m 90.459214,74.032539 1.142406,0.256458 c 7.457693,11.948631 7.419809,12.767549 24.03423,40.476713 3.87894,6.47558 10.06308,11.74464 4.61917,21.68531 -4.89894,8.94399 -4.86688,8.32616 -9.95234,13.44367 -5.54882,5.59547 -10.345761,5.71494 -10.345761,5.71494 0,0 -2.587899,-0.92674 -3.02213,-6.93895 -0.419658,-5.81111 -4.989283,-69.893662 -5.298198,-74.198082 M 120.60765,114.41308 C 116.00597,107.32842 91.677391,71.432983 91.677391,71.432983 L 89.99584,70.949209 c 0.358459,4.703681 5.790715,74.778031 6.28906,81.128291 0.510001,6.57468 3.587503,7.58592 3.587503,7.58592 0,0 7.285757,1.92636 12.152637,-1.61742 4.86396,-3.53797 9.20919,-8.22125 15.48076,-19.32765 6.20163,-10.9636 -2.28772,-17.22934 -6.89815,-24.30527" />
  <path
     d="m 175.75161,161.99069 c 0.80434,1.92342 -0.38178,2.41884 -3.0221,1.68737 -0.69651,-0.19235 -0.80725,-0.28852 -1.69902,-1.6524 -0.62657,-0.95296 -1.44548,-2.56455 -1.44548,-2.56455 -3.35724,-6.35603 -27.86627,-51.42816 -29.12523,-53.93735 -1.27354,-2.54416 -4.14118,-4.38598 -9.99304,-7.690761 -5.85186,-3.307696 -37.136566,-23.658057 -38.917186,-24.675138 -1.774791,-1.017081 -2.981301,0.06119 -6.286085,2.098275 -3.301871,2.034163 -42.475514,25.182224 -47.056747,28.997004 -4.578321,3.8177 -15.256213,31.03117 -18.817455,38.15656 -2.494614,4.98049 -5.484658,11.83195 -7.405162,15.76038 0,0 -0.743141,1.44257 -0.950053,1.82725 -1.0637094,1.97879 -1.7369073,2.66073 -2.8297599,2.25273 -2.978385,-1.1249 -8.87104238,-2.73067 -8.14247558,-4.91346 0,0 0.88010987,-1.78936 1.32308028,-2.70153 5.6303736,-11.65417 25.6718202,-45.6375 27.1580982,-48.60131 1.78062,-3.56124 2.290617,-5.84894 7.629565,-9.156643 5.338946,-3.307697 49.350278,-27.726382 49.350278,-27.726382 0,0 2.78896,-2.544157 8.39019,1.52708 5.598315,4.068323 48.586742,27.726382 48.586742,27.726382 0,0 2.28479,1.270621 3.81186,4.575403 2.38679,5.17283 2.27605,4.80855 27.77884,55.81414 0.29143,0.58576 1.66114,3.19695 1.66114,3.19695" />
</svg>
