<?xml version="1.0" encoding="UTF-8"?>
<svg version="1.1" viewBox="0 0 192 192" xmlns="http://www.w3.org/2000/svg">
 <path d="m96.189 43.836c-1.9299-0.02207-2.8913 0.85654-2.8913 0.85654s-48.014 26.639-53.838 30.247c-5.8243 3.6084-6.38 6.1037-8.3225 9.9887-1.6214 3.2333-23.485 40.306-29.627 53.02-0.48324 0.9951-1.4425 2.9467-1.4425 2.9467-0.7948 2.3812 5.6337 4.1336 8.8828 5.3608 1.1922 0.44509 1.9248-0.298 3.0852-2.4567 0.22572-0.41965 1.0376-1.9943 1.0376-1.9943 2.0951-4.2856 5.356-11.759 8.0774-17.192 2.126-4.2537 6.5749-15.019 10.988-24.624-1.1993 10.272-3.197 27.926-4.6129 37.826-1.5292 10.707 5.5547 9.8097 5.5547 9.8097s52.16 0.54119 59.653 0.54119c7.4964 0 6.3835-7.8994 6.3835-10.894 0-2.512-0.16575-54.159-0.22799-73.513 1.5153 18.978 3.9088 49.047 4.5362 57.752 0.85207 11.913 1.7047 22.689 3.978 24.107 2.2764 1.418 2.264 1.83 6.5497 1.9858 5.6815 0.20349 37.535 0.28338 41.796 0.28338 4.2731 0 11.661 0.56611 10.24-11.344-1.1273-9.4285-4.1612-29.376-5.6207-38.9 8.5701 15.845 22.081 40.736 24.635 45.571 0 0 0.89317 1.758 1.5767 2.7976 0.97284 1.4879 1.0939 1.5927 1.8537 1.8026 2.8804 0.79797 4.1736 0.25737 3.2962-1.8409 0 0-1.4953-2.8489-1.8132-3.4879-27.821-55.643-27.699-55.243-30.303-60.886-1.6659-3.6052-4.1591-4.9922-4.1591-4.9922s-46.898-25.809-53.005-30.247c-2.6733-1.9431-4.7589-2.5056-6.2599-2.5227zm6.1598 6.8033c6.7824 4.2931 34.197 22.075 39.978 25.342 2.5681 1.4503 4.5893 2.639 6.2024 3.7266 3.0292 3.1139 4.2592 11.143 4.2592 11.143s5.0359 30.422 6.2536 41.248c1.2145 10.826-1.3804 9.0624-8.4418 9.3708-2.8084 0.12265-17.042-1.3095-25.67-1.9752 4.2907-3.6917 8.5108-8.8934 14.167-18.91 6.7654-11.96-2.496-18.797-7.5256-26.516-4.5978-7.0787-25.445-37.854-29.222-43.43zm-1.6108 0.98438c7.2087 11.623 8.0227 13.832 25.411 42.831 4.2316 7.0643 10.978 12.813 5.0391 23.657-5.3443 9.7571-5.3102 9.0828-10.858 14.666-5.6464 5.6939-10.404 6.1615-11.041 6.2024-0.15984-0.0726-0.31506-0.15259-0.45809-0.24716-1.9458-1.294-2.4168-9.631-3.1449-20.457-0.70194-10.437-4.6539-62.767-4.9475-66.652zm-7.6342 1.4979c0.46774 0.01708 0.60894 0.44104 0.72657 1.4425l0.0447 0.70739s0.10654 74.614 0.10654 77.367c0 2.7531 0.9524 10.01-5.4695 10.01-6.4219 0-51.113 0.9311-51.113 0.93111 0 0-6.0273 0.60413-4.7493-9.0128 1.6563-12.459 4.282-38.536 4.7493-41.791 0.24438-1.6683 0.37069-3.5995 1.1655-5.5568 1.1608-1.9559 2.2092-3.4463 3.0618-4.1804 0.05728-0.04929 0.12209-0.09793 0.18111-0.14702 0.28629-0.23203 0.66249-0.51764 1.1442-0.85867 0.13245-0.09041 0.25471-0.18114 0.39418-0.2706 5.465-3.5034 44.22-26.391 47.069-27.644 1.4258-0.6247 2.2212-1.0142 2.6889-0.99716z"/>
</svg>
